<svg width="18" height="11" viewBox="0 0 18 11" fill="none" xmlns="http://www.w3.org/2000/svg">
<path d="M4.91098 0H5.21424C5.34666 0.0719318 5.49461 0.0425051 5.63357 0.0580358C6.80921 0.189571 7.90168 0.728623 8.72134 1.58162C9.54099 2.43461 10.0361 3.54769 10.1207 4.72764C10.2053 5.90758 9.874 7.0799 9.1844 8.04109C8.4948 9.00228 7.49039 9.69165 6.34553 9.98954C6.08151 10.0582 5.81585 10.1236 5.5502 10.1906H4.54152C4.46359 10.128 4.36757 10.0922 4.26768 10.0884C2.16368 9.71897 0.578724 8.19533 0.127515 6.11094C0.0915494 5.94746 0.0874626 5.77008 0 5.62049V4.64124C0.0140631 4.61831 0.0255752 4.59392 0.034331 4.56849C0.101358 4.28076 0.155307 3.98895 0.233779 3.70367C0.499292 2.73678 1.04923 1.872 1.81226 1.22149C2.57529 0.570987 3.51619 0.164786 4.51291 0.0555837C4.64287 0.040053 4.7851 0.070297 4.91098 0Z" fill="white" fill-opacity="0.8"/>
<path d="M15.6622 5.07217C15.6328 6.29828 15.4677 7.48679 14.8448 8.56903C14.6933 8.8441 14.5071 9.0985 14.2906 9.32595C13.5598 10.0616 12.6239 10.0453 11.9152 9.28345C11.2833 8.60418 10.9498 7.78596 10.7839 6.88926C10.5477 5.6092 10.5027 4.33078 10.8305 3.05889C10.9956 2.37731 11.2816 1.73086 11.6749 1.15025C12.1768 0.429293 12.9566 0.160366 13.7184 0.43665C14.0977 0.574791 14.3723 0.845353 14.5914 1.17232C15.1283 1.98272 15.4665 2.90826 15.5788 3.87385C15.6268 4.27163 15.6546 4.67158 15.6622 5.07217V5.07217Z" fill="white" fill-opacity="0.8"/>
<path d="M17.0381 0.851562C17.061 0.878537 17.0708 0.892433 17.0831 0.903877C17.5449 1.37797 17.625 1.98776 17.697 2.60408C17.7893 3.38798 17.8923 4.17105 17.9912 4.95413C18.0264 5.23123 17.9569 5.50016 17.925 5.77154C17.8196 6.65515 17.7174 7.53959 17.5678 8.41748C17.5212 8.69295 17.3594 8.89567 17.2 9.10492C17.0242 9.33625 17.0406 9.32072 16.8477 9.11473C16.5044 8.74526 16.4333 8.28261 16.3515 7.81914C16.1247 6.54394 16.0568 5.24552 16.1496 3.95362C16.2062 3.18833 16.322 2.42859 16.4962 1.68123C16.5608 1.40413 16.7651 1.20713 16.9294 0.989705C16.9637 0.944747 16.9989 0.898972 17.0381 0.851562Z" fill="white" fill-opacity="0.8"/>
</svg>
