<svg width="13" height="15" viewBox="0 0 13 15" fill="none" xmlns="http://www.w3.org/2000/svg">
<path d="M0 12.8987V11.0663C0.0502142 11.0051 0.0292155 10.9312 0.0292155 10.8627C0.0292155 9.87181 0.0292155 8.88061 0.0292155 7.88911C0.0292155 7.35045 0.0292155 6.81118 0.0292155 6.2713C0.0410843 5.3647 0.0511271 4.45719 0.0648219 3.54969C0.0702998 3.16989 0.0538663 2.78734 0.127818 2.41211C0.243767 1.82049 0.368846 1.23162 0.484795 0.640915C0.565138 0.233724 0.746822 0.0575178 1.1604 0.00182566C1.3074 0.00182566 1.45347 0.00730335 1.59955 0.00730335C3.62273 0.00730335 5.6459 0.00730335 7.66908 0.00730335C8.41316 0.00730335 9.15816 0.00730388 9.90224 0C10.5998 0 11.2973 0.0164337 11.9939 0.00639087C12.2415 -0.000943049 12.4825 0.0873291 12.6668 0.252897C12.7708 0.344195 12.8594 0.456493 13 0.49849V8.39125C12.9209 8.44121 12.8511 8.50453 12.7937 8.57841C11.479 9.9278 10.1752 11.2882 8.82674 12.6047C8.64415 12.78 8.47251 12.9626 8.23604 13.0703C7.87085 13.2392 7.48466 13.2529 7.08477 13.2346C6.11609 13.1789 5.28892 13.4611 4.72835 14.312C4.60503 14.5002 4.42454 14.6439 4.21343 14.7219C3.91732 14.8223 3.60028 14.8443 3.29314 14.7858C2.95351 14.7356 2.79921 14.5658 2.74535 14.2261C2.7121 13.9937 2.70018 13.7587 2.70974 13.5241C2.70974 13.3661 2.67231 13.3122 2.50523 13.315C1.76571 13.3241 1.02528 13.315 0.285764 13.3205C0.175293 13.3205 0.115949 13.2985 0.0922117 13.178C0.0871163 13.0783 0.0552638 12.9818 0 12.8987V12.8987ZM4.47363 11.7675C4.6231 11.6668 4.76063 11.5495 4.88356 11.4178C5.83398 10.2501 7.06925 9.78903 8.55011 9.96797C8.95882 10.0146 9.37216 9.93802 9.73699 9.74795C10.4372 9.40192 10.9558 8.845 11.4607 8.26891C11.7533 7.9403 11.9117 7.51373 11.9044 7.07381C11.9135 5.4487 11.9215 3.82297 11.9282 2.19664C11.9455 1.97463 11.9418 1.75148 11.9172 1.53016C11.8661 1.24714 11.7163 1.10197 11.4306 1.0545C11.2486 1.03605 11.0654 1.03239 10.8828 1.04354C8.1064 1.03533 5.33092 1.05998 2.55453 1.03167C1.88349 1.02437 1.70911 1.20331 1.71002 1.87253C1.71002 3.87441 1.71337 5.87597 1.72006 7.87724C1.72006 8.39399 1.7018 8.91074 1.72006 9.42931C1.73467 9.86755 1.95105 10.0602 2.38563 10.0383C3.02472 10.0063 3.66381 10.0228 4.3029 10.0246C4.43893 10.0246 4.4855 10.0593 4.47819 10.1999C4.46906 10.7075 4.47454 11.2179 4.47454 11.7675H4.47363Z" fill="white" fill-opacity="0.8"/>
<path d="M5.214 5.25235C5.214 4.80681 5.214 4.36128 5.214 3.91574C5.214 3.80983 5.24413 3.75597 5.34729 3.73314C5.49429 3.69754 5.63762 3.64184 5.78553 3.6108C6.04664 3.55876 6.18633 3.66102 6.24202 3.92122C6.27589 4.1294 6.28935 4.34038 6.28219 4.55118C6.28219 5.21948 6.27489 5.88779 6.28219 6.55975C6.29041 7.05732 5.96721 7.21436 5.49703 7.09841C5.31443 7.05367 5.24048 6.90759 5.21309 6.73321C5.17292 6.47027 5.22313 6.20733 5.21309 5.94348C5.20487 5.71523 5.21309 5.48699 5.21309 5.25874L5.214 5.25235Z" fill="white" fill-opacity="0.8"/>
<path d="M9.64874 5.09354C9.64874 5.56829 9.64874 6.04304 9.64874 6.51688C9.64874 6.66844 9.35019 7.04824 9.21598 7.07654C9.1934 7.07904 9.17074 7.07247 9.15299 7.05828C8.99801 6.9528 8.85232 6.8343 8.71749 6.70405C8.66746 6.64603 8.63907 6.57247 8.63715 6.49589C8.57401 5.77824 8.57156 5.05655 8.62985 4.3385C8.63473 4.23337 8.6631 4.13066 8.71286 4.03792C8.76263 3.94518 8.83253 3.86477 8.91744 3.80258C9.05895 3.69758 9.1959 3.58711 9.34015 3.4876C9.38945 3.45382 9.42141 3.35795 9.51179 3.42186C9.60218 3.48577 9.667 3.52686 9.66426 3.65285C9.65604 4.13308 9.66426 4.61331 9.66426 5.09354H9.64874Z" fill="white" fill-opacity="0.8"/>
</svg>
