<svg width="16" height="12" viewBox="0 0 16 12" fill="none" xmlns="http://www.w3.org/2000/svg">
<path d="M10.2596 0H10.2846C10.3927 0.0504832 10.5108 0.0755954 10.6301 0.0734181C11.7253 0.152019 12.8223 0.196933 13.9123 0.304038C14.7847 0.390412 15.4593 0.872382 15.6502 1.79313C15.8021 2.5801 15.9025 3.37615 15.9508 4.1762C15.9646 4.35673 15.9508 4.53898 16 4.71604V6.54718C15.962 6.56273 15.9767 6.59642 15.975 6.62233C15.9313 7.53098 15.8303 8.43597 15.6726 9.33189C15.5863 9.832 15.3608 10.2544 14.9402 10.5558C14.5593 10.8279 14.1214 10.9134 13.6636 10.9367C13.1678 10.9626 12.672 10.9842 12.1771 11.0231C11.3202 11.0948 10.4643 11.1656 9.60484 11.1864C9.43209 11.1864 9.2507 11.1587 9.07622 11.2097H6.89873C6.88318 11.1717 6.84949 11.1864 6.82272 11.1846C6.35975 11.1665 5.89592 11.1535 5.43295 11.1302C4.31008 11.0749 3.18722 10.992 2.0704 10.9108C1.20665 10.8486 0.559706 10.3209 0.375729 9.477C0.206984 8.65096 0.0978713 7.81384 0.0492334 6.97214C0.0362772 6.79939 0.0492334 6.61801 0 6.44612V5.19283C0.0475059 5.05204 0.0233215 4.9078 0.0233215 4.76096C0.060947 3.84771 0.156729 2.93778 0.310085 2.03671C0.37141 1.6653 0.472468 1.31116 0.707407 1.00885C1.06241 0.552796 1.55647 0.362773 2.1084 0.298855C3.19067 0.172749 4.27813 0.10365 5.36385 0.0164114C5.38458 0.0164114 5.40531 0.0215936 5.42604 0.0215936H10.1559C10.1913 0.0250486 10.2319 0.037141 10.2596 0ZM10.5869 5.61434L6.45735 3.23818V7.98877L10.5869 5.61434Z" fill="white" fill-opacity="0.8"/>
</svg>
