<svg xmlns="http://www.w3.org/2000/svg" viewBox="0 0 300.19 105.22"><defs><style>.cls-1{fill:#a3aaaa;}</style></defs><g id="Layer_2" data-name="Layer 2"><g id="Layer_1-2" data-name="Layer 1"><path class="cls-1" d="M300.19,105H288.64V84.21h2.29v18.47h1.36l7.9.1Z"/><path class="cls-1" d="M162.19,41c.23-.3.44-.55.63-.81q7.88-10.83,15.77-21.66a62.13,62.13,0,0,1,5.2-6.81A37,37,0,0,1,204.72,1.05a71.78,71.78,0,0,1,11.53-1c14.81-.11,29.63,0,44.44,0h1.36a7.65,7.65,0,0,1-.41.71c-4.09,5.31-8.19,10.61-12.25,15.93a1.65,1.65,0,0,1-1.55.63c-10.81,0-21.62,0-32.43,0-4.52,0-8.86.9-12.56,3.62a20.72,20.72,0,0,0-4.32,4.25c-5,6.72-9.73,13.59-14.67,20.34q-6,8.15-12.14,16.13a19.86,19.86,0,0,1-3.92,3.68c-3.87,2.85-8.05,2.78-12,0a24.83,24.83,0,0,1-5.55-5.84Q135.2,38.81,120.12,18.13a1.79,1.79,0,0,0-1.62-.86l-53.25,0a8,8,0,0,0-2.07.24A2.26,2.26,0,0,0,61.28,20a2.31,2.31,0,0,0,2,2.37,10.88,10.88,0,0,0,2.28.22c11.47,0,23-.06,34.43,0,7.09.06,13.74,1.81,19.45,6.22,7.86,6.05,10.23,16.24,5.78,24.76-2.19,4.21-5.74,7-9.86,9.2a32.16,32.16,0,0,1-15,3.57c-20.45.06-40.9,0-61.35,0H38c.86-1.11,1.59-2.08,2.34-3,3.45-4.46,6.91-8.9,10.33-13.37a1.8,1.8,0,0,1,1.59-.77q23.37,0,46.74,0a13.59,13.59,0,0,0,6.54-1.55c1.33-.72,2.36-1.68,2.33-3.33a3.68,3.68,0,0,0-2.4-3.28,14.05,14.05,0,0,0-6.41-1.31c-11.51,0-23,0-34.53,0a32.57,32.57,0,0,1-17.2-4.43c-3.52-2.15-6.46-4.88-8-8.8C36.65,19.59,37.86,10.56,46.5,5A32.11,32.11,0,0,1,62.76.09c.83,0,1.66-.07,2.5-.07q33.08,0,66.16,0a2,2,0,0,1,1.86,1q14.06,19.5,28.15,39Z"/><path class="cls-1" d="M184.3,54.5l12.24-16.38c.11.06.2.07.21.11,2.28,5.85,6.86,8.91,12.71,10.32a24.89,24.89,0,0,0,5.64.64c15.41.05,30.82,0,46.23,0h.76c-.22.34-.35.59-.51.81q-6.09,7.86-12.2,15.71a1.7,1.7,0,0,1-1.11.62c-11.88,0-23.75.18-35.62-.07a40.3,40.3,0,0,1-25.47-9.19C186.21,56.29,185.31,55.41,184.3,54.5Z"/><path class="cls-1" d="M40.81,84.16c1.75,0,3.37,0,5,0,.26,0,.57.4.73.68,1.36,2.41,2.69,4.83,4,7.24.16.29.33.56.58,1,.64-1.17,1.23-2.23,1.81-3.3.87-1.61,1.77-3.21,2.6-4.84a1.25,1.25,0,0,1,1.29-.81c3,0,6.07,0,9.11,0a1,1,0,0,1,1.2.85c1.6,4.69,3.24,9.36,5,14.31.21-.56.35-.9.47-1.24,1.53-4.36,3.06-8.72,4.55-13.1a1,1,0,0,1,1.12-.81c1.49,0,3,0,4.64,0-.14.41-.23.71-.34,1-2.48,6.31-5,12.62-7.43,18.95a1.19,1.19,0,0,1-1.38.9c-1.49-.06-3,0-4.51,0l-8-20.46c-.21.32-.37.53-.5.77-2.2,4.1-4.42,8.2-6.59,12.32a3.4,3.4,0,0,0-.37,1.51c0,1.92,0,3.84,0,5.81H48.5c0-1.72,0-3.41,0-5.1a4.92,4.92,0,0,0-.69-2.64c-2.25-4.08-4.45-8.18-6.67-12.28C41.05,84.71,41,84.5,40.81,84.16Z"/><path class="cls-1" d="M147,104.92V84.15c1.5,0,3,0,4.4,0,.28,0,.6.37.8.63q4.09,5.43,8.16,10.87c.23.32.48.63.86,1.13V84.23h5V105c-1.46,0-2.91,0-4.37,0-.27,0-.59-.37-.79-.63-2.75-3.65-5.47-7.31-8.21-11-.19-.26-.4-.52-.77-1v12.55Z"/><path class="cls-1" d="M133,84c5.33,0,9.63,3.1,10.87,7.75,1.92,7.17-3.5,13.72-11.17,13.51-5.65-.16-10.07-3.73-10.87-8.77C120.71,89.46,125.67,83.91,133,84Zm5.74,10.37c-.21-3.57-2.86-6.12-6.1-5.9a6.18,6.18,0,1,0,6.1,5.9Z"/><path class="cls-1" d="M26.11,104.92H20.79V84.24h5.32v8.82l3.46-3.89c1.33-1.49,2.63-3,4-4.48a1.61,1.61,0,0,1,1-.52c1.79,0,3.59,0,5.68,0l-7.71,8.62L40.76,105a22,22,0,0,0-3.27,0c-2.39.39-3.87-.53-5-2.65a64,64,0,0,0-3.65-5.52c-.91,1-1.76,1.92-2.56,2.87a1.45,1.45,0,0,0-.18.84C26.11,102,26.11,103.41,26.11,104.92Z"/><path class="cls-1" d="M0,101.86l2-4a24.2,24.2,0,0,0,3.13,1.78,30,30,0,0,0,4.19,1.2,3.29,3.29,0,0,0,1.39-.09,1.72,1.72,0,0,0,1.54-1.37,1.64,1.64,0,0,0-1-1.85,25.19,25.19,0,0,0-2.43-.9c-1.35-.46-2.74-.82-4.06-1.36A5.08,5.08,0,0,1,1.3,90.3,5.53,5.53,0,0,1,4.47,85c3.05-1.56,6.26-1.41,9.46-.54a41.84,41.84,0,0,1,4,1.58l-2,4.07c-2-.64-4-1.29-5.94-1.82a3.45,3.45,0,0,0-2,.1A1.81,1.81,0,0,0,7,89.51a1.76,1.76,0,0,0,.63,1.42,8.81,8.81,0,0,0,2.24,1c1.56.57,3.21,1,4.71,1.65a5.66,5.66,0,0,1,2.29,8.57,6.22,6.22,0,0,1-3.4,2.36C8.57,106,4.17,104.8,0,101.86Z"/><path class="cls-1" d="M92.81,101.78l2-4.07a13.29,13.29,0,0,0,6.19,2.93,6.93,6.93,0,0,0,2.94-.13,1.52,1.52,0,0,0,.34-2.8,13.67,13.67,0,0,0-2.76-1.13c-1.37-.49-2.81-.84-4.15-1.41a5,5,0,0,1-3.32-4.79A5.47,5.47,0,0,1,97,85.17a11.91,11.91,0,0,1,8.93-.85A47.2,47.2,0,0,1,110.76,86c-.78,1.62-1.43,2.95-2,4.14-2-.64-3.91-1.29-5.85-1.83a3.18,3.18,0,0,0-1.86.05c-.51.19-1.16.71-1.24,1.17a2.06,2.06,0,0,0,.78,1.53,7.4,7.4,0,0,0,2.09.91c1.53.55,3.12,1,4.61,1.61A5.25,5.25,0,0,1,110.7,99a5.55,5.55,0,0,1-3.64,5.26c-4.22,1.76-8.28,1-12.21-1a16.5,16.5,0,0,1-1.44-.9C93.22,102.16,93.06,102,92.81,101.78Z"/><path class="cls-1" d="M220.63,105a21.1,21.1,0,0,1-2.11,0,1,1,0,0,1-.67-.56c-.62-1.29-1.21-2.59-1.75-3.92a1,1,0,0,0-1.09-.75q-4.9,0-9.81,0a1,1,0,0,0-1.11.72c-.49,1.2-1.09,2.36-1.54,3.57-.28.75-.66,1.08-1.46,1a13.35,13.35,0,0,0-1.57,0l1.13-2.52q3.93-8.79,7.86-17.57c.23-.52.5-.88,1.1-.74s1.59-.46,2,.52q4.47,10,8.92,20A1.5,1.5,0,0,1,220.63,105Zm-5.92-7.62-4.65-10.42-4.58,10.42Z"/><path class="cls-1" d="M285.29,105a19.29,19.29,0,0,1-2.17,0,1.08,1.08,0,0,1-.67-.56c-.61-1.3-1.19-2.6-1.72-3.93a1,1,0,0,0-1.13-.72c-3.26,0-6.53,0-9.8,0a1,1,0,0,0-1.09.75c-.48,1.2-1.09,2.36-1.54,3.57a1.2,1.2,0,0,1-1.47.94,12.47,12.47,0,0,0-1.51,0c.15-.37.25-.67.38-1,2.84-6.34,5.72-12.67,8.51-19,.39-.89.95-.85,1.65-.84s1.31-.08,1.73.86c2.78,6.41,5.67,12.77,8.52,19.14C285.09,104.39,285.16,104.63,285.29,105Zm-15.17-7.66h9.2c-1.55-3.48-3.06-6.85-4.64-10.38Z"/><path class="cls-1" d="M226.37,98.38v6.53H224V84.22a7.33,7.33,0,0,1,.83-.07c2.47,0,4.94,0,7.41,0a12.12,12.12,0,0,1,2.08.21,7.08,7.08,0,0,1,4,11.67,7.51,7.51,0,0,1-5.67,2.33C230.57,98.43,228.54,98.38,226.37,98.38Zm0-2.3c2.7-.11,5.37.33,8-.41a4.53,4.53,0,0,0,3-6,4.11,4.11,0,0,0-4-3.07c-2.22-.18-4.46-.08-6.69-.1-.09,0-.17.09-.26.15Z"/><path class="cls-1" d="M90.21,105H85V84.23h5.2Z"/><path class="cls-1" d="M113.61,104.94V84.23h5.22v20.71Z"/><path class="cls-1" d="M197,100.23l1.36,1.54a10.84,10.84,0,0,1-14.76.79,10.44,10.44,0,0,1-1-15c4.15-4.45,11.72-4.69,15.8-.41L197,88.94a8.8,8.8,0,0,0-8.3-2.34,8.09,8.09,0,0,0-4.8,3.2,7.93,7.93,0,0,0,.84,10.4C188,103.47,192.41,103.49,197,100.23Z"/><path class="cls-1" d="M256.53,86.5h-6.76V84.21h15.87v2.24h-6.7v18.47h-2.41Z"/><path class="cls-1" d="M243.91,84.19h2.31v20.72h-2.31Z"/></g></g></svg>