<svg xmlns="http://www.w3.org/2000/svg" viewBox="0 0 485.6 114.78"><defs><style>.cls-1{fill:#a3aaaa;}</style></defs><g id="Layer_2" data-name="Layer 2"><g id="Layer_1-2" data-name="Layer 1"><path class="cls-1" d="M297.39,56.57c0,4.32,0,8.63,0,12.95,0,1.68-.73,3.89.32,4.9s3.25.16,4.93.32c1.2.11,1.55-.3,1.52-1.5-.07-3.83.08-7.66-.07-11.49-.07-1.75.54-2.06,2.12-2,4.51.1,9,0,13.52.06,1.07,0,1.57-.2,1.46-1.39a21.19,21.19,0,0,1,0-3.65c.13-1.27-.42-1.48-1.55-1.46-4.69.05-9.38,0-14.06,0-1,0-1.54-.16-1.47-1.36a56.88,56.88,0,0,0,0-5.84c0-1.05.3-1.33,1.32-1.31,3.84.06,7.67,0,11.51,0,4.71,0,4.66,0,4.63-4.76,0-1.17-.38-1.39-1.46-1.38-7.06,0-14.13.06-21.19,0-1.34,0-1.58.43-1.57,1.65C297.42,45.75,297.39,51.16,297.39,56.57Zm48.48-6.06c.16-1.7-.62-1.87-1.74-1.77a20,20,0,0,1-3.46,0c-1.16-.1-1.43.32-1.42,1.43q.08,11.56,0,23.14c0,1.24.41,1.57,1.56,1.46,1.61-.16,3.77.67,4.7-.34s.23-3,.29-4.57c.11-3.46-.34-6.94.25-10.37a6,6,0,0,1,6.69-5.1c3.18.28,4.9,2.38,4.92,6.06,0,3.1,0,6.2,0,9.29,0,1.63-.71,3.86.3,4.72s3.14.18,4.77.28c1.07.06,1.5-.22,1.48-1.39-.06-4.92.06-9.84-.05-14.76-.12-5.45-3.25-9.42-8.26-10.3C352.52,47.69,349.12,47.85,345.87,50.51Zm59.7.06c.33-1.64-.33-1.93-1.52-1.83a20,20,0,0,1-3.46,0c-1.23-.11-1.51.36-1.5,1.53.06,6.51,0,13,0,19.51,0,1.57-.52,3.66.28,4.57.93,1.08,3.09.18,4.69.39,1.39.17,1.57-.48,1.55-1.66-.07-3.7,0-7.41,0-11.12a8.94,8.94,0,0,1,1.05-4.55,5.91,5.91,0,0,1,6.68-2.87c2.59.6,4,2.32,4.08,5.28.09,4.5.06,9,0,13.49,0,1.11.29,1.52,1.43,1.43a25.77,25.77,0,0,1,3.83,0c1.1.08,1.31-.37,1.3-1.35,0-5,0-10,0-15a11,11,0,0,0-2.1-6.46C418.62,47.46,410.25,46.68,405.57,50.57ZM454,66.13c-1.83,0-3.63,0-5.44,0a1.54,1.54,0,0,0-1.41.6c-1.89,2.44-4.48,2.8-7.22,2S436,65.65,435.62,63c-.52-3.43.92-6.62,3.54-7.95s5.49-.74,8.06,1.73a1.42,1.42,0,0,0,1.08.53c1.92,0,3.84,0,5.8,0a12.48,12.48,0,0,0-14.92-9A13.07,13.07,0,0,0,429,60.39c-.51,6.44,2.79,12.08,8.3,14.2C444.36,77.31,452.44,73.27,454,66.13Zm-228.45-4.4c0,1.76-.05,3.53,0,5.29.15,4.37,2.62,7.09,6.9,7.84,1.82.31,3.65.08,5.46.25,1.42.13,1.72-.4,1.7-1.73,0-4.32,0-4.32-4.29-4.38-2.28,0-3.16-.77-3.22-3-.08-3.28,0-6.56,0-9.84,0-1,.38-1.08,1.18-1.06,1.76,0,3.53,0,5.29,0,.77,0,1-.22,1.07-1,.37-5,.39-5-4.6-5a4.45,4.45,0,0,0-.73,0c-1.69.28-2.32-.27-2.24-2.11.16-3.8,0-3.81-3.85-3.81-2.64,0-2.64,0-2.64,2.56,0,3.24,0,3.27-3.27,3.33-.92,0-1.37.2-1.23,1.2a11.84,11.84,0,0,1,0,1.46c0,3.24,0,3.3,3.22,3.32,1.1,0,1.33.38,1.29,1.36C225.54,58.2,225.59,60,225.59,61.73Zm49.15-4.86c0,4.49,0,9,0,13.47,0,1.52-.51,3.53.26,4.41s3,.16,4.5.35,1.82-.36,1.81-1.79c-.06-9.83,0-19.66-.05-29.5,0-1.62.7-3.75-.27-4.74s-3.22-.17-4.89-.37c-1.19-.14-1.39.36-1.38,1.43C274.77,45.71,274.74,51.29,274.74,56.87ZM172,62.14c0-2.61,0-5.22,0-7.82,0-1.68.74-3.93-.3-4.88s-3.37-.19-5.12-.33c-.87-.07-1.13.23-1.12,1.11q0,11.82,0,23.65c0,.91.2,1.31,1.2,1.24a24.49,24.49,0,0,1,3.83,0c1.19.09,1.57-.29,1.55-1.51C172,69.78,172,66,172,62.14Zm43.65,0c0-3.94,0-7.88,0-11.83,0-.91-.19-1.3-1.19-1.24-1.39.09-2.79,0-4.19,0-.79,0-1.2.12-1.2,1.07,0,8,0,15.9,0,23.85,0,.77.23,1.09,1,1.06a35.76,35.76,0,0,1,4,0c1.15.08,1.55-.24,1.53-1.47C215.64,69.82,215.69,66,215.69,62.17ZM327,61.69c0,2.73,0,5.46,0,8.19,0,1.57-.67,3.72.28,4.55s3,.15,4.56.32,1.65-.53,1.64-1.77c-.05-6.38,0-12.75,0-19.13,0-1.63.55-3.81-.28-4.74s-3.21-.19-4.88-.36c-1-.1-1.34.24-1.32,1.28C327,53.92,327,57.8,327,61.69ZM168.53,44.89h1.09c2.72,0,2.72,0,2.72-2.62,0-3.55,0-3.55-3.82-3.55-3.32,0-3.32,0-3.32,3.11S165.2,44.89,168.53,44.89Zm43.93,0c3.23,0,3.23,0,3.23-2.77,0-3.4,0-3.4-3.53-3.4-3,0-3,0-3,2.89C209.15,44.89,209.15,44.89,212.46,44.89Zm117.8-.36c3.19,0,3.19,0,3.19-2.68,0-3.13,0-3.13-3.32-3.13-3.15,0-3.15,0-3.15,2.7C327,44.53,327,44.53,330.26,44.53Z"/><path class="cls-1" d="M485.6,63.83c-5.78,0-11.56.07-17.33.14-.55,0-1.33-.39-1.63.34s.25,1.15.55,1.67c1.87,3.11,6.81,4.2,9.6,1.94a4.6,4.6,0,0,1,3.45-1.12c.85,0,1.7,0,2.56,0,2.42,0,2.47.07,1.29,2.12a13.08,13.08,0,0,1-14.55,6.13,13.23,13.23,0,0,1-9.86-11.76c-.56-7.3,3.12-13.12,9.37-14.82a12.62,12.62,0,0,1,16.2,10.61c0,.28-.05.62.35.73Zm-18.93-5c3.48,0,6.92-.06,10.36,0,1.63,0,1.52-.6,1-1.71-1.1-2.25-3.35-3.4-6.22-3.12A5.73,5.73,0,0,0,466.67,58.78Z"/><path class="cls-1" d="M197.26,50.89c-.36-1.83.61-1.87,1.74-1.77,1.5.13,3.47-.64,4.4.28s.26,2.89.27,4.39c0,6.74.05,13.49,0,20.24,0,5.42-2.1,9.71-7.36,11.89-7.32,3-15.53-.38-18.15-7.44-.1-.27-.15-.57-.29-1.12,2.22,0,4.3,0,6.39,0,.64,0,.77.47,1.05.84a7,7,0,0,0,8.08,1.9,6.19,6.19,0,0,0,3.72-6.47c-.15,0-.35-.06-.47,0-7.18,4.6-15.5,1.66-18.37-6.49-2.1-6-.16-13.08,4.48-16.47A12.28,12.28,0,0,1,197.26,50.89Zm.15,11.19c0-4.41-2.67-7.32-6.76-7.36a7,7,0,0,0-6.74,7.12c-.06,4.24,2.91,7.59,6.68,7.57C194.63,69.38,197.41,66.39,197.41,62.08Z"/><path class="cls-1" d="M129.42,56.92c0-5.52,0-11.05,0-16.57,0-1.2.2-1.73,1.56-1.67,5,.23,10.12-.47,15.1.57a17.58,17.58,0,0,1,13.86,20.38c-1.58,9.46-8.17,15.21-17.8,15.44-3.77.09-7.55,0-11.32.05-1.16,0-1.41-.34-1.4-1.44C129.45,68.1,129.42,62.51,129.42,56.92Zm6.83,0c0,3.52,0,7,0,10.57,0,.78.08,1.23,1.06,1.19,1.88-.09,3.78,0,5.65-.1a11,11,0,0,0,10.25-10.42c.39-6.57-2.94-11.33-8.77-12.61-2.29-.51-4.6-.17-6.9-.33-1.06-.07-1.31.31-1.3,1.32C136.28,50,136.25,53.43,136.25,56.89Z"/><path class="cls-1" d="M262.84,73.26a13.4,13.4,0,0,1-12.11,1.89c-3.58-1-5.51-3.87-5.58-7.83s1.39-6.16,5.18-7.6c3.4-1.3,6.95-.91,10.46-1,.65,0,1.62.47,1.9-.38s-.32-1.62-.93-2.25c-2.25-2.33-8-2.06-9.86.57a2.09,2.09,0,0,1-2.06,1c-1.7,0-3.4,0-5.28,0a10.13,10.13,0,0,1,4.83-7.17,15,15,0,0,1,14.32-.65,8.94,8.94,0,0,1,5.56,8.5c.12,5.16,0,10.33.06,15.49,0,1.07-.36,1.36-1.37,1.3a29.47,29.47,0,0,0-3.64,0C263.12,75.19,262.39,75,262.84,73.26Zm-6.56-3c3.78,0,6.53-2.3,6.46-5.31,0-.52.18-1.15-.73-1.1-2.61.15-5.23-.3-7.82.3a2.78,2.78,0,0,0-2.5,2.88c0,1.77,1.12,2.6,2.67,3A14.87,14.87,0,0,0,256.28,70.27Z"/><path class="cls-1" d="M386.74,72.91a13.09,13.09,0,0,1-11.89,1.91c-3.91-1.13-5.86-4.1-5.79-8.41.07-3.79,2-6.12,5.88-7.31,3.34-1,6.75-.69,10.14-.74,1.77,0,2-.43,1.16-2A3.37,3.37,0,0,0,385,55.11a7.44,7.44,0,0,0-9.45,1.64,1.37,1.37,0,0,1-1.23.53c-1.52,0-3.05-.09-4.56,0-1.33.09-1.21-.55-.92-1.41a10.49,10.49,0,0,1,5.92-6.55,15.22,15.22,0,0,1,13.54.46,8.58,8.58,0,0,1,4.89,7.76c.12,5.34,0,10.69.08,16,0,.85-.21,1.21-1.12,1.16a28.79,28.79,0,0,0-3.83,0C387.08,74.84,386.43,74.5,386.74,72.91ZM382.9,63.5a16.61,16.61,0,0,0-5.07.37,2.84,2.84,0,0,0-1.29,4.87c2.59,2.51,9,.81,10-2.64.61-2.17.28-2.6-2-2.6Z"/><path class="cls-1" d="M297.39,56.57c0-5.41,0-10.82,0-16.23,0-1.22.23-1.67,1.57-1.65,7.06.07,14.13.05,21.19,0,1.08,0,1.45.21,1.46,1.38,0,4.76.08,4.76-4.63,4.76-3.84,0-7.67,0-11.51,0-1,0-1.36.26-1.32,1.31a56.88,56.88,0,0,1,0,5.84c-.07,1.2.42,1.37,1.47,1.36,4.68,0,9.37,0,14.06,0,1.13,0,1.68.19,1.55,1.46a21.19,21.19,0,0,0,0,3.65c.11,1.19-.39,1.4-1.46,1.39-4.51-.06-9,0-13.52-.06-1.58,0-2.19.27-2.12,2,.15,3.83,0,7.66.07,11.49,0,1.2-.32,1.61-1.52,1.5-1.68-.16-3.89.68-4.93-.32s-.3-3.22-.32-4.9C297.36,65.2,297.39,60.89,297.39,56.57Z"/><path class="cls-1" d="M345.87,50.51c3.25-2.66,6.65-2.82,10.05-2.22,5,.88,8.14,4.85,8.26,10.3.11,4.92,0,9.84.05,14.76,0,1.17-.41,1.45-1.48,1.39-1.63-.1-3.8.54-4.77-.28s-.28-3.09-.3-4.72c0-3.09,0-6.19,0-9.29,0-3.68-1.74-5.78-4.92-6.06a6,6,0,0,0-6.69,5.1c-.59,3.43-.14,6.91-.25,10.37-.06,1.57.51,3.69-.29,4.57s-3.09.18-4.7.34c-1.15.11-1.57-.22-1.56-1.46q.08-11.58,0-23.14c0-1.11.26-1.53,1.42-1.43a20,20,0,0,0,3.46,0C345.25,48.64,346,48.81,345.87,50.51Z"/><path class="cls-1" d="M405.57,50.57c4.68-3.89,13.05-3.11,16.29,1.41a11,11,0,0,1,2.1,6.46c0,5,0,10,0,15,0,1-.2,1.43-1.3,1.35a25.77,25.77,0,0,0-3.83,0c-1.14.09-1.44-.32-1.43-1.43.06-4.49.09-9,0-13.49-.06-3-1.49-4.68-4.08-5.28a5.91,5.91,0,0,0-6.68,2.87A8.94,8.94,0,0,0,405.62,62c0,3.71,0,7.42,0,11.12,0,1.18-.16,1.83-1.55,1.66-1.6-.21-3.76.69-4.69-.39-.8-.91-.28-3-.28-4.57,0-6.5,0-13,0-19.51,0-1.17.27-1.64,1.5-1.53a20,20,0,0,0,3.46,0C405.24,48.64,405.9,48.93,405.57,50.57Z"/><path class="cls-1" d="M454,66.13c-1.6,7.14-9.68,11.18-16.71,8.46-5.51-2.12-8.81-7.76-8.3-14.2a13.07,13.07,0,0,1,10.15-12.07,12.48,12.48,0,0,1,14.92,9c-2,0-3.88,0-5.8,0a1.42,1.42,0,0,1-1.08-.53c-2.57-2.47-5.41-3.07-8.06-1.73s-4.06,4.52-3.54,7.95c.41,2.68,1.59,4.92,4.35,5.74s5.33.45,7.22-2a1.54,1.54,0,0,1,1.41-.6C450.41,66.14,452.21,66.13,454,66.13Z"/><path class="cls-1" d="M225.59,61.73c0-1.76-.05-3.53,0-5.29,0-1-.19-1.36-1.29-1.36-3.22,0-3.22-.08-3.22-3.32a11.84,11.84,0,0,0,0-1.46c-.14-1,.31-1.18,1.23-1.2,3.27-.06,3.27-.09,3.27-3.33,0-2.56,0-2.56,2.64-2.56,3.89,0,4,0,3.85,3.81-.08,1.84.55,2.39,2.24,2.11a4.45,4.45,0,0,1,.73,0c5,0,5,0,4.6,5-.06.81-.3,1-1.07,1-1.76,0-3.53,0-5.29,0-.8,0-1.2.1-1.18,1.06,0,3.28,0,6.56,0,9.84.06,2.24.94,3,3.22,3,4.3.06,4.24.06,4.29,4.38,0,1.33-.28,1.86-1.7,1.73-1.81-.17-3.64.06-5.46-.25-4.28-.75-6.75-3.47-6.9-7.84C225.54,65.26,225.59,63.49,225.59,61.73Z"/><path class="cls-1" d="M274.74,56.87c0-5.58,0-11.16,0-16.74,0-1.07.19-1.57,1.38-1.43,1.67.2,3.84-.7,4.89.37s.27,3.12.27,4.74c0,9.84,0,19.67.05,29.5,0,1.43-.35,2-1.81,1.79s-3.62.66-4.5-.35-.25-2.89-.26-4.41C274.73,65.85,274.74,61.36,274.74,56.87Z"/><path class="cls-1" d="M172,62.14c0,3.82,0,7.64,0,11.46,0,1.22-.36,1.6-1.55,1.51a24.49,24.49,0,0,0-3.83,0c-1,.07-1.2-.33-1.2-1.24q0-11.82,0-23.65c0-.88.25-1.18,1.12-1.11,1.75.14,4-.7,5.12.33s.27,3.2.3,4.88C172.08,56.92,172,59.53,172,62.14Z"/><path class="cls-1" d="M215.69,62.17c0,3.83-.05,7.65,0,11.47,0,1.23-.38,1.55-1.53,1.47a35.76,35.76,0,0,0-4,0c-.81,0-1-.29-1-1.06,0-8,0-15.9,0-23.85,0-.95.41-1.1,1.2-1.07,1.4,0,2.8.07,4.19,0,1-.06,1.2.33,1.19,1.24C215.66,54.29,215.69,58.23,215.69,62.17Z"/><path class="cls-1" d="M327,61.69c0-3.89,0-7.77,0-11.66,0-1,.29-1.38,1.32-1.28,1.67.17,3.91-.72,4.88.36s.28,3.11.28,4.74c0,6.38,0,12.75,0,19.13,0,1.24-.14,1.93-1.64,1.77s-3.66.48-4.56-.32-.26-3-.28-4.55C327,67.15,327,64.42,327,61.69Z"/><path class="cls-1" d="M168.53,44.89c-3.33,0-3.33,0-3.33-3.06s0-3.11,3.32-3.11c3.82,0,3.82,0,3.82,3.55,0,2.62,0,2.62-2.72,2.62Z"/><path class="cls-1" d="M212.46,44.89c-3.31,0-3.31,0-3.31-3.28,0-2.89,0-2.89,3-2.89,3.53,0,3.53,0,3.53,3.4C215.69,44.89,215.69,44.89,212.46,44.89Z"/><path class="cls-1" d="M330.26,44.53c-3.28,0-3.28,0-3.28-3.11,0-2.7,0-2.7,3.15-2.7,3.32,0,3.32,0,3.32,3.13C333.45,44.53,333.45,44.53,330.26,44.53Z"/><path class="cls-1" d="M111.45,66.23A7,7,0,0,1,111,70.1c-1.87,7.08-4.52,13.84-8.86,19.8a69.7,69.7,0,0,1-8.47,9.63,53.85,53.85,0,0,1-15.73,10.3A54.07,54.07,0,0,1,61,114.43a57.18,57.18,0,0,1-17.9-.77A62.35,62.35,0,0,1,24,105.89,58.28,58.28,0,0,1,3.86,84.6,51.09,51.09,0,0,1,.15,76.33c-.38-1.1,0-1.35.92-1.25,1.3.13,1.48-.56,1.48-1.65,0-6.74,0-13.48,0-20.36A8,8,0,0,1,4,56q4,8.84,7.82,17.72A1.77,1.77,0,0,0,13.91,75a19,19,0,0,1,2,0c4.78-.11,3.45.72,5.44-3.69,2.55-5.64,5-11.33,7.44-17a3,3,0,0,1,1.06-1.33c0,1.54,0,3.07,0,4.61,0,5.23,0,10.46,0,15.68,0,1.4.4,1.84,1.75,1.69,1.55-.18,3.58.64,4.57-.35s.31-3,.31-4.57c0-9.85,0-19.7.05-29.54,0-1.4-.32-2.08-1.8-1.83a2,2,0,0,1-.73,0c-4-.89-5.79,1-7.23,4.6-3.05,7.62-6.66,15-10,22.52-.15.34-.23.77-.62.75s-.44-.49-.59-.83q-5.43-12.51-10.89-25c-.54-1.24-.93-2.48-2.78-2.28-1.24.14-.88-.79-.61-1.5A56.13,56.13,0,0,1,6,27.48,56.31,56.31,0,0,1,31.42,5.09,61.57,61.57,0,0,1,48,.47,53,53,0,0,1,69.33,2.05a55.38,55.38,0,0,1,27.44,16.7A56.71,56.71,0,0,1,110.25,44c.08.33.42.74,0,1s-.75-.19-1-.53a15.7,15.7,0,0,0-7.84-5.64c-7.16-2.25-15.3-.2-19.77,6.43-4.27,6.35-4.55,13.28-1.82,20a16.32,16.32,0,0,0,14,10.41c6.63.65,12.31-1.68,16.15-7.51A5,5,0,0,1,111.45,66.23ZM72.88,56.74c0-4.37,0-8.75,0-13.12,0-1.62.74-3.74-.33-4.72s-3.14-.14-4.77-.29c-1.32-.13-1.65.42-1.63,1.66.07,3.95,0,7.9.05,11.85,0,1.07-.26,1.5-1.42,1.49-4.62,0-9.25-.06-13.88,0-1.28,0-1.5-.5-1.47-1.61q.09-4.18,0-8.39c0-1.61.72-3.69-.35-4.72s-3-.11-4.58-.3-1.78.49-1.78,1.85c.06,9.78,0,19.57,0,29.36,0,1.62-.71,3.72.31,4.73s3.13.17,4.74.34c1.26.13,1.69-.28,1.66-1.6-.09-3.94,0-7.9-.06-11.85,0-1.17.32-1.57,1.53-1.55,4.51.06,9,.07,13.52,0,1.35,0,1.78.35,1.75,1.73-.1,3.95,0,7.9-.07,11.85,0,1.13.33,1.51,1.45,1.44a25.77,25.77,0,0,1,3.83,0c1.26.11,1.51-.4,1.5-1.55C72.85,67.81,72.88,62.28,72.88,56.74Z"/><path class="cls-1" d="M84.89,57.14c0-6,2.72-10.33,7.18-12.19,3-1.25,8.8-.51,11,2.44a3.34,3.34,0,0,0,3.27,1.4c.91-.08,1.82,0,2.74,0,3,0,3.08,0,3.26,3.12a79.52,79.52,0,0,1,0,10.47c-.11,1.55-.54,2.69-2.48,2.31a10,10,0,0,0-1.45,0,8.08,8.08,0,0,0-6.29,2.15C96.64,71.65,88,69.19,85.4,60.9A11.89,11.89,0,0,1,84.89,57.14Z"/></g></g></svg>