<svg xmlns="http://www.w3.org/2000/svg" viewBox="0 0 362.74 101.55"><defs><style>.cls-1{fill:#a3aaaa;}</style></defs><g id="Layer_2" data-name="Layer 2"><g id="Layer_1-2" data-name="Layer 1"><path class="cls-1" d="M50.5,63.63l-.3-.75c2.51-2.37,5.06-4.7,7.5-7.14a5.21,5.21,0,0,1,4-1.58c12,.06,24,0,36.06.07,2,0,3-.4,2.72-2.61-.52-4.18-.5-8.47-1.45-12.54C92.82,12.23,66.53-5.2,38.85,1.4A50.5,50.5,0,0,0,5.05,72.58c8.11,17,22,26.4,40.65,28.74,4.44.55,4.45.43,4.45-3.93a11.89,11.89,0,0,0,0-1.58c-.24-2,.59-2.65,2.58-2.62,6.72.1,13.46-.17,20.18.12a11.79,11.79,0,0,0,9.38-3.44c2.09-2.07,4.2-4.12,6.3-6.18l-.39-.54H56.24c-6.1,0-6.1,0-6.09-6.21,0-3.24,0-3.24,3.21-3.24,13.16,0,26.31,0,39.47,0,.87,0,2.24-.3,2.52-.87C96.69,70,97.73,67,99.08,63.63Zm67.43-46.54V55.87h10V40.51h16V55.82h9.81V17.11h-9.94V31.36H127.85V17.09Zm216.6,38.7h28.16V47.13H344.57V40.66h17.7v-9H344.56V25.77h18.18V17.12H334.53ZM328.05,22c-6.05-5.81-17.73-7.39-24.73-3.45a11.39,11.39,0,0,0-6.24,11.2c.25,4.79,3,7.81,7.22,9.48a69.16,69.16,0,0,0,7.16,2.07c1.89.51,3.83.86,5.66,1.54.71.27,1.63,1.26,1.6,1.87a3.56,3.56,0,0,1-1.51,2.25,5.47,5.47,0,0,1-2.58.69,16.59,16.59,0,0,1-11.5-3.26c-.7-.51-1.38-1.06-2.16-1.66l-5.14,7.64c6.25,6.71,20.31,8.51,27.84,3.64,4.09-2.65,5.55-6.57,5.31-11.28-.23-4.42-2.71-7.26-6.56-9a42.91,42.91,0,0,0-6-2c-2.25-.64-4.59-1-6.78-1.77-.94-.34-2.19-1.44-2.26-2.28-.14-1.61,1.4-2.2,2.83-2.26a12.86,12.86,0,0,1,4.26.27c2.84.89,5.57,2.08,8.54,3.23ZM204.5,47.12H189.14v-30h-9.86V55.84H204.5Zm15.87.07V17.11h-9.84V55.83h25.21V47.19Zm-48.93-30.1h-9.81V55.84h9.81ZM290.65,55.86V17.16H280.9v38.7ZM134.88,67.75A10.32,10.32,0,0,0,120,66.53a11,11,0,0,0-.55,15.29c3.83,4,11.27,4.21,14.93.33a2.33,2.33,0,0,0,.71-1.33c.07-2.16,0-4.32,0-6.58h-9.54l.2,2.33h6.56c.36,4.17-.11,5-3.21,5.79a7.61,7.61,0,0,1-9.4-5.32c-1.33-4.49.78-9,4.82-10.38,3.31-1.1,6.06,0,8.51,2.3ZM195,64.38v2.46c0,3.48.11,7-.07,10.42s-2.38,5.42-6,5.31c-3.29-.1-5.12-2-5.3-5.5-.06-1.06,0-2.11,0-3.17V64.41H181c0,4.71-.21,9.31.06,13.89.24,3.92,3.08,6.28,7.11,6.57,4.74.34,8.45-1.42,8.85-5.17.55-5,.14-10.15.14-15.32Z"/><path class="cls-1" d="M50.5,63.63H99.08C97.73,67,96.69,70,95.35,72.79c-.28.57-1.65.87-2.52.87-13.16.06-26.31,0-39.47,0-3.2,0-3.2,0-3.21,3.24,0,6.21,0,6.21,6.09,6.21H88.19l.39.54c-2.1,2.06-4.21,4.11-6.3,6.18a11.79,11.79,0,0,1-9.38,3.44c-6.72-.29-13.46,0-20.18-.12-2,0-2.82.64-2.58,2.62a11.89,11.89,0,0,1,0,1.58c0,4.36,0,4.48-4.45,3.93C27,99,13.16,89.55,5.05,72.58A50.5,50.5,0,0,1,38.85,1.4c27.68-6.6,54,10.83,60.21,37.68,1,4.07.93,8.36,1.45,12.54.27,2.21-.72,2.62-2.72,2.61-12-.08-24,0-36.06-.07a5.21,5.21,0,0,0-4,1.58c-2.44,2.44-5,4.77-7.5,7.14Z"/><path class="cls-1" d="M241.88,17c3.45,0,6.83,0,10.22,0,3.63,0,7.27-.09,10.88.18a12,12,0,0,1,11.34,10c1.19,6.05-1.2,11.24-6.49,14.14-.2.1-.38.24-.84.54L274.74,56c-3.83,0-7.27.06-10.71-.06-.51,0-1.16-.84-1.47-1.44-1.54-2.94-3.12-5.87-4.41-8.92-.86-2-2-3.05-4.24-2.63a13.59,13.59,0,0,1-2,0V55.81h-10Zm10,17c3,0,5.82.1,8.6,0A4,4,0,0,0,264.37,30a3.81,3.81,0,0,0-3.5-4.06c-3-.22-6-.06-9-.06Z"/><path class="cls-1" d="M117.93,17.09h9.92V31.36h15.91V17.11h9.94V55.82h-9.81V40.51h-16V55.87h-10Z"/><path class="cls-1" d="M334.53,55.79V17.12h28.21v8.65H344.56v5.88h17.71v9h-17.7v6.47h18.12v8.66Z"/><path class="cls-1" d="M328.05,22l-5,7c-3-1.15-5.7-2.34-8.54-3.23a12.86,12.86,0,0,0-4.26-.27c-1.43.06-3,.65-2.83,2.26.07.84,1.32,1.94,2.26,2.28,2.19.79,4.53,1.13,6.78,1.77a42.91,42.91,0,0,1,6,2c3.85,1.72,6.33,4.56,6.56,9,.24,4.71-1.22,8.63-5.31,11.28-7.53,4.87-21.59,3.07-27.84-3.64L301,42.7c.78.6,1.46,1.15,2.16,1.66a16.59,16.59,0,0,0,11.5,3.26,5.47,5.47,0,0,0,2.58-.69,3.56,3.56,0,0,0,1.51-2.25c0-.61-.89-1.6-1.6-1.87-1.83-.68-3.77-1-5.66-1.54a69.16,69.16,0,0,1-7.16-2.07c-4.25-1.67-7-4.69-7.22-9.48a11.39,11.39,0,0,1,6.24-11.2C310.32,14.58,322,16.16,328.05,22Z"/><path class="cls-1" d="M204.5,47.12v8.72H179.28V17.1h9.86v30Z"/><path class="cls-1" d="M220.37,47.19h15.37v8.64H210.53V17.11h9.84Z"/><path class="cls-1" d="M171.44,17.09V55.84h-9.81V17.09Z"/><path class="cls-1" d="M290.65,55.86H280.9V17.16h9.75Z"/><path class="cls-1" d="M134.88,67.75,133.05,69c-2.45-2.34-5.2-3.4-8.51-2.3-4,1.34-6.15,5.89-4.82,10.38a7.61,7.61,0,0,0,9.4,5.32c3.1-.81,3.57-1.62,3.21-5.79h-6.56l-.2-2.33h9.54c0,2.26,0,4.42,0,6.58a2.33,2.33,0,0,1-.71,1.33c-3.66,3.88-11.1,3.71-14.93-.33A11,11,0,0,1,120,66.53,10.32,10.32,0,0,1,134.88,67.75Z"/><path class="cls-1" d="M156.88,74.26c.07-6.12,4.29-10.4,10.19-10.35s10,4.44,10,10.58S172.77,85,166.73,84.91C160.85,84.81,156.8,80.43,156.88,74.26Zm2.72.12c0,5,2.9,8.2,7.37,8.19s7.45-3.37,7.41-8.21-3.07-8.08-7.33-8.14S159.61,69.48,159.6,74.38Z"/><path class="cls-1" d="M148.65,76.48l5.09,7.81c-1.78.67-3,.43-3.86-1.22-.7-1.32-1.61-2.54-2.42-3.82-1.83-2.89-1.83-2.89-5.65-2.5v7.73l-2.51.14V64.5a91,91,0,0,1,10,.09c2.68.29,4.3,2.77,4.4,5.56C153.85,73.22,152.41,75.09,148.65,76.48Zm-6.78-9.87v7.6a56.73,56.73,0,0,0,5.7,0,3.63,3.63,0,0,0,3.45-4c-.1-2.12-1.5-3.47-3.84-3.57C145.53,66.56,143.88,66.61,141.87,66.61Z"/><path class="cls-1" d="M195,64.38h2.2c0,5.17.41,10.3-.14,15.32-.4,3.75-4.11,5.51-8.85,5.17-4-.29-6.87-2.65-7.11-6.57-.27-4.58-.06-9.18-.06-13.89h2.56V73.9c0,1.06,0,2.11,0,3.17.18,3.52,2,5.4,5.3,5.5,3.6.11,5.79-1.7,6-5.31s.06-6.94.07-10.42Z"/><path class="cls-1" d="M204.9,76.78c0,2-.08,3.88,0,5.75s-.63,2.47-2.52,1.86v-20c3.3,0,6.61-.24,9.86.08,2.73.27,4.48,2.83,4.55,5.69s-1.46,5.37-4.21,5.93A64.24,64.24,0,0,1,204.9,76.78Zm.16-10.14v7.41a44.89,44.89,0,0,0,6.16-.06c2.07-.29,3-1.85,2.86-3.93a3.34,3.34,0,0,0-3.27-3.38C209,66.52,207.09,66.64,205.06,66.64Z"/></g></g></svg>