<svg xmlns="http://www.w3.org/2000/svg" viewBox="0 0 224.61 112.36"><defs><style>.cls-1{fill:#a3aaaa;}</style></defs><g id="Layer_2" data-name="Layer 2"><g id="Layer_1-2" data-name="Layer 1"><g id="lCExnT.tif"><path class="cls-1" d="M58.69,50.71H47.23V13.37c-.71,2.32-1.5,4.91-2.31,7.5-3,9.57-6,19.13-9,28.71a1.43,1.43,0,0,1-1.64,1.21c-2.45,0-4.89-.07-7.34,0-1,0-1.41-.39-1.7-1.32Q19.82,31.83,14.31,14.19c-.1-.33-.23-.66-.46-1.32V50.65H2.56c0-.57-.08-1.12-.08-1.67,0-15.71,0-31.42,0-47.13C2.44.43,2.82,0,4.26,0,9.2.08,14.15.06,19.09,0A1.59,1.59,0,0,1,21,1.36C24,11.78,27.12,22.18,30.22,32.59c.1.33.24.65.49,1.35.85-3.16,1.54-6,2.36-8.73,2.38-8,4.81-16,7.21-24A1.39,1.39,0,0,1,41.82,0c5.2,0,10.4.06,15.6,0,1.42,0,1.28.82,1.28,1.72q0,16.23,0,32.46V50.71Z"/><path class="cls-1" d="M63.79,25.93a11.19,11.19,0,0,1,6.88-10.88,27.9,27.9,0,0,1,20.85-.14c4.52,1.72,6.1,5.53,6.12,10.1,0,6.66,0,13.32,0,20a39.1,39.1,0,0,0,.67,5l.58.09L112,32,99.17,14c4.33,0,8.26,0,12.19,0,.39,0,.88.48,1.15.86,1.91,2.77,3.77,5.57,5.79,8.57a49.07,49.07,0,0,0,3.4-5.31c1.63-3.46,4.1-4.78,7.91-4.23A54.05,54.05,0,0,0,137,14c-1.33,1.91-2.43,3.51-3.56,5.09-2.71,3.81-5.38,7.65-8.17,11.41a1.92,1.92,0,0,0,0,2.71c3.92,5.44,7.76,10.94,11.62,16.41.21.29.37.6.74,1.21h-2.33c-2.91,0-5.83-.06-8.73,0a2.45,2.45,0,0,1-2.41-1.3c-1.65-2.58-3.36-5.12-5.05-7.68L118,40.25c-2,2.94-3.9,5.64-5.62,8.46a3.86,3.86,0,0,1-3.85,2.12c-6.18-.14-12.37,0-18.56,0-2.41,0-2.41,0-2.89-2.38L86.79,47c-4.27,4.54-9.5,5.13-15.06,4.32-8-1.15-12.29-8.8-9-15.75,1.78-3.67,5.1-5.29,8.82-6,3.46-.66,7-.85,10.51-1.3a10.39,10.39,0,0,0,2.69-.72,2.9,2.9,0,0,0,1.88-3,3.06,3.06,0,0,0-2.14-3,11.1,11.1,0,0,0-7.35,0,3.48,3.48,0,0,0-2.28,2.93A1.39,1.39,0,0,1,73.26,26C70.1,25.89,66.94,25.93,63.79,25.93Zm23.07,8.42c-2.9.4-5.55.74-8.19,1.15a14.57,14.57,0,0,0-3,.75,3.52,3.52,0,0,0-2.4,4.07A4.85,4.85,0,0,0,74.81,43c3.43,2.59,10,.62,11.3-3.42A29.1,29.1,0,0,0,86.86,34.35Z"/><path class="cls-1" d="M41.88,75.66H30.81c-.09-.13-.19-.21-.2-.3-.67-4.88-3.44-6.4-7.47-6.57a27.87,27.87,0,0,0-6.32.45,4.14,4.14,0,0,0-3.45,3.93C13.13,75.31,14,77.3,16,78c3.27,1.11,6.7,1.76,10.05,2.66a77.73,77.73,0,0,1,9.09,2.65c8,3.26,9.57,10.17,8.06,17a12.82,12.82,0,0,1-8,9.35,32.34,32.34,0,0,1-25.49.15C3.65,107.32.58,102.39,0,95.88c0-.45,0-.91,0-1.53,3.74,0,7.36,0,11,.05.27,0,.72.64.77,1,.61,4.35,2.18,6,6.55,6.91A18.91,18.91,0,0,0,27,102.2,5.15,5.15,0,0,0,31.12,98c.49-2.74-.58-4.74-3.27-5.59s-5.55-1.33-8.31-2a73.33,73.33,0,0,1-9.7-2.76C3.91,85.17,1,80.47,1.06,74s3.23-10.91,9.13-13c8.25-2.93,16.57-2.91,24.46,1.31A14.55,14.55,0,0,1,41.88,75.66Z"/><path class="cls-1" d="M224.46,110.88c-.42,0-.78.11-1.13.11h-9.82c0-.67-.08-1.22-.08-1.76q0-9.76,0-19.51c0-4.58-1.8-6.75-5.62-6.81a6.74,6.74,0,0,0-7.14,7c-.08,6.4,0,12.8,0,19.19v1.78h-11V60.4h11v18l.44.29a12.37,12.37,0,0,1,1-1.28c5.15-5.26,14.25-5.49,19.16-.49a12.48,12.48,0,0,1,3.42,9c.1,8.11,0,16.23,0,24.34A3.72,3.72,0,0,1,224.46,110.88Z"/><path class="cls-1" d="M111,86.23A11.38,11.38,0,0,1,118.59,75a29,29,0,0,1,19.71,0c4.2,1.46,6.47,4.92,6.51,9.49.05,5.14,0,10.29,0,15.44,0,3.65-.51,7.38,1.3,11.07-3.65,0-7.06,0-10.47,0-.38,0-.89-.62-1.07-1.07a17.57,17.57,0,0,1-.57-2.58c-4.25,4.58-9.56,5.15-15.15,4.31-8.18-1.24-12.43-9.28-8.61-16.21,2-3.66,5.57-5,9.39-5.71,3.22-.56,6.5-.72,9.75-1.12a10.89,10.89,0,0,0,2.68-.74,2.84,2.84,0,0,0,1.8-2.84,2.93,2.93,0,0,0-1.9-3,9.94,9.94,0,0,0-7.74.08c-1,.42-1.65,1.77-2.08,2.86-.37.92-.68,1.31-1.71,1.29C117.3,86.19,114.15,86.23,111,86.23Zm22.74,8.29c-1.52.29-3,.62-4.53.88-1.89.31-3.83.44-5.68.89a3.86,3.86,0,0,0-3.14,4.08,4,4,0,0,0,3.52,3.78C130.5,105.52,135,101.05,133.74,94.52Z"/><path class="cls-1" d="M80.53,95.89A7.82,7.82,0,0,0,86,103.23c3.74,1.14,7.48.17,9.42-2.59a2.36,2.36,0,0,1,2.28-1.17c2.81.06,5.61,0,8.42,0a2.39,2.39,0,0,1,.48.15,12,12,0,0,1-2.77,5.72c-4.79,5.69-11.15,7.12-18.17,6.31-6.58-.76-11.53-4.12-14.24-10.23-3.26-7.34-2.55-19.18,6-25,10.34-7,25.17-2.35,29,9.25a24.54,24.54,0,0,1,1,10.16Zm.07-7.17H96.34a7.53,7.53,0,0,0-7.72-7.08C84.1,81.55,81,84.21,80.6,88.72Z"/><path class="cls-1" d="M67.09,102.74c0,2.67,0,5.15,0,7.63,0,.28-.56.76-.89.78-3.69.25-7.39.43-11-.7-4.15-1.31-6.14-4.23-6.18-9,0-5.67,0-11.33,0-17V82.48H43.55c0-2.61,0-5,.05-7.37,0-.3.71-.79,1.12-.83,1.33-.1,2.69,0,4.2,0V63.47H60.15c0,2,0,4,0,5.9,0,1.54-.46,3.65.35,4.47s2.91.33,4.45.4c.66,0,1.32,0,2,0,0,.56.11.92.12,1.27,0,2.23,0,4.46,0,6.9H60.25c0,.71-.09,1.21-.09,1.72q0,7.41,0,14.81c0,2.89.79,3.7,3.68,3.8C64.87,102.77,65.89,102.74,67.09,102.74Z"/><path class="cls-1" d="M186.19,82.43h-6.78a5.55,5.55,0,0,0-.18.89c0,5.4,0,10.81,0,16.21,0,2.07.68,2.86,2.73,3.09a41.29,41.29,0,0,0,4.33,0c0,2.75,0,5.23,0,7.71,0,.27-.57.74-.9.76-3.89.31-7.8.47-11.57-.82-4-1.37-5.57-4.49-5.64-8.45-.12-5.76-.07-11.53-.09-17.3v-2h-5.42c0-2.67,0-5.14.06-7.6,0-.23.73-.6,1.14-.63,1.34-.08,2.68,0,4.22,0V63.44h11.11V74.2h7Z"/><path class="cls-1" d="M149,60.4h10.9v50.45H149Z"/></g></g></g></svg>