<svg xmlns="http://www.w3.org/2000/svg" viewBox="0 0 347.64 63.25"><defs><style>.cls-1{fill:#a3aaaa;}</style></defs><g id="Layer_2" data-name="Layer 2"><g id="Layer_1-2" data-name="Layer 1"><path class="cls-1" d="M102.58,27.11,123.94,58.5c-2.64,0-4.92.06-7.21,0-.39,0-.84-.64-1.13-1.06q-8.2-11.94-16.36-23.9c-.33-.49-.68-1-1.12-1.59-.44.4-.82.7-1.15,1-2.51,2.54-5.06,5-7.48,7.66a4.13,4.13,0,0,0-1,2.48c-.09,4.52,0,9,0,13.58v1.74H82.24V5.59h6.21V32.51l.57.35A21.88,21.88,0,0,1,90.47,31q12-12.27,24-24.47a3.88,3.88,0,0,1,2.32-1c2.18-.14,4.38,0,7,0Z"/><path class="cls-1" d="M254.13,40.86H224.06c-.58,5,3.24,10.6,8.3,12.29,6.45,2.14,13,.1,16.14-5.15l5.17,2.66a15.64,15.64,0,0,1-8.8,7.47,23.9,23.9,0,0,1-15.27.06c-6.06-2-9.58-6.46-11.17-12.47a29.14,29.14,0,0,1,0-14.92c2.09-8.11,7.93-12.78,16.42-13.26,7-.4,12.94,1.77,16.81,7.94C254.59,30.17,255,35.37,254.13,40.86Zm-5.92-5.66a11.57,11.57,0,0,0-11.6-12c-7.15-.06-12.82,5.33-12.57,12Z"/><path class="cls-1" d="M132,40.86a12.7,12.7,0,0,0,8.18,12.23c6.33,2.22,12.78.26,16.4-5.07l5.06,2.62c-.32.54-.55,1-.85,1.45-3.13,4.47-7.54,6.64-12.88,7.09-6.41.55-12.36-.39-17.07-5.3a17.94,17.94,0,0,1-4.51-8.57,30.38,30.38,0,0,1,0-14.19c2-8.41,8.07-13.23,16.77-13.6,7.58-.31,13.6,2.29,17.24,9.25,2.14,4.12,2.29,8.59,2,13.09,0,.36-.69.89-1.12,1a18.19,18.19,0,0,1-2.86,0H132Zm24.34-5.64c-.34-7.59-5.72-12.53-12.93-12-6.41.43-11.76,6.13-11.27,12Z"/><path class="cls-1" d="M172.59,18.47h5.35c.16,1.94.32,3.81.48,5.81.28-.19.43-.24.5-.35,4.24-7.17,16-7.84,22.23-4a12.85,12.85,0,0,1,6.45,11.13c.18,9,.06,18,.06,27a2.57,2.57,0,0,1-.14.49h-6.11V56.84c0-7.39,0-14.78,0-22.18a19.53,19.53,0,0,0-.38-3.74c-1.18-5.72-5.63-8.65-11.53-7.66-6.15,1-10.19,5.32-10.46,11.64s-.16,12.67-.21,19c0,1.11,0,2.22,0,3.32s-.27,1.37-1.28,1.33c-1.61-.06-3.21,0-4.94,0Z"/><path class="cls-1" d="M347.26,28.26l-5.95,2.8c-.19-.4-.33-.66-.44-.93a10.19,10.19,0,0,0-9.38-6.92c-4.66-.29-8.85,1-11.32,5.18a19.13,19.13,0,0,0-.23,20c3.43,6.09,13.24,7.61,18.38,3,1.58-1.4,2.58-3.46,4.07-5.54l5.25,1.83c-2.39,6-6.29,10.12-12.55,11.22a29.31,29.31,0,0,1-9.71-.07c-6.07-1-10.27-4.77-12.46-10.47a26.55,26.55,0,0,1-.08-19.6c2.61-6.75,7.82-10.32,15-10.94a27.64,27.64,0,0,1,7.49.34C341,19.27,344.7,23,347.26,28.26Z"/><path class="cls-1" d="M258.34,18.37h7.94V8.76L272.65,7V18.34h14.72v5.43H272.71c0,.73-.09,1.31-.09,1.89,0,7.09.12,14.18-.05,21.27-.12,5.3,3.79,7.34,8.23,6.27a29.39,29.39,0,0,0,5-2.27c.55,1.34,1.22,2.85,1.77,4.4a1.35,1.35,0,0,1-.48,1.06c-3.88,3.37-11.66,4-16.09,1.43-3.47-2-4.58-5.32-4.6-9.08,0-7.6,0-15.19,0-22.78V24h-8Z"/><path class="cls-1" d="M300.84,58.53c-1.81,0-3.52,0-5.22-.05-.33,0-.73-.57-.92-1a3.12,3.12,0,0,1,0-1.19V18.47h6.18Z"/><path class="cls-1" d="M297.8,1.13a4.59,4.59,0,0,1,4.73,4.62,4.73,4.73,0,0,1-4.89,4.82A4.52,4.52,0,0,1,293,5.87,4.7,4.7,0,0,1,297.8,1.13Z"/><path class="cls-1" d="M16.91,4.45A2.12,2.12,0,0,1,14.73,2.3,2.21,2.21,0,0,1,17,0a2.3,2.3,0,0,1,2.23,2.19A2.23,2.23,0,0,1,16.91,4.45Z"/><path class="cls-1" d="M4.45,16.84a2.24,2.24,0,0,1-2.21,2.33A2.34,2.34,0,0,1,0,17a2.2,2.2,0,0,1,2.25-2.28A2.12,2.12,0,0,1,4.45,16.84Z"/><path class="cls-1" d="M63.31,61a2.23,2.23,0,1,1-4.45,0A2.15,2.15,0,0,1,61,58.8,2.18,2.18,0,0,1,63.31,61Z"/><path class="cls-1" d="M4.45,46.3A2.14,2.14,0,0,1,2.3,48.5,2.22,2.22,0,0,1,0,46.27a2.28,2.28,0,0,1,2.19-2.22A2.17,2.17,0,0,1,4.45,46.3Z"/><path class="cls-1" d="M61.15,4.45a2.16,2.16,0,0,1-2.29-2.07,2.23,2.23,0,1,1,4.45-.13A2.17,2.17,0,0,1,61.15,4.45Z"/><path class="cls-1" d="M19.19,61a2.27,2.27,0,0,1-2.28,2.27A2.19,2.19,0,0,1,14.75,61a2.13,2.13,0,0,1,2.1-2.24A2.2,2.2,0,0,1,19.19,61Z"/><path class="cls-1" d="M2.26,63.25A2.29,2.29,0,0,1,0,61,2.21,2.21,0,0,1,2.23,58.8a2.13,2.13,0,0,1,2.22,2.12A2.2,2.2,0,0,1,2.26,63.25Z"/><path class="cls-1" d="M4.45,2.2A2.13,2.13,0,0,1,2.36,4.45,2.21,2.21,0,0,1,0,2.29,2.29,2.29,0,0,1,2.28,0,2.19,2.19,0,0,1,4.45,2.2Z"/><path class="cls-1" d="M63.31,46.29A2.2,2.2,0,0,1,61,48.5a2.17,2.17,0,0,1-2.14-2.22,2.22,2.22,0,0,1,2.3-2.23A2.24,2.24,0,0,1,63.31,46.29Z"/><path class="cls-1" d="M46.37,63.25a2.31,2.31,0,0,1-2.23-2.34,2.24,2.24,0,0,1,2.28-2.11,2.14,2.14,0,0,1,2.18,2.31A2.21,2.21,0,0,1,46.37,63.25Z"/><path class="cls-1" d="M61.14,14.71a2.17,2.17,0,0,1,2.17,2.19,2.23,2.23,0,1,1-4.45-.13A2.15,2.15,0,0,1,61.14,14.71Z"/><path class="cls-1" d="M48.6,2.23a2.13,2.13,0,0,1-2.12,2.22,2.26,2.26,0,0,1-2.35-2.19A2.34,2.34,0,0,1,46.45,0,2.21,2.21,0,0,1,48.6,2.23Z"/><path class="cls-1" d="M31.71,63.25a2.21,2.21,0,0,1-2.25-2.17,2.13,2.13,0,0,1,2.09-2.28A2.22,2.22,0,0,1,33.91,61,2.28,2.28,0,0,1,31.71,63.25Z"/><path class="cls-1" d="M61.08,29.41A2.21,2.21,0,1,1,61,33.83a2.21,2.21,0,0,1,.08-4.42Z"/><path class="cls-1" d="M4.45,31.7a2.14,2.14,0,0,1-2.24,2.14,2.21,2.21,0,1,1,.15-4.42A2.14,2.14,0,0,1,4.45,31.7Z"/><path class="cls-1" d="M33.91,2.25a2.21,2.21,0,0,1-2.21,2.2,2.13,2.13,0,0,1-2.24-2.14A2.21,2.21,0,0,1,31.71,0,2.28,2.28,0,0,1,33.91,2.25Z"/><path class="cls-1" d="M7.89,45.8C6.75,45.64,6,45,6,43.85A1.75,1.75,0,0,1,8,42a1.75,1.75,0,0,1,1.86,1.92C9.81,45.1,9.07,45.69,7.89,45.8Z"/><path class="cls-1" d="M7.66,17.75c1.21.12,1.91.72,1.9,1.92a1.74,1.74,0,0,1-1.9,1.88,1.77,1.77,0,0,1-1.88-1.92A1.81,1.81,0,0,1,7.66,17.75Z"/><path class="cls-1" d="M6.57,4.76a1.81,1.81,0,0,1,2,1.86,1.85,1.85,0,0,1-1.87,2A1.86,1.86,0,0,1,4.78,6.69,1.77,1.77,0,0,1,6.57,4.76Z"/><path class="cls-1" d="M33.59,8.55c-.12,1.08-.62,1.87-1.85,1.91a1.71,1.71,0,0,1-1.94-1.8,1.73,1.73,0,0,1,1.8-2C32.77,6.64,33.41,7.36,33.59,8.55Z"/><path class="cls-1" d="M56.68,8.51A1.82,1.82,0,0,1,54.8,6.66a1.66,1.66,0,0,1,1.7-1.87,1.85,1.85,0,0,1,2,1.9A1.78,1.78,0,0,1,56.68,8.51Z"/><path class="cls-1" d="M8.58,29.73c1.11.1,1.87.62,1.89,1.85a1.72,1.72,0,0,1-1.83,1.91A1.73,1.73,0,0,1,6.7,31.67C6.67,30.5,7.37,29.85,8.58,29.73Z"/><path class="cls-1" d="M19.91,9.66a1.74,1.74,0,0,1-1.83-1.88A1.71,1.71,0,0,1,20,5.91a1.73,1.73,0,0,1,1.9,1.86A1.8,1.8,0,0,1,19.91,9.66Z"/><path class="cls-1" d="M57.57,19.54a1.88,1.88,0,0,1-2,1.91,1.78,1.78,0,0,1-1.79-1.84,1.76,1.76,0,0,1,1.92-1.83A1.86,1.86,0,0,1,57.57,19.54Z"/><path class="cls-1" d="M45.51,7.67a1.78,1.78,0,0,1-1.88,1.88,1.76,1.76,0,0,1-1.81-2,1.72,1.72,0,0,1,1.79-1.83A1.89,1.89,0,0,1,45.51,7.67Z"/><path class="cls-1" d="M19.52,57.36a1.68,1.68,0,0,1-1.72-1.81,1.75,1.75,0,0,1,1.9-1.86,1.78,1.78,0,0,1,1.87,1.88A1.86,1.86,0,0,1,19.52,57.36Z"/><path class="cls-1" d="M54.61,33.48a1.76,1.76,0,0,1-1.77-1.89A1.63,1.63,0,0,1,54.6,29.8a1.86,1.86,0,0,1,2,1.95A1.77,1.77,0,0,1,54.61,33.48Z"/><path class="cls-1" d="M55.88,45.44a1.89,1.89,0,0,1-2.1-1.85,1.8,1.8,0,0,1,1.81-1.83,1.83,1.83,0,0,1,1.93,1.85A1.81,1.81,0,0,1,55.88,45.44Z"/><path class="cls-1" d="M31.58,56.5c-1.11-.14-1.79-.69-1.76-1.86a1.72,1.72,0,0,1,1.9-1.87,1.62,1.62,0,0,1,1.76,1.81C33.47,55.81,32.72,56.36,31.58,56.5Z"/><path class="cls-1" d="M56.71,54.74a1.77,1.77,0,0,1,1.79,1.78,1.8,1.8,0,0,1-1.83,1.92,1.85,1.85,0,0,1,0-3.7Z"/><path class="cls-1" d="M6.85,58.44a1.86,1.86,0,0,1-2-1.92,1.74,1.74,0,0,1,1.85-1.76A1.76,1.76,0,0,1,8.5,56.69,1.72,1.72,0,0,1,6.85,58.44Z"/><path class="cls-1" d="M45.52,55.43a1.75,1.75,0,0,1-1.76,1.9,1.68,1.68,0,0,1-1.92-1.68,1.76,1.76,0,0,1,1.81-2A1.78,1.78,0,0,1,45.52,55.43Z"/><path class="cls-1" d="M12.42,52.9c-.59.41-1.21,1.19-1.75,1.14a2,2,0,0,1-1.46-1.42,2.08,2.08,0,0,1,1.42-1.47c.55-.06,1.19.71,1.79,1.12Z"/><path class="cls-1" d="M12.43,10.88c-.58.44-1.19,1.24-1.73,1.2a2.06,2.06,0,0,1-1.49-1.41c0-.5.84-1.41,1.4-1.48s1.2.67,1.8,1.06Z"/><path class="cls-1" d="M40,38.46c-.6.4-1.24,1.18-1.77,1.11s-1-.94-1.57-1.46c.52-.51,1-1.38,1.58-1.45s1.16.73,1.75,1.14Z"/><path class="cls-1" d="M37.73,26.79c-.37-.6-1.11-1.27-1-1.78a2.08,2.08,0,0,1,1.52-1.36,2.07,2.07,0,0,1,1.37,1.5c0,.52-.75,1.11-1.18,1.67Z"/><path class="cls-1" d="M54.46,11c-.6.4-1.24,1.15-1.77,1.08a2.07,2.07,0,0,1-1.4-1.47c0-.51.89-1.35,1.45-1.41s1.15.71,1.73,1.12Z"/><path class="cls-1" d="M52.49,41.5c-.59.4-1.24,1.17-1.75,1.09a2.08,2.08,0,0,1-1.41-1.48,2.07,2.07,0,0,1,1.45-1.42c.52-.06,1.14.71,1.72,1.12Z"/><path class="cls-1" d="M26.84,38.55c-.6.37-1.27,1.11-1.79,1s-1.41-1-1.38-1.51a2.12,2.12,0,0,1,1.51-1.4c.53,0,1.12.77,1.69,1.21Z"/><path class="cls-1" d="M52.29,54.38c-.38-.61-1.12-1.27-1-1.8s1-1,1.5-1.51c.49.54,1.32,1,1.37,1.62s-.74,1.14-1.16,1.72Z"/><path class="cls-1" d="M10.84,21.72c.58-.4,1.2-1.16,1.71-1.09A2.21,2.21,0,0,1,14,22.06a1.21,1.21,0,0,1-1.42,1.48c-.62-.08-1.17-.71-1.75-1.1Z"/><path class="cls-1" d="M40.91,52.43c-.42-.56-1.22-1.16-1.17-1.67s.88-1.46,1.39-1.47a2,2,0,0,1,1.51,1.35c.1.5-.65,1.17-1,1.76Z"/><path class="cls-1" d="M23.87,51c-.6.39-1.15,1-1.79,1.11a1.2,1.2,0,0,1-1.45-1.44,2.2,2.2,0,0,1,1.48-1.43c.54-.05,1.17.7,1.76,1.1Z"/><path class="cls-1" d="M33.41,14.64c-.57.41-1.09,1-1.71,1.17-.89.16-1.49-.46-1.53-1.43s.55-1.61,1.44-1.51c.62.06,1.19.68,1.78,1Z"/><path class="cls-1" d="M37.85,33.36c-.41-.57-1.19-1.18-1.13-1.7a2.25,2.25,0,0,1,1.44-1.46,1.19,1.19,0,0,1,1.49,1.39c-.08.63-.71,1.18-1.09,1.77Z"/><path class="cls-1" d="M48.6,33.36c-.39-.59-1-1.13-1.1-1.76A1.19,1.19,0,0,1,49,30.2a2.25,2.25,0,0,1,1.45,1.45c.07.52-.71,1.14-1.11,1.71Z"/><path class="cls-1" d="M22.4,10.83c.41.56,1.21,1.17,1.14,1.68A2,2,0,0,1,22.13,14c-.51,0-1.38-.81-1.48-1.37s.65-1.16,1-1.75Z"/><path class="cls-1" d="M10.84,40.83c.56-.41,1.17-1.2,1.68-1.14A2.05,2.05,0,0,1,14,41.08a2.07,2.07,0,0,1-1.36,1.51c-.51.09-1.17-.66-1.76-1Z"/><path class="cls-1" d="M41,14c-.38-.59-1-1.16-1.07-1.78a1.19,1.19,0,0,1,1.51-1.37,2.28,2.28,0,0,1,1.43,1.48c.05.52-.74,1.13-1.17,1.69Z"/><path class="cls-1" d="M33.39,49.29c-.58.37-1.13,1-1.75,1.05a1.16,1.16,0,0,1-1.41-1.44,2.24,2.24,0,0,1,1.46-1.43c.51-.06,1.14.69,1.71,1.08Z"/><path class="cls-1" d="M33.39,38.52c-.59.38-1.24,1.13-1.75,1a2,2,0,0,1-1.36-1.49,2,2,0,0,1,1.43-1.42c.52,0,1.13.74,1.7,1.15Z"/><path class="cls-1" d="M24.82,33.37c-.42-.56-1.2-1.15-1.16-1.67a2.27,2.27,0,0,1,1.39-1.5,1.17,1.17,0,0,1,1.5,1.35c-.07.63-.65,1.2-1,1.79Z"/><path class="cls-1" d="M50.4,23.82c-.39-.59-1.14-1.22-1.08-1.76a2.22,2.22,0,0,1,1.45-1.46,1.2,1.2,0,0,1,1.43,1.46c-.11.63-.73,1.18-1.11,1.76Z"/><path class="cls-1" d="M14,33.36c-.38-.58-1-1.12-1.09-1.74-.14-.89.48-1.49,1.46-1.48s1.61.57,1.47,1.47c-.1.63-.72,1.17-1.11,1.75Z"/><path class="cls-1" d="M26.85,25.45c-.6.37-1.24,1.1-1.76,1s-1-.92-1.53-1.43c.52-.5,1-1.34,1.58-1.41s1.14.72,1.72,1.13Z"/><path class="cls-1" d="M33.4,25.41c-.57.38-1.1,1-1.72,1.1a1.16,1.16,0,0,1-1.44-1.4,2.21,2.21,0,0,1,1.41-1.47c.51-.09,1.16.65,1.74,1Z"/><path class="cls-1" d="M48.21,39c-.85.56-1.36,1.15-1.72,1.07a1.83,1.83,0,0,1-1.14-1.19c-.05-.31.69-1.07,1.07-1.07S47.36,38.43,48.21,39Z"/><path class="cls-1" d="M18.59,38.9c-.84.61-1.28,1.18-1.75,1.2s-1.13-.68-1.09-1a1.73,1.73,0,0,1,1-1.29C17.16,37.75,17.7,38.35,18.59,38.9Z"/><path class="cls-1" d="M45.75,31.56c-.89.6-1.36,1.16-1.84,1.17a1.52,1.52,0,0,1-1.07-1.06,1.49,1.49,0,0,1,1-1.14C44.3,30.5,44.81,31,45.75,31.56Z"/><path class="cls-1" d="M33.44,19.38c-.88.58-1.36,1.14-1.81,1.12s-1.12-.73-1.07-1a1.77,1.77,0,0,1,1.08-1.23C32,18.16,32.56,18.78,33.44,19.38Z"/><path class="cls-1" d="M33.43,43.77c-.85.64-1.33,1.29-1.74,1.25a1.78,1.78,0,0,1-1.14-1.17c-.06-.31.62-1.07,1-1.1S32.53,43.24,33.43,43.77Z"/><path class="cls-1" d="M19.41,33.4c-.6-.88-1.22-1.39-1.15-1.8a1.72,1.72,0,0,1,1.23-1.07c.32-.05,1,.67,1.05,1.06S20,32.52,19.41,33.4Z"/><path class="cls-1" d="M26,46.47c-.89.53-1.43,1.11-1.85,1s-.77-.79-1.15-1.22c.41-.35.83-1,1.23-1S25.17,45.88,26,46.47Z"/><path class="cls-1" d="M40.84,46.41C40,47,39.43,47.55,39,47.48s-.78-.77-1.17-1.2c.4-.35.81-1,1.21-1S40,45.84,40.84,46.41Z"/><path class="cls-1" d="M16.75,26c-.52-.89-1.05-1.39-1-1.85s.68-.77,1.06-1.15c.4.41,1.09.8,1.13,1.24S17.35,25.14,16.75,26Z"/><path class="cls-1" d="M46.49,26c-.59-.85-1.2-1.36-1.14-1.77s.74-.82,1.15-1.22c.38.38,1,.76,1,1.16S47,25.11,46.49,26Z"/><path class="cls-1" d="M24.34,18.56c-.63-.82-1.22-1.26-1.25-1.73s.67-1.12,1-1.1a1.71,1.71,0,0,1,1.29,1C25.46,17.13,24.87,17.68,24.34,18.56Z"/><path class="cls-1" d="M39.17,15.12c.54.79,1.16,1.32,1.07,1.65-.13.48-.77.82-1.2,1.22-.37-.44-1-.84-1-1.33S38.58,15.86,39.17,15.12Z"/><path class="cls-1" d="M49.22,47.36c.56.85,1.14,1.36,1.06,1.71a1.77,1.77,0,0,1-1.14,1.15c-.29.06-1-.66-1.06-1S48.63,48.24,49.22,47.36Z"/><path class="cls-1" d="M14.21,50.85c-.6-.77-1.23-1.23-1.17-1.58s.67-.88,1-1.31c.41.4,1,.74,1.15,1.22S14.74,50,14.21,50.85Z"/><path class="cls-1" d="M50.91,14c-.76.62-1.21,1.26-1.56,1.21s-.9-.66-1.34-1c.39-.42.73-1,1.2-1.17S50.09,13.5,50.91,14Z"/><path class="cls-1" d="M15.91,14c-.86.61-1.32,1.18-1.78,1.17s-.78-.66-1.17-1c.4-.42.73-1,1.2-1.17S15,13.5,15.91,14Z"/><path class="cls-1" d="M47.38,46c-.58.44-.91.89-1.21.87a1.17,1.17,0,0,1-.83-.77c0-.27.46-.77.77-.82S46.77,45.65,47.38,46Z"/><path class="cls-1" d="M17.19,47.34c-.42-.58-.86-.91-.84-1.21s.48-.82.76-.82a1.12,1.12,0,0,1,.83.75C18,46.36,17.57,46.73,17.19,47.34Z"/><path class="cls-1" d="M47.38,17.09c-.58.43-.91.87-1.21.85s-.82-.49-.83-.77a1.15,1.15,0,0,1,.76-.83C46.4,16.3,46.77,16.71,47.38,17.09Z"/><path class="cls-1" d="M17.08,18.38c-.37-.61-.78-1-.73-1.28a1.15,1.15,0,0,1,.83-.76,1.15,1.15,0,0,1,.77.83C18,17.47,17.52,17.8,17.08,18.38Z"/><path class="cls-1" d="M44,26.09c-.55.36-.9.77-1.2.75s-.57-.5-.84-.78c.3-.3.57-.77.92-.84S43.46,25.67,44,26.09Z"/><path class="cls-1" d="M21.71,26c-.52.39-.85.83-1.14.81s-.62-.47-.92-.73c.3-.32.56-.79.92-.9S21.18,25.63,21.71,26Z"/><path class="cls-1" d="M37.22,41.55c.4.52.85.85.82,1.14s-.47.62-.73.92c-.32-.3-.78-.55-.9-.92C36.34,42.47,36.82,42.08,37.22,41.55Z"/><path class="cls-1" d="M26.13,43.93c-.38-.56-.8-.9-.77-1.21s.49-.81.75-.8a1.12,1.12,0,0,1,.84.76C27,43,26.54,43.35,26.13,43.93Z"/><path class="cls-1" d="M27.38,20.57c-.59.36-1,.76-1.27.71a1.11,1.11,0,0,1-.74-.82,1.13,1.13,0,0,1,.81-.77C26.49,19.68,26.82,20.13,27.38,20.57Z"/><path class="cls-1" d="M37.2,19.24c.39.59.8.94.77,1.24s-.51.81-.77.8a1.17,1.17,0,0,1-.82-.78C36.35,20.19,36.78,19.84,37.2,19.24Z"/><path class="cls-1" d="M42.87,35.91c.36.6.78,1,.73,1.28a1.15,1.15,0,0,1-.85.73,1.14,1.14,0,0,1-.74-.83C42,36.77,42.45,36.45,42.87,35.91Z"/><path class="cls-1" d="M20.59,38.35c-.44-.55-.91-.88-.88-1.16s.5-.62.78-.92c.29.28.76.52.82.85S21,37.77,20.59,38.35Z"/></g></g></svg>