<svg xmlns="http://www.w3.org/2000/svg" viewBox="0 0 285.42 160.87"><defs><style>.cls-1{fill:#a3aaaa;}</style></defs><g id="Layer_2" data-name="Layer 2"><g id="Layer_1-2" data-name="Layer 1"><path class="cls-1" d="M154,69.9l5.45,7.88c3.75,5.39,7.48,10.79,11.25,16.17a6.63,6.63,0,0,0,3.8,2.9,4.83,4.83,0,0,0,6.27-4.29c.12-1.21.07-2.44.07-3.66q0-15,0-30.09a8.26,8.26,0,0,0-.5-3.75c-.37-.74.1-.92.66-1l11.54-1c-2.1,1.79-2.27,3.92-2.27,6.16,0,9.77,0,19.55,0,29.32,0,5.24,1,6.29,6.15,6,4.26-.26,8.52-.69,12.77-1.15,10.29-1.12,15.58-8.68,16.77-16.94a30.77,30.77,0,0,0-.76-14c-1.89-5.83-5.6-9.73-11.86-10.78a1.27,1.27,0,0,1-.71-.34l28.75-2.54.12.3c-.6.32-1.21.64-1.8,1a11.72,11.72,0,0,0-6.31,12.34,8.87,8.87,0,0,0,5.47,7c3.17,1.51,6.61,2,10,2.58a31.93,31.93,0,0,1,4.77,1c4.28,1.45,5.19,5.71,2,8.91-2.63,2.63-8,3.58-11.43,2.06a7.77,7.77,0,0,1-3.59-4c-.3-.59-.53-1.21-.84-1.8-1-2-2.27-2.61-4.19-2.2a4,4,0,0,0-3.14,4,10.08,10.08,0,0,0,2.82,6.59,11.5,11.5,0,0,0,6.76,3.89A24.77,24.77,0,0,0,258,88.6a14.68,14.68,0,0,0,6-5.3c.18-.28.26-.68.74-.76.5,1-.14,1.83-.64,2.61l-18.91,29.79-28,44.08c-1.34,2.11-1.32,2.13-3.83,1.47L23,110.64l-3-.77c-.73-.19-1.08-.74-.83-1.37.33-.83.85-.06,1.21.08,1.71.66,3.43.24,5.14.09,5.27-.45,10.57-.64,15.8-1.54s9.4-3.4,11.2-8.71c1.89-5.56.14-11.34-6.32-13.25a1.2,1.2,0,0,1-.86-.61c3.37-2,5.66-4.86,5.85-9s-1.67-7.2-5.4-9.2l.22-.3,7.68-.74c2.23-.2,4.47-.38,6.69-.6.93-.09,1.45,0,.79,1.08a5.22,5.22,0,0,0-.55,2.81q0,16.41,0,32.83c0,2.92,1.24,4.54,3.48,4.72A4.41,4.41,0,0,0,69,102c.49-4.21.12-8.44.2-12.66,0-2.17,0-2,2.1-2.4,4.27-.76,7.17,1.09,9.38,4.5s4.35,6.77,6.57,10.12c1.66,2.49,4.14,3.14,6.45,1.78a3.44,3.44,0,0,0,1.64-4.57c-2.16-5.31-5.14-10-10-13.35-.2-.13-.47-.22-.46-.71,4.79-1.75,8.94-4.25,10-9.93.92-5.22-.82-8.69-6.58-12.38,2.36-.23,4.5-.46,6.64-.65l17.79-1.57c.46,0,.92,0,1.38,0,.76,0,.83.24.51.92-3.22,6.87-5.56,14.09-8.35,21.14-1.78,4.5-3.47,9-5.19,13.55a11.36,11.36,0,0,0-.88,3.07,3.52,3.52,0,0,0,2.44,3.93,3.73,3.73,0,0,0,4.62-1.68,39.86,39.86,0,0,0,3-7.51,2.59,2.59,0,0,1,2.67-2.1c4.57-.28,9.13-.69,13.7-1.1a1.83,1.83,0,0,1,2.15,1.4c.81,2.15,1.68,4.27,2.67,6.33s2.65,2.82,4.75,2.08a4.31,4.31,0,0,0,2.93-5c-1-3.76-2.79-7.21-4.26-10.78-2.83-6.93-5.77-13.81-8.63-20.72a26.61,26.61,0,0,0-2.34-4.39l23.38-2.07c-1.75,2-1.54,4-1.54,6.05q0,15.27,0,30.54a18.89,18.89,0,0,0,.05,2,3.63,3.63,0,0,0,2.77,3.42,4.22,4.22,0,0,0,4.42-2.05,7.25,7.25,0,0,0,.73-3.55q0-10.92,0-21.84V70Z"/><path class="cls-1" d="M125.21,37.53c0-3.82,0-7.64,0-11.45,0-3-1.63-4.59-4.69-4.47-1.63.07-3.25.23-4.87.37-3.56.31-5.36,2.26-5.37,5.94,0,7.38,0,14.76,0,22.14,0,2.92-.44,3.42-3.34,3.81-1,.12-1.93.15-2.89.24-2.07.2-2.92-.54-3-2.66,0-1.88,0-3.76,0-5.65,0-5.65.11-11.3,0-16.94-.2-8.88,6.65-13.68,12.93-14.5,2.78-.36,5.58-.53,8.37-.68a11.16,11.16,0,0,1,6.45,1.54,1.56,1.56,0,0,0,2-.13,15.28,15.28,0,0,1,7.9-3c3.7-.31,7.38-1.06,11.09-.25,5.16,1.12,8.44,4.73,8.73,10,.45,8.13.15,16.28.14,24.42,0,2.22-.85,3-3.06,3.17-1.21.11-2.43.26-3.65.29-1.79,0-2.52-.64-2.57-2.45-.06-2.29,0-4.58,0-6.87,0-5.49,0-11,0-16.49,0-3.09-1.54-4.58-4.66-4.47-1.83.07-3.66.21-5.48.41-3,.34-4.81,2.39-4.83,5.64,0,7.33,0,14.66,0,22,0,3.31-.39,3.78-3.62,4.19a28.06,28.06,0,0,1-3,.22c-1.82,0-2.49-.6-2.51-2.46,0-4,0-7.94,0-11.91Z"/><path class="cls-1" d="M75.07,41.63c0,4.07,0,8.14,0,12.21,0,2.13-.73,2.93-2.85,3.17-1.16.13-2.32.25-3.49.32-2.07.12-2.82-.56-2.82-2.63,0-7.53,0-15.06,0-22.59,0-4-1.71-5.51-5.71-5.07-1.41.16-2.83.27-4.25.38a5.1,5.1,0,0,0-5,5.46c0,7.38,0,14.76,0,22.13,0,.56,0,1.12,0,1.68a2.3,2.3,0,0,1-2.13,2.39,41.37,41.37,0,0,1-4.71.4,1.94,1.94,0,0,1-2.3-2.21c0-8.35-.18-16.69.07-25,.18-6,5-11,11.58-12.27a38.76,38.76,0,0,1,11.67-.79,10.8,10.8,0,0,1,10,11.15C75.08,34.1,75.07,37.86,75.07,41.63Z"/><path class="cls-1" d="M219.94,24.13c0-2,.09-4,0-5.95-.44-8.12,5.92-13.47,12.39-14.48A38.38,38.38,0,0,1,244,3.59c2.74.41,3.16.91,3.17,3.63,0,.51,0,1,0,1.53-.08,1.95-1,2.76-2.92,2.59a72.32,72.32,0,0,0-9.31-.06c-4,.18-5.82,2.11-5.82,6.08s0,8.14,0,12.21c0,3.64,1.76,5.23,5.38,4.83A57.36,57.36,0,0,0,244,32.71c2.4-.68,3.2,0,3.22,2.46.05,4-.11,4.33-3.94,5.48a39.28,39.28,0,0,1-11.89,1.76,11.18,11.18,0,0,1-11.42-11.56C219.93,28.61,219.94,26.37,219.94,24.13Z"/><path class="cls-1" d="M198.87,73.18c0-4.17,0-8.34,0-12.51,0-1.31.46-1.75,1.76-1.83,2.34-.13,4.67-.24,7-.34,6.1-.26,8.91,3.25,9.78,8.35a28,28,0,0,1-.26,10.76c-1.25,5.67-4.31,8.52-10,9.27-2.26.3-4.55.42-6.83.67-1.12.12-1.41-.38-1.41-1.4C198.88,81.83,198.87,77.51,198.87,73.18Z"/><path class="cls-1" d="M83.55,36.46c0-5.45,0-10.89,0-16.33,0-2.42.71-3.15,3.13-3.36,1.07-.1,2.13-.23,3.19-.3,2.14-.14,2.89.55,2.89,2.72q0,13.35,0,26.71c0,2.19,0,4.37,0,6.56,0,1.73-.67,2.56-2.37,2.85a35.27,35.27,0,0,1-4.7.45c-1.49.05-2.13-.75-2.14-2.51C83.54,47.65,83.55,42.05,83.55,36.46Z"/><path class="cls-1" d="M172.72,83.13,154.19,56.67A33.07,33.07,0,0,1,160,56c4-.38,8-.71,12-1.09,1.24-.11,2,0,1.41,1.6a7.73,7.73,0,0,0-.23,2.56c0,7.42,0,14.83,0,22.25A2.3,2.3,0,0,1,172.72,83.13Z"/><path class="cls-1" d="M264.74,56.17V70.39c-4.3-5.36-10.7-5.32-16.58-6.58a16.45,16.45,0,0,1-4.8-1.45,3.79,3.79,0,0,1-1.13-6c3.45-4.36,11.21-3.83,14,1,.25.44.52.87.78,1.31.81,1.36,1.86,2.32,3.59,2a4.2,4.2,0,0,0,3.38-3A2.84,2.84,0,0,1,264.74,56.17Z"/><path class="cls-1" d="M37.06,89.16c.77,0,1.54-.06,2.29,0,2.82.28,4.49,1.54,5,3.72a6.25,6.25,0,0,1-2.67,6.92,10.26,10.26,0,0,1-4.32,1.42c-3.18.35-6.38.55-9.56.85-.86.08-1.08-.32-1.08-1,0-3.36,0-6.71,0-10.07,0-.84.42-1.15,1.21-1.21,3-.21,6.08-.46,9.12-.7Z"/><path class="cls-1" d="M79.07,68.64c.72,0,1.43,0,2.14,0a4.76,4.76,0,0,1,4.91,3.76,5.51,5.51,0,0,1-2.38,6.11,14,14,0,0,1-5.82,1.68c-2.37.28-4.76.41-7.14.66-1.21.13-1.64-.34-1.61-1.53,0-2.85,0-5.7,0-8.55,0-.86.17-1.44,1.22-1.51,2.89-.2,5.78-.47,8.67-.71Z"/><path class="cls-1" d="M26.74,78.27c0-1.37,0-2.74,0-4.12a1.24,1.24,0,0,1,1.35-1.45c3.3-.13,6.58-.65,9.9-.41,3,.21,4.27,1,4.75,3.35a5.87,5.87,0,0,1-3,6.3c-2.07,1-4.34,1-6.56,1.3-1.72.19-3.45.26-5.17.39-.91.07-1.31-.32-1.29-1.24C26.76,81,26.74,79.65,26.74,78.27Z"/><path class="cls-1" d="M119.58,67.71l1.78,4.65c1.29,3.42,2.56,6.86,3.88,10.27.32.83.36,1.33-.74,1.42-3.34.24-6.68.54-10,.8-.72.06-1.25-.1-.93-1,.43-1.24.84-2.5,1.28-3.75q2.16-6.17,4.34-12.34Z"/><path class="cls-1" d="M82.05,6.66c0-3.35.25-3.67,3.65-4.06,2-.23,4-.43,6.06-.52,1.72-.08,2.37.62,2.49,2.35.31,4.65-.1,5.16-4.62,5.66-1.41.16-2.83.28-4.24.45-2.56.29-3.32-.38-3.34-3C82,7.27,82.05,7,82.05,6.66Z"/><path class="cls-1" d="M208.11,8.37C201,3.19,193.3,3.26,185.84,7.48c-2.57,1.45-4.18,1.32-6.2-.45-.77-.67-1.21-1.11-.86-2.23a2.9,2.9,0,0,0-2.36-3.64,3.56,3.56,0,0,0-4.17,3.07c-.25,1.89.92,3.7,2.68,3.5,2-.23,2.15.8,2.27,2.21a14.37,14.37,0,0,0,.36,2.26c.27,1.06.05,1.45-1.1,1.05q-4.91-1.7-9.84-3.31a1.64,1.64,0,0,1-1.2-1.38,3.41,3.41,0,0,0-3.37-3,4.22,4.22,0,0,0-3.94,2.63,3.68,3.68,0,0,0,.88,4.2,3.57,3.57,0,0,0,4.65,0c.92-.68,1.4-.37,2,.3,1.78,1.89,3.59,3.75,5.39,5.62,2.49,2.57,2.49,2.56-.83,3.71-1.08.37-1.93.73-2.91-.48s-3.16-.9-4.35.4a3.3,3.3,0,0,0-.13,4.32c1.07,1.11,3.28,1.28,4.24-.08,1.26-1.8,2.41-1.21,3.78-.44a10.45,10.45,0,0,0,1.66.78,1.77,1.77,0,0,1,1.23,1.85c.65,11.37,9.61,19,21,18S215.6,35.14,215.62,23A18.11,18.11,0,0,0,208.11,8.37ZM189.36,39a2.33,2.33,0,0,1-2.46-2.33,3,3,0,0,1,2.86-3.14A2.58,2.58,0,0,1,192.37,36,3,3,0,0,1,189.36,39Zm9.64-.88a2.47,2.47,0,0,1-2.5-2.52,3.2,3.2,0,0,1,3.1-3A2.41,2.41,0,0,1,202,35.31,2.87,2.87,0,0,1,199,38.16Z"/><path class="cls-1" d="M33.4,34.52c-.11-6.5-4.07-11.08-10.23-11.6a38.25,38.25,0,0,0-13.72,1.7,2.81,2.81,0,0,0-2.16,2.81,21.87,21.87,0,0,0,0,2.29c.13,2.11,1,2.78,3.12,2.31a50.41,50.41,0,0,1,9.06-1.26c3-.15,4.63,1.51,4.61,4.53,0,1.08-.37,1.54-1.49,1.61-2.59.16-5.17.43-7.75.64A16.82,16.82,0,0,0,3.41,42.66c-4,4.29-4.59,11-1.14,15.26A11.75,11.75,0,0,0,12.4,62.28c5.85-.22,11.66-.92,17.49-1.49,3-.28,3.51-1,3.52-4,0-3.62,0-7.23,0-10.84C33.41,42.15,33.46,38.34,33.4,34.52ZM24.07,46.24c-.07,1,0,1.93,0,2.9,0,4.14,0,4.16-4.16,4.66-2,.24-3.95.42-5.93.51-2.56.12-4.34-1.16-4.64-3.2a4.81,4.81,0,0,1,3.56-5.34A24.49,24.49,0,0,1,17,45.32c1.87-.22,3.76-.29,5.62-.52C23.8,44.65,24.15,45.12,24.07,46.24Z"/><path class="cls-1" d="M285.41,11.09A10.52,10.52,0,0,0,276,.24c-5-.74-9.92.35-14.74,1.69a2.49,2.49,0,0,0-1.82,2.4,18.66,18.66,0,0,0,0,2.59c.13,2.12,1,2.79,3.13,2.29a61.73,61.73,0,0,1,8.75-1.28c3.16-.3,5,1.6,4.89,4.74,0,.85-.3,1.29-1.22,1.36-2.08.15-4.15.39-6.23.57-3.25.28-6.5.56-9.41,2.27-4.66,2.75-7.47,6.67-7.16,12.21.35,6.3,5.62,10.81,12.35,10.46,6-.32,12.06-1,18.09-1.6,2.27-.23,2.75-.89,2.76-3.2,0-4.07,0-8.14,0-12.21C285.41,18.72,285.44,14.9,285.41,11.09Zm-13.54,20c-1.78.14-3.55.25-5.32.43-2.71.27-4.61-.86-5-3a4.62,4.62,0,0,1,3.37-5.4c3.37-.73,6.85-.73,10.29-1.09.82-.09,1,.45,1,1.15,0,1.07,0,2.14,0,3.2C276.22,30.71,276.22,30.71,271.87,31.06Z"/></g></g></svg>