<svg xmlns="http://www.w3.org/2000/svg" viewBox="0 0 397.33 86.25"><defs><style>.cls-1{fill:#a3aaaa;}</style></defs><g id="Layer_2" data-name="Layer 2"><g id="Layer_1-2" data-name="Layer 1"><path class="cls-1" d="M34.39,52.08c-1.35-3.69-2.65-7.31-4-10.91A1.18,1.18,0,0,1,30.52,40q4.69-7.32,9.35-14.66,1.83-2.87,3.66-5.76L28.26,0,12.89,19.59l.63,1Q19.66,30.28,25.8,40a1.24,1.24,0,0,1,.13,1.23c-.43,1.09-.8,2.2-1.2,3.31L22,52.09c2,1.1,4,2.19,6,3.26a.52.52,0,0,0,.44,0ZM19.05,86.25V49.66L.09,66.9C6.4,73.35,12.67,79.74,19.05,86.25ZM37.38,49.66V86.25L56.25,66.91Zm-6-9.38c3-.57,5.88-1.1,8.72-1.66a20.61,20.61,0,0,0,4-1c2.56-1.09,5-2.39,7.54-3.6L53.86,33,44.08,20.41C39.84,27,35.64,33.58,31.36,40.28ZM2.47,33c2.64,1.25,5.15,2.46,7.68,3.63a16,16,0,0,0,4.09,1.64c2.06.34,4.1.78,6.15,1.17l4.58.87L12.26,20.41Zm36.46,16.7,0,.14L56.24,65.74c0-.33-.05-.48-.08-.63-1-4.07-2-8.15-3-12.23a1.1,1.1,0,0,0-1-1c-2.64-.44-5.27-.91-7.9-1.36Zm-21.51.17-.07-.13a2.06,2.06,0,0,0-.35,0L4.19,51.91a.91.91,0,0,0-.81.81c-.49,2-1,3.91-1.51,5.86C1.26,60.93.66,63.29,0,65.82Zm-5-31L26.73.44l-.09-.1-18,12.71Zm35.31-5.78L29.78.33l-.09.1L44,18.87ZM2.31,31.61l.1.07L3.75,30q3.9-5,7.78-10c.14-.18.27-.56.19-.7-1.12-1.79-2.27-3.56-3.48-5.44Zm46-17.79c-1.15,1.79-2.2,3.46-3.3,5.09A.84.84,0,0,0,45,20.07c2.17,2.77,4.32,5.57,6.47,8.35L54,31.69l.1-.06C52.19,25.73,50.26,19.84,48.28,13.82ZM54.54,34.4l-.11,0L48.28,45.86,54.54,47ZM2,34.36l-.11,0V47l6.17-1.18Zm51.48-.1c-.17,0-.23,0-.26,0l-7.48,3.56c-.39.19-.33.42-.24.74.57,2.08,1.12,4.16,1.68,6.24,0,.18.12.36.22.67ZM9,45.5c.67-2.48,1.28-4.79,1.92-7.08.1-.4-.08-.54-.39-.69l-7-3.38a4.51,4.51,0,0,0-.56-.17Zm8.9,3.33,0-.13c-2.72-.79-5.43-1.59-8.16-2.36a.81.81,0,0,0-.65.22C8.32,47.24,7.64,48,7,48.67s-1.29,1.38-2.09,2.22Zm33.48,2,.23-.35c-1.43-1.34-2.86-2.7-4.32-4a1,1,0,0,0-.82-.08c-1.82.52-3.64,1.07-5.45,1.62l-2.33.7,0,.11Zm-48.05,0,4-4-5.37,1Zm45.8-4,4,4.06,1.3-3Z"/><path class="cls-1" d="M34.39,52.08,28.5,55.33a.52.52,0,0,1-.44,0c-2-1.07-4-2.16-6-3.26l2.69-7.58c.4-1.11.77-2.22,1.2-3.31A1.24,1.24,0,0,0,25.8,40Q19.64,30.3,13.52,20.59l-.63-1L28.26,0,43.53,19.59q-1.83,2.89-3.66,5.76Q35.21,32.68,30.52,40a1.18,1.18,0,0,0-.12,1.16C31.74,44.77,33,48.39,34.39,52.08Z"/><path class="cls-1" d="M19.05,86.25C12.67,79.74,6.4,73.35.09,66.9l19-17.24Z"/><path class="cls-1" d="M37.38,49.66,56.25,66.91,37.38,86.25Z"/><path class="cls-1" d="M31.36,40.28c4.28-6.7,8.48-13.25,12.72-19.87L53.86,33,51.63,34c-2.51,1.21-5,2.51-7.54,3.6a20.61,20.61,0,0,1-4,1C37.24,39.18,34.38,39.71,31.36,40.28Z"/><path class="cls-1" d="M2.47,33l9.79-12.55L25,40.27l-4.58-.87c-2.05-.39-4.09-.83-6.15-1.17a16,16,0,0,1-4.09-1.64C7.62,35.42,5.11,34.21,2.47,33Z"/><path class="cls-1" d="M38.93,49.66l5.32.9c2.63.45,5.26.92,7.9,1.36a1.1,1.1,0,0,1,1,1c1,4.08,2,8.16,3,12.23,0,.15,0,.3.08.63L38.88,49.8Z"/><path class="cls-1" d="M17.42,49.83,0,65.82c.66-2.53,1.26-4.89,1.87-7.24.51-1.95,1-3.9,1.51-5.86a.91.91,0,0,1,.81-.81L17,49.72a2.06,2.06,0,0,1,.35,0Z"/><path class="cls-1" d="M12.44,18.87,8.65,13.05,26.64.34l.09.1Z"/><path class="cls-1" d="M47.75,13.09,44,18.87,29.69.43l.09-.1Z"/><path class="cls-1" d="M2.31,31.61,8.24,13.82c1.21,1.88,2.36,3.65,3.48,5.44.08.14-.05.52-.19.7Q7.66,25,3.75,30L2.41,31.68Z"/><path class="cls-1" d="M48.28,13.82c2,6,3.91,11.91,5.84,17.81l-.1.06L51.5,28.42c-2.15-2.78-4.3-5.58-6.47-8.35A.84.84,0,0,1,45,18.91C46.08,17.28,47.13,15.61,48.28,13.82Z"/><path class="cls-1" d="M54.54,34.4V47l-6.26-1.18,6.15-11.51Z"/><path class="cls-1" d="M2,34.36l6.06,11.5L1.89,47V34.38Z"/><path class="cls-1" d="M53.48,34.26,47.4,45.44c-.1-.31-.17-.49-.22-.67-.56-2.08-1.11-4.16-1.68-6.24-.09-.32-.15-.55.24-.74l7.48-3.56S53.31,34.24,53.48,34.26Z"/><path class="cls-1" d="M9,45.5,2.9,34.18a4.51,4.51,0,0,1,.56.17l7,3.38c.31.15.49.29.39.69C10.24,40.71,9.63,43,9,45.5Z"/><path class="cls-1" d="M17.86,48.83l-13,2.06c.8-.84,1.44-1.54,2.09-2.22S8.32,47.24,9,46.56a.81.81,0,0,1,.65-.22c2.73.77,5.44,1.57,8.16,2.36Z"/><path class="cls-1" d="M51.34,50.85l-12.66-2,0-.11L41,48c1.81-.55,3.63-1.1,5.45-1.62a1,1,0,0,1,.82.08c1.46,1.32,2.89,2.68,4.32,4Z"/><path class="cls-1" d="M3.29,50.87l-1.36-3,5.37-1Z"/><path class="cls-1" d="M49.09,46.84l5.32,1-1.3,3Z"/><g id="rmnJHG.tif"><path class="cls-1" d="M397,72l-27.76-28.7c-.15,1.63-.3,2.53-.31,3.44,0,6.92-.1,13.85,0,20.77.05,2.36-1,2.64-2.95,2.62s-3-.15-3-2.57c.1-11.81,0-23.62.05-35.44,0-.7.12-1.4.26-2.95l28,29c.16-1.55.33-2.43.34-3.32,0-6.92.08-13.85,0-20.77,0-2.08.7-2.68,2.69-2.63,1.83,0,3.07.1,3.05,2.54-.1,11.82,0,23.63-.06,35.44C397.27,70,397.14,70.58,397,72Z"/><path class="cls-1" d="M244.94,53.77l5.73,7.95,5.63,7.69c-4.08,1.56-6.53.8-8.73-2.39-2.54-3.68-5.14-7.33-7.73-11-.44-.61-1-1.12-2.05-2.25-.21,1.55-.41,2.36-.42,3.17,0,3.66-.12,7.33,0,11,.1,2.4-1.42,2.06-2.88,2.08s-2.83.19-2.81-2.15c.11-11.39.07-22.78,0-34.17,0-1.6.37-2.45,2.16-2.32,3.49.24,7,.13,10.47.63,5.2.75,8.33,4.11,8.91,8.93.66,5.45-1.51,9.55-6.25,11.8Zm-7.58-10.93c0,1.21.08,2.43,0,3.64-.18,2.1.62,3.07,2.79,2.72.64-.11,1.3-.1,1.94-.21,4-.66,5.75-2.76,5.62-6.6-.1-3.26-2-5.08-5.87-5.55-4.25-.53-4.46-.35-4.46,3.81Z"/><path class="cls-1" d="M120.2,37.12a23.37,23.37,0,0,0-2,1.24c-1.37,1-2.37,1.07-3.7-.36a6,6,0,0,0-8.19-.9c-2.75,1.83-2.91,5.33-.12,7.06a38.55,38.55,0,0,0,6.42,3c6.71,2.6,9.66,7.21,8.7,13.77a12.13,12.13,0,0,1-9.75,9.76c-4.87,1-10.37-1.17-12.83-5.17a18.07,18.07,0,0,1-1-2c-1.69-3.78-.69-5.3,3.47-5,.64.06,1.42,1.32,1.72,2.17,1.58,4.52,6.43,6.15,10.25,3.34a6.05,6.05,0,0,0,.49-9.69c-1.4-1.17-3.24-1.8-4.86-2.73-2.6-1.48-5.53-2.62-7.68-4.59C97.26,43.55,97.45,38,101,34.18,106.61,28.23,117.19,29.76,120.2,37.12Z"/><path class="cls-1" d="M148,31.21c2.35.24,4.72.36,7,.74a10.1,10.1,0,0,1,8.32,8.21c1,5-.7,9.42-4.42,11.82a14.22,14.22,0,0,1-8.83,2.35c-1.88-.12-2.65.65-2.6,2.56.09,3.66-.08,7.34.06,11,.08,2.32-1.32,2.16-2.86,2.15s-2.88.24-2.86-2.12q.12-17.1,0-34.22c0-1.87.72-2.46,2.46-2.32,1.22.1,2.45,0,3.67,0Zm2.34,5.5c-2.63-.07-2.78.06-2.8,2.66s-.05,5.05,0,7.57a2.56,2.56,0,0,0,.76,1.86c2.88,1.82,8.85-1,9.51-4.45C158.81,39.57,156.15,36.86,150.38,36.71Z"/><path class="cls-1" d="M344.86,70a30.32,30.32,0,0,1-5.33-.09c-.72-.14-1.47-1.14-1.82-1.92-3.31-7.43-6.53-14.9-9.8-22.35-.41-.93-.91-1.83-1.7-3.39-1.15,2.28-2.06,3.94-2.85,5.65-2.9,6.27-5.95,12.49-8.55,18.88-1.1,2.71-2.58,3.68-5.28,3.25-.62-.09-1.26-.11-2.37-.21l18.76-40,.72,0C332.62,43,338.6,56.16,344.86,70Z"/><path class="cls-1" d="M213,70a29.8,29.8,0,0,1-5.21-.08,3.44,3.44,0,0,1-1.86-1.87c-3.4-7.56-6.72-15.17-10.07-22.76-.35-.79-.78-1.55-1.45-2.89-.74,1.24-1.26,2-1.64,2.79Q188,55.6,183.19,66c-2.08,4.53-2.09,4.53-7.85,3.71L194,29.89l.8-.06Z"/><path class="cls-1" d="M267.78,31.56h30.68c-1.31,3.93-3,5.18-6.83,5.18-5.48,0-5.48,0-5.48,5.38,0,8.46-.08,16.92.05,25.38,0,2.41-1.09,2.56-3,2.58s-3-.25-2.91-2.61c.13-9,.05-18.07.05-27.1,0-3.63,0-3.63-3.52-3.63a7.11,7.11,0,0,0-1.46,0C271.28,37.61,269.63,34.85,267.78,31.56Z"/></g></g></g></svg>