<svg xmlns="http://www.w3.org/2000/svg" viewBox="0 0 173.07 140.8"><defs><style>.cls-1{fill:#a3aaaa;}</style></defs><g id="Layer_2" data-name="Layer 2"><g id="Layer_1-2" data-name="Layer 1"><path class="cls-1" d="M34.44,39.62h92.12c-1.27-2.79-2.2-5.37-3.56-7.69C114.81,18,102.62,10.73,86.41,10.35c-1.34,0-2.69.05-4,0-.36,0-1-.52-1-.8-.07-3.09,0-6.18,0-9.42,3.21,0,6.3-.22,9.35,0a50.41,50.41,0,0,1,31.47,14c12.17,11.66,17.6,26,16.11,42.79a51.73,51.73,0,0,1-38.63,45.69c-29.73,7.82-60.15-12.16-64.61-42.46A49.19,49.19,0,0,1,34.47,54C34.38,49.3,34.44,44.61,34.44,39.62ZM52,50c-2.09,0-4,0-6,0-1,0-1.28.35-1.21,1.27.16,2.21.14,4.44.44,6.63a41.73,41.73,0,0,0,83.08-6.11c0-1.43-.44-1.81-1.85-1.8C115.21,50,104,50,92.69,50H63.88c-.89,0-1.57,0-1.56,1.24a24.5,24.5,0,0,0,3.9,14c4.9,7.3,11.77,11.06,20.61,11.11h4.74V86.58c-9.78.87-18.68-1.42-25.72-6.83C56.15,72.31,51.78,62.27,52,50Z"/><path class="cls-1" d="M86.52,69a5.87,5.87,0,1,1,5.91-5.88A5.86,5.86,0,0,1,86.52,69Z"/><path class="cls-1" d="M21.27,124.88l-4,15.7H13.48l-2.13-8.25c0-.16-.1-.4-.17-.72s-.14-.67-.22-1.06-.15-.74-.21-1.08-.1-.61-.13-.81c0,.2-.06.47-.12.8s-.13.7-.2,1.08l-.22,1.06c-.08.33-.13.58-.18.75l-2.11,8.23H4l-4-15.7H3.28l2,8.57c0,.26.12.56.19.92s.15.73.23,1.13.14.76.2,1.12.11.68.14.94c0-.27.08-.59.14-.95s.12-.73.19-1.1.13-.73.2-1,.14-.59.2-.79l2.29-8.79h3.14l2.29,8.79q.08.3.18.78c.07.33.14.68.21,1.06s.14.75.2,1.11.1.68.13.94c0-.36.12-.79.21-1.3s.19-1,.29-1.53.2-.94.28-1.28l2-8.57Z"/><path class="cls-1" d="M37.72,140.58H34.4V133.8H28.18v6.78H24.85v-15.7h3.33V131H34.4v-6.15h3.32Z"/><path class="cls-1" d="M52.91,140.58l-1.14-3.74H46l-1.14,3.74H41.31l5.55-15.77h4.07l5.56,15.77ZM51,134.05l-1.14-3.65c-.07-.25-.16-.56-.28-.94l-.36-1.17c-.11-.4-.21-.75-.28-1-.07.29-.17.66-.3,1.09s-.24.84-.36,1.23l-.24.83-1.13,3.65Z"/><path class="cls-1" d="M60.08,140.58v-15.7h3.33v13h6.37v2.75Z"/><path class="cls-1" d="M83.16,140.58h-9v-15.7h9v2.72H77.44v3.45h5.32v2.73H77.44v4.05h5.72Z"/><path class="cls-1" d="M104.63,136.22a4.15,4.15,0,0,1-2.65,4,7.94,7.94,0,0,1-3.14.56,11.94,11.94,0,0,1-1.6-.11,10.09,10.09,0,0,1-1.49-.32,8.5,8.5,0,0,1-1.36-.52v-3.09c.75.33,1.52.62,2.32.89a7.73,7.73,0,0,0,2.39.4,3.22,3.22,0,0,0,1.31-.22,1.47,1.47,0,0,0,.73-.59,1.64,1.64,0,0,0,.22-.86,1.44,1.44,0,0,0-.39-1,4.19,4.19,0,0,0-1.09-.78c-.47-.25-1-.51-1.57-.79-.36-.17-.76-.38-1.19-.62a6.56,6.56,0,0,1-1.22-.91,4.4,4.4,0,0,1-1-1.31,4.28,4.28,0,0,1-.37-1.84,4.36,4.36,0,0,1,.65-2.41,4.17,4.17,0,0,1,1.84-1.53,7,7,0,0,1,2.83-.53,9.38,9.38,0,0,1,2.34.29,14.74,14.74,0,0,1,2.32.82l-1.07,2.59a19.49,19.49,0,0,0-1.94-.69,6.55,6.55,0,0,0-1.76-.24,2.6,2.6,0,0,0-1.06.2,1.43,1.43,0,0,0-.89,1.39,1.38,1.38,0,0,0,.33.94,3.31,3.31,0,0,0,1,.74c.43.23,1,.51,1.64.83a12.91,12.91,0,0,1,2.06,1.18,4.52,4.52,0,0,1,1.32,1.45A4.34,4.34,0,0,1,104.63,136.22Z"/><path class="cls-1" d="M122,140.58h-3.32V133.8h-6.22v6.78h-3.33v-15.7h3.33V131h6.22v-6.15H122Z"/><path class="cls-1" d="M137.13,140.58,136,136.84h-5.73l-1.14,3.74h-3.59l5.55-15.77h4.07l5.56,15.77Zm-1.93-6.53-1.14-3.65c-.07-.25-.16-.56-.28-.94l-.36-1.17c-.11-.4-.21-.75-.28-1-.07.29-.17.66-.3,1.09s-.24.84-.36,1.23l-.24.83-1.13,3.65Z"/><path class="cls-1" d="M148.88,124.88a10.38,10.38,0,0,1,3.53.51,4.09,4.09,0,0,1,2.07,1.56,4.73,4.73,0,0,1,.68,2.63,4.13,4.13,0,0,1-.41,1.88,4.41,4.41,0,0,1-1.08,1.37,6.37,6.37,0,0,1-1.44.91l4.62,6.84h-3.69l-3.75-6h-1.77v6h-3.33v-15.7Zm-.23,2.72h-1v4.25h1.07a3.93,3.93,0,0,0,2.37-.56,1.93,1.93,0,0,0,.71-1.62,1.69,1.69,0,0,0-.77-1.59A4.57,4.57,0,0,0,148.65,127.6Z"/><path class="cls-1" d="M173.07,140.58h-3.78L165.17,134l-1.41,1v5.61h-3.33v-15.7h3.33v7.18c.23-.3.45-.61.66-.92s.43-.62.66-.92l4.25-5.34H173l-5.47,7Z"/></g></g></svg>