<svg xmlns="http://www.w3.org/2000/svg" viewBox="0 0 211.36 115.71"><defs><style>.cls-1{fill:#a3aaaa;}</style></defs><g id="Layer_2" data-name="Layer 2"><g id="Layer_1-2" data-name="Layer 1"><path class="cls-1" d="M61.77,92.44c0-.81,0-1.61.08-2.41.18-2.28,1.14-3.18,3.44-3.22s4.46,0,6.69-.06c3.16-1.51,6.49-1,9.72-.58,1.89.25,2.53,2.06,2.73,3.83.14,1.3,0,2.62.08,3.92.12,2.25.87,3.12,3.08,3.14,7.68.08,15.35.09,23,0,2.13,0,3-.89,3.07-3q.18-6.63,0-13.27c-.06-2.29-1.08-3.13-3.71-3.16-5.43-.07-10.86,0-16.29,0-1.12,0-2.25,0-3.37,0a3.66,3.66,0,0,1-3.83-3.54,101.54,101.54,0,0,1,0-12c.13-2.23,1.72-3.45,4.29-3.49,5.37-.09,10.74,0,16.11,0,.81,0,1.62,0,2.43,0,2.32-.13,3.19-.92,3.25-3.21.1-3.54.09-7.1,0-10.65-.06-2.41-.9-3.27-3.33-3.31-4.86-.08-9.73,0-14.6,0-1.93,0-3.87-.05-5.8,0-2.33.09-3.1.88-3.22,3.21-.07,1.31,0,2.62-.09,3.92-.25,2.67-1.54,3.91-4.21,4-1.62.07-3.25,0-4.87,0a5.18,5.18,0,0,1-3-.87c-2.37,0-4.74,0-7.11-.06-2.06,0-3.22-.81-3.32-2.78-.25-5.22-.42-10.49,1.27-15.51a13.69,13.69,0,0,1,9.07-9c.41-.14.8-.32,1.2-.49A48.9,48.9,0,0,1,84.7,22.82q12.42.12,24.84,0a85.18,85.18,0,0,1,13,.71c1.13-.77,2.17-.16,3.18.26,6.55,2.69,9.74,7.82,10.07,14.66.28,5.84.09,11.7,0,17.56,0,1.17,0,2.41-1.31,3.07a16.07,16.07,0,0,1-4.37,6.54c-1.85,1.66-1.78,3.4.23,4.77A14,14,0,0,1,135.67,78a8,8,0,0,1,.36,2.56c0,6.17.07,12.34,0,18.51-.13,9.51-6,15.3-15.09,16.11-11.51,1-23.07.19-34.6.41-4.35.08-8.71.12-12.94-1.13-6.62-2-10.41-6.64-11.23-13.67C61.83,98,62,95.22,61.77,92.44Z"/><path class="cls-1" d="M134.49,59.09c.88-7,.58-14,.29-21-.27-6.77-3.86-11.63-10.55-13.84-.59-.19-1.15-.46-1.72-.69C120.27,17,118,10.47,115.79,3.91c-.91-2.71,0-3.86,2.88-3.87,5.43,0,10.86,0,16.3,0,2.73,0,3.17.29,4,3q5.49,18.26,10.91,36.52,3.62,12.18,7.23,24.36c.32,1.09.74,2.26,2.15,2.23s1.66-1.17,2-2.18q4.29-14.32,8.54-28.65,4.84-16.3,9.68-32.6A3.28,3.28,0,0,1,183.08,0c5.12.1,10.24,0,15.36,0,3.76,0,4.54,1,3.33,4.54q-11.22,32.51-22.45,65c-2.3,6.65-4.54,13.33-6.82,20-1,3-1.3,3.21-4.57,3.21-6.31,0-12.61-.05-18.92,0a3.25,3.25,0,0,1-3.55-2.57c-3.24-9.62-6.56-19.22-9.85-28.83A5.32,5.32,0,0,0,134.49,59.09Z"/><path class="cls-1" d="M187.74,80.84c0-2.86,0-5.72,0-8.58a3.31,3.31,0,0,1,3.2-3.38c5.74-.06,11.47,0,17.2,0a3.26,3.26,0,0,1,3.18,3.26q.06,8.69,0,17.36A3.28,3.28,0,0,1,208,92.77c-5.61,0-11.22,0-16.82,0a3.19,3.19,0,0,1-3.39-3.53C187.73,86.44,187.74,83.64,187.74,80.84Z"/><path class="cls-1" d="M76.55,59.25a11.53,11.53,0,0,0-2.65-8A2.54,2.54,0,0,0,72,50.76c-1.12-.06-2.24,0-3.36,0-4.07,0-4.7-.66-4.74-4.8,0-2.42.14-4.83.35-7.25.53-6.12,3.09-10.79,9-13.23.69-.28,1.43-.55,1.36-1.53A55.45,55.45,0,0,0,74.13,15C73.47,8.59,70.4,3.86,64.1,1.6A28,28,0,0,0,54.74.06C46.38,0,38,0,29.65,0H4.18C.86,0,0,.9,0,4.27V88.74c0,.37,0,.75,0,1.12,0,1.75,1.05,2.59,2.63,2.86a11.94,11.94,0,0,0,2.24.06c19-.19,37.93.43,56.89-.34.68-.17.77-.72.91-1.28.78-3,1.21-3.35,4.32-3.44,1.78-.06,3.62.33,5.34-.43,2.69-2.64,3.56-6,3.94-9.61C76.93,71.54,76.59,65.39,76.55,59.25ZM21.37,21.37c0-2.74,1-3.73,3.71-3.75,4.12,0,8.24,0,12.36,0s8.23,0,12.35,0c2.36,0,3,.67,3,3q0,6.72,0,13.45c0,2.17-.73,3-2.92,3q-12.45,0-24.9,0c-2.58,0-3.63-1.15-3.64-3.7Q21.33,27.36,21.37,21.37ZM54,72.27c0,2.33-.58,2.92-2.86,2.93q-13.11,0-26.23,0c-2.4,0-3.46-1-3.48-3.4,0-4.86-.05-9.72,0-14.59,0-2.29,1.09-3.29,3.36-3.3,4.49,0,9,0,13.48,0,4.31,0,8.62,0,12.93,0,2.39,0,2.79.38,2.8,2.67C54,61.8,54,67,54,72.27Z"/></g></g></svg>