<svg xmlns="http://www.w3.org/2000/svg" viewBox="0 0 288.12 97.36"><defs><style>.cls-1{fill:#a3aaaa;}</style></defs><g id="Layer_2" data-name="Layer 2"><g id="Layer_1-2" data-name="Layer 1"><path class="cls-1" d="M40.3,43.08,15,14.57C33.64-6.95,68.65-3.56,83.78,17.7L63.52,35.36,57.3,28.57Z"/><path class="cls-1" d="M12.09,79.59,32.42,61.81l6,7,17-14.46L80.75,82.8C60.91,105.45,25.43,99.57,12.09,79.59Z"/><path class="cls-1" d="M119.19,7.67c5.25.34,10.33.46,15.34,1.08a11.05,11.05,0,0,1,8,5.47c3.57,5.66,3.71,11.65,1.11,17.59s-7.49,8.06-13.63,8.05H119.19Zm6.18,26c5.43,1,10.12-.47,12.19-3.72s2.12-8.88-.07-11.85c-3.07-4.17-7.48-4.15-12.12-3.82Z"/><path class="cls-1" d="M219,8.27c3.67,0,7-.26,10.3.05,8.55.8,11.28,7.08,6.12,14.16,2.58,1.77,5.15,3.83,4.81,7.3a15.65,15.65,0,0,1-2.18,6.87,7.31,7.31,0,0,1-4.87,2.92c-4.63.4-9.32.14-14.18.14Zm6.2,25.9c2.11-.16,4.29,0,6.26-.59,1.13-.33,2.73-1.86,2.68-2.78-.06-1.37-1.08-3.38-2.24-3.88-1.94-.84-4.31-.71-6.7-1Zm.11-20v6.25c4.5.46,6.64-.57,6.73-3.14S230.3,13.82,225.32,14.16Z"/><path class="cls-1" d="M182,24.29A15.52,15.52,0,0,1,166.15,40a15.91,15.91,0,0,1-15.93-15.86A16.15,16.15,0,0,1,166.22,8C174.92,7.94,182.06,15.33,182,24.29Zm-25.69-.65c-.18,5.93,3.85,10.43,9.47,10.58a9.87,9.87,0,0,0,10.25-9.86,10.14,10.14,0,0,0-9.73-10.5A9.76,9.76,0,0,0,156.33,23.64Z"/><path class="cls-1" d="M288.12,33.94v5.93H269.17V8.18H288V14H275.32v6.86h12.73v6H275.32v7.13Z"/><path class="cls-1" d="M147.18,53h18.87v6H153.31v7h12.81v5.74H153.35v7.22h12.78V84.7H147.18Z"/><path class="cls-1" d="M209.64,52.9c1.7,0,3.14,0,4.59,0a11.92,11.92,0,0,1,1.42.24V65.58l.7.31c1.83-2.66,4-5.16,5.42-8,2.28-4.46,5.54-6.11,10.75-4.57l-7.83,11.41c-2.91,4.25-2.91,4.25,0,8.43l7.89,11.43c-4.47.83-7.95.76-10.2-3.76a37.38,37.38,0,0,0-6.65-8.76V84.74h-6.08Z"/><path class="cls-1" d="M191.68,53.15c-2.49,6.45-4.87,12.6-7.35,19h8.07c-3.39-4.76-.55-8.64,1.35-13.35,3.46,8.92,6.71,17.29,10,25.68-5.5,1.48-6.36,1.12-8.18-3.82-.59-1.6-1.32-2.43-3.12-2.25a20.5,20.5,0,0,1-4.36,0c-4.08-.5-7,.19-8.28,5-.89,3.35-4.18.57-6.63,1.21.33-1,.61-2.06,1-3q4.58-11.94,9.18-23.86C185.3,52.5,185.29,52.5,191.68,53.15Z"/><path class="cls-1" d="M188.36,8.06h5.86V20.82c0,2.29-.05,4.58,0,6.87.11,3.87,2.52,6.48,5.79,6.39s5.4-2.59,5.43-6.37c0-6.43,0-12.87,0-19.53h5.89c0,7.65.39,15.23-.13,22.76-.37,5.2-6,9.14-11.5,9.06s-10.89-4-11.25-9.36C188,23.22,188.36,15.74,188.36,8.06Z"/><path class="cls-1" d="M125.24,73.85V84.68h-6.12V53c4.51,0,8.87-.3,13.18.07,5.18.44,9.16,5.5,8.94,10.69a10.27,10.27,0,0,1-9.9,10.08C129.4,73.91,127.46,73.85,125.24,73.85Zm.18-14.79v8.8c3.14-.15,6.55,1.1,8.34-2.26a5.5,5.5,0,0,0-.18-4.59C131.72,57.85,128.43,59.35,125.42,59.06Z"/><path class="cls-1" d="M0,47.78A49.94,49.94,0,0,1,9.77,20.46c.49-.67,1-1.53,1.64-1.84s2.17-.59,2.71-.16.71,1.79.63,2.7c-.05.61-.79,1.17-1.23,1.76C2.6,37.6,1.73,56.17,11.24,71.89c.16.26.5.52.49.78,0,1.18.32,2.85-.31,3.45C10,77.45,8.6,76.42,8,75,5.65,69.64,3.12,64.38,1.38,58.88.28,55.39.42,51.49,0,47.78Z"/><path class="cls-1" d="M95.54,47.59c-.44,12.69-3.46,21.63-9.26,29.61-.55.75-1,1.75-1.81,2.08a9.38,9.38,0,0,1-3.12.23c0-1-.4-2.2,0-3.06.56-1.3,1.72-2.34,2.48-3.57Q97.79,50.31,85,27c-.87-1.57-3.23-3.46-.68-5.06s3.5,1.19,4.51,2.85A45.61,45.61,0,0,1,95.54,47.59Z"/><path class="cls-1" d="M245.69,8.12h5.71V34h11.79v5.83h-17.5Z"/></g></g></svg>