<svg xmlns="http://www.w3.org/2000/svg" viewBox="0 0 298.09 83.44"><defs><style>.cls-1{fill:#a3aaaa;}</style></defs><g id="Layer_2" data-name="Layer 2"><g id="Layer_1-2" data-name="Layer 1"><path class="cls-1" d="M148.92,83.44H2.06c-2.05,0-2.05,0-2.05-2Q0,41.83,0,2.27C0,.05,0,.05,2.17.05Q75.61,0,149,0T296,.14c2,0,2,0,2,2q0,39.57,0,79.13c0,2.08,0,2.08-2.16,2.08h-147Zm.56-50.4V60.38h4.05V58.66c0-5.38.1-10.76-.05-16.13-.08-2.61,1.33-4.32,2.9-6,1.05-1.11,2.36-.8,2.94.63A9,9,0,0,1,160,40.3c.09,6.09.09,12.18.13,18.27,0,.59.05,1.18.07,1.77h4.07V58.56c0-5.27.11-10.55-.06-15.81-.08-2.6,1.17-4.38,2.75-6.06,1.22-1.3,2.67-1,3.17.72a18.15,18.15,0,0,1,.67,4.82c.08,5.47,0,11,0,16.43v1.66h4c0-7.25,0-14.35,0-21.46a10,10,0,0,0-.67-3.28c-1.21-3.41-4.44-4.33-7.21-2a33.48,33.48,0,0,0-2.91,3.14c-.91-2.2-2-4.44-5-4.34-2.7.08-4,2.29-5.8,4.4V33ZM107.11,56.61a71.7,71.7,0,0,1-8.21.9c-5.14,0-9.67-5.73-8.57-10.71H109c-.13-1.56-.17-2.94-.35-4.29-.73-5.36-4.71-9.58-9.48-10.11A11.25,11.25,0,0,0,86.8,40.15a20.76,20.76,0,0,0-1.08,6c-.16,5.41,1.35,10.23,6.3,13.14,5.1,3,10.4,2.15,15.79.34Zm107.31-10.5c.27,2.13.35,3.62.64,5.07,1.23,6,5.59,9.8,11.52,10,5.77.21,10.38-3.19,12-9A19,19,0,0,0,238.15,40,11.32,11.32,0,0,0,227,32.34c-5.29,0-9.37,2.6-11.17,7.53A44.75,44.75,0,0,0,214.42,46.11Zm38.52,14.28V58.63c0-5.58,0-11.16,0-16.73,0-.58.07-1.39.44-1.68a26.15,26.15,0,0,1,5.46-3.83c3.65-1.56,6.4.26,6.89,4.18a23.52,23.52,0,0,1,.11,2.91c0,5.07,0,10.14,0,15.2v1.7H270V58.65c0-5.43,0-10.85,0-16.28a24.93,24.93,0,0,0-.26-3.66c-.63-4.19-3.25-6.38-7.48-6.37a11.69,11.69,0,0,0-7.66,3.09c-.49.41-1,.83-1.74,1.5V33.09h-3.95v27.3ZM23.78,56.29a7.45,7.45,0,0,1-.34,1.14c-.67,1.47-.19,2.21,1.34,2.68a19.28,19.28,0,0,0,8.92.8c4.13-.69,9-4.4,9.56-9.87.42-4.16-1.78-8.13-6.32-10.46-1.6-.82-3.27-1.48-4.83-2.36a18.58,18.58,0,0,1-3.92-2.64,5,5,0,0,1,1-8,9.8,9.8,0,0,1,6.66-1.22c1.56.21,3.1.57,4.77.88l.9-3.41c-4.22-1.14-8.28-1.64-12.28-.21-3.56,1.27-6,3.65-6.37,7.68-.41,4.21,1.51,7.07,5,9,1.3.72,2.68,1.28,4,2a41.76,41.76,0,0,1,3.79,2c3.29,2.09,4.45,5.06,3.42,8.55a6.83,6.83,0,0,1-7.25,4.77A71.72,71.72,0,0,1,23.78,56.29ZM74.84,33H65.66c.13-1.47.14-2.79.37-4.08a2.8,2.8,0,0,1,3.2-2.64c1.52,0,3,.38,4.56.51.41,0,1.09-.13,1.22-.41a22.28,22.28,0,0,0,1-3,58.48,58.48,0,0,0-7.79-.62c-4.08.23-5.78,2.06-6.35,6.14-.19,1.35-.26,2.71-.4,4.2H54.77V36.6h6.8V60.33h4.14V36.57h9.13Zm51.43,27.41V58.63c0-4.87,0-9.73,0-14.6a3.38,3.38,0,0,1,.22-1.64c3-4.85,6.48-7.16,11.65-5.11.32.13.67.2,1.09.33l1.63-3.9c-6.11-2.64-11-1.68-14.41,4.46l-.26-.4V33.08h-3.93v27.3ZM198.32,33.1H186.23v3.49h8V60.36h4.1Zm.8-7.61a2.82,2.82,0,0,0-2.7-2.91,2.84,2.84,0,0,0-.12,5.68A2.74,2.74,0,0,0,199.12,25.49Z"/><path class="cls-1" d="M104.23,43.38H90.5a7.24,7.24,0,0,1,7.35-7.48C101.39,36,104.45,39.49,104.23,43.38Z"/><path class="cls-1" d="M219,46.61a13,13,0,0,1,1.93-7.46,7.21,7.21,0,0,1,12-.2c3,4.23,2.86,11.64-.26,15.79a7,7,0,0,1-11.34,0A12.75,12.75,0,0,1,219,46.61Z"/></g></g></svg>