<svg xmlns="http://www.w3.org/2000/svg" viewBox="0 0 297.83 208.27"><defs><style>.cls-1{fill:#a3aaaa;}</style></defs><g id="Layer_2" data-name="Layer 2"><g id="Layer_1-2" data-name="Layer 1"><path class="cls-1" d="M181.32,15.74c0-4.69,0-9.39,0-14.08C181.28.39,181.69,0,183,0q14.1.08,28.19,0c1.4,0,1.71.53,1.7,1.8q-.06,14,0,28c0,1.33-.41,1.78-1.76,1.77q-14-.07-28,0c-1.52,0-1.79-.61-1.77-1.92C181.36,25,181.32,20.38,181.32,15.74Z"/><path class="cls-1" d="M158.82,208.05v-7c0-7.47,0-14.93,0-22.39,0-1.44.3-2,1.87-2q13.92.1,27.83,0c1.47,0,1.82.49,1.81,1.87-.05,9.27,0,18.53,0,27.8,0,1,.08,1.87-1.42,1.87-9.7-.05-19.4,0-29.09,0A6.86,6.86,0,0,1,158.82,208.05Z"/><path class="cls-1" d="M0,75.53v-2.1c0-9.09,0-18.18,0-27.27,0-1.47.37-2,1.9-2q13.83.11,27.65,0c1.47,0,2,.4,2,1.93-.06,9.2,0,18.41,0,27.62,0,1.13,0,2-1.56,2-9.58,0-19.16,0-28.74,0A10.83,10.83,0,0,1,0,75.53Z"/><path class="cls-1" d="M209.7,103v1.89c0,4.46,0,8.91,0,13.37,0,1.23-.34,1.74-1.63,1.68-2.17-.08-4.34,0-6.51,0-.93,0-1.28-.35-1.28-1.27q0-14.46,0-28.91c0-1.06.45-1.35,1.42-1.33,2.11,0,4.22.09,6.33,0a2.52,2.52,0,0,1,2.68,1.56c2.54,4.79,5.2,9.52,7.81,14.27a4.39,4.39,0,0,0,1.41,1.65c0-.59.11-1.18.11-1.78,0-4.57,0-9.15,0-13.73,0-1.45.33-2.07,1.9-2,2,.13,4.09.06,6.14,0,1,0,1.41.34,1.41,1.36q0,14.37,0,28.73c0,1.14-.49,1.45-1.53,1.42-2.17,0-4.34-.06-6.51,0a2.24,2.24,0,0,1-2.29-1.33c-2.49-4.47-5.06-8.91-7.6-13.35-.44-.78-.89-1.56-1.34-2.34Z"/><path class="cls-1" d="M123.71,55.16c-3.17,0-6.23,0-9.3,0a1.63,1.63,0,0,1-1-.76,6.2,6.2,0,0,0-10-.8c-2.81,3.13-3,9.34-.38,12.64,2,2.55,6.22,3.52,9,1.83a15.77,15.77,0,0,0,2.83-2.93l-.39-.68c-1.16,0-2.33,0-3.5,0-1,0-1.37-.32-1.43-1.34-.31-4.86-.34-4.86,4.42-4.86,3.73,0,7.47.05,11.21,0,1.29,0,1.94.3,1.78,1.71a12.2,12.2,0,0,0,0,2.34c.1,1.36,0,2.42-1.85,2.22a1.3,1.3,0,0,0-1,.78c-2,9.79-12.06,12.54-20.09,10.81s-13.1-8.79-12.38-17.46,6.84-14.71,15.51-15.2c4.87-.28,9.35.81,13,4.21A10.19,10.19,0,0,1,123.71,55.16Z"/><path class="cls-1" d="M127.83,164.92c-9.84,0-17-6.91-17.09-16.48s7.13-16.7,17-16.7,17,6.88,17.07,16.47S137.78,164.89,127.83,164.92Zm7.52-16.63c0-4.6-3.21-8-7.56-8s-7.56,3.4-7.59,8,3.26,8.08,7.67,8.05S135.37,152.9,135.35,148.29Z"/><path class="cls-1" d="M65.48,152.79c-1.49,0-2.63.08-3.76,0-2.56-.22-1.15-2.21-1.29-3.36-.11-1-.93-2.78,1.32-2.79,4.1,0,8.2,0,12.3,0s3.61-.62,3.68,3.59c0,1.38.32,2.9-2,2.67-.27,0-.8.66-.91,1.1-2.18,9.11-11.18,12.21-19.81,10.49-8.31-1.66-13.43-8.87-12.55-17.63.63-6.29,3.55-11.2,9.52-13.64,6.32-2.59,12.54-2.09,18.15,2.08a11,11,0,0,1,4.54,8.22c-3.32,0-6.48,0-9.64,0-.31,0-.68-.44-.89-.76a6.16,6.16,0,0,0-9.86-.88c-3,3.17-3.15,9.58-.36,12.91s9,3.27,11-.28A11.07,11.07,0,0,0,65.48,152.79Z"/><path class="cls-1" d="M44.21,60c0-4.69,0-9.38,0-14.08,0-1.24.37-1.69,1.65-1.68,4.27.07,8.55-.07,12.82.06,8.8.25,15.33,6.67,15.54,15.14.21,8.77-5.72,15.5-14.62,16.14-4.67.34-9.39.09-14.08.15-1.26,0-1.3-.73-1.3-1.64Q44.22,67,44.21,60Zm9.37,0c0,2.11,0,4.21,0,6.31,0,.49.33,1.27.69,1.4,3.92,1.44,8.86-1.31,10-5.47,1.66-6.12-3.5-11.4-9.8-9.94-.4.09-.86.9-.88,1.4C53.52,55.75,53.58,57.85,53.58,60Z"/><path class="cls-1" d="M133.3,110.42l6.15,9.45c-3.79,0-7.13,0-10.47-.05-.45,0-1-.64-1.29-1.09-1.34-1.93-2.57-3.94-4-5.83-.36-.49-1.13-.67-1.71-1a5.56,5.56,0,0,0-.65,1.65c-.09,1.68-.06,3.37,0,5,0,.92-.34,1.3-1.27,1.29q-3.43,0-6.87,0c-.93,0-1.27-.38-1.27-1.3q0-14.44,0-28.89c0-1.06.48-1.32,1.43-1.32,4.82,0,9.64-.07,14.46,0a11.13,11.13,0,0,1,10.4,7.62,12,12,0,0,1-3.45,13.14Zm-12-10.21a16.21,16.21,0,0,0,.06,3,1.88,1.88,0,0,0,1.18,1.27,11.75,11.75,0,0,0,3.4-.07c2.27-.38,3.62-2.52,3.29-5-.38-2.86-2.28-4-6.46-3.73-2.8.18-.93,2.41-1.46,3.6A2.41,2.41,0,0,0,121.35,100.21Z"/><path class="cls-1" d="M164.63,110.4l6.2,9.49a26.86,26.86,0,0,0-4.45,0c-4.91.9-8.31-.83-10.24-5.47a6.65,6.65,0,0,0-1.42-2.07,1.84,1.84,0,0,0-1.42-.4c-.25,0-.54.72-.55,1.12-.06,1.81-.07,3.61,0,5.42,0,1-.37,1.39-1.38,1.37q-3.33-.06-6.68,0c-1,0-1.37-.37-1.37-1.37q0-14.36,0-28.71c0-1.33.66-1.44,1.69-1.43,4.52,0,9,0,13.55,0a11.35,11.35,0,0,1,11.09,7.71,12,12,0,0,1-4,13.46Zm-9.16-14.7c-2.75,0-2.75,0-2.75,2.68,0,1,0,1.92,0,2.88.08,3.67-.74,3.35,3.53,3.3a4.26,4.26,0,0,0,4.43-4.91C160.44,97,158.73,95.71,155.47,95.7Z"/><path class="cls-1" d="M108.43,164.05c-3.77,0-7,0-10.26-.05a2.45,2.45,0,0,1-1.49-1.07c-1.36-1.92-2.58-3.94-4-5.83-.36-.5-1.12-.69-1.7-1a5.89,5.89,0,0,0-.63,1.67c-.08,1.62-.07,3.25,0,4.87,0,1.11-.42,1.49-1.5,1.46-2.1,0-4.22-.06-6.32,0-1.18,0-1.59-.41-1.58-1.58,0-4,0-7.95,0-11.92,0-5.43,0-10.85,0-16.27,0-1.34.41-1.78,1.76-1.76,4.52.07,9,0,13.56,0a11.29,11.29,0,0,1,10.94,7.67,11.78,11.78,0,0,1-3.8,13.33c-1,.81-1,1.36-.34,2.34C104.82,158.45,106.46,161,108.43,164.05ZM93.13,139.9c-2.77,0-2.77,0-2.77,2.69,0,1,0,1.92,0,2.89.07,3.62-.59,3.28,3.44,3.26a4.2,4.2,0,0,0,4.54-4.3C98.42,141.53,96.56,139.91,93.13,139.9Z"/><path class="cls-1" d="M75.92,107.44c0,7.32-7.48,13.27-16.23,13.26-10,0-17.24-6.88-17.27-16.48s7.06-16.6,17.07-16.66c9,0,16.32,6,16.37,13.57a5.87,5.87,0,0,1-1.12.24c-2.35,0-4.7.09-7,0A2.33,2.33,0,0,1,66,100.22a6.34,6.34,0,0,0-5.85-4.12c-2.85-.17-5.29.75-6.79,3.28a8.61,8.61,0,0,0,.07,9.57c1.79,2.79,4.55,3.61,7.73,3.11a5.75,5.75,0,0,0,4.62-3.37,1.93,1.93,0,0,1,2.08-1.27C70.55,107.47,73.24,107.44,75.92,107.44Z"/><path class="cls-1" d="M266.76,101.35c-2.91,0-5.84,0-8.78,0-.35,0-.82-.63-1-1.07-1.21-2.95-3.49-4.18-6.56-4.15a7,7,0,0,0-6.74,4.57c-2.48,6.19,1.91,12.37,8.15,11.46a6.36,6.36,0,0,0,5-3.43c.26-.48.75-1.16,1.16-1.17,2.93-.1,5.87-.06,8.78-.06.69,6.21-6.62,12.72-14.55,13.2-10.81.66-18.73-6.23-18.82-16.36S241,87.13,251.52,87.58C260.05,88,267.41,94.47,266.76,101.35Z"/><path class="cls-1" d="M158.47,132.57v18.55c0,.72,0,1.45,0,2.17a3.77,3.77,0,0,0,3.75,3.65,3.68,3.68,0,0,0,3.75-3.63c.12-2,.05-4.09.05-6.14,0-4.21.08-8.43,0-12.64-.05-1.64.51-2.08,2.06-2,2,.13,4,.07,6,0,1,0,1.4.33,1.4,1.36,0,6.68.09,13.37-.08,20a10.68,10.68,0,0,1-7.69,10.1,16.81,16.81,0,0,1-9.45.39A11.15,11.15,0,0,1,149.1,153c0-6.2,0-12.4,0-18.6,0-1.56.52-2,2-1.88C153.42,132.65,155.82,132.57,158.47,132.57Z"/><path class="cls-1" d="M106.49,100c0,3,0,6,0,9-.1,5.9-3.46,10.15-9.27,11.24a21.54,21.54,0,0,1-7.34.07c-5.94-1-9.49-5.11-9.65-11.11-.16-6.44,0-12.89-.08-19.33,0-1.25.52-1.53,1.63-1.49,2,.06,4,.09,6,0,1.43-.08,1.87.4,1.85,1.83-.07,5.78,0,11.57,0,17.35a11.9,11.9,0,0,0,.11,2,3.7,3.7,0,0,0,4,3.2,3.6,3.6,0,0,0,3.44-3.55c.1-2.34,0-4.69,0-7,0-4,0-8.07,0-12.1,0-1.26.38-1.72,1.66-1.67,2.1.08,4.21.07,6.32,0,1.12,0,1.46.4,1.45,1.47C106.46,93.24,106.49,96.61,106.49,100Z"/><path class="cls-1" d="M166.77,75.7c.46-1.29.77-2.19,1.09-3.08,3.27-8.88,6.57-17.74,9.78-26.63a2.26,2.26,0,0,1,2.62-1.79c2.16.12,4.34,0,6.51.09a2.31,2.31,0,0,1,1.74,1.06c3.77,9.78,7.44,19.59,11.13,29.4a3.29,3.29,0,0,1,.07.71,7.58,7.58,0,0,1-1.32.22c-1.87,0-3.74-.1-5.6,0-2.15.17-3.79-.08-4.1-2.71,0-.37-.92-.89-1.43-.91-2.71-.09-5.43,0-8.14-.07-1.3,0-1.5.85-1.64,1.72-.26,1.53-1,2-2.61,2C172.3,75.6,169.72,75.7,166.77,75.7Zm16.71-21.14-.46,0c-1,3.46-2,6.93-3,10.55h6.5Z"/><path class="cls-1" d="M180.88,148.34c0-4.63,0-9.26,0-13.89,0-1.34.27-1.94,1.78-1.91,4.45.1,8.91,0,13.36.05,6.92.1,11.81,5,11.81,11.71S202.93,155.9,196,156h-.91c-4.84,0-4.82,0-4.84,4.93,0,3.45.44,3.07-3.06,3.1-1.57,0-3.14-.06-4.7,0-1.27.07-1.67-.41-1.65-1.66C180.92,157.73,180.88,153,180.88,148.34Zm9.39-8.41v5.13c0,4,.41,4.3,4.46,3.63a4.25,4.25,0,0,0,3.52-4.56,4.1,4.1,0,0,0-3.71-4.18C193.23,139.84,191.91,139.93,190.27,139.93Z"/><path class="cls-1" d="M174.88,88.41c6.4,0,12.66,0,18.92,0a1.68,1.68,0,0,1,1.12,1.15c.65,5.83.63,5.83-5.18,5.83-1.5,0-3-.07-4.51,0a1.54,1.54,0,0,0-1.09,1c-.13,1.36,0,2.73,0,4.4,3,0,5.8.11,8.6,0,1.82-.09,2.38.44,2.33,2.31-.13,4.46,0,4.46-4.46,4.46h-6.3v5.24c2.94,0,5.82.08,8.7,0,1.59-.06,2.2.45,2,2.05a15.75,15.75,0,0,0,0,3.07c.13,1.44-.31,2-1.88,2-5.84-.09-11.69-.05-17.53-.06a5.63,5.63,0,0,1-.7-.12Z"/><path class="cls-1" d="M282.7,99.33c1.28-3,2.56-5.51,3.43-8.16.76-2.28,2-3,4.36-2.82s4.64.05,7.34.05c-1.29,2.61-2.39,4.87-3.51,7.12-3.74,7.55-7.52,15.09-11.21,22.68a2.54,2.54,0,0,1-2.74,1.73c-2.71-.12-5.42,0-8.48,0,.31-.82.49-1.41.76-2,1.2-2.49,2.37-5,3.67-7.45a3.18,3.18,0,0,0,0-3.36c-2.92-5.47-5.74-11-8.6-16.51-.29-.57-.56-1.17-1-2,1.06-.06,1.86-.14,2.66-.15,2.17,0,4.34.08,6.5,0A2.2,2.2,0,0,1,278.32,90c1.05,2.5,2.21,4.94,3.35,7.41C281.91,97.92,282.21,98.41,282.7,99.33Z"/><path class="cls-1" d="M155.85,44.24c3.25,0,6.51.09,9.75,0,1.73-.08,2.21.56,2.09,2.17a42.21,42.21,0,0,0,0,4.5c0,1-.36,1.43-1.38,1.39-1.26,0-2.53.08-3.79,0-1.47-.12-2,.36-2,1.89.08,6.5,0,13,.07,19.49,0,1.68-.47,2.23-2.13,2.12a43.45,43.45,0,0,0-5.59,0c-1.38.07-1.75-.45-1.73-1.77.05-6.56,0-13.11.05-19.67,0-1.55-.35-2.15-2-2.07s-3.84.41-4.8-.46-.3-3-.36-4.65c0-.48,0-1,0-1.45-.1-1.13.46-1.44,1.51-1.43C149,44.26,152.42,44.24,155.85,44.24Z"/><path class="cls-1" d="M203.44,59.85c0-4.63,0-9.26,0-13.89,0-1.35.42-1.82,1.77-1.75a42.46,42.46,0,0,0,5.41,0c1.71-.13,2.3.41,2.27,2.19-.1,6.31,0,12.63,0,18.95,0,2.32,0,2.32,2.41,2.33a42.31,42.31,0,0,1,4.51.06A1.84,1.84,0,0,1,221,69c.14,1.79,0,3.61.07,5.41,0,1.07-.54,1.32-1.47,1.31-4.88,0-9.75,0-14.63,0-1.23,0-1.54-.49-1.53-1.61C203.46,69.35,203.44,64.6,203.44,59.85Z"/><path class="cls-1" d="M139.61,60c0,4.52-.08,9,0,13.54,0,1.79-.56,2.31-2.26,2.18a42.62,42.62,0,0,0-5.42,0c-1.37.07-1.91-.35-1.9-1.82q.07-14,0-28c0-1.21.34-1.75,1.64-1.7,2.1.08,4.22.08,6.32,0,1.33-.05,1.61.53,1.59,1.72C139.58,50.62,139.61,55.32,139.61,60Z"/><path class="cls-1" d="M87.62,60c0,4.63,0,9.26,0,13.89,0,1.36-.32,2-1.8,1.88-2.1-.11-4.21,0-6.32,0-1,0-1.39-.38-1.38-1.38q0-14.34,0-28.68c0-1.15.52-1.44,1.54-1.42,2.11.05,4.21.07,6.32,0,1.26,0,1.67.41,1.65,1.67C87.58,50.57,87.62,55.26,87.62,60Z"/></g></g></svg>