<svg xmlns="http://www.w3.org/2000/svg" viewBox="0 0 444.15 174.31"><defs><style>.cls-1{fill:#a3aaaa;}</style></defs><g id="Layer_2" data-name="Layer 2"><g id="Layer_1-2" data-name="Layer 1"><path class="cls-1" d="M0,137.94a3,3,0,0,1,1-.06c2.16,0,4.31,0,6.46,0,1.49,0,1.33-.25,1.33,1.37,0,4.09,0,8.18,0,12.27v1.82c.35,0,.43-.24.58-.4q6.36-7.29,12.71-14.6a1.13,1.13,0,0,1,.92-.48c3.27,0,6.55,0,9.82,0a.84.84,0,0,1,.24.06c.11.24-.07.35-.18.48q-5.46,6.39-10.94,12.78c-.9,1.05-.93,1-.15,2.15l12.77,18.24,1.28,1.86c-.22.28-.48.18-.7.18-3.18,0-6.37,0-9.55,0a1.39,1.39,0,0,1-1.32-.72c-2.52-3.84-5.08-7.67-7.62-11.51L15.05,159c-.33,0-.44.25-.59.41-1.75,1.9-3.48,3.81-5.24,5.68a1.58,1.58,0,0,0-.44,1.23q0,3.22,0,6.45c0,.82,0,.83-.78.83l-8,0Z"/><path class="cls-1" d="M417,173.68a.34.34,0,0,1-.25-.33v-.82q0-16.82,0-33.63c0-1.15-.13-1,1-1h6.83c1,0,.86,0,.86.9V164.5c0,1.16,0,1.16,1.14,1.16h16.91a1.15,1.15,0,0,0,.71-.08v8c-.45,0-.9,0-1.35,0H417.85C417.55,173.64,417.25,173.67,417,173.68Z"/><path class="cls-1" d="M417,173.68c.3,0,.6,0,.9,0H442.8c.45,0,.9,0,1.35,0v.18c-.33,0-.66-.05-1-.05H417.57C417.36,173.72,417.16,173.7,417,173.68Z"/><path class="cls-1" d="M153.4,173.55a1.76,1.76,0,0,1-.77.08c-3,0-6,0-9,0a1.28,1.28,0,0,1-1.28-.75c-1.48-2.5-3-5-4.48-7.48a1.23,1.23,0,0,0-1.23-.69c-1.58,0-3.16,0-4.74,0-.77,0-.78,0-.78.81,0,2.43,0,4.85,0,7.28,0,.78,0,.79-.8.79h-7c-.79,0-.79,0-.79-.81q0-17,0-34.09c0-.84,0-.85.84-.85,5.55,0,11.1,0,16.65,0a12.28,12.28,0,0,1,12.07,9.46,14.49,14.49,0,0,1-1.38,11.15,11.29,11.29,0,0,1-3.79,4c-.63.4-.74.31-.21,1.08q3.12,4.59,6.25,9.16A2.79,2.79,0,0,1,153.4,173.55Zm-22.29-22.28c0,1.55,0,3.09,0,4.63,0,.8,0,.81.8.81h6.73a5,5,0,0,0,1.43-.19,5.5,5.5,0,0,0,3.77-5.5,5.3,5.3,0,0,0-5.05-5.11c-2.33,0-4.66,0-7,0-.67,0-.68,0-.68.74C131.1,148.18,131.11,149.73,131.11,151.27Z"/><path class="cls-1" d="M73.24,155.76V172.4c0,.21,0,.43,0,.64,0,.41-.12.6-.57.6-2.52,0-5,0-7.55,0-.57,0-.56-.31-.56-.7,0-2.61,0-5.21,0-7.82,0-1.48,0-3,0-4.45,0-.9,0-.9-.88-.9H52.77c-1,0-1.94,0-2.91,0-1.17,0-1-.12-1,1.09,0,3.85,0,7.7,0,11.55,0,1.42.13,1.21-1.19,1.22H41.15c-1,0-.95.06-.95-.92V139c0-1.23-.11-1.1,1.14-1.11h6.37c1.2,0,1.1-.13,1.1,1.15v11.64c0,1.21-.09,1.09,1.06,1.09H63.79c.77,0,.78,0,.78-.83,0-3.94,0-7.88,0-11.81,0-1.37-.14-1.23,1.2-1.24h6.37c1.16,0,1.09-.08,1.09,1.07C73.25,144.55,73.24,150.16,73.24,155.76Z"/><path class="cls-1" d="M118,173.58c-.25,0-.36,0-.48,0-2.67,0-5.34,0-8,0a.87.87,0,0,1-.95-.63c-.56-1.42-1.18-2.82-1.74-4.24a.92.92,0,0,0-1-.68c-5.28,0-10.55,0-15.83,0-.69,0-.89.38-1.09.84-.57,1.31-1.13,2.61-1.64,3.94a1,1,0,0,1-1.12.79c-2.55,0-5.1,0-7.65,0a1,1,0,0,1-.62-.08c-.06-.26.1-.46.19-.68.89-2.08,1.77-4.16,2.66-6.23l2.14-5c.75-1.74,1.49-3.48,2.24-5.23q3.77-8.84,7.52-17.68a1.24,1.24,0,0,1,1.34-.9c2.64.06,5.28.05,7.92,0a1.11,1.11,0,0,1,1.2.81c3.15,7.41,6.34,14.81,9.51,22.21q2.53,5.88,5.06,11.77C117.74,172.92,117.84,173.2,118,173.58ZM98,148h-.22c-1.84,4.31-3.7,8.62-5.52,13h11.18C101.64,156.59,99.84,152.28,98,148Z"/><path class="cls-1" d="M246.13,173.59c-.07-.34.14-.59.25-.86.58-1.39,1.18-2.78,1.78-4.17q1.14-2.66,2.27-5.29t2.2-5.13c.73-1.71,1.51-3.39,2.18-5.12.77-2,1.72-3.94,2.5-6,.52-1.36,1.17-2.69,1.77-4,.69-1.52,1.34-3.07,2-4.61a.74.74,0,0,1,.8-.55c2.85,0,5.7,0,8.55,0,.58,0,.7.32.87.72q3.27,7.63,6.55,15.25l8,18.68c.14.33.27.67.39,1-.19.26-.41.19-.61.19-2.61,0-5.21,0-7.82,0a.93.93,0,0,1-1-.67,18.71,18.71,0,0,0-1.52-3.35.15.15,0,0,1,0-.09,1.75,1.75,0,0,0-.56-1.37c-.37-.27-1-.08-1.43-.08-4.94,0-9.89,0-14.83,0a1.17,1.17,0,0,0-1.31.9c-.53,1.41-1.17,2.78-1.75,4.18a.71.71,0,0,1-.74.51c-2.76,0-5.52,0-8.28,0A.72.72,0,0,1,246.13,173.59ZM271.78,161l-5.56-13.29c-1.91,4.54-3.81,8.86-5.63,13.29Z"/><path class="cls-1" d="M372.05,173.63a6.52,6.52,0,0,1,.73-2c.71-1.6,1.38-3.22,2.08-4.84s1.49-3.47,2.23-5.21q4.91-11.44,9.79-22.9a1.15,1.15,0,0,1,1.27-.83c2.66,0,5.33,0,8,0a1,1,0,0,1,1.08.69c1.53,3.71,3.14,7.39,4.72,11.09q1.92,4.5,3.88,9,3,7,6.06,14.06c.11.27.21.56.3.81-.19.25-.41.18-.61.18-2.61,0-5.22,0-7.83,0a.9.9,0,0,1-1-.68c-.57-1.46-1.2-2.91-1.79-4.37a.72.72,0,0,0-.8-.52q-8.06,0-16.11,0a.8.8,0,0,0-.84.61c-.6,1.45-1.24,2.89-1.83,4.35a.84.84,0,0,1-.93.62c-2.64,0-5.28,0-7.92,0C372.39,173.67,372.25,173.65,372.05,173.63ZM397.7,161c-1.83-4.39-3.65-8.75-5.54-13.26-1.91,4.5-3.76,8.86-5.63,13.23C387.34,161.05,396.52,161.07,397.7,161Z"/><path class="cls-1" d="M199,149.2c-1.21,0-2.43,0-3.64,0-.27,0-.52,0-.61-.36a4.69,4.69,0,0,0-3.64-3.55,8.29,8.29,0,0,0-6.1.61,3.62,3.62,0,0,0-1.33,1.09,1.78,1.78,0,0,0,.4,2.63,8.18,8.18,0,0,0,2.64,1.19c2.64.75,5.31,1.43,8,2.22a17.72,17.72,0,0,1,6.4,3.14,8.63,8.63,0,0,1,3.2,6.48c.24,4.9-2.62,8.45-6.75,10.21a19,19,0,0,1-5.81,1.36,20.06,20.06,0,0,1-8.08-.86,13.64,13.64,0,0,1-8.14-6.57,10.77,10.77,0,0,1-1.18-2.62,9.87,9.87,0,0,1-.31-2.61.44.44,0,0,1,.51-.48h2.28c1.67,0,3.33,0,5,0,.72,0,.72,0,.93.7a6.81,6.81,0,0,0,5.6,4.85,9.94,9.94,0,0,0,4.6-.14,4.17,4.17,0,0,0,2-1.1,2.33,2.33,0,0,0-.2-3.59,5.35,5.35,0,0,0-1.92-1,49.12,49.12,0,0,0-6.56-1.63,16,16,0,0,1-1.76-.61,22.08,22.08,0,0,1-5.52-2.41,10.53,10.53,0,0,1-4.05-4.66,4.93,4.93,0,0,1-.28-1.6,9.66,9.66,0,0,1,2.44-7.82,14,14,0,0,1,7.09-4.2,18.2,18.2,0,0,1,10.06.07,12.69,12.69,0,0,1,8.42,7.32,10.26,10.26,0,0,1,.76,3.26c0,.65,0,.68-.63.68C201.47,149.21,200.22,149.2,199,149.2Z"/><path class="cls-1" d="M308.47,137.92l.5,0a1.75,1.75,0,0,0,1,.14,13.07,13.07,0,0,1,5.19,2A12.31,12.31,0,0,1,320,146.6a15.33,15.33,0,0,1-.69,11.83,12.23,12.23,0,0,1-9.75,7,18.82,18.82,0,0,1-2.9.18h-6.36a1.68,1.68,0,0,0-.89.08l0,0h0c0,2.42,0,4.83,0,7.24,0,.3.14.71-.37.77-2.66-.09-5.31-.09-8,0a.33.33,0,0,1-.34-.34c0-.24,0-.48,0-.72V138.78c0-.29-.09-.61.1-.88.33,0,.66,0,1,0h16.72Zm-9.12,19.67h6.83a7.4,7.4,0,0,0,.82,0,5.13,5.13,0,0,0,4.73-3.75,7.47,7.47,0,0,0,.21-3.32,5,5,0,0,0-4.18-4.42,6.63,6.63,0,0,0-1.53-.16h-6.18c-.68,0-.69,0-.7.69v11Z"/><path class="cls-1" d="M244.33,165c-.23.36-.45.72-.69,1.06A19,19,0,0,1,230,174.17a24.79,24.79,0,0,1-7.14-.33c-1.07-.18-2-.83-3.07-.82a45.43,45.43,0,0,1-4.62-2.8,18.06,18.06,0,0,1-5.64-7.57A18.26,18.26,0,0,1,222,138a21.26,21.26,0,0,1,11.33,0,18,18,0,0,1,10.56,7.37,2.23,2.23,0,0,1,.48.9c-2.27,1.32-4.55,2.64-6.81,4-.41.24-.56.11-.76-.24a9.61,9.61,0,0,0-6.72-4.68,11,11,0,0,0-9.43,2.12,10.66,10.66,0,0,0-2,14,10.25,10.25,0,0,0,9.07,4.79,10.87,10.87,0,0,0,3.74-.65,10.25,10.25,0,0,0,5.17-4.19c.36-.56.37-.56,1-.23l6.45,3.72C244.14,164.86,244.2,164.93,244.33,165Z"/><path class="cls-1" d="M191.16,75.74c0,1.9,0,3.74,0,5.59,0,1.16.16,1-1,1-.94,0-1.88,0-2.82,0-.45,0-.57-.15-.56-.58,0-1.76,0-3.52,0-5.27,0-.89.05-.76-.69-.86a21.62,21.62,0,0,1-10.75-4.76,21.2,21.2,0,0,1-4.55-5.35A19.86,19.86,0,0,1,168,57.94,21.19,21.19,0,0,1,180,35.43a20.46,20.46,0,0,1,5.89-1.77c.91-.12.91-.14.91-1,0-1.69,0-3.39,0-5.09,0-.64,0-.65.66-.66q1.55,0,3.09,0c.62,0,.63,0,.63.67,0,1.82,0,3.64,0,5.46,0,.15,0,.3,0,.44a21.39,21.39,0,0,1,19,20.92,20.72,20.72,0,0,1-5.42,14.36A21.13,21.13,0,0,1,191.16,75.74ZM189,71.45a16.82,16.82,0,1,0-16.88-16.51A16.8,16.8,0,0,0,189,71.45Z"/><path class="cls-1" d="M257.55,30.26c0,.78,0,1.57,0,2.36,0,1-.11.87.93,1a21.46,21.46,0,0,1,4.8,1.31A21,21,0,0,1,274.5,45.57a20.61,20.61,0,0,1,1.66,13,21.15,21.15,0,0,1-16.8,16.82c-.21,0-.41.1-.62.13-1.19.19-1.19.18-1.19,1.42V81.6c0,.69,0,.71-.72.71h-3c-.63,0-.65,0-.65-.67,0-1.7,0-3.4,0-5.09,0-.86,0-.86-.8-1a20.3,20.3,0,0,1-6.24-1.88A21.19,21.19,0,0,1,234.3,57.34a21,21,0,0,1,.85-9.24,21.22,21.22,0,0,1,16.93-14.42l.18,0c.91-.15.91-.15.91-1,0-1.64,0-3.27,0-4.91,0-.77,0-.78.73-.79,1,0,2,0,3,0,.47,0,.66.16.64.64,0,.91,0,1.82,0,2.73Zm-2.22,41.16a16.82,16.82,0,1,0-16.82-16.84A16.84,16.84,0,0,0,255.33,71.42Z"/><path class="cls-1" d="M243.38,22a21,21,0,0,1-3.48,10.79,20.76,20.76,0,0,1-16.15,9.52,21.19,21.19,0,0,1-21.38-13.46A22.57,22.57,0,0,1,201,22.62c-.07-.71,0-.71-.8-.71-1.73,0-3.45,0-5.18,0-.46,0-.64-.1-.63-.6,0-1.09,0-2.18,0-3.27,0-.4.14-.52.52-.51q2.78,0,5.55,0c.76,0,.79,0,.92-.72a13.71,13.71,0,0,1,.6-2.45,25.35,25.35,0,0,1,2.95-5.56A20.62,20.62,0,0,1,219.83.13a21.1,21.1,0,0,1,22.39,14.15,24,24,0,0,1,.75,2.8c.08.38.23.47.59.47h5.37c.21,0,.42,0,.64,0s.36.14.36.39c0,1.19,0,2.37,0,3.55,0,.4-.2.44-.51.43h-5.09A2.7,2.7,0,0,0,243.38,22ZM222.16,38a16.82,16.82,0,1,0-16.83-16.74A16.9,16.9,0,0,0,222.16,38Z"/><path class="cls-1" d="M224.2,67a20.92,20.92,0,0,1,16.72,11.21,20.62,20.62,0,0,1,2.42,8.48c0,.66.06.66.75.67,1.72,0,3.45,0,5.18,0,.64,0,.65,0,.66.64,0,1.06,0,2.12,0,3.18,0,.44-.14.58-.58.57-1.76,0-3.52,0-5.28,0-1,0-1,0-1.22.94-2.08,8.21-7.2,13.55-15.34,15.9a20,20,0,0,1-11.31-.15A21.36,21.36,0,0,1,202.5,96.06a22.67,22.67,0,0,1-1.08-3.58c-.18-.75-.18-.75-.91-.75h-5.1a4.87,4.87,0,0,0-.54,0c-.37,0-.47-.16-.47-.49,0-1.12,0-2.25,0-3.37,0-.47.19-.54.59-.54,1.58,0,3.15,0,4.73,0,1.17,0,1.2,0,1.3-1.16a21.68,21.68,0,0,1,3.14-9.38,25.62,25.62,0,0,1,2.72-3.47,17.78,17.78,0,0,1,4.34-3.47A20.09,20.09,0,0,1,220,67a6.68,6.68,0,0,0,1.89-.14h.63A5.51,5.51,0,0,0,224.2,67Zm-2,37.9a16.82,16.82,0,1,0-16.83-16.81A16.85,16.85,0,0,0,222.16,104.88Z"/><path class="cls-1" d="M339.59,145.85a1.55,1.55,0,0,1-.09-.82v-6.27c0-.88-.13-.89.88-.89H372.6c.21,0,.43,0,.64,0s.47.16.46.5c0,.78,0,1.57,0,2.36,0,1.36,0,2.73,0,4.09s.17,1.08-1,1.08H361.06a2.65,2.65,0,0,0-.07,1q0,12.87,0,25.73c0,1.14.16,1-1,1q-3.37,0-6.73,0c-1.2,0-1,.12-1-1V146.94c0-1,0-1-1.08-1H340.57A3.22,3.22,0,0,1,339.59,145.85Z"/><path class="cls-1" d="M167.86,155.74v16.9c0,1,.11,1-1,1h-6.64c-1.08,0-1,.1-1-1V138.87c0-1.05,0-1,1-1h6.55c1.19,0,1.1-.09,1.1,1.06Z"/><path class="cls-1" d="M326.55,155.75V139a3.37,3.37,0,0,0,0-.55c-.06-.47.12-.62.6-.61,1.64,0,3.28,0,4.92,0,.88,0,1.75,0,2.63,0,.34,0,.52.1.48.46,0,.18,0,.37,0,.55v33.81c0,1.09.13,1-1,1-2.28,0-4.55,0-6.82,0-.94,0-.85,0-.85-.83C326.55,167.15,326.54,161.45,326.55,155.75Z"/><path class="cls-1" d="M308.47,137.92H291.75c-.34,0-.67,0-1,0,.27-.22.58-.11.87-.11H307A3.7,3.7,0,0,1,308.47,137.92Z"/><path class="cls-1" d="M291,173.69c2.66-.09,5.31-.09,8,0Q295,173.78,291,173.69Z"/><path class="cls-1" d="M221.85,66.85A6.68,6.68,0,0,1,220,67,4.65,4.65,0,0,1,221.85,66.85Z"/><path class="cls-1" d="M224.2,67a5.51,5.51,0,0,1-1.72-.13A3.85,3.85,0,0,1,224.2,67Z"/><path class="cls-1" d="M309.93,138.09a1.75,1.75,0,0,1-1-.14A1.4,1.4,0,0,1,309.93,138.09Z"/><polygon class="cls-1" points="299.37 165.68 299.33 165.69 299.37 165.68 299.37 165.68"/><path class="cls-1" d="M200.63,54.61A11.65,11.65,0,1,1,189,43,11.66,11.66,0,0,1,200.63,54.61Zm-4.39,0A7.27,7.27,0,1,0,189,61.89,7.26,7.26,0,0,0,196.24,54.57Z"/><path class="cls-1" d="M255.36,43a11.64,11.64,0,1,1-11.67,11.56A11.57,11.57,0,0,1,255.36,43Z"/><path class="cls-1" d="M233.82,21.31A11.66,11.66,0,1,1,222.6,9.54,11.64,11.64,0,0,1,233.82,21.31Zm-4.41-.12a7.26,7.26,0,1,0-7.27,7.25A7.27,7.27,0,0,0,229.41,21.19Z"/><path class="cls-1" d="M233.82,88.06A11.66,11.66,0,1,1,222,76.43,11.69,11.69,0,0,1,233.82,88.06Zm-4.41,0A7.26,7.26,0,0,0,214.89,88a7.26,7.26,0,1,0,14.52.09Z"/></g></g></svg>