<svg xmlns="http://www.w3.org/2000/svg" viewBox="0 0 220.32 177.97"><defs><style>.cls-1{fill:#a3aaaa;}</style></defs><g id="Layer_2" data-name="Layer 2"><g id="Layer_1-2" data-name="Layer 1"><path class="cls-1" d="M42.93,38.5c0-1.41,0-2.83,0-4.24-.57-7.74,2.93-13.58,8.62-18.36C59.52,9.16,69,5.38,79.07,3.12c21.4-4.8,42.6-4.25,63.45,3a38.33,38.33,0,0,1,7.71,3.45c-.18,3.73-.36,7.47-.55,11.2-2.67-.86-5-2.57-8-2.73a1.14,1.14,0,0,0-.81-.85,120.85,120.85,0,0,0-22.6-4.38c-3-.24-6-1.18-9.1-.3a12.79,12.79,0,0,0-7,.1,2,2,0,0,0-1.63-.4A104.19,104.19,0,0,0,84.82,14c-2.33.45-2.88,1.62-2.06,3.68C75.44,22.21,69.57,28,67.15,36.55h-.8c-.34-6.44.46-12.65,4-18.25a2.66,2.66,0,0,0-2.26,0A50.94,50.94,0,0,0,51.77,27.1a28.47,28.47,0,0,0-7.18,8.65A3.37,3.37,0,0,0,44,38.56Z"/><path class="cls-1" d="M145.73,67.36c-.47,1.18-1.94.8-2.8,1.86a57.73,57.73,0,0,1,9.49,4.28c6.44,3.56,12,8.19,15.14,15a20.51,20.51,0,0,1,1,13.59l-.91-1.08A8.07,8.07,0,0,0,166,96.9c-5.6-8.55-14.4-12.47-23.38-16.14a.84.84,0,0,0-1.12.2c-.24.37-.07.76.18,1.13,3.48,5.17,3.94,11,3.58,17l0,0c-1.34-.22-1.17-1.47-1.55-2.32-4.52-10-12.41-16-22.53-19.46-1.27-.43-2-.22-1.57,1.35.5,1.85,1,3.69,1.47,5.54a100.71,100.71,0,0,1,.61,16.92,1.71,1.71,0,0,1-.32,0A42.32,42.32,0,0,0,119,88.47c-1.84-5.62-4.66-10.61-10.28-13.38a1.79,1.79,0,0,1,1.49-1,3.68,3.68,0,0,0,3.73.68c1.65-.53,3.25-1.19,4.92-1.61,8.85-2.26,16-7,21-14.69a1.93,1.93,0,0,1,1.41-.92c1.23-.31,2.28-1.18,3.63-1.07,1.26.73,1.2,2,1.36,3.2C146.56,62.3,145.59,64.79,145.73,67.36Z"/><path class="cls-1" d="M43.13,101.56c-1.75-9.44,1.3-17,8.73-23A61.15,61.15,0,0,1,66.42,70c.7-.3,1.74-.26,1.74-1.43a62,62,0,0,0,14.43,4.3,4.79,4.79,0,0,0,5.55-4.09c.21-2.88.88-5.74.53-8.65,1.38.12,2.59,1,4,.9,1.73,6,4.62,11.06,10.51,13.89-3.21,2.17-6.43,4.33-8,8.13-1.83,1.55-2,3.86-2.6,5.93l-.37,1c-.33,1-.67,2-1,3l-1.06-.52a56.49,56.49,0,0,1,1.51-12c.58-.23,1-.49.18-1,.22-.79.71-1.74,0-2.34s-1.43.09-2.12.34c-5.85,2.14-11.23,5.1-15.48,9.73-3.62,3.93-6.88,8.14-7.2,13.84h-.77c-.34-7,.35-13.83,3.87-20.22C61.92,83.31,54.61,87,48.74,93.11c-2.17,2.26-4.38,4.57-4.57,8Z"/><path class="cls-1" d="M88.67,60.17c.35,2.91-.32,5.77-.53,8.65a4.79,4.79,0,0,1-5.55,4.09,62,62,0,0,1-14.43-4.3,51.19,51.19,0,0,1-19.1-11.73c-5.12-5.12-6.91-11.31-6.13-18.38l1.08.06C49.7,48.94,59.35,53.71,70.17,57.07c-3.63-6.49-4.06-13.45-3.82-20.53h.8c-.31,2.53.65,4.74,1.78,6.89C73.27,51.65,80.27,56.74,88.67,60.17Z"/><path class="cls-1" d="M112.7,137.54c-.7,0-1.43.28-2.07-.22.06-.23.06-.58.21-.67,5.22-3.06,4.59-7.88,3.9-12.74a1.29,1.29,0,0,0-1.45-1.31l1.82-2.55.29-.41a19,19,0,0,0,3.24-6.38l.3-.74a34.71,34.71,0,0,0,1.83-6.93l.81-.09.09,4.06a12.25,12.25,0,0,0-.36,4l-.06,1c-.76,2.44-.64,5.08-1.82,7.43a2.09,2.09,0,0,0,.09,1.86c.45.58,1.19,0,1.8-.17A41.4,41.4,0,0,0,139.14,112a33.18,33.18,0,0,0,.11,10.71,36.17,36.17,0,0,1-3.58,4.24c-2,2.26-4.83,3.36-6.83,5.54l-12.64,4.62-2,.35A1,1,0,0,0,112.7,137.54Z"/><path class="cls-1" d="M87.45,136.47a70.35,70.35,0,0,1-18.88-4.75,2.7,2.7,0,0,0,1.18-2.53c0-3,.51-6-.08-9l.55-.14c.75.09.73.78,1,1.25a28.86,28.86,0,0,0,11.29,10.25,24.25,24.25,0,0,1,.68-10.9c2.11.95,4.25,1.82,6.3,2.88a2.66,2.66,0,0,0,2.52.28c.63-.39,0-1.33-.12-2A66.87,66.87,0,0,1,90.07,104l.58.09c.18,1,.37,1.93.56,2.9.94,4.74,2.23,9.34,5.44,13.15a.44.44,0,0,0,.27.38.62.62,0,0,1-.06.4c-.71.17-2.09-.64-2,.62.15,2-.76,4-.31,5.84a14.61,14.61,0,0,0,5.35,8.46c.59.44,1.39.68,1.34,1.62a4.1,4.1,0,0,1-2.52.1,1.46,1.46,0,0,0-2-.2l-1.45-.2c-2.2-.76-4.4-1.55-6.62-2.27-.51-.17-1.35-.4-1.6-.15C86.53,135.31,87.42,135.86,87.45,136.47Z"/><path class="cls-1" d="M69.67,120.19c.59,3,0,6,.08,9a2.7,2.7,0,0,1-1.18,2.53c-7.47-2.72-14.32-6.41-19.95-12.18-5-5.09-6.64-11.08-5.49-18l1-.46a18.45,18.45,0,0,0,3.33,5.51C53.46,113.45,61.2,117.43,69.67,120.19Z"/><path class="cls-1" d="M145.73,67.36c-.14-2.57.83-5.06.49-7.66-.16-1.23-.1-2.47-1.36-3.2,8.73-3.93,17.08-8.36,22.28-16.92l1.7.12a17.87,17.87,0,0,1-4,14.68A39.09,39.09,0,0,1,145.73,67.36Z"/><path class="cls-1" d="M101.24,137.48c.05-.94-.75-1.18-1.34-1.62a14.61,14.61,0,0,1-5.35-8.46c-.45-1.83.46-3.83.31-5.84-.09-1.26,1.29-.45,2-.62,1.56,1.66,3,3.41,5.34,4.14a2.78,2.78,0,0,0,1.91.74c3.79,1,6.52-1,9.18-3.22a1.29,1.29,0,0,1,1.45,1.31c.69,4.86,1.32,9.68-3.9,12.74-.15.09-.15.44-.21.67A19.63,19.63,0,0,1,101.24,137.48Z"/><path class="cls-1" d="M168.84,39.7l-1.7-.12a4.48,4.48,0,0,0-.42-4.48,29.32,29.32,0,0,0-6.37-7.53c-3.23-2.79-7.07-4.62-10.67-6.83.19-3.73.37-7.47.55-11.2C158,13.26,164.76,18.17,168,26.62,169.57,30.85,168.86,35.32,168.84,39.7Z"/><path class="cls-1" d="M160.77,121.62a44.54,44.54,0,0,1-15.07,9,16.78,16.78,0,0,0-1-11.1l1-.48c.1.3.17.71.57.59s.41-.62.46-1a84.09,84.09,0,0,0,12.47-7.05c-.2.62-.37,1.25-.6,1.85C157.76,115.55,159,120.14,160.77,121.62Z"/><path class="cls-1" d="M144.67,119.51a16.78,16.78,0,0,1,1,11.1c-4.86,2.57-10.19,3.62-15.47,4.84-.5-1-2-1.47-1.39-3,2-2.18,4.87-3.28,6.83-5.54a36.17,36.17,0,0,0,3.58-4.24l1.83-2.13Z"/><path class="cls-1" d="M160.77,121.62c-1.8-1.48-3-6.07-2.17-8.2.23-.6.4-1.23.6-1.85,3.49-3,6.75-6.17,8.46-10.59l.91,1.08C169.8,110.11,166.75,116.45,160.77,121.62Z"/><path class="cls-1" d="M128.84,132.47c-.64,1.51.89,2,1.39,3-4.61,1.08-9.23,2.15-14,1.64Z"/><path class="cls-1" d="M87.45,136.47c0-.61-.92-1.16-.38-1.71.25-.25,1.09,0,1.6.15,2.22.72,4.42,1.51,6.62,2.27C92.61,137.7,90,137.05,87.45,136.47Z"/><path class="cls-1" d="M96.74,137.38a1.46,1.46,0,0,1,2,.2A1.76,1.76,0,0,1,96.74,137.38Z"/><path class="cls-1" d="M112.7,137.54a1,1,0,0,1,1.5-.1A1,1,0,0,1,112.7,137.54Z"/><path class="cls-1" d="M141.73,18c-.9.6.77,1.18,0,1.78-1.29,2.89.07,6-.63,8.88a39.6,39.6,0,0,0-19.33-14c-.77-.26-1.7-1-2.3-.35-.45.48-.09,1.5.13,2.31a56.94,56.94,0,0,1,2,18.46l-.56.06c-.79-5.35-1.92-10.58-4.6-15.36a20.77,20.77,0,0,0-7.28-7.27c3.06-.88,6.09.06,9.1.3a120.85,120.85,0,0,1,22.6,4.38A1.14,1.14,0,0,1,141.73,18Z"/><path class="cls-1" d="M92.59,14c-3.63.27-6.55,2.44-9.83,3.64-.82-2.06-.27-3.23,2.06-3.68a104.19,104.19,0,0,1,15.75-1.79,2,2,0,0,1,1.63.4,25.68,25.68,0,0,0-6.85,6.66c-.1-1.2.32-2.35.22-3.61C95.37,12.75,95.41,12.69,92.59,14Z"/><path class="cls-1" d="M145.18,37.07c.45,6.59.24,13.06-3.48,18.87a2.84,2.84,0,0,0-.47,1.63,1.93,1.93,0,0,0-1.41.92c-5,7.7-12.12,12.43-21,14.69-1.67.42-3.27,1.08-4.92,1.61a3.68,3.68,0,0,1-3.73-.68c.31-.65,1-.8,1.5-1.21,4.11-3.48,7-7.58,6.52-13.33l0,0,1,.48c.16,1.43,1,.91,1.81.68a34.52,34.52,0,0,0,10.09-4.83c6.73-4.7,12.1-10.41,13.64-18.88H145Z"/><path class="cls-1" d="M119.2,60.07l-1-.48-.08-.11.1.09c.51,5.75-2.41,9.85-6.52,13.33-.48.41-1.19.56-1.5,1.21a1.79,1.79,0,0,0-1.49,1l-5.5-.13C97.32,72.13,94.43,67,92.7,61.07a59.72,59.72,0,0,1-2.51-18.5l.6,0A30.38,30.38,0,0,0,97,57.91c5.6,7,12.3,6.85,17.81-.22.62-.78,1.2-1.58,1.8-2.38l3.11,2.77Z"/><path class="cls-1" d="M120.77,105.59c.17-1.5.35-3,.53-4.49a1.71,1.71,0,0,0,.32,0,16.21,16.21,0,0,1,0,4.4Z"/><path class="cls-1" d="M70.22,120.05a34.58,34.58,0,0,1-3.89-18.91h.77c2.22,8.64,7.93,14.46,15.29,18.95.28.17.55.37.82.55a24.25,24.25,0,0,0-.68,10.9A28.86,28.86,0,0,1,71.24,121.3C71,120.83,71,120.14,70.22,120.05Z"/><path class="cls-1" d="M90.07,104a36.34,36.34,0,0,1,.12-11.45l1.06.52c.06.15.12.3.17.46-.21,1.17-.41,2.34-.62,3.51,0,.67,0,1.34,0,2,0,1.68-.07,3.37-.1,5Z"/><path class="cls-1" d="M91.7,80.56l.18-1C92.73,80.07,92.28,80.33,91.7,80.56Z"/><path class="cls-1" d="M139.14,112c1.45-2.22,3.14-4.31,4-6.87a.26.26,0,0,0,.12-.34c1-1,.56-2.62,1.83-4,.61,6.28,0,11.87-2.74,17.12a7.23,7.23,0,0,0-1.27,2.65l-1.83,2.13A33.18,33.18,0,0,1,139.14,112Z"/><path class="cls-1" d="M145.7,119l1-.41c0,.38,0,.87-.46,1S145.8,119.33,145.7,119Z"/><path class="cls-1" d="M92.59,14c2.82-1.32,2.78-1.26,3,1.62.1,1.26-.32,2.41-.22,3.61A44.58,44.58,0,0,0,90.67,34l-.63.09A63.07,63.07,0,0,1,92.59,14Z"/><path class="cls-1" d="M119.72,58.08l-3.11-2.77a47.94,47.94,0,0,0,4.09-12.73l.94,0C121.45,47.82,121.52,53.06,119.72,58.08Z"/><path class="cls-1" d="M121.64,42.61l-.94,0q.21-3.73.4-7.47l.56-.06C121.65,37.57,121.65,40.09,121.64,42.61Z"/><path class="cls-1" d="M90,34.13l.63-.09q0,3,0,6.08l-.64.05C89.74,38.15,89.4,36.14,90,34.13Z"/><path class="cls-1" d="M90,40.17l.64-.05c.06.8.11,1.61.17,2.41l-.6,0A3.94,3.94,0,0,1,90,40.17Z"/><path class="cls-1" d="M145.18,37.07,145,37h-.22c-.69-3-2.23-5.66-3.62-8.37.7-2.92-.66-6,.63-8.88C145.05,25.12,145.33,31.05,145.18,37.07Z"/><path class="cls-1" d="M145.21,99.05a.68.68,0,0,1,.35.84c0,.06-.13.09-.2.13-.06-.32-.12-.63-.17-1Z"/><polygon class="cls-1" points="118.22 59.57 118.12 59.48 118.2 59.59 118.22 59.57"/><path class="cls-1" d="M5.42,177.67V163.61H0V161H14v2.57H8.55v14.06Z"/><path class="cls-1" d="M29.5,177.67v-7.26H20.19v7.26H17.06V161h3.13v6.81H29.5V161h3.13v16.63Z"/><path class="cls-1" d="M36.87,177.67V161H49.13v2.57H40v4.31h8.93v2.57H40v4.61h9.12v2.57Z"/><path class="cls-1" d="M72.56,177.67l-9.33-12.12v12.12H60.1V161h3.21l9.15,11.79V161H75.6v16.63Z"/><path class="cls-1" d="M79.83,177.67V161H92.09v2.57H83v4.31H91.9v2.57H83v4.61h9.12v2.57Z"/><path class="cls-1" d="M109.41,177.67l-3.48-12.27-3.46,12.27H99.11L94,161h3.52L101,173.86l3.7-12.82h2.5l3.7,12.82L114.35,161h3.51l-5.1,16.63Z"/><path class="cls-1" d="M141.38,177.67l-3.49-12.27-3.46,12.27h-3.35L126,161h3.51L133,173.86l3.7-12.82h2.49l3.7,12.82L146.31,161h3.51l-5.09,16.63Z"/><path class="cls-1" d="M160.15,160.76c5.36,0,9.14,3.65,9.14,8.61s-3.78,8.6-9.14,8.6-9.15-3.64-9.15-8.6S154.79,160.76,160.15,160.76Zm0,2.6a6,6,0,1,0,5.92,6A5.7,5.7,0,0,0,160.15,163.36Z"/><path class="cls-1" d="M183,177.67l-4-6.21h-3.11v6.21h-3.14V161h7.86c3.54,0,5.85,2.14,5.85,5.21a4.79,4.79,0,0,1-4.24,4.89l4.37,6.53Zm-2.79-14.06h-4.29v5.28h4.29c1.77,0,3.06-1,3.06-2.64S182,163.61,180.18,163.61Z"/><path class="cls-1" d="M190,177.67V161h3.14V175.1H201v2.57Z"/><path class="cls-1" d="M204.32,177.67V161H211c5.57,0,9.35,3.44,9.35,8.33s-3.78,8.3-9.35,8.3Zm3.13-2.57H211c3.88,0,6.14-2.59,6.14-5.73s-2.15-5.76-6.14-5.76h-3.52Z"/></g></g></svg>