<svg width="72" height="41" viewBox="0 0 72 41" fill="none" xmlns="http://www.w3.org/2000/svg">
<g clip-path="url(#clip0_1133_31)">
<path d="M38.8469 17.6338L40.2217 19.6216C41.1677 20.9813 42.1086 22.3435 43.0596 23.7006C43.2771 24.0552 43.6188 24.316 44.0182 24.4322C44.1943 24.4876 44.3806 24.5023 44.5632 24.4752C44.7458 24.4481 44.9198 24.3798 45.0721 24.2756C45.2244 24.1714 45.3511 24.0339 45.4425 23.8735C45.534 23.7132 45.5878 23.5342 45.5999 23.35C45.6302 23.0448 45.6175 22.7345 45.6175 22.4267C45.6175 19.9041 45.6175 17.374 45.6175 14.8362C45.6492 14.5154 45.6061 14.1916 45.4914 13.8903C45.3981 13.7036 45.5166 13.6582 45.6579 13.638L48.569 13.3857C48.0392 13.8373 47.9963 14.3746 47.9963 14.9397C47.9963 17.4042 47.9963 19.8713 47.9963 22.3359C47.9963 23.6578 48.2486 23.9226 49.5477 23.8495C50.6224 23.7839 51.697 23.6754 52.7691 23.5594C55.3649 23.2768 56.6993 21.3698 56.9995 19.2861C57.2082 18.1098 57.1426 16.9012 56.8078 15.7545C56.331 14.2838 55.3951 13.3 53.816 13.0351C53.7487 13.0262 53.686 12.9962 53.6369 12.9493L60.8893 12.3086L60.9196 12.3843C60.7683 12.465 60.6144 12.5457 60.4656 12.6365C59.9037 12.9187 59.4465 13.3727 59.1602 13.9325C58.874 14.4923 58.7736 15.1287 58.8738 15.7494C58.9282 16.1391 59.0845 16.5075 59.3267 16.8175C59.569 17.1275 59.8887 17.3682 60.2537 17.5152C61.0533 17.8961 61.9211 18.0198 62.7763 18.1661C63.1832 18.2194 63.5855 18.3037 63.9795 18.4183C65.0592 18.7841 65.2888 19.8587 64.4841 20.666C63.8206 21.3294 62.466 21.5691 61.6007 21.1856C61.1884 20.9677 60.8673 20.6099 60.6951 20.1766C60.6194 20.0277 60.5614 19.8713 60.4832 19.7225C60.231 19.218 59.9106 19.0641 59.4262 19.1675C59.1977 19.2178 58.9937 19.3459 58.8492 19.53C58.7047 19.7141 58.6287 19.9426 58.6341 20.1766C58.6596 20.7992 58.9127 21.3907 59.3455 21.839C59.7823 22.3547 60.3854 22.7018 61.0508 22.8203C62.4093 23.1167 63.8278 22.9516 65.0819 22.3511C65.7005 22.0542 66.2246 21.5914 66.5955 21.0141C66.6409 20.9434 66.661 20.8425 66.7821 20.8224C66.9083 21.0746 66.7468 21.284 66.6207 21.4808L61.8505 28.9956L54.7872 40.1152C54.4492 40.6475 54.4542 40.6525 53.821 40.486L5.80085 27.9109L5.04407 27.7166C4.85992 27.6687 4.77163 27.5299 4.83469 27.371C4.91794 27.1617 5.04911 27.3559 5.13993 27.3912C5.57129 27.5577 6.00518 27.4517 6.43654 27.4139C7.76595 27.3004 9.10293 27.2525 10.4222 27.0254C11.7416 26.7984 12.7935 26.1677 13.2476 24.8282C13.7243 23.4257 13.2829 21.9676 11.6533 21.4858C11.6078 21.4784 11.5646 21.4606 11.527 21.434C11.4894 21.4073 11.4584 21.3724 11.4363 21.3319C12.2864 20.8274 12.8641 20.1059 12.9121 19.0616C12.96 18.0172 12.4908 17.2453 11.5499 16.7408L11.6053 16.6651L13.5427 16.4784C14.1052 16.428 14.6703 16.3826 15.2303 16.3271C15.4649 16.3044 15.5961 16.3271 15.4296 16.5995C15.3182 16.8183 15.2701 17.0638 15.2909 17.3084C15.2909 20.0681 15.2909 22.8287 15.2909 25.5901C15.2909 26.3267 15.6037 26.7353 16.1687 26.7807C16.3197 26.7978 16.4725 26.7838 16.6179 26.7395C16.7632 26.6953 16.8979 26.6217 17.0137 26.5234C17.1295 26.4251 17.224 26.3041 17.2912 26.1678C17.3585 26.0316 17.3972 25.8831 17.4048 25.7313C17.5284 24.6693 17.4351 23.6023 17.4553 22.5377C17.4553 21.9903 17.4553 22.0332 17.985 21.9323C19.0621 21.7406 19.7937 22.2073 20.3512 23.0675C20.9087 23.9277 21.4485 24.7753 22.0085 25.6203C22.4273 26.2485 23.0529 26.4124 23.6356 26.0694C23.843 25.971 24.003 25.7945 24.0806 25.5784C24.1581 25.3623 24.1469 25.1243 24.0493 24.9165C23.5044 23.577 22.7527 22.3939 21.5267 21.5489C21.4763 21.5161 21.4082 21.4934 21.4107 21.3698C22.619 20.9283 23.6659 20.2977 23.9333 18.8648C24.1654 17.548 23.7264 16.6727 22.2734 15.7418C22.8687 15.6838 23.4086 15.6258 23.9484 15.5779L28.4361 15.1818C28.5522 15.1818 28.6682 15.1818 28.7842 15.1818C28.976 15.1818 28.9936 15.2424 28.9129 15.4139C28.1006 17.1469 27.5103 18.9683 26.8065 20.7467C26.3575 21.8819 25.9312 23.017 25.4973 24.1648C25.3872 24.4112 25.3125 24.6719 25.2753 24.9392C25.2409 25.151 25.2842 25.368 25.3974 25.5502C25.5105 25.7325 25.6858 25.8676 25.8908 25.9306C26.1034 26.0133 26.3389 26.0158 26.5532 25.9379C26.7676 25.8599 26.9464 25.7067 27.0563 25.5068C27.3721 24.9026 27.6257 24.2679 27.813 23.6124C27.8426 23.4577 27.9271 23.319 28.0508 23.2216C28.1746 23.1243 28.3293 23.0749 28.4866 23.0826C29.6394 23.012 30.7897 22.9086 31.9425 22.8051C32.0612 22.7811 32.1845 22.8047 32.286 22.8707C32.3874 22.9368 32.4589 23.0401 32.4849 23.1583C32.6892 23.7006 32.9087 24.2354 33.1584 24.7551C33.4082 25.2747 33.8269 25.4665 34.3567 25.2798C34.6146 25.199 34.8332 25.0251 34.9699 24.7919C35.1065 24.5587 35.1514 24.283 35.0958 24.0185C34.8435 23.07 34.392 22.1997 34.0212 21.2991C33.3073 19.551 32.5656 17.8154 31.8442 16.0723C31.6824 15.6855 31.4848 15.3148 31.2539 14.9649L37.1517 14.4427C36.7102 14.9472 36.7632 15.4518 36.7632 15.9689C36.7632 18.5369 36.7632 21.1049 36.7632 23.6729C36.7585 23.8412 36.7627 24.0096 36.7758 24.1774C36.7817 24.3779 36.8533 24.5709 36.9796 24.7268C37.1058 24.8826 37.2797 24.9927 37.4746 25.0401C37.6911 25.0798 37.9146 25.0514 38.1143 24.9587C38.3139 24.8661 38.48 24.7139 38.5896 24.523C38.7258 24.2449 38.7892 23.9368 38.7737 23.6275C38.7737 21.791 38.7737 19.9546 38.7737 18.1181V17.659L38.8469 17.6338Z" fill="black"/>
<path d="M31.5859 9.46694C31.5859 8.50331 31.5859 7.53968 31.5859 6.57857C31.5859 5.82179 31.1747 5.42069 30.4028 5.45096C29.9916 5.46862 29.583 5.50898 29.1743 5.5443C28.2763 5.6225 27.8222 6.11441 27.8197 7.04272C27.8197 8.9044 27.8197 10.7661 27.8197 12.6278C27.8197 13.3644 27.7087 13.4905 26.9771 13.5889C26.7249 13.6191 26.4903 13.6267 26.2481 13.6494C25.7259 13.6999 25.5115 13.5132 25.4913 12.9784C25.4913 12.5042 25.4913 12.0299 25.4913 11.5531C25.4913 10.1279 25.5191 8.70259 25.4913 7.27985C25.4409 5.03978 27.1688 3.82893 28.753 3.62208C29.4543 3.53127 30.1606 3.48838 30.8644 3.45054C31.4336 3.41219 32.0011 3.54766 32.4915 3.83902C32.5661 3.89369 32.6575 3.92036 32.7498 3.91437C32.842 3.90837 32.9292 3.87009 32.996 3.80623C33.576 3.37165 34.2667 3.10935 34.9889 3.04945C35.9223 2.97125 36.8506 2.78205 37.7865 2.98639C39.0881 3.26892 39.9155 4.17957 39.9887 5.50898C40.1022 7.55986 40.0265 9.61577 40.024 11.6692C40.024 12.2292 39.8096 12.4259 39.2521 12.4688C38.9469 12.4966 38.6391 12.5344 38.3313 12.542C37.8798 12.542 37.6957 12.3805 37.683 11.924C37.6679 11.3463 37.683 10.7686 37.683 10.1909C37.683 8.80602 37.683 7.41607 37.683 6.03116C37.683 5.25168 37.2946 4.87581 36.5075 4.90356C36.0459 4.92122 35.5842 4.95653 35.1251 5.00699C34.3683 5.09276 33.9118 5.60989 33.9067 6.42973C33.9067 8.2788 33.9067 10.1279 33.9067 11.9795C33.9067 12.8144 33.8083 12.933 32.9935 13.0364C32.7424 13.0684 32.4898 13.087 32.2367 13.0919C31.7776 13.0919 31.6086 12.9406 31.6036 12.4714C31.6036 11.4623 31.6036 10.4684 31.6036 9.46694H31.5859Z" fill="black"/>
<path d="M18.9372 10.5006C18.9372 11.5273 18.9372 12.554 18.9372 13.5807C18.9372 14.118 18.7531 14.3198 18.2183 14.3803C17.9257 14.4131 17.633 14.4434 17.3379 14.4611C16.8157 14.4913 16.6265 14.3198 16.6265 13.7976C16.6265 11.8981 16.6265 9.99859 16.6265 8.09907C16.6265 7.09003 16.1952 6.70912 15.1861 6.82011C14.8304 6.86047 14.4722 6.88822 14.114 6.91597C13.9393 6.91896 13.767 6.95752 13.6076 7.02929C13.4483 7.10107 13.3052 7.20456 13.1872 7.33344C13.0692 7.46233 12.9787 7.61391 12.9212 7.77894C12.8636 7.94397 12.8404 8.11898 12.8527 8.29331C12.8527 10.155 12.8527 12.0167 12.8527 13.8758C12.8527 14.0171 12.8527 14.1583 12.8527 14.2996C12.859 14.4502 12.8065 14.5974 12.7062 14.7099C12.6059 14.8224 12.4657 14.8915 12.3154 14.9025C11.9216 14.9588 11.5249 14.9925 11.1273 15.0034C11.0497 15.0191 10.9696 15.0158 10.8936 14.9937C10.8177 14.9716 10.7482 14.9314 10.6911 14.8766C10.6341 14.8218 10.5912 14.754 10.5661 14.679C10.541 14.604 10.5345 14.524 10.5471 14.4459C10.5471 12.3396 10.5017 10.2357 10.5647 8.13943C10.6101 6.62587 11.826 5.36457 13.4859 5.0442C14.4514 4.82924 15.444 4.76205 16.4298 4.84492C17.1323 4.89666 17.7875 5.21853 18.2578 5.74295C18.7282 6.26738 18.9771 6.9536 18.9524 7.65761C18.9397 8.60107 18.9372 9.54956 18.9372 10.5006Z" fill="black"/>
<path d="M55.482 6.08716C55.482 5.58264 55.5047 5.07813 55.482 4.58622C55.371 2.53787 56.9754 1.18828 58.6075 0.933495C59.5816 0.774233 60.5744 0.764875 61.5514 0.905747C62.2426 1.00917 62.3485 1.1353 62.351 1.82145C62.351 1.9501 62.351 2.07371 62.351 2.20741C62.3309 2.69931 62.0988 2.90364 61.6144 2.86076C60.8327 2.80528 60.0483 2.80022 59.2659 2.84563C58.2569 2.89103 57.7977 3.37789 57.7977 4.37937C57.7977 5.38084 57.7977 6.43276 57.7977 7.45946C57.7977 8.37768 58.2417 8.77878 59.1549 8.67787C59.9643 8.60333 60.7659 8.46072 61.5514 8.25155C62.1568 8.08002 62.3586 8.25155 62.3637 8.87211C62.3763 9.88115 62.3359 9.9644 61.3697 10.2545C60.3987 10.5555 59.387 10.7052 58.3704 10.6985C57.9867 10.7069 57.6054 10.637 57.2497 10.493C56.8941 10.349 56.5715 10.1339 56.3018 9.86094C56.0322 9.58796 55.821 9.26281 55.6814 8.9054C55.5417 8.548 55.4764 8.16585 55.4896 7.78235C55.4795 7.21729 55.482 6.65223 55.482 6.08716Z" fill="black"/>
<path d="M50.166 18.4605C50.166 17.4086 50.166 16.3566 50.166 15.3047C50.166 14.9743 50.2821 14.8633 50.61 14.8431C51.2003 14.8103 51.788 14.7825 52.3758 14.7573C53.9146 14.6917 54.6235 15.5772 54.8429 16.8637C54.9968 17.7642 54.9745 18.686 54.7773 19.578C54.462 21.0083 53.6901 21.7273 52.2547 21.9165C51.6846 21.9921 51.1069 22.0224 50.5318 22.0855C50.2493 22.1157 50.1761 21.9896 50.1761 21.7323C50.1685 20.6425 50.166 19.5528 50.166 18.4605Z" fill="black"/>
<path d="M21.0753 9.19744C21.0753 7.82262 21.0753 6.45033 21.0753 5.07804C21.0753 4.46757 21.2544 4.28342 21.8649 4.23044C22.1348 4.20522 22.4022 4.17242 22.6696 4.15476C23.2095 4.11945 23.3987 4.29351 23.3987 4.84091C23.3987 7.08602 23.3987 9.33198 23.3987 11.5788C23.3987 12.1312 23.3987 12.6811 23.3987 13.2336C23.3987 13.67 23.2296 13.8794 22.8008 13.9525C22.4086 14.0168 22.0125 14.0547 21.6152 14.0661C21.2393 14.0787 21.0779 13.8769 21.0753 13.4329C21.0728 12.0202 21.0753 10.6076 21.0753 9.19744Z" fill="black"/>
<path d="M43.5709 20.9703L38.8965 14.2955C39.3791 14.196 39.8695 14.1394 40.3621 14.1265C41.3712 14.0306 42.3802 13.9474 43.3892 13.8515C43.702 13.8238 43.8938 13.8515 43.7449 14.2551C43.6897 14.4656 43.6701 14.6839 43.6869 14.9009C43.6869 16.7727 43.6869 18.6419 43.6869 20.5137C43.7006 20.5937 43.6973 20.6757 43.6773 20.7543C43.6573 20.833 43.6211 20.9065 43.5709 20.9703V20.9703Z" fill="black"/>
<path d="M66.7828 14.1701V17.7572C65.698 16.4051 64.0836 16.4152 62.6003 16.0973C62.1804 16.038 61.772 15.9146 61.3894 15.7315C61.2543 15.6666 61.1364 15.5708 61.0452 15.4518C60.9539 15.3329 60.8919 15.1942 60.8642 15.0468C60.8364 14.8995 60.8437 14.7478 60.8854 14.6038C60.9272 14.4598 61.0022 14.3276 61.1044 14.218C61.9747 13.1181 63.9322 13.2518 64.636 14.4702C64.6991 14.5812 64.7672 14.6897 64.8328 14.8007C65.0371 15.1438 65.302 15.3859 65.7384 15.3052C65.9379 15.2735 66.1241 15.1854 66.2752 15.0513C66.4263 14.9172 66.5358 14.7427 66.591 14.5484C66.6153 14.4059 66.6821 14.2739 66.7828 14.1701V14.1701Z" fill="black"/>
<path d="M9.3486 22.4923C9.54284 22.4923 9.73708 22.4771 9.92628 22.4923C10.6377 22.5629 11.0589 22.8807 11.1876 23.4307C11.2764 23.7554 11.259 24.1001 11.1378 24.4142C11.0166 24.7283 10.798 24.9954 10.514 25.1763C10.1822 25.3757 9.80976 25.4981 9.42428 25.5345C8.62209 25.6228 7.81486 25.6733 7.01268 25.7489C6.79573 25.7691 6.74023 25.6682 6.74023 25.4967C6.74023 24.6491 6.74023 23.804 6.74023 22.9564C6.74023 22.7445 6.84618 22.6663 7.04547 22.6512C7.80225 22.5982 8.57921 22.5352 9.34608 22.4746L9.3486 22.4923Z" fill="black"/>
<path d="M19.945 17.3157C20.1266 17.3157 20.3057 17.3157 20.4848 17.3157C20.7704 17.3004 21.0521 17.3875 21.2792 17.5614C21.5062 17.7353 21.6638 17.9845 21.7234 18.2642C21.8017 18.5515 21.7856 18.8564 21.6775 19.1339C21.5694 19.4113 21.375 19.6468 21.1231 19.8055C20.6705 20.0522 20.1694 20.1968 19.6549 20.2293C19.057 20.2999 18.4541 20.3327 17.8538 20.3958C17.5485 20.4286 17.4401 20.31 17.4476 20.0098C17.4476 19.2909 17.4476 18.5719 17.4476 17.853C17.4476 17.636 17.4905 17.4897 17.7554 17.4721C18.4844 17.4216 19.2135 17.3535 19.9425 17.293L19.945 17.3157Z" fill="black"/>
<path d="M6.74546 19.745C6.74546 19.3994 6.74546 19.0538 6.74546 18.7057C6.73699 18.6579 6.73972 18.6089 6.75344 18.5624C6.76716 18.516 6.79149 18.4733 6.82451 18.4378C6.85753 18.4024 6.89834 18.3751 6.94372 18.3581C6.9891 18.3411 7.03781 18.3348 7.08601 18.3399C7.91847 18.3071 8.74588 18.1759 9.58338 18.2365C10.3402 18.2894 10.6605 18.4887 10.7816 19.0815C10.8421 19.3925 10.8012 19.7147 10.665 20.0008C10.5288 20.2869 10.3044 20.5217 10.0248 20.6708C9.50266 20.923 8.93003 20.923 8.37001 20.9987C7.93613 21.0466 7.49972 21.0643 7.06583 21.0971C6.83627 21.1147 6.73537 21.0164 6.74041 20.7843C6.7505 20.4336 6.74546 20.0931 6.74546 19.745Z" fill="black"/>
<path d="M30.1651 17.0801L30.6142 18.2531C30.9396 19.1158 31.2599 19.9836 31.5929 20.8438C31.6736 21.0532 31.6837 21.1793 31.4062 21.202C30.5637 21.2625 29.7212 21.3382 28.8836 21.4038C28.702 21.4189 28.5683 21.3786 28.649 21.1516C28.7575 20.8387 28.8609 20.5209 28.9719 20.2056C29.3352 19.1679 29.7001 18.1303 30.0667 17.0927L30.1651 17.0801Z" fill="black"/>
<path d="M20.697 1.68033C20.697 0.835261 20.7601 0.754538 21.6178 0.656157C22.1223 0.598137 22.6268 0.547685 23.1465 0.524981C23.5803 0.504801 23.7443 0.681383 23.7746 1.11779C23.8528 2.2908 23.7494 2.41945 22.6091 2.54558C22.2535 2.58594 21.8952 2.61622 21.5396 2.6591C20.8938 2.73225 20.7021 2.56324 20.697 1.90232C20.6844 1.83421 20.697 1.7661 20.697 1.68033Z" fill="black"/>
<path d="M52.4968 2.1106C50.7033 0.803897 48.7609 0.821555 46.879 1.88609C46.2307 2.25187 45.8245 2.21907 45.315 1.77257C45.1207 1.60356 45.0098 1.49257 45.098 1.21003C45.1256 1.11037 45.1317 1.00599 45.116 0.903784C45.1003 0.801579 45.063 0.703871 45.0068 0.617104C44.9505 0.530337 44.8765 0.456482 44.7896 0.400411C44.7027 0.344339 44.6049 0.307325 44.5027 0.291809C44.3824 0.269945 44.2588 0.272893 44.1397 0.300472C44.0205 0.328052 43.9082 0.379681 43.8098 0.452195C43.7113 0.524708 43.6286 0.616577 43.5669 0.722167C43.5052 0.827758 43.4657 0.944844 43.4508 1.06625C43.3877 1.54302 43.6829 1.99961 44.1268 1.94916C44.6314 1.89114 44.6692 2.15096 44.6995 2.50665C44.7145 2.6988 44.7449 2.88944 44.7903 3.07676C44.8584 3.34415 44.8029 3.44253 44.5128 3.34163C43.6871 3.05574 42.8597 2.77741 42.0306 2.50665C41.9512 2.48524 41.8801 2.4407 41.8262 2.3787C41.7723 2.3167 41.738 2.24006 41.7279 2.15853C41.7027 1.95048 41.6024 1.75879 41.4459 1.61944C41.2893 1.4801 41.0873 1.40269 40.8777 1.40175C40.6647 1.40019 40.4561 1.46258 40.2789 1.58086C40.1017 1.69913 39.9641 1.86785 39.8838 2.0652C39.8054 2.24283 39.7846 2.44059 39.8244 2.63065C39.8642 2.82071 39.9627 2.99349 40.1058 3.12469C40.2691 3.26482 40.4772 3.34186 40.6923 3.34186C40.9075 3.34186 41.1156 3.26482 41.2788 3.12469C41.5109 2.95315 41.632 3.03135 41.7834 3.20036C42.2324 3.67714 42.689 4.14634 43.143 4.61807C43.7712 5.26637 43.7712 5.26385 42.9337 5.55395C42.6612 5.64729 42.4468 5.7381 42.1996 5.43286C41.9524 5.12763 41.4024 5.20583 41.1023 5.53377C40.9666 5.6811 40.8887 5.87238 40.8826 6.07253C40.8766 6.27269 40.9429 6.46831 41.0695 6.62353C41.3394 6.90354 41.8969 6.94642 42.139 6.60335C42.4569 6.14928 42.747 6.29812 43.0926 6.49236C43.2261 6.57009 43.3663 6.63593 43.5113 6.68912C43.6086 6.71979 43.6924 6.78282 43.7488 6.86772C43.8052 6.95262 43.8309 7.05428 43.8216 7.1558C43.9856 10.024 46.2458 11.9487 49.1191 11.6965C51.9923 11.4442 54.3862 8.8636 54.3913 5.80116C54.3891 5.08015 54.2164 4.36989 53.8871 3.72845C53.5578 3.08701 53.0814 2.53262 52.4968 2.1106V2.1106ZM47.7669 9.83732C47.687 9.84179 47.6071 9.82989 47.5319 9.80236C47.4568 9.77482 47.3881 9.73224 47.33 9.67721C47.2719 9.62218 47.2256 9.55586 47.194 9.48233C47.1625 9.40879 47.1463 9.32958 47.1464 9.24956C47.1416 9.15015 47.1565 9.05078 47.1903 8.95714C47.224 8.8635 47.2758 8.77743 47.3428 8.70386C47.4098 8.63028 47.4907 8.57065 47.5808 8.52837C47.6709 8.48609 47.7684 8.46199 47.8679 8.45746C48.0371 8.45534 48.2005 8.51921 48.3234 8.63553C48.4463 8.75185 48.519 8.91147 48.5262 9.08054C48.5262 9.18014 48.5066 9.27875 48.4684 9.37073C48.4302 9.46271 48.3742 9.54625 48.3037 9.61656C48.2332 9.68687 48.1494 9.74256 48.0573 9.78044C47.9652 9.81832 47.8665 9.83765 47.7669 9.83732V9.83732ZM50.1987 9.61533C50.1152 9.61636 50.0323 9.60059 49.955 9.56894C49.8777 9.5373 49.8075 9.49043 49.7487 9.43113C49.6899 9.37182 49.6436 9.30129 49.6125 9.22373C49.5815 9.14617 49.5664 9.06316 49.5681 8.97964C49.5806 8.77869 49.6677 8.58967 49.8124 8.44966C49.9571 8.30965 50.1488 8.22876 50.3501 8.22286C50.4365 8.22254 50.522 8.24066 50.6008 8.27598C50.6797 8.31131 50.7501 8.36305 50.8074 8.42774C50.8647 8.49243 50.9075 8.56859 50.9331 8.65114C50.9586 8.73369 50.9663 8.82074 50.9555 8.90648C50.9549 9.00396 50.9347 9.10031 50.896 9.18976C50.8572 9.27922 50.8009 9.35993 50.7302 9.42707C50.6595 9.49421 50.576 9.54638 50.4847 9.58047C50.3934 9.61455 50.2961 9.62984 50.1987 9.62542V9.61533Z" fill="black"/>
<path d="M8.42523 8.70831C8.39749 7.06862 7.39854 5.91327 5.84462 5.7821C4.67448 5.71364 3.50166 5.85896 2.38361 6.21094C2.22519 6.24854 2.08455 6.33954 1.98532 6.46862C1.88609 6.59771 1.83433 6.75703 1.83873 6.91979C1.82864 7.11221 1.82864 7.30504 1.83873 7.49746C1.87152 8.02973 2.09099 8.19874 2.62578 8.08018C3.3764 7.90519 4.14137 7.7988 4.91125 7.76234C5.66803 7.7245 6.07922 8.14325 6.07417 8.90507C6.07417 9.17751 5.98084 9.29355 5.69831 9.31121C5.04495 9.35157 4.39412 9.41968 3.74329 9.47266C2.65211 9.51529 1.61938 9.97699 0.859962 10.7617C-0.149077 11.8439 -0.297911 13.5366 0.572386 14.6112C0.875821 14.9896 1.26749 15.2878 1.71303 15.4795C2.15857 15.6713 2.64436 15.7508 3.12778 15.711C4.6035 15.6555 6.06913 15.479 7.5398 15.3352C8.29658 15.2645 8.42523 15.0829 8.42776 14.3261C8.42776 13.413 8.42776 12.5023 8.42776 11.5916C8.42776 10.6331 8.44037 9.67194 8.42523 8.70831ZM6.07165 11.6648C6.05399 11.9171 6.07165 12.1517 6.07165 12.3963C6.07165 13.4407 6.07165 13.4457 5.02225 13.5719C4.51773 13.6324 4.02582 13.6778 3.52635 13.7005C2.88056 13.7308 2.43154 13.4079 2.35586 12.8933C2.31348 12.5976 2.38167 12.2966 2.54737 12.0481C2.71308 11.7995 2.96465 11.6208 3.25391 11.5462C3.59486 11.4794 3.94084 11.4414 4.28817 11.4327C4.7599 11.3772 5.23667 11.3596 5.70587 11.3015C6.00354 11.2637 6.09183 11.3823 6.07165 11.6648Z" fill="black"/>
<path d="M71.9973 2.79745C72.0221 2.12536 71.7908 1.46893 71.3501 0.960844C70.9095 0.452763 70.2923 0.13094 69.6235 0.0604344C68.3622 -0.126238 67.1211 0.148725 65.9052 0.486753C65.773 0.523673 65.6566 0.602847 65.5737 0.712174C65.4908 0.821502 65.446 0.954969 65.4461 1.09218C65.4309 1.3097 65.4309 1.52801 65.4461 1.74553C65.4789 2.28032 65.6983 2.44933 66.2357 2.3232C66.9627 2.16294 67.7004 2.05504 68.4429 2.00031C69.2401 1.92463 69.7042 2.40393 69.6765 3.19602C69.6765 3.41044 69.6008 3.52144 69.3687 3.5391C68.844 3.57694 68.3218 3.63748 67.7971 3.68289C66.9773 3.75352 66.1575 3.82415 65.4234 4.25552C64.2478 4.94923 63.539 5.93809 63.6172 7.33561C63.7055 8.92484 65.0349 10.0625 66.7326 9.97424C68.2462 9.89352 69.7749 9.72198 71.296 9.57063C71.8686 9.51261 71.9897 9.34612 71.9922 8.7634C71.9922 7.7367 71.9922 6.71 71.9922 5.68331C71.9973 4.7222 72.0048 3.75856 71.9973 2.79745ZM68.5817 7.84265C68.1326 7.87797 67.6861 7.90571 67.2396 7.95112C66.556 8.01923 66.0767 7.73418 65.9783 7.19434C65.9184 6.90159 65.9732 6.59699 66.1314 6.34348C66.2896 6.08997 66.5391 5.90691 66.8285 5.83214C67.6786 5.64799 68.5564 5.64799 69.4242 5.55718C69.6311 5.53447 69.6765 5.67069 69.6765 5.84727C69.6765 6.11719 69.6765 6.38711 69.6765 6.65451C69.679 7.74679 69.679 7.74679 68.5817 7.83508V7.84265Z" fill="black"/>
</g>
<defs>
<clipPath id="clip0_1133_31">
<rect width="72" height="40.581" fill="white"/>
</clipPath>
</defs>
</svg>
