<svg width="83" height="58" viewBox="0 0 83 58" fill="none" xmlns="http://www.w3.org/2000/svg">
<path d="M50.53 4.38335C50.53 3.07726 50.53 1.76838 50.53 0.462284C50.5189 0.108609 50.6331 0 50.9982 0C53.6178 0.0148525 56.2365 0.0148525 58.8543 0C59.2444 0 59.3308 0.147597 59.328 0.501272C59.3169 3.10046 59.3169 5.69965 59.328 8.29884C59.328 8.66923 59.2138 8.79454 58.8375 8.79176C56.2365 8.77876 53.6355 8.77876 51.0344 8.79176C50.6108 8.79176 50.5356 8.62188 50.5412 8.25707C50.5412 6.96212 50.53 5.67552 50.53 4.38335Z" fill="black"/>
<path d="M44.2598 57.9389V55.9895C44.2598 53.9092 44.2598 51.8317 44.2598 49.7542C44.2598 49.3532 44.3434 49.1973 44.7809 49.1973C47.3671 49.2158 49.9523 49.2158 52.5367 49.1973C52.9463 49.1973 53.0439 49.3337 53.0411 49.718C53.0271 52.2996 53.0411 54.8784 53.0411 57.4599C53.0411 57.7384 53.0634 57.9807 52.6453 57.9807C49.9421 57.9667 47.2389 57.9807 44.5384 57.9807C44.4447 57.9736 44.3515 57.9597 44.2598 57.9389V57.9389Z" fill="black"/>
<path d="M0 21.0349V20.4501C0 17.9186 0 15.3872 0 12.8558C0 12.4464 0.103113 12.2988 0.529497 12.2988C3.09895 12.3193 5.66747 12.3193 8.23507 12.2988C8.64473 12.2988 8.79243 12.4102 8.79243 12.8363C8.77571 15.3984 8.79243 17.9632 8.79243 20.5281C8.79243 20.8427 8.79243 21.085 8.35769 21.085C5.68791 21.085 3.01813 21.085 0.348353 21.085C0.231359 21.0751 0.115043 21.0584 0 21.0349H0Z" fill="black"/>
<path d="M58.4396 28.6845V29.2109C58.4396 30.4529 58.4396 31.6922 58.4396 32.9342C58.4396 33.2768 58.3449 33.4188 57.9854 33.4021C57.3807 33.3798 56.7759 33.4021 56.1712 33.4021C55.912 33.4021 55.8145 33.3046 55.8145 33.0484C55.8145 30.3638 55.8145 27.6801 55.8145 24.9974C55.8145 24.7022 55.9399 24.6215 56.2102 24.627C56.7982 24.627 57.3862 24.6521 57.9742 24.627C58.1294 24.6059 58.2871 24.6371 58.4225 24.7158C58.5578 24.7946 58.6629 24.9162 58.7211 25.0615C59.429 26.3954 60.1703 27.7126 60.8976 29.0354C60.9881 29.2191 61.1232 29.377 61.2906 29.4949C61.2906 29.3306 61.3212 29.1663 61.3212 28.9992C61.3212 27.7266 61.3212 26.4511 61.3212 25.1756C61.3212 24.7718 61.4132 24.5992 61.8507 24.6187C62.4081 24.6549 62.9905 24.6354 63.5618 24.6187C63.8405 24.6187 63.9548 24.7134 63.9548 24.9974C63.9548 27.6653 63.9548 30.3322 63.9548 32.9983C63.9548 33.3157 63.8182 33.4021 63.5284 33.3937C62.9236 33.3937 62.3189 33.377 61.7142 33.3937C61.5822 33.4078 61.4492 33.3795 61.3344 33.3129C61.2197 33.2463 61.1291 33.1448 61.076 33.0233C60.3821 31.7785 59.6658 30.542 58.958 29.3056C58.8354 29.0883 58.71 28.8711 58.5846 28.6539L58.4396 28.6845Z" fill="black"/>
<path d="M34.4766 15.3618C33.5932 15.3618 32.7404 15.3618 31.8849 15.3618C31.8267 15.3466 31.7721 15.3202 31.7243 15.2838C31.6765 15.2475 31.6363 15.202 31.6062 15.1501C31.464 14.9176 31.2688 14.722 31.0365 14.5793C30.8042 14.4367 30.5414 14.3509 30.2696 14.3292C29.9978 14.3075 29.7247 14.3504 29.4726 14.4543C29.2206 14.5583 28.9967 14.7203 28.8194 14.9273C28.0363 15.799 27.9833 17.5284 28.7135 18.4474C29.2708 19.1575 30.4469 19.4276 31.2216 18.957C31.5187 18.7202 31.7838 18.4459 32.0103 18.141L31.9016 17.9517C31.5783 17.9517 31.2523 17.9517 30.9262 17.9517C30.6475 17.9517 30.5444 17.8625 30.5277 17.5785C30.4413 16.2251 30.4329 16.2251 31.7595 16.2251C32.799 16.2251 33.8412 16.239 34.8835 16.2251C35.243 16.2251 35.4241 16.3086 35.3796 16.7013C35.3587 16.918 35.3587 17.1362 35.3796 17.3529C35.4074 17.7317 35.3796 18.0269 34.864 17.9712C34.8028 17.9806 34.7451 18.0055 34.6963 18.0435C34.6476 18.0815 34.6093 18.1314 34.5853 18.1884C34.0279 20.9147 31.2244 21.6806 28.9866 21.1988C26.7488 20.717 25.3358 18.7509 25.5365 16.3365C25.7371 13.922 27.4427 12.2399 29.8589 12.1035C31.216 12.0255 32.4645 12.3291 33.4817 13.2759C33.7847 13.5344 34.0298 13.8537 34.2012 14.2131C34.3726 14.5724 34.4665 14.9638 34.4766 15.3618V15.3618Z" fill="black"/>
<path d="M35.6242 45.9276C32.882 45.9276 30.8866 44.0033 30.8616 41.3382C30.8365 38.6731 32.8486 36.6875 35.5992 36.6875C38.3498 36.6875 40.3368 38.6035 40.3563 41.2741C40.3758 43.9448 38.3971 45.9193 35.6242 45.9276ZM37.7199 41.2964C37.7199 40.0154 36.8254 39.0685 35.6131 39.0685C34.4008 39.0685 33.5063 40.0154 33.4979 41.2964C33.4895 42.5774 34.4064 43.5466 35.6354 43.5382C36.8644 43.5299 37.7255 42.5802 37.7199 41.2964Z" fill="black"/>
<path d="M18.2473 42.5503C17.832 42.5503 17.5143 42.5726 17.1994 42.5503C16.486 42.4891 16.8789 41.9349 16.8399 41.6146C16.8092 41.3361 16.5807 40.8404 17.2078 40.8376C18.3504 40.8376 19.493 40.8376 20.6356 40.8376C21.7782 40.8376 21.6416 40.665 21.6611 41.8374C21.6611 42.2217 21.7503 42.645 21.1037 42.581C21.0285 42.581 20.8808 42.7648 20.8501 42.8873C20.2426 45.4243 17.7345 46.2876 15.3294 45.8086C13.0136 45.3463 11.5867 43.3384 11.832 40.8989C12.0076 39.1472 12.8213 37.7799 14.485 37.1004C16.2463 36.3791 17.9797 36.5184 19.5431 37.6796C19.91 37.9442 20.2137 38.2867 20.4325 38.6825C20.6512 39.0783 20.7796 39.5176 20.8083 39.9688C19.8831 39.9688 19.0025 39.9688 18.1218 39.9688C18.0355 39.9688 17.9323 39.8462 17.8738 39.7571C17.7339 39.5284 17.5424 39.3357 17.3145 39.1943C17.0867 39.053 16.8288 38.9669 16.5617 38.9431C16.2945 38.9193 16.0255 38.9583 15.7762 39.0571C15.5269 39.1559 15.3042 39.3117 15.126 39.5121C14.29 40.3949 14.2482 42.1799 15.0257 43.1073C15.8032 44.0347 17.5338 44.0179 18.0912 43.0293C18.1562 42.8742 18.2084 42.714 18.2473 42.5503Z" fill="black"/>
<path d="M12.3203 16.7093C12.3203 15.4032 12.3203 14.0971 12.3203 12.7882C12.3203 12.4429 12.4234 12.3176 12.7801 12.3204C13.9701 12.3399 15.1629 12.3009 16.3528 12.3371C18.8053 12.4067 20.6251 14.1946 20.6836 16.5533C20.7421 18.9956 19.0895 20.8698 16.6092 21.0481C15.3078 21.1427 13.9924 21.0731 12.6854 21.0898C12.3342 21.0898 12.3231 20.8865 12.3231 20.6331C12.3231 19.3168 12.3222 18.0089 12.3203 16.7093ZM14.9316 16.7093C14.9316 17.2969 14.9316 17.8817 14.9316 18.4665C14.9316 18.603 15.0235 18.8202 15.1239 18.8564C16.2163 19.2574 17.593 18.4916 17.9107 17.3331C18.3733 15.6288 16.9353 14.1584 15.1796 14.5649C15.0681 14.59 14.9399 14.8156 14.9344 14.9548C14.9148 15.5257 14.9316 16.1105 14.9316 16.7093Z" fill="black"/>
<path d="M37.1477 30.7502L38.8616 33.3819C37.8054 33.3819 36.8746 33.3819 35.9438 33.368C35.8184 33.368 35.6651 33.1898 35.5843 33.0644C35.2108 32.527 34.8681 31.9672 34.4695 31.4409C34.3692 31.3044 34.1546 31.2543 33.993 31.1624C33.9084 31.3049 33.8472 31.46 33.8119 31.6219C33.7868 32.0897 33.7951 32.5604 33.8119 33.0143C33.8119 33.2705 33.7171 33.3763 33.4579 33.3736C32.8207 33.3736 32.1825 33.3736 31.5434 33.3736C31.2842 33.3736 31.1895 33.2677 31.1895 33.0115C31.1895 30.3307 31.1895 27.6488 31.1895 24.9661C31.1895 24.6709 31.3232 24.5985 31.588 24.5985C32.9312 24.5985 34.2745 24.579 35.6177 24.5985C36.2615 24.6079 36.8863 24.8172 37.4057 25.1975C37.925 25.5777 38.3131 26.11 38.516 26.7206C38.7446 27.3562 38.775 28.046 38.6034 28.6993C38.4318 29.3525 38.0661 29.9384 37.5546 30.3798L37.1477 30.7502ZM33.8035 27.9069C33.7832 28.1853 33.7888 28.465 33.8202 28.7424C33.8426 28.8234 33.8842 28.8978 33.9414 28.9593C33.9986 29.0209 34.0699 29.0678 34.1491 29.096C34.4642 29.1355 34.7834 29.1289 35.0966 29.0765C35.7292 28.9707 36.1054 28.3748 36.0134 27.6841C35.9075 26.8877 35.3781 26.5702 34.2132 26.6454C33.4328 26.6955 33.954 27.3165 33.8063 27.6479C33.7931 27.7341 33.7969 27.8221 33.8174 27.9069H33.8035Z" fill="black"/>
<path d="M45.8801 30.7455L47.608 33.3883C47.1953 33.354 46.7805 33.354 46.3678 33.3883C44.9995 33.639 44.052 33.1572 43.5141 31.865C43.42 31.6495 43.2857 31.4539 43.1184 31.2886C43.0637 31.2437 43.0003 31.2107 42.9322 31.1915C42.8641 31.1723 42.7927 31.1674 42.7227 31.1772C42.653 31.1772 42.5722 31.3777 42.5694 31.4891C42.5527 31.9931 42.5499 32.4944 42.5694 32.9984C42.5694 33.2769 42.4663 33.3855 42.1848 33.38C41.5661 33.3688 40.9456 33.3688 40.3232 33.38C40.0445 33.38 39.9414 33.2769 39.9414 32.9984C39.9414 30.3324 39.9414 27.6673 39.9414 25.0031C39.9414 24.6328 40.1253 24.6021 40.4124 24.6049C41.672 24.6049 42.9205 24.6049 44.1885 24.6049C44.8659 24.5848 45.5318 24.7825 46.0882 25.1691C46.6446 25.5556 47.0621 26.1105 47.2791 26.752C47.5108 27.4147 47.5278 28.1334 47.3277 28.8062C47.1276 29.479 46.7206 30.0718 46.1644 30.5004L45.8801 30.7455ZM43.3274 26.6518C42.561 26.6518 42.561 26.6518 42.561 27.3981C42.561 27.6766 42.561 27.9328 42.561 28.2002C42.5833 29.2222 42.3548 29.1331 43.5448 29.1192C43.7211 29.1283 43.8972 29.098 44.0603 29.0306C44.2235 28.9631 44.3695 28.8601 44.4877 28.7291C44.606 28.5981 44.6936 28.4424 44.744 28.2734C44.7944 28.1043 44.8065 27.9261 44.7793 27.7518C44.7124 27.0138 44.2359 26.6546 43.3274 26.6518Z" fill="black"/>
<path d="M30.2168 45.6854C29.1662 45.6854 28.2661 45.6854 27.3576 45.6715C27.1858 45.6296 27.0369 45.5228 26.9423 45.3735C26.5633 44.8388 26.2233 44.2763 25.8276 43.7499C25.7273 43.6107 25.5155 43.5578 25.3538 43.4715C25.272 43.6167 25.2128 43.7735 25.1783 43.9365C25.156 44.3877 25.1588 44.8416 25.1783 45.2927C25.1783 45.6019 25.0612 45.7077 24.7602 45.6993C24.175 45.6993 23.5842 45.6826 22.999 45.6993C22.6701 45.6993 22.5559 45.5852 22.5586 45.2593C22.5586 44.1454 22.5586 43.0454 22.5586 41.9398C22.5586 40.4276 22.5586 38.9182 22.5586 37.4088C22.5586 37.0357 22.6729 36.9131 23.0491 36.9187C24.3088 36.9382 25.5573 36.9187 26.8281 36.9187C27.4976 36.9042 28.1543 37.1035 28.7026 37.4876C29.2509 37.8718 29.6623 38.4208 29.8768 39.0547C30.1157 39.7059 30.1418 40.4159 29.9516 41.0829C29.7613 41.7499 29.3644 42.3394 28.8179 42.7669C28.5392 42.9925 28.5392 43.1456 28.7231 43.4185C29.2108 44.1259 29.6678 44.836 30.2168 45.6854ZM25.953 38.96C25.181 38.96 25.181 38.96 25.181 39.7091C25.181 39.9876 25.181 40.2438 25.181 40.5139C25.2006 41.5221 25.0166 41.4274 26.1397 41.4218C26.3036 41.4352 26.4684 41.4139 26.6235 41.3593C26.7786 41.3048 26.9204 41.2182 27.0398 41.1052C27.1591 40.9923 27.2533 40.8554 27.3163 40.7037C27.3792 40.5519 27.4094 40.3885 27.4049 40.2243C27.4272 39.4139 26.9089 38.9628 25.953 38.96Z" fill="black"/>
<path d="M21.1582 29.921C21.1582 31.9596 19.0736 33.6165 16.6351 33.6138C13.8483 33.6138 11.8307 31.6978 11.8223 29.0243C11.8139 26.3509 13.7898 24.4015 16.5794 24.3848C19.0875 24.3848 21.1275 26.0557 21.1414 28.1638C21.0398 28.1962 20.9353 28.2186 20.8293 28.2306C20.1744 28.2306 19.5195 28.2557 18.8785 28.2306C18.7784 28.2186 18.6824 28.1834 18.5982 28.1278C18.514 28.0722 18.444 27.9977 18.3936 27.9104C18.2691 27.5773 18.0468 27.2896 17.7559 27.0849C17.465 26.8802 17.1191 26.768 16.7633 26.763C15.9691 26.7157 15.2891 26.9719 14.8711 27.6765C14.6101 28.0728 14.4727 28.5376 14.4762 29.012C14.4796 29.4864 14.6239 29.9491 14.8906 30.3416C15.3894 31.1185 16.1586 31.3469 17.0448 31.2076C17.3227 31.177 17.5877 31.0743 17.8136 30.9097C18.0395 30.745 18.2183 30.5242 18.3323 30.2692C18.3735 30.1526 18.4536 30.0537 18.5592 29.9893C18.6648 29.9249 18.7894 29.8988 18.912 29.9155C19.6616 29.9294 20.4113 29.921 21.1582 29.921Z" fill="black"/>
<path d="M74.342 28.2252C73.531 28.2252 72.7145 28.2252 71.8952 28.2252C71.7976 28.2252 71.6666 28.0497 71.6165 27.9272C71.2793 27.1056 70.6439 26.7631 69.7883 26.7715C69.3815 26.7613 68.9817 26.8786 68.6449 27.1068C68.3081 27.335 68.0511 27.6627 67.91 28.0441C67.2189 29.768 68.4423 31.489 70.1813 31.2356C70.4747 31.2048 70.7559 31.1014 70.9992 30.9346C71.2425 30.7678 71.4403 30.5429 71.5747 30.2804C71.6471 30.1467 71.7837 29.9573 71.8979 29.9545C72.7145 29.9267 73.5338 29.9378 74.3448 29.9378C74.5371 31.6672 72.4999 33.4802 70.2899 33.6138C67.2774 33.7976 65.0702 31.8789 65.0451 29.0578C65.0201 26.2368 67.1631 24.2651 70.0949 24.3904C72.472 24.5074 74.5231 26.3092 74.342 28.2252Z" fill="black"/>
<path d="M44.1622 36.9195V42.0854C44.1622 42.2859 44.1622 42.4892 44.1622 42.6897C44.1708 42.9614 44.2846 43.2191 44.4795 43.4086C44.6744 43.5982 44.9352 43.7049 45.2072 43.7062C45.3424 43.7088 45.4767 43.6846 45.6025 43.6351C45.7282 43.5857 45.843 43.5118 45.9401 43.4179C46.0372 43.3239 46.1148 43.2117 46.1684 43.0877C46.222 42.9637 46.2505 42.8303 46.2523 42.6953C46.2857 42.1383 46.2662 41.5563 46.2662 40.9854C46.2662 39.813 46.2885 38.6378 46.2662 37.4653C46.2523 37.0086 46.4083 36.8861 46.8403 36.9084C47.3977 36.9446 47.955 36.9279 48.5124 36.9084C48.7911 36.9084 48.9025 37.0003 48.9025 37.2871C48.9025 39.1474 48.9276 41.0104 48.8803 42.8568C48.8711 43.493 48.658 44.1096 48.2723 44.6159C47.8865 45.1221 47.3485 45.4914 46.7372 45.6695C45.8878 45.9568 44.9738 45.9945 44.1036 45.7781C43.3677 45.6452 42.7045 45.2516 42.2356 44.6695C41.7667 44.0873 41.5236 43.3557 41.5509 42.6089C41.5509 40.8823 41.5509 39.1557 41.5509 37.4291C41.5509 36.9947 41.6958 36.8722 42.1083 36.9056C42.7548 36.9418 43.4237 36.9195 44.1622 36.9195Z" fill="black"/>
<path d="M29.6764 27.8477C29.6764 28.6832 29.6764 29.5186 29.6764 30.3541C29.6486 31.9971 28.7122 33.1807 27.093 33.4842C26.4173 33.6076 25.7255 33.6142 25.0475 33.5037C23.3921 33.2253 22.4028 32.0807 22.3582 30.4098C22.3136 28.6163 22.3582 26.8201 22.3359 25.0267C22.3359 24.6786 22.4809 24.6006 22.7902 24.6117C23.3476 24.6284 23.9049 24.6368 24.4623 24.6117C24.8608 24.5894 24.9834 24.7231 24.9778 25.1214C24.9583 26.731 24.9778 28.3434 24.9778 29.9531C24.9724 30.1392 24.9826 30.3256 25.0085 30.51C25.0434 30.7736 25.1788 31.0135 25.3866 31.1795C25.5943 31.3456 25.8583 31.425 26.1232 31.4012C26.3791 31.3898 26.621 31.2811 26.7992 31.0973C26.9775 30.9135 27.0786 30.6685 27.0819 30.4126C27.1098 29.7609 27.0819 29.1065 27.0819 28.4632C27.0819 27.3492 27.0819 26.2158 27.0819 25.0935C27.0819 24.7426 27.1878 24.6145 27.5445 24.6284C28.1297 24.6507 28.7178 24.6479 29.3058 24.6284C29.6179 24.6284 29.7127 24.7398 29.7099 25.0378C29.6681 25.9652 29.6764 26.9037 29.6764 27.8477Z" fill="black"/>
<path d="M46.4766 21.0811C46.6048 20.7219 46.6911 20.4713 46.7803 20.2234C47.6916 17.7505 48.6113 15.2831 49.5058 12.8074C49.5376 12.6451 49.632 12.5018 49.7686 12.4085C49.9053 12.3153 50.0732 12.2795 50.236 12.3089C50.8379 12.3423 51.4455 12.3089 52.0502 12.3339C52.1482 12.3428 52.2429 12.374 52.327 12.4252C52.4111 12.4764 52.4823 12.5462 52.5351 12.6291C53.5858 15.3527 54.6085 18.0846 55.6369 20.8166C55.6505 20.8816 55.6571 20.9479 55.6564 21.0143C55.5358 21.0455 55.4127 21.066 55.2885 21.0756C54.7674 21.0756 54.2462 21.0477 53.7279 21.0756C53.1287 21.1229 52.6717 21.0533 52.5853 20.3209C52.5853 20.2178 52.3289 20.073 52.1868 20.0675C51.4315 20.0424 50.6735 20.0675 49.9183 20.048C49.556 20.048 49.5003 20.2847 49.4613 20.527C49.3888 20.953 49.1826 21.0839 48.7339 21.0839C48.0177 21.0533 47.2987 21.0811 46.4766 21.0811ZM51.1333 15.194H51.0052C50.7265 16.1575 50.4478 17.1239 50.1691 18.132H51.9805L51.1333 15.194Z" fill="black"/>
<path d="M50.4078 41.3105C50.4078 40.0211 50.4078 38.7317 50.4078 37.4424C50.4078 37.0692 50.4831 36.9021 50.9039 36.9105C52.144 36.9383 53.387 36.9105 54.6271 36.9244C56.5556 36.9522 57.9183 38.3168 57.9183 40.1854C57.9183 42.0541 56.5528 43.4159 54.6215 43.4437H54.3679C53.0191 43.4437 53.0247 43.4437 53.0191 44.8166C53.0191 45.7774 53.1417 45.6716 52.1663 45.6799C51.7288 45.6799 51.2913 45.6632 50.8565 45.6799C50.5026 45.6994 50.3911 45.5658 50.3967 45.2176C50.419 43.9255 50.4078 42.6082 50.4078 41.3105ZM53.0247 38.9685V40.3971C53.0247 41.511 53.1389 41.5946 54.2676 41.408C54.5608 41.3581 54.8245 41.1997 55.0062 40.9645C55.188 40.7292 55.2745 40.4342 55.2485 40.1381C55.2555 39.8494 55.1527 39.5687 54.9608 39.3527C54.769 39.1367 54.5023 39.0014 54.2146 38.974C53.8496 38.9434 53.4817 38.9685 53.0247 38.9685V38.9685Z" fill="black"/>
<path d="M48.7363 24.6211C50.5199 24.6211 52.2644 24.6211 54.009 24.6211C54.0836 24.6442 54.1513 24.6856 54.2058 24.7416C54.2603 24.7975 54.3 24.8662 54.3211 24.9413C54.5023 26.5649 54.4967 26.5649 52.8775 26.5649C52.4595 26.5649 52.0415 26.5454 51.6207 26.5649C51.5507 26.5821 51.4862 26.6167 51.4332 26.6653C51.3801 26.714 51.3401 26.7752 51.3169 26.8434C51.2807 27.2221 51.3169 27.6037 51.3169 28.0687C52.153 28.0687 52.9333 28.0994 53.7136 28.0687C54.2208 28.0437 54.3769 28.1913 54.3629 28.712C54.3267 29.9541 54.3629 29.9541 53.12 29.9541H51.3643V31.4133C52.1836 31.4133 52.9862 31.4356 53.7888 31.4133C54.2319 31.3966 54.4019 31.5387 54.3462 31.9842C54.3183 32.2685 54.3183 32.5549 54.3462 32.8392C54.3824 33.2402 54.2598 33.3961 53.8223 33.3961C52.1948 33.3711 50.5645 33.3822 48.937 33.3794C48.8713 33.3724 48.8062 33.3612 48.7419 33.346L48.7363 24.6211Z" fill="black"/>
<path d="M78.7834 27.6628C79.1401 26.8273 79.4969 26.1283 79.7393 25.3903C79.9511 24.7554 80.2967 24.5549 80.9544 24.605C81.6121 24.6551 82.2474 24.6189 82.9999 24.6189C82.6404 25.3458 82.3338 25.9751 82.0217 26.6017C80.9794 28.7043 79.926 30.8041 78.8977 32.9178C78.8465 33.0744 78.7422 33.2082 78.6028 33.2961C78.4634 33.3841 78.2976 33.4207 78.1341 33.3995C77.3789 33.3661 76.6236 33.3995 75.7709 33.3995C75.8573 33.1712 75.9074 33.0069 75.9827 32.8426C76.3171 32.1492 76.6431 31.4502 77.0054 30.7679C77.0929 30.6275 77.1392 30.4654 77.1392 30.3C77.1392 30.1346 77.0929 29.9726 77.0054 29.8322C76.1917 28.3088 75.4058 26.7688 74.6088 25.2344C74.5279 25.0756 74.4527 24.9085 74.3301 24.6774C74.6255 24.6607 74.8484 24.6384 75.0714 24.6356C75.6761 24.6356 76.2809 24.6579 76.8828 24.6356C77.0288 24.6133 77.1781 24.6443 77.303 24.7231C77.4279 24.8019 77.5202 24.9231 77.5628 25.0645C77.8554 25.7607 78.1787 26.4402 78.4964 27.1281C78.5633 27.2701 78.6469 27.4066 78.7834 27.6628Z" fill="black"/>
<path d="M43.432 12.3202C44.3378 12.3202 45.2463 12.3453 46.1492 12.3202C46.6313 12.2979 46.7651 12.4762 46.7316 12.9245C46.7093 13.3419 46.7093 13.7603 46.7316 14.1777C46.7316 14.4562 46.6313 14.5759 46.3471 14.5648C45.9959 14.5648 45.642 14.5871 45.2909 14.5648C44.8812 14.5314 44.7335 14.665 44.7335 15.0911C44.7558 16.9013 44.7335 18.7114 44.753 20.5188C44.753 20.9866 44.622 21.1398 44.1594 21.1092C43.6407 21.0758 43.1203 21.0758 42.6016 21.1092C42.217 21.1287 42.1139 20.9839 42.1194 20.6163C42.1334 18.7894 42.1194 16.9653 42.1334 15.1385C42.1334 14.7068 42.0358 14.5397 41.576 14.562C41.1162 14.5843 40.5059 14.6762 40.2383 14.4339C39.9708 14.1916 40.1547 13.5984 40.138 13.1389C40.138 13.0053 40.138 12.8605 40.138 12.7351C40.1101 12.4205 40.2662 12.3341 40.5588 12.3369C41.5231 12.3258 42.4762 12.3202 43.432 12.3202Z" fill="black"/>
<path d="M56.6954 16.6673C56.6954 15.3779 56.6954 14.0885 56.6954 12.7991C56.6954 12.4232 56.8124 12.2923 57.1886 12.3118C57.6907 12.3438 58.1943 12.3438 58.6963 12.3118C59.1729 12.2756 59.3373 12.426 59.3289 12.9217C59.3011 14.6789 59.3289 16.4389 59.3289 18.1989C59.3289 18.845 59.3289 18.845 60.0006 18.8478C60.4195 18.831 60.8391 18.8366 61.2574 18.8645C61.3373 18.8913 61.4093 18.9373 61.4672 18.9985C61.525 19.0597 61.5669 19.1342 61.589 19.2154C61.6281 19.7139 61.589 20.2207 61.6086 20.722C61.6086 21.02 61.4581 21.0896 61.1989 21.0868C59.8389 21.0868 58.4817 21.0868 57.1218 21.0868C56.779 21.0868 56.6926 20.9504 56.6954 20.6385C56.701 19.3129 56.6954 17.9901 56.6954 16.6673Z" fill="black"/>
<path d="M38.9061 16.7095C38.9061 17.9683 38.8839 19.2159 38.9061 20.4802C38.9061 20.9787 38.7501 21.1235 38.2763 21.0873C37.7733 21.0553 37.2688 21.0553 36.7659 21.0873C36.3841 21.1068 36.2336 20.9898 36.2364 20.5805C36.2494 17.9813 36.2494 15.3821 36.2364 12.7829C36.2364 12.4459 36.3311 12.2956 36.6934 12.3095C37.2786 12.3318 37.8694 12.3318 38.4547 12.3095C38.8253 12.2956 38.9034 12.4571 38.8978 12.7885C38.8978 14.0973 38.9061 15.4062 38.9061 16.7095Z" fill="black"/>
<path d="M24.419 16.7092C24.419 17.9986 24.419 19.288 24.419 20.5774C24.419 20.9561 24.3298 21.1344 23.9174 21.1009C23.3322 21.0703 22.7441 21.1009 22.1561 21.1009C21.8774 21.1009 21.7687 20.9951 21.7715 20.7166C21.7715 18.0543 21.7715 15.392 21.7715 12.7297C21.7715 12.4094 21.9165 12.3287 22.2007 12.3342C22.7887 12.3482 23.374 12.3537 23.962 12.3342C24.3131 12.3342 24.4274 12.4484 24.4218 12.7993C24.4079 14.0831 24.419 15.3892 24.419 16.7092Z" fill="black"/>
</svg>
