<svg xmlns="http://www.w3.org/2000/svg" viewBox="0 0 289.89 145.01"><defs><style>.cls-1{fill:#2b2b2b;}</style></defs><g id="Layer_2" data-name="Layer 2"><g id="Layer_1-2" data-name="Layer 1"><path class="cls-1" d="M13.21,21.48l3.89,2.57c1.19-3.88,2.17-7.58,3.48-11.17,1.58-4.35,5.56-5.88,9.5-7.25a2.37,2.37,0,0,1,2.09.65c2.68,3.43,5.23,7,7.65,10.24-1.8,2.53-3.71,4.62-4.91,7.05-1.86,3.77-.89,7,2.78,9a39.19,39.19,0,0,0,9.4,3.83c9.88,2.52,19.83,4.79,29.79,7,2.39.52,3.07,1.4,3,3.88q-1.16,33.51-2,67c-.07,3-.73,4.38-4,4.37-5.71,0-11.43.32-17.14.64-2.09.12-3.19-.64-3.58-2.66a33.74,33.74,0,0,0-1-3.86c-.81-2.49-1-6.07-2.71-7.17-3.37-2.16-7.61-3.07-11.58-4.13-.74-.19-2.27,1.15-2.86,2.12-2.6,4.25-4.83,8.73-7.54,12.89a6.16,6.16,0,0,1-4.2,2.48c-6.08.29-12.17.2-18.26.15-5,0-6-1.69-4-6.25Q13.18,85.06,25.41,57.22c2.42-5.54,1.68-8.25-3.23-11.93-4.18-3.13-8.49-6.12-12.82-9C7.6,35.06,7.3,33.9,8.27,32,10,28.71,11.44,25.29,13.21,21.48ZM55.72,73.26h.15c-.17-2.66-.26-5.33-.53-8-.34-3.34-3.28-3.46-5.51-3.54-1.58-.06-4.07.92-4.66,2.15a87.53,87.53,0,0,0-4.92,13.26,4.1,4.1,0,0,0,1.69,3.61,39.86,39.86,0,0,0,8.34,2.48c3.31.67,5.28-1.07,5.42-4.51C55.78,76.9,55.72,75.08,55.72,73.26Z"/><path class="cls-1" d="M268.13,92.18c4.75,0,9.49.06,14.24,0,4.92-.08,7.44,3.12,5.76,7.62q-2.43,6.47-5.15,12.83c-.94,2.17-.74,3.7,1.58,4.69a7.23,7.23,0,0,1,1.88,1.11c1.2,1,2.31,2.21,3.45,3.32-1.32,1.09-2.48,2.63-4,3.2-6.38,2.37-12.84,4.5-19.31,6.61-3.86,1.26-4.32.9-4.23-3a95.07,95.07,0,0,1,.53-10.55c.38-2.83-.75-3.42-3.19-3.26-10.07.65-20.17,1-30.21,2-3.75.35-5.23-.71-6.06-4.24q-8-34.14-16.34-68.21c-.64-2.63.13-4.1,2.56-5.1q22.74-9.39,45.44-18.85c2.7-1.12,4.08-.53,4.3,2.62.35,4.84,1.16,9.64,1.38,14.48a6.84,6.84,0,0,1-1.95,4.22c-3.7,4.11-7.9,7.81-11.33,12.13-1.84,2.31-3.12,3-5.56,1.37a17.43,17.43,0,0,0-3.32-1.49c-3.88-1.5-5.47-.56-5.5,3.67a11.92,11.92,0,0,0,1.41,5.53c2.57,4.83,5,5.26,8.42,1.1,2.56-3.12,4.64-3.29,8.25-1.62,3.88,1.8,8.33,2.49,12.6,3.31,2.35.46,3.55,1.2,3.12,3.76s-.52,5.09-1.11,7.56a4.18,4.18,0,0,1-2.21,2.36c-4.46,1.93-9,3.58-13.5,5.53-1.11.49-2.71,1.79-2.65,2.61.14,2,.82,4.21,3.55,4.29,3.77.13,7.54.15,11.32.25,1.94.05,3.89.18,5.83.27Z"/><path class="cls-1" d="M169.65,92.16c1.27,5,2.5,9.46,3.42,13.94a3.71,3.71,0,0,1-1.42,2.87c-4.59,3.42-9.33,6.62-14,10-1.9,1.39-3.47,1.16-5.27-.18-7.6-5.67-15.35-11.16-22.84-17-2.72-2.11-4.51-2.26-7.08.27-5.82,5.7-12,11.08-18,16.58-.79.72-1.65,1.36-2.8,2.3L82.41,103.06c4.52-4.91,8.75-9.56,13.06-14.16C101,83,101,83,96.61,76.13c-3.12-4.92-6-10-9.21-14.88-1.32-2-.92-3.1,1.14-4.28q7.59-4.35,15-9.09c1.83-1.18,2.91-.87,4.32.63,4.65,5,9.48,9.79,14.14,14.76,1.72,1.83,3,1.72,4.9.16,7.18-6,14.49-11.85,22.34-18.22l16.92,16.57c-7,5.85-13.28,11.26-19.79,16.32-2.5,2-2.63,3.59-1.19,6.11a24.65,24.65,0,0,0,10.76,10.05C160.63,96.62,164.87,94.74,169.65,92.16Z"/><path class="cls-1" d="M168.86,49.63c8.32-1.27,16.32-2.67,24.37-3.65s7.84-.77,8.28,7.13q1.65,28.9,3.5,57.8c.29,4.72-.07,5.07-4.76,4.2-6-1.1-11.94-2.25-17.94-3.16-2.42-.37-3.59-1.3-4-3.79-.95-5.49-2.51-10.89-3.21-16.41a16.12,16.12,0,0,1,1.33-7.92c2.6-6.16,4.57-12.36,2.83-19a4.92,4.92,0,0,0-3.16-3.05c-5.7-.88-5.78-.71-6.82-6.38A52.72,52.72,0,0,1,168.86,49.63Z"/><path class="cls-1" d="M205.93,20a20.42,20.42,0,0,1-1.69,2.59c-5.71,6.29-11.48,12.53-17.19,18.81-1.81,2-3.72,2.09-5.72.44q-10.1-8.37-20.14-16.79c-1.94-1.62-2.16-3.4-.33-5.28C167.11,13.37,173.3,6.87,179.71.59a4.12,4.12,0,0,1,4-.14C190.77,6.16,197.65,12.1,204.55,18A9.58,9.58,0,0,1,205.93,20Zm-23.07,1.27h0c.86,3.86,4.29,4.64,7.27,5.79.47.18,2.19-1.18,2.2-1.85a67,67,0,0,0-.55-9.39c-.38-3.07-2.17-2.82-4.05-1.24s-3.56,3.25-5.1,4.67c-2.37-1.49-4.42-2.95-6.63-4.13-2.06-1.11-3.74-.59-3.69,2a70.29,70.29,0,0,0,.83,9.39c.27,1.8,1.71,2.56,3.2,1.25C178.65,25.79,180.7,23.49,182.86,21.31Z"/><path class="cls-1" d="M151.55,137.48a37,37,0,0,1,.08-5.37c.12-.8,1.12-1.46,1.71-2.19.68.76,1.89,1.49,1.95,2.29a84.65,84.65,0,0,1,.05,9.82c0,.87-.8,2.37-1.33,2.41a4.24,4.24,0,0,1-3.1-1.12,54.35,54.35,0,0,1-4.06-5.31l-1,.32a12.66,12.66,0,0,1-.09,3.75,3.93,3.93,0,0,1-2.12,2.45c-2,.52-2.35-1-2.26-2.67.15-3,.19-6.07.46-9.09A9.72,9.72,0,0,1,143,130c1.1.54,2.52.81,3.25,1.66a69.39,69.39,0,0,1,4.3,6.13Z"/><path class="cls-1" d="M107.37,144.33c-5.58,1.5-5.34-4.87-9.24-6.32a24.77,24.77,0,0,1-.49,4.6c-.22.79-1.24,1.34-1.91,2-.66-.66-1.84-1.29-1.88-2a98.38,98.38,0,0,1,0-10.16c0-.86.83-2.36,1.34-2.39a4.11,4.11,0,0,1,3.06,1.17c1.71,2.08,3.09,4.43,4.6,6.67l1.16-.29a50.92,50.92,0,0,1,.07-5.53c.08-.76.88-1.43,1.35-2.14.66.67,1.85,1.32,1.88,2C107.46,136.06,107.37,140.15,107.37,144.33Z"/><path class="cls-1" d="M177.07,135c-1.63-.47-3-.53-3.83-1.2-.52-.42-.57-1.85-.33-2.68a2.42,2.42,0,0,1,1.86-1.2,67,67,0,0,1,9.07,0c1,.1,1.91,1.42,2.86,2.18-.8.77-1.55,2.12-2.43,2.21-2.11.21-2.68,1.2-2.6,3.06a17.07,17.07,0,0,1-.09,4.69,3.8,3.8,0,0,1-2.14,2.43c-1.92.52-2.45-.83-2.39-2.57C177.13,139.7,177.07,137.42,177.07,135Z"/><path class="cls-1" d="M190.73,130.35c4.53-1.91,5.73,2.18,8.36,3.85,1.7-2.53,3-5.73,7.34-3.74-2.15,4.41-4.11,8.93-6.58,13.16-.57,1-2.89.92-4.62,1.39-.53-3.18,3.24-5.39.47-8.21A68.75,68.75,0,0,1,190.73,130.35Z"/><path class="cls-1" d="M120.45,136.6c-.9,2.32-2.1-.06-3,1.73-.44.83-1,6.2-1.7,6.15a3.09,3.09,0,0,1-2.08-2,19.4,19.4,0,0,1-.07-4.7c.2-9-1.42-7.82,8.77-7.76.76,0,1.51,1.05,2.26,1.62a17.52,17.52,0,0,1-2.37,1.59c-.5.23-1.27-.13-1.78.1a17.3,17.3,0,0,0-2.42,1.54c.74.55,1.47,1.11,2.22,1.64C120.61,136.72,121,136.92,120.45,136.6Z"/><path class="cls-1" d="M87.38,137.43a25.63,25.63,0,0,1-.1,5c-.17.83-1.52,2.13-2,2-.94-.21-2.29-1.31-2.36-2.13a64.26,64.26,0,0,1,0-10.1c.06-.83,1.47-1.56,2.26-2.34.75.82,1.94,1.54,2.15,2.48a24.17,24.17,0,0,1,.09,5Z"/><path class="cls-1" d="M166.17,144.22c-3.22,1.08-4.72.3-4.48-3.19.19-2.89-.13-5.81.16-8.67.09-.88,1.44-1.62,2.21-2.43.77.8,2.13,1.56,2.2,2.41.26,3.36.13,6.75.11,10.12A15.55,15.55,0,0,1,166.17,144.22Z"/><path class="cls-1" d="M135,137.28a21.61,21.61,0,0,1-.11,5c-.22.91-1.51,1.56-2.32,2.33-.76-.81-2.1-1.57-2.16-2.42a54.52,54.52,0,0,1,.06-9.73c.09-.93,1.63-1.71,2.51-2.56.7.88,1.79,1.68,2,2.67a20.84,20.84,0,0,1,.09,4.68Z"/><path class="cls-1" d="M159.25,70.14c3.34,3.19,4,11.36,1.4,15.53C157,81.92,156.32,75.33,159.25,70.14Z"/><path class="cls-1" d="M182.86,21.31l5.89-3.74c.2,2,.37,3.65.56,5.61l-6.45-1.87Z"/></g></g></svg>