<svg xmlns="http://www.w3.org/2000/svg" viewBox="0 0 541.21 114.72"><defs><style>.cls-1{fill:#2b2b2b;}</style></defs><g id="Layer_2" data-name="Layer 2"><g id="Layer_1-2" data-name="Layer 1"><path class="cls-1" d="M419.77,47c0,10.33-.18,20.67.14,31,.08,2.62,1.71,5.21,2.76,7.76.77,1.86.53,2.68-1.7,2.67q-14.67-.1-29.32,0a2.64,2.64,0,0,1-2.84-2c-1.65-4.34-3.3-8.68-5.08-13a2.87,2.87,0,0,0-2-1.58c-6.51-.11-13-.06-19.54,0a4.78,4.78,0,0,0-1,.3c1.46,4,2.88,8,4.36,11.91,1.62,4.32,1.61,4.36-3,4.36H325.24c-3,0-3.33-.39-2.08-3.05A21.06,21.06,0,0,0,325,75.92q-.15-17.83,0-35.66a22.85,22.85,0,0,0-1.9-10.42C321.94,27.49,322.36,27,325,27c5.78,0,11.56,0,17.34,0,1.84,0,2.73.53,1.72,2.45-1.75,3.34-2.09,6.89-2.05,10.63.12,12.86,0,25.73.09,38.59a34.88,34.88,0,0,0,.87,5.4l.78.1c.44-1,.93-2,1.32-3,5.65-14.39,11.2-28.83,17-43.16a11.18,11.18,0,0,0,.13-8c-.92-3-.78-3.13,2.44-3.13,5.54,0,11.07.06,16.61,0a3.18,3.18,0,0,1,3.6,2.37c6.89,17.83,13.91,35.62,20.9,53.41.22.57.52,1.11.79,1.67l.76.09c.66-2.68,1.86-5.35,1.91-8q.3-19.55,0-39.08c0-2.66-1.13-5.33-2-7.92-.58-1.78-.16-2.42,1.66-2.41,6.19,0,12.38-.07,18.56.09a4,4,0,0,1,2.76,1.8c7.4,12.26,14.7,24.58,22,36.88.58,1,1.21,1.9,2.16,3.39.1-1.24.19-1.9.19-2.56,0-9.2.24-18.41-.12-27.6-.13-3.11-1.71-6.19-2.75-9.24-.85-2.51-.72-2.81,2-2.82,4.15,0,8.31,0,12.46,0,2.31,0,2.75.56,1.69,2.62-2.55,4.93-3,10.12-3,15.59.2,13.44,0,26.87.11,40.31,0,2.34-.65,3.11-3,3-4.72-.17-9.45-.15-14.17,0a4,4,0,0,1-4.07-2.28C436.41,73.79,429,61.42,421.65,49c-.44-.74-.92-1.46-1.38-2.19ZM379.05,61.5l-7.7-19.72h-.59c-2.55,6.49-5.1,13-7.76,19.72Z"/><path class="cls-1" d="M248.91,69.78c3.36,5,6.57,9.78,9.79,14.55.46.67,1,1.3,1.41,2,.8,1.28.41,2.08-1.08,2.09-5.94,0-11.89.08-17.83-.07-.79,0-1.74-1-2.29-1.84-2.62-3.82-5.12-7.73-7.69-11.59-2.17-3.26-2.48-3.36-6.74-2.53-.3,4.43-.45,8.81,1.66,13,1.3,2.6.94,3-1.86,3-11.32,0-22.64,0-33.95.09a2.77,2.77,0,0,1-3-2.11c-1.63-4.34-3.31-8.66-5.09-13-.27-.65-1.14-1.5-1.75-1.51-6.75-.11-13.5-.07-20.77-.07l2.58,7.24c.89,2.45,1.76,4.9,2.67,7.34.5,1.37.08,2-1.39,2q-10.26,0-20.52,0c-2.19,0-1.86-1.19-1.31-2.59q6-15.33,12-30.67c2.52-6.44,5.21-12.82,7.46-19.35.55-1.62-.18-3.75-.58-5.6-.7-3.19-.69-3.29,2.61-3.29,5.61,0,11.23.06,16.85,0a2.91,2.91,0,0,1,3.2,2.23q10.51,27.08,21.17,54.1a3.24,3.24,0,0,0,1.33,1.66c.49-1.85,1.39-3.7,1.4-5.56.12-14.49.16-29,0-43.47,0-2.25-1.23-4.5-2-6.72-.5-1.46-.18-2.22,1.44-2.2,11.63.14,23.29-.11,34.89.55a22.22,22.22,0,0,1,18.91,11.76c5.83,10.51,1.84,23.21-8.92,29.13ZM224.53,37.31V61.37c3.67,0,7.19.33,10.62-.07a11.84,11.84,0,0,0,10.21-9.79c.94-4.86-1.3-9.62-6-12.33S229.63,37.45,224.53,37.31Zm-55,3.8-8,20.32h16c-2.17-5.61-4.24-11-6.32-16.33C170.74,44,170.25,42.88,169.51,41.11Z"/><path class="cls-1" d="M62.46,90.9V85.8c0-4-.14-8,0-12C62.75,68,62.3,62.34,59.68,57c-1.16-2.4-.59-3,2.12-3q11.85,0,23.7,0c2.84,0,3.34.69,2.09,3.2a29.9,29.9,0,0,0-3,14.59c.26,9.6.08,19.22.07,28.83,0,3.36-.53,3.67-3.49,2.09l-.21-.11c-2.78-1.37-5.46-3.57-8.34-3.87-2.69-.28-5.57,1.5-8.39,2.29-14.1,4-28,4-41.37-2.71A41.52,41.52,0,0,1,1.34,50.69c4.66-18,19.09-30.09,38.2-32,10.9-1.06,21.52.07,31.43,4.93C74.5,25.39,77.6,28,80.85,30.3c1.55,1.1,1.54,2.24,0,3.52-5,4.15-10,8.38-15,12.56-2.41,2-2.33,1.82-4.19-.62-2.59-3.39-5.14-7-8.44-9.65-11.29-8.94-26-3.78-29,10.3-4.31,20.25,5,35.77,23.89,42.22A38.93,38.93,0,0,0,62.46,90.9Z"/><path class="cls-1" d="M538.19,27.56l-9,12.79c-.75,1.07-1.51,2.12-2.26,3.18-1.69,2.36-2,2.19-3.83,0A96.78,96.78,0,0,0,513.49,33a19.52,19.52,0,0,0-13-4.81c-2.58,0-4.88.64-6.21,3.09a6.14,6.14,0,0,0,.76,7.1,20.3,20.3,0,0,0,5.33,4.89c8.1,4.68,16.39,9,24.52,13.64,5.55,3.16,10.77,6.87,14,12.57,3.9,6.8,2.78,14.69-2.52,21.39C530.69,98,522.91,101,514.26,102.54c-16.42,2.91-31.51-.68-45.69-9.05-1.81-1.07-1.93-2-.72-3.62,3.19-4.33,6.23-8.76,9.34-13.14,2.07-2.91,2.21-2.87,4.7-.43,6.78,6.64,14.48,11.88,23.64,14.63a25.42,25.42,0,0,0,8.42.93c5.41-.26,7.53-4.77,4.68-9.36a23.48,23.48,0,0,0-9-8c-6.49-3.56-13.23-6.7-19.57-10.5a57.28,57.28,0,0,1-11.74-9c-6.53-6.75-6.6-17-.83-24.39,6-7.69,14.32-10.68,23.54-11.84,12.93-1.63,24.87,1.44,36.07,7.85A9.37,9.37,0,0,1,538.19,27.56Z"/><path class="cls-1" d="M281.62,88.43c-5.45,0-10.91,0-16.36,0-2.33,0-2.72-.49-1.69-2.61A22.42,22.42,0,0,0,265.5,75.4q-.17-17.58,0-35.17c0-3.72-.25-7.26-1.93-10.66-1-2.12-.63-2.63,1.69-2.63,10.42,0,20.85-.21,31.27.07,11,.3,18.89,6,22.94,16.09,4.94,12.31,4.35,24.45-3.63,35.49a23.1,23.1,0,0,1-19.06,9.8c-5,.11-10.1,0-15.15,0Zm1.06-10.35c2.44,0,4.71-.11,7,0,6.54.41,10.56-3,13.06-8.6a28.32,28.32,0,0,0,1.55-18.86c-3.44-13.56-10.13-14.29-21.57-13Z"/><path class="cls-1" d="M127.3,54.24c0-4.48-.08-9,0-13.43.08-3.94.05-7.79-1.95-11.38-.91-1.63-.45-2.55,1.63-2.52q8.91.09,17.83,0c2.09,0,2.56.92,1.65,2.54-2.06,3.66-2,7.62-1.94,11.62.06,9.69-.22,19.39.1,29.06.25,7.77-3.09,13.13-9.9,16.12-12.31,5.38-24.7,5.37-36.7-1-5.35-2.85-8.07-7.43-8-13.78.2-10.34,0-20.68.1-31,0-3.89-.24-7.61-2.11-11.09-.9-1.68-.28-2.41,1.56-2.4q9,0,18.07,0c1.9,0,2.5.89,1.57,2.4-2.35,3.84-2.24,8-2.21,12.27.06,10.26.08,20.52,0,30.78a6.93,6.93,0,0,0,4.41,6.93,13.43,13.43,0,0,0,10.69.38c3.8-1.46,5.14-3.48,5.14-7.61C127.31,66.13,127.3,60.18,127.3,54.24Z"/><path class="cls-1" d="M284.43,16V0c2.84.17,5.92.16,8.94.59a7.1,7.1,0,0,1,6.4,6.65c.28,3.64-1.57,6.81-5.35,7.72C291.09,15.77,287.55,15.71,284.43,16ZM287,1V14.91c3.43.07,6.91.63,9.29-2.46a7,7,0,0,0,.47-8.07C294.6.66,290.92.82,287,1Z"/><path class="cls-1" d="M368.07,0c5,0,8.72,3.37,8.75,7.9S373,16,368,16s-8.75-3.5-8.68-8.2S363,0,368.07,0Zm6.49,8.17c0-4.32-2.83-7.49-6.62-7.55s-6.55,2.95-6.46,7.23,2.85,7.42,6.74,7.37S374.6,12.42,374.56,8.17Z"/><path class="cls-1" d="M138.78,3.76C137,1.25,134.93.15,132.11.82c-4.38,1.05-6.58,4.85-5.28,9.36a7.59,7.59,0,0,0,9.64,4.74c.35-.13.89-.45.89-.68,0-1.92-.1-3.84-.17-5.87H140l-.57,7.24c-2.79,0-5.65.37-8.36-.09a7.77,7.77,0,0,1-6.73-7.79c0-3.54,2.55-6.49,6.66-7.28A27.74,27.74,0,0,1,137.2.36C139.05.42,139.53,1.5,138.78,3.76Z"/><path class="cls-1" d="M416.84.29V3.54c-2.42-3.81-5.65-2.3-8.74-2.54V7.71l7-.55V10c-2-2.62-4.5-1.5-7.24-1.56.18,2.49.35,4.76.52,7.17h-2.82V.29Z"/><path class="cls-1" d="M169.07.23h3.07a30.52,30.52,0,0,0,0,12.41c.43,2.1,2.49,2.38,4.32,2.44s4.18-.1,4.72-2.2A24.81,24.81,0,0,0,181,.25h2.06c-.17,1.35-.42,2.65-.48,4-.08,1.62,0,3.25,0,4.88,0,6-4.7,8.82-10.15,6.15a4.68,4.68,0,0,1-2.82-4.48c0-2.52,0-5,0-7.57A20.26,20.26,0,0,0,169.07.23Z"/><path class="cls-1" d="M247.85,14.85c2.81-.11,6,1.36,8.21-2.07v2.84h-10.9V.27h2.69Z"/><path class="cls-1" d="M215.35.32c-.67,5.08-.38,10.11-.25,15.28h-2.62V.32Z"/><polygon class="cls-1" points="270.59 114.72 257.05 100.92 114.45 100.92 114.45 100.44 257.25 100.44 257.32 100.51 270.58 114.01 283.07 100.44 427.14 100.44 427.14 100.92 283.28 100.92 270.59 114.72"/><polygon class="cls-1" points="270.6 110.14 264.63 104.59 130.82 104.59 130.82 104.1 264.82 104.1 270.58 109.46 276.12 103.92 410.35 103.92 410.35 104.41 276.32 104.41 270.6 110.14"/></g></g></svg>