<svg xmlns="http://www.w3.org/2000/svg" viewBox="0 0 167.3 167.54"><defs><style>.cls-1{fill:#2b2b2b;}</style></defs><g id="Layer_2" data-name="Layer 2"><g id="Layer_1-2" data-name="Layer 1"><path class="cls-1" d="M73.83,63.66h71.76c2.09,0,2.07,0,1.38-2a64.38,64.38,0,0,0-9.08-17.34,66.39,66.39,0,0,0-31.06-23.52,65.67,65.67,0,0,0-23.58-4.12c-2.21,0-4.43,0-6.64,0-.84,0-1.19-.29-1.18-1.16q0-7.12,0-14.26c0-.77.16-1.26,1.1-1.24,4.68.09,9.37-.07,14,.24A79.76,79.76,0,0,1,110.5,4.35a84.09,84.09,0,0,1,51.06,48.51A80.88,80.88,0,0,1,167,76.24a89,89,0,0,1-.23,17.65,81.43,81.43,0,0,1-8.62,28.26,84.34,84.34,0,0,1-34.58,35.3,89,89,0,0,1-16,6.64,74.27,74.27,0,0,1-15.47,3,100.55,100.55,0,0,1-11.24.41,93.06,93.06,0,0,1-10.64-1.07,71.68,71.68,0,0,1-14.62-3.75,83.43,83.43,0,0,1-24.92-14.14,86.58,86.58,0,0,1-17.74-20A69.5,69.5,0,0,1,5.51,113.4a99.25,99.25,0,0,1-3.68-12.57A92.14,92.14,0,0,1,.14,86.49C-.14,79.35.1,72.19.05,65c0-1.17.41-1.41,1.47-1.41q25.38,0,50.75,0H73.83Zm24.1,16.62H66.42c-6.74,0-13.49,0-20.23,0-.93,0-1.38.29-1.3,1.28.08,1.18.08,2.36.11,3.54a36.54,36.54,0,0,0,6.66,20.38c7.69,11,18.26,16.71,31.7,17.05,2.5.06,5,0,7.52,0,.72,0,1.19.17,1.19,1,0,4.87,0,9.73,0,14.6,0,.68-.14,1.1-1,1.11-7.11,0-14.19.05-21.16-1.81A55.63,55.63,0,0,1,28.33,81.54c0-.88-.24-1.28-1.18-1.27-3,0-6.11,0-9.17,0-.95,0-1.34.31-1.29,1.28.09,2,.09,3.9.16,5.85a62.84,62.84,0,0,0,4.81,21.68,66.87,66.87,0,0,0,64,41.76,65.85,65.85,0,0,0,18.64-3.25,64.68,64.68,0,0,0,18-9,67.51,67.51,0,0,0,21.62-25.39,65.41,65.41,0,0,0,5.5-16.13,67.44,67.44,0,0,0,1.32-15.26c0-1.51-.09-1.51-1.6-1.51Z"/><path class="cls-1" d="M83.7,92c4.52-.34,9.5,3.58,9.52,9.49a9.51,9.51,0,0,1-19-.09C74.18,96.26,78.64,91.72,83.7,92Z"/></g></g></svg>