<svg xmlns="http://www.w3.org/2000/svg" viewBox="0 0 478.3 87.79"><defs><style>.cls-1{fill:#2b2b2b;}</style></defs><g id="Layer_2" data-name="Layer 2"><g id="Layer_1-2" data-name="Layer 1"><path class="cls-1" d="M402.46,0h75.19c-1,8.47,3.68,17.31-3.19,24.66-5.89,6.3-12.4,12-20.14,19.44,6.21,5.54,11.5,10.57,17.13,15.19,5.06,4.15,7.28,9.07,6.51,15.64-.45,3.92-.08,7.94-.08,12-6,1.67-10.36.88-14.68-3.63-12.39-12.95-25.28-25.42-39-39.12V87.35H402.46Zm41.26,21.69H424.35V41.24Z"/><path class="cls-1" d="M140.08,87.41H119.4V.19h83V55.3H140.08ZM180.9,22.55H139.75c6.23,5.35,10.44,11.6,15.9,13,7.82,2,16.56.51,25.25.51Z"/><path class="cls-1" d="M76.08,87.5H1.1V65.83H43.32L13,33.7c-.3-.32-.65-.6-1-.91C-1,20.38-1.26,19.67,1.24.28h74.4V21.5H33l-1,1.78c2.37,2.11,4.81,4.13,7.08,6.33,10.2,9.89,20.14,20.08,30.63,29.65,4.83,4.4,7.27,9,6.51,15.55C75.71,78.74,76.08,82.76,76.08,87.5Z"/><path class="cls-1" d="M212.41.06h20.91V32.47h42.84V.14h21.3V87.35H276.28V55.09H233.64V87.46H212.41Z"/><path class="cls-1" d="M85.64,0h24.13V87.31H85.64Z"/><path class="cls-1" d="M306.9,87.4V66.21h85.79V87.4Z"/><path class="cls-1" d="M392.47,21.39H307.14V.31h85.33Z"/><path class="cls-1" d="M392.7,33.5V54.07H307.26V33.5Z"/></g></g></svg>