<svg xmlns="http://www.w3.org/2000/svg" viewBox="0 0 368.93 146.07"><defs><style>.cls-1{fill:#2b2b2b;}</style></defs><g id="Layer_2" data-name="Layer 2"><g id="Layer_1-2" data-name="Layer 1"><path class="cls-1" d="M279.49,21.53l-8.44,8.82c-1.29-1.15-2.5-2.28-3.77-3.34C254,15.92,231.58,15.58,217.4,31,199.88,50,205,81.4,227.84,93.35a32.79,32.79,0,0,0,14.88,3.87c9.9.14,19.8,0,29.7.06a2.8,2.8,0,0,0,.46-.09V56.38H227.12a17.55,17.55,0,0,1,6.62-12.32,2.13,2.13,0,0,1,1.24-.37q24.65,0,49.28.06a6.58,6.58,0,0,1,.69.1v66c-.37,0-.84.06-1.31.06-13.24,0-26.47.09-39.7,0-15.9-.13-28.45-7.05-38.19-19.36-8.13-10.26-11.47-22.07-10.81-35,1-19.63,10.41-34.18,27.34-43.81,8.72-5,18.33-6.1,28.23-5,11.13,1.25,20.45,6.16,28.3,14C279,21,279.23,21.24,279.49,21.53Z"/><path class="cls-1" d="M137.45,109.71c1.11-4.11,2.19-8.24,3.33-12.34q11.57-41.55,23.16-83.08c.11-.42.27-.84.44-1.37.42.22.78.38,1.1.59,13.64,8.79,21.61,21.29,23.79,37.3,2.14,15.66-1.84,29.78-12.14,41.83-9.88,11.55-22.59,17.33-37.86,17.29a14.51,14.51,0,0,1-1.84-.25Z"/><path class="cls-1" d="M142.91,6.37q-13.46,48.51-26.89,97A50.67,50.67,0,0,1,103.5,93C82.59,69.27,87.7,31.1,114.08,14A47.66,47.66,0,0,1,141.7,6.28C142.05,6.29,142.4,6.33,142.91,6.37Z"/><path class="cls-1" d="M294.68,6.4h11.84c0,.61.09,1.17.09,1.73,0,20.7.05,41.41,0,62.11,0,9.07,3.27,16.49,10.4,22.09A24,24,0,0,0,348.07,91a25.72,25.72,0,0,0,8.77-19.18c.06-4,0-8.11,0-12.16V6.43h11.93c0,.46.08.89.08,1.33,0,21.2.12,42.4,0,63.59-.13,15.86-7.38,27.77-21.43,35a35.61,35.61,0,0,1-43.15-9A37.8,37.8,0,0,1,294.65,72c-.08-21.51,0-43,0-64.54C294.63,7.17,294.65,6.85,294.68,6.4Z"/><path class="cls-1" d="M92.37,6.34C90,13.65,87.73,20.7,85.46,27.75Q74.27,62.45,63.09,97.14a17.78,17.78,0,0,1-16,12.78A17.21,17.21,0,0,1,30,99c-2-4.85-3.4-9.94-5-14.93Q12.68,45.92.39,7.76C.26,7.35.16,6.92,0,6.34H9.82c2.93,0,2.93,0,3.81,2.74Q27.09,50.75,40.57,92.43a8.46,8.46,0,0,0,1.88,3.19,5.41,5.41,0,0,0,9-2.2Q61.2,63.14,70.93,32.86C73.64,24.43,76.37,16,79,7.57a1.46,1.46,0,0,1,1.67-1.26C84.52,6.37,88.34,6.34,92.37,6.34Z"/><path class="cls-1" d="M268.93,93.18h-1.54c-7.34,0-14.68-.14-22,0-20,.45-32.18-16-34-29-2.24-15.53,4.66-30.25,18.09-37.44A32.6,32.6,0,0,1,267.77,33c.09.1.16.22.31.41l-8.41,8.79a3.39,3.39,0,0,1-.56-.4c-10.64-10.74-29.85-7.11-35.11,9.5-3.64,11.5,2.44,24.07,13.37,27.92a22.37,22.37,0,0,0,6.32,1.2c4.13.18,8.28.06,12.42.06a5.62,5.62,0,0,0,.72-.08V72.55h-1.61c-6.57,0-13.13,0-19.7-.1a3.92,3.92,0,0,1-2.28-.83,16.85,16.85,0,0,1-6-11.64h41.69Z"/><path class="cls-1" d="M340.81,6.42h12.06c0,.47.07.86.07,1.25q0,31.67,0,63.33a21.6,21.6,0,0,1-10.41,19.16c-11.68,7.48-27.48,1-31.11-12.75a23.37,23.37,0,0,1-.81-6q-.09-31.87,0-63.74c0-.39,0-.78.06-1.26H322.7V8q0,31.53,0,63.06a9.29,9.29,0,0,0,6.42,9.15,9.15,9.15,0,0,0,11.67-8.73c.05-3.65,0-7.3,0-10.94V6.42Z"/><path class="cls-1" d="M46.06,57.31c.92-2.82,1.73-5.29,2.53-7.76q6.77-20.88,13.5-41.78a1.78,1.78,0,0,1,2.09-1.46c3.59.08,7.18,0,11,0-.24.8-.41,1.43-.61,2.05Q61.29,49.61,48,90.84c-.34,1-.45,2.37-2,2.38s-1.67-1.31-2-2.34q-10.3-32.05-20.6-64.13-3.11-9.67-6.23-19.36c-.09-.29-.15-.58-.27-1,2.72,0,5.32,0,7.91,0,1.56,0,3.51-.45,4.58.3S30.56,9.36,31,10.81q7.29,22.56,14.56,45.13C45.7,56.28,45.82,56.61,46.06,57.31Z"/><path class="cls-1" d="M157.42,9.5q-8,29-16,57.9-5.61,20.25-11.24,40.49c-.07.25-.17.5-.34,1l-7-2.08c-.39,1.36-.8,2.76-1.19,4.17s-.78,3-1.26,4.4a1.37,1.37,0,0,1-.93.83c-2.24.07-4.49,0-7,0,1.18-4.3,2.33-8.46,3.51-12.76l6.82,3.25C132,73.54,141.23,40.56,150.49,7.34L143,6.23c.53-1.95,1-3.88,1.61-5.8a.77.77,0,0,1,.6-.4c2.42,0,4.83,0,7.37,0l-2,7.2,6.88,2.32Z"/><path class="cls-1" d="M222.14,134.15v11.59c-2.24.58-3.12.35-3.58-.92h-9.88c-.59,2.15-2.29.72-3.57,1.25V134.15h6.76v-3.63H203v-3.47h8.86v-5.7h3.32V127h9.15v3.49h-9v3.69Zm-3.42,3.6h-10.2v3.41h10.2Z"/><path class="cls-1" d="M194,139l-.37-3.57H187.2V131.9h6.51v-3.6h-6.53v-3.53c2.66,0,5.29,0,7.93,0,.7,0,1.41.12,2.11.19l0,0v6.88h4.43v3.56h-4.54v3.55l0,0L194,139Z"/><path class="cls-1" d="M368.52,136l.07,1.5H313.48c0-.24-.09-.5-.1-.76a6,6,0,0,1,.07-.74Z"/><path class="cls-1" d="M157.45,9.53c.79-2.89,1.57-5.79,2.41-8.68.09-.33.52-.8.81-.81C163,0,165.42,0,168,0c-1.21,4.32-2.37,8.5-3.53,12.68l-7-3.19Z"/><path class="cls-1" d="M137.43,109.68c-.55,1.89-1.06,3.79-1.66,5.66-.1.34-.51.82-.79.83-2.32.07-4.64,0-7.13,0,.68-2.51,1.33-4.87,2-7.22l7.62.72Z"/><path class="cls-1" d="M298.86,137h-2.67V121.12h2.67Z"/><path class="cls-1" d="M262.37,137V121.17h2.05V137Z"/><path class="cls-1" d="M236.62,121.14h2V137l-2,.09Z"/><path class="cls-1" d="M278.25,121.09h2V137h-2Z"/><path class="cls-1" d="M305.34,137h-2v-15.9h2Z"/><path class="cls-1" d="M249.33,137h-2V121.15h2Z"/><path class="cls-1" d="M286.84,121.13h2V137h-2Z"/><path class="cls-1" d="M265.28,121.13h2V137h-2Z"/><path class="cls-1" d="M323.41,129.3c-.09-1.32-.25-2.64-.24-4,0-.94-.27-1.26-1.22-1.24-2.24.06-4.48,0-6.77,0l-.25,1.64-1.42.11v-3.44h4.64l.19-1.58h1.46l.22,1.55h4.67v6.69l-1.3.19Z"/><path class="cls-1" d="M334.7,129.26c-.09-.52-.19-1-.31-1.67h-3c0-.59-.06-1-.1-1.72H336l.24-1.7,1.39-.08.25,1.64,1.42.19v1.52l-1.5.2v6.58l-1.66.09v-5.08h-1.5Z"/><path class="cls-1" d="M257.4,145.31v-5.8h1.28l.18,1.33h2.71c.05-.47.1-.86.15-1.34l1.26-.08v5.89Z"/><path class="cls-1" d="M360.79,129.16v-6.65H356l-.13,1.6-1.63-.18,0,0v-3.14h8.08v8.29h-1.57Z"/><path class="cls-1" d="M261.58,137h-1.3V121.12h1.3Z"/><path class="cls-1" d="M252.33,121.14h1.43v5.15c0,3.23,0,6.46,0,9.68,0,1.13-.45,1.32-1.45,1Z"/><path class="cls-1" d="M273.17,121.13h1.36V137h-1.36Z"/><path class="cls-1" d="M283.94,121.13h1.42v4.06c0,3.59,0,7.18,0,10.76,0,1.11-.41,1.36-1.44,1Z"/><path class="cls-1" d="M250.18,121.13h1.42v4.06c0,3.59,0,7.18,0,10.77,0,1.1-.41,1.35-1.44,1Z"/><path class="cls-1" d="M228.64,121.12H230V137l-1.35.06Z"/><path class="cls-1" d="M270.21,139.51v5.8h-1.34l-.19-1.28h-2.61c-.06.43-.12.85-.19,1.32h-1.29v-2.92h4.07V141h-4c-.05-.53-.1-1-.15-1.48Z"/><path class="cls-1" d="M277.33,139.52v1.29l-1.25.24c-.06.41-.13.84-.2,1.36H273.3c-.43,1.1-.19,1.59,1,1.52,1-.05,2,0,3,0l.09,1.39h-5.63v-5.79Z"/><path class="cls-1" d="M255.9,139.52v5.78h-5.6v-2.8l1.21-.1c.09.49.16.91.25,1.43h2.59V141h-4c-.05-.57-.09-1-.14-1.51Z"/><path class="cls-1" d="M294.52,145.36h-1.25L293,144h-2.61l-.17,1.3-1.24.12v-3h4V141H289l-.09-1.46h5.65Z"/><path class="cls-1" d="M234.36,145.34h-1.28L233,144h-2.72l-.21,1.29-1.24.09v-3h4.11V141h-4.12l-.07-1.48h5.64Z"/><path class="cls-1" d="M235.91,145.33v-5.81h1.4v4.29h2.81v-4.29l1.45-.1v5.91Z"/><path class="cls-1" d="M307.65,121.13h1.29V137h-1.29Z"/><path class="cls-1" d="M268.18,121.1h1.26V137h-1.26Z"/><path class="cls-1" d="M271.59,137h-1.26V121.15l1.26-.1Z"/><path class="cls-1" d="M282.38,137h-1.26V121.15l1.26-.1Z"/><path class="cls-1" d="M240.89,121.1h1.26V137h-1.26Z"/><path class="cls-1" d="M299.78,121.1H301V137h-1.26Z"/><path class="cls-1" d="M287.32,141h-2.64v2.89l2.65.14c0,.46.05.84.08,1.32h-4.3V141.1l-1.36-.27c0-.42,0-.83-.07-1.33h5.64Z"/><path class="cls-1" d="M244.43,145.33v-4.26l-1.33-.22v-1.36h5.57v1.4L246,141v2.84l2.67.12.06,1.35Z"/><path class="cls-1" d="M197.22,125v-3.6h4.4v3.33l-4.43.22Z"/><path class="cls-1" d="M350.8,126v1.52c-.29,0-.5.07-.72.07h-8.89c0-.53-.06-1-.09-1.59Z"/><path class="cls-1" d="M240,120.86V137l-.27.1c-.12-.22-.33-.43-.35-.66C239,133.31,239.3,121.69,240,120.86Z"/><path class="cls-1" d="M231.37,121.14V137l-.31.09a2.56,2.56,0,0,1-.33-.88q0-7.15,0-14.31a3,3,0,0,1,.24-.84Z"/><path class="cls-1" d="M290.94,121.11v16C290.22,136.47,290,122.42,290.94,121.11Z"/><path class="cls-1" d="M276.15,120.94c.77.93.8,15.19,0,16.34Z"/><path class="cls-1" d="M233.45,137c-.8-1.11-.72-15.14,0-16.1Z"/><path class="cls-1" d="M257.51,120.93c.7.95.76,15,0,16.47Z"/><path class="cls-1" d="M255.05,137.16c-.89-.87-.88-15.37,0-16.17Z"/><path class="cls-1" d="M244.49,137V121.12l.28-.1c.12.25.35.5.35.75q0,7.28,0,14.55a2.69,2.69,0,0,1-.26.77Z"/><path class="cls-1" d="M200.14,142.52h3.65v3.3h-3.15c-.15-1.09-.31-2.2-.46-3.31Z"/><path class="cls-1" d="M194,139c-.1,1.1-.19,2.19-.3,3.47l-3.44-.17,0,0,.21-3.31H194Z"/><path class="cls-1" d="M182.52,131.9h-3.3v-3.47h3.26v3.5Z"/><path class="cls-1" d="M182.52,142.39v3.45h-3.31v-3.41h3.35Z"/><path class="cls-1" d="M182.68,124.43l-3.47.33v-3.51h3.21l.24,3.19Z"/><path class="cls-1" d="M197.08,138.92h3.54c-.16,1.25-.32,2.43-.47,3.6h0l-3.06-.16v-3.46Z"/><path class="cls-1" d="M182.66,124.44l3.08.36v3.26h-3.29c.08-1.25.15-2.44.22-3.63Z"/><path class="cls-1" d="M182.48,131.93h3.27v3.33h-3.23v-3.37Z"/><path class="cls-1" d="M190.26,142.29c.08,1.14.16,2.29.24,3.56h-3.32v-3.31l3.11-.22Z"/><path class="cls-1" d="M182.56,142.43V139h3.18v3.39h-3.22Z"/><path class="cls-1" d="M300.26,142.36V141h-4.19c0-.58-.05-1-.07-1.49h5.63v2.91l-1.41-.09Z"/><path class="cls-1" d="M303.29,139.5h5.58v1.41h-4.18l-.13,1.42-1.27.12Z"/><path class="cls-1" d="M303.23,145.32V144h4l.32-1.51,1.25-.07v2.91Z"/><path class="cls-1" d="M300.2,144.15l-2.56-.29-.29,1.46h-1.3v-2.95h4.21l0-.05c0,.62,0,1.24,0,1.86Z"/><path class="cls-1" d="M292.35,121.12V137H292V121.12Z"/><path class="cls-1" d="M294.55,121.13v16C293.8,136.36,293.68,122.17,294.55,121.13Z"/><path class="cls-1" d="M321.63,130.76c-.06.57-.11,1.15-.17,1.78l-1.43.17-.23,1.5h-3.09v-1.57h3c.08-.59.14-1.06.22-1.64l1.68-.21Z"/><path class="cls-1" d="M306.73,121.12V137h-.36V121.12Z"/><path class="cls-1" d="M334.66,129.23c-.06.48-.12,1-.19,1.55l-1.49.27v3.17l-1.6.09V131l1.41-.21c.07-.48.14-1,.22-1.55h1.69Z"/><path class="cls-1" d="M326.48,124.17h3.1v1.58h-3.1Z"/><path class="cls-1" d="M360.76,129.12v1.7l-1.53.19-.14,1.49-1.44.29,0,0c-.07-.57-.13-1.13-.2-1.77l1.57-.27c.05-.47.11-.95.18-1.52l1.56-.1Z"/><path class="cls-1" d="M368.83,125.81h-1.46v-3.33h1.46Z"/><path class="cls-1" d="M365.55,125.78l-1.43.07v-3.37h1.43Z"/><path class="cls-1" d="M326.49,120.8h3.08v1.53h-3.08Z"/><path class="cls-1" d="M357.65,132.79l-.19,1.41h-3.07v-1.64l3.29.26Z"/><path class="cls-1" d="M354.22,123.93l.08,1.81h-1.55v-1.51l1.5-.26Z"/><path class="cls-1" d="M321.65,130.79c0-.47-.08-.94-.14-1.59l1.9.1,0,0c-.11.49-.22,1-.38,1.63l-1.38-.15Z"/><path class="cls-1" d="M300.18,144.18l1.44-.32.12,1.47-1.35.07c-.07-.49-.13-.87-.19-1.25Z"/></g></g></svg>