<svg xmlns="http://www.w3.org/2000/svg" viewBox="0 0 368.59 94.77"><defs><style>.cls-1{fill:#2b2b2b;}</style></defs><g id="Layer_2" data-name="Layer 2"><g id="Layer_1-2" data-name="Layer 1"><path class="cls-1" d="M55.41,39.77c7.5,3.93,7.5,3.93,13.17,12.26,0-2.8,0-5.6,0-8.39q.17-11.89.37-23.78c.06-3.43-1.31-6.33-4.42-7.58-2.79-1.13-3-2.86-2.59-5.62l31.31-.79c.68,3.51.5,3.92-2.22,5.56a7.79,7.79,0,0,0-4.09,6.77c-.09,4.67,0,9.34.13,14.09,2.57-7.77,6.73-14.4,13.44-19.19a37.37,37.37,0,0,1,22.41-6.83V25.79q-17.37,1.42-20,19H87v4.14h16c1.65,10,7.65,15.38,17.57,16.69v18a36.13,36.13,0,0,1-20.68-7.76A40.17,40.17,0,0,1,87,58c0,5.68-.16,11.36.07,17a6.93,6.93,0,0,0,4.29,6.18c2.84,1.19,2.66,3.17,2.35,5.59H60.83c-.53-2.54-.22-4.32,2.46-5.67,3.56-1.8,4.53-5.29,4.34-9.33-7.31,9-17.72,12.07-28,15.15C26.77,90.84,13.53,93.08,0,94.77V89.5a39,39,0,0,0,3.68-1.35A10.54,10.54,0,0,0,10,78.81c.43-8.91.6-17.82.86-26.73.3-10.12.62-20.23.84-30.35a29.27,29.27,0,0,0-.53-6.94c-1-4.62-4.31-7.18-9.07-7.52-.4,0-.81-.1-1.17-.15a1.89,1.89,0,0,1-.14-.51c.32-3.88.31-4,4.2-4.55C16.6.3,28.24-1,39.88,1A43.76,43.76,0,0,1,52.46,5.17c7.37,3.85,10.1,11,8.81,20.55A26.25,26.25,0,0,1,55.41,39.77ZM31.08,72.09C36.76,71,41.45,69.51,45,65.53c3.74-4.2,2.24-14.06-4.26-14.67a70.24,70.24,0,0,0-8.46-.08c-.41,0-1.12.86-1.13,1.32C31.06,58.6,31.08,65.1,31.08,72.09Zm-.3-32.53c4.39-1.19,8.6-2.18,10.18-6.73,1.36-3.9.93-7.79-2-10.89a7.75,7.75,0,0,0-8.16-2.37Z"/><path class="cls-1" d="M233.08,3.83c5.95,0,11.75.28,17.51-.1,4.17-.27,6.2,1.22,7.8,5,2.8,6.71,6.26,13.14,9.45,19.68.31.62.65,1.21,1.12,2.08,3.24-7.64,6.58-14.9,9.36-22.36,1.27-3.4,2.95-4.45,6.53-4.38,7.42.14,14.85-.32,22.28-.52.62,0,1.25,0,2.11,0,.07,1.49.15,2.87.22,4.28-3.72,1.52-4.88,4.44-5.09,8.14-.93,17-2,34.06-2.93,51.09a31.62,31.62,0,0,0,.38,5.9c.32,2.26,1.17,4.26,3.62,4.85v4.64L277.88,80.8c-.75-3.28-.55-3.73,2-5.54s3.39-4.45,3.52-7.39c.38-8,.72-16,1.07-24a91.38,91.38,0,0,0,0-11.35c-5.09,8.65-10.19,17.3-15.42,26.17-4.63-6.41-9.1-12.62-13.93-19.33-.08,1.81-.18,3-.19,4.26-.06,7.29-.17,14.58-.11,21.87a25.08,25.08,0,0,0,.86,6.7c.4,1.35,1.83,2.36,2.54,3.67a35,35,0,0,1,1.7,4.53H232.86c0-1.78-.24-3.53,1.71-5.06,2.16-1.7,2.61-4.49,2.67-7.15.32-16.91.63-33.83.81-50.74a21.45,21.45,0,0,0-1.18-6.18A4.13,4.13,0,0,0,235,8.86C232.1,7.64,233,5.46,233.08,3.83Z"/><path class="cls-1" d="M140.89,28.81V6.56L206.23,5V8.94l28.94,2.69a40.28,40.28,0,0,1-.54,4.55,2.28,2.28,0,0,1-1.37,1.27c-4.15,1.4-5.88,4.28-6.23,8.61q-1.82,22.41-4.08,44.8c-.46,4.6.68,8,4.83,10.34,2.05,1.14.36,2.91.8,4.66l-30.32-2.74c-.16-2.43,0-4.15,2.62-5.16,3.08-1.17,4.77-3.74,5.07-7.22q2-23.56,4.26-47.13c.32-3.38-.87-5.9-3.84-8.14V28.09h-4.22c-.17-1-.3-1.95-.49-2.84a6.77,6.77,0,0,0-5.89-5.58,19.64,19.64,0,0,0-2.54-.12c-1.9,0-3.8,0-6.11,0,0,3.83.06,7.42,0,11-.22,11.11-.52,22.21-.73,33.32a23.29,23.29,0,0,0,.44,4.85c.79,4.13,2.81,6.28,7.1,7.73.07,1.19.16,2.44.26,4L160.61,83.3c-1.11-3-.93-3.6,1.5-5.41A8.67,8.67,0,0,0,165.83,71q.78-24.51,1.46-49a4.29,4.29,0,0,0-.18-.67c-1.81.11-3.68.24-5.55.34-3,.18-5.93.32-8.9.51s-5.41,1.45-6.48,4.09S143.52,29.39,140.89,28.81Z"/><path class="cls-1" d="M336.16,16.3c-.33,6.84-.64,13.47-1,20.25a62.28,62.28,0,0,0,6.66.72A7.29,7.29,0,0,0,348.4,34a2.8,2.8,0,0,1,3.44-1.48c.83.16,1.67.23,2.84.39-1,8.85-2,17.66-3.08,26.7-2.46-.33-4.71,0-6-3s-4.44-3.94-7.56-4.38c-1-.15-2.1-.26-3.53-.43-.32,6.36-.62,12.6-.94,19,1.84.11,3.45.2,5.05.31,3.89.26,7.77.55,11.65.78s6-1.05,7.69-4.65c.59-1.28,1-2.65,1.49-4.11a3,3,0,0,1,.67-.12c3.51,0,3.54,0,4.1,3.42,1.47,9.07,2.91,18.15,4.41,27.53l-60.83-6.64c.11-1.61.18-3.13.35-4.65a1.33,1.33,0,0,1,.7-.91c3.77-1.36,4.68-4.64,4.89-8,1-15.18,1.79-30.38,2.58-45.57.28-5.29.49-10.59.42-15.88a8.37,8.37,0,0,0-3.84-6.95c-.87-.61-.64-2.78-.93-4.36,3.19,0,5.79,0,8.4,0,13.37.28,26.74.63,40.12.82,2.06,0,2.57.63,2.64,2.63.24,7,.71,14,1.07,21,.06,1.11,0,2.23,0,3.59l-5.4-.39c0-.83-.08-1.52-.14-2.21-.46-5.91-4-9.62-9.92-10.29a42.71,42.71,0,0,0-5.3-.22C341.08,16,338.76,16.16,336.16,16.3Z"/><path class="cls-1" d="M141.43,49.46h15V81.34h-4.34c-.1-.23-.23-.49-.32-.75-1.77-5-4.38-5.93-8.84-2.88a34.31,34.31,0,0,1-16.38,5.86c-.28,0-.57,0-.85,0a3.65,3.65,0,0,1-.51-.16V65.68C134.44,64.33,140.31,59.49,141.43,49.46Z"/><path class="cls-1" d="M156.41,43V47c-3.59.17-7.1.36-10.61.51-5.08.21-10.17.39-15.26.58a6.17,6.17,0,0,0-5.34,5c-.3,2.81-.62,5.61-1,8.58h-3.14c-.16-3-.25-6-.54-9A4.9,4.9,0,0,0,119.36,50c-2.21-2.36-2.47-5.56-.47-7.85a5.7,5.7,0,0,1,7.83-.85,5.23,5.23,0,0,0,2.65.88c8.12.26,16.25.43,24.37.64C154.58,42.88,155.41,42.93,156.41,43Zm-30.85,3.52,0-1c-.9-.66-1.81-1.86-2.69-1.83a3.26,3.26,0,0,0-2.28,2.13,1.92,1.92,0,0,0,2.24,2.35C123.82,48,124.67,47.05,125.56,46.49Z"/></g></g></svg>