<svg xmlns="http://www.w3.org/2000/svg" viewBox="0 0 565.66 94.48"><defs><style>.cls-1{fill:#2b2b2b;}</style></defs><g id="Layer_2" data-name="Layer 2"><g id="Layer_1-2" data-name="Layer 1"><path class="cls-1" d="M120.9,73.63v-51c9.08,0,17.93-.77,26.57.23,7.52.86,12.67,6.07,15.45,13.36,5.14,13.44.7,29.06-10.23,34.71a21.54,21.54,0,0,1-8.49,2.63C136.6,73.87,129,73.63,120.9,73.63ZM130,65.9c8.73.07,17.39,1.79,22.74-7.05,4-6.57,3.35-18.05-1.07-23.75-4-5.21-13.34-7.28-21.67-4.73Z"/><path class="cls-1" d="M557.05,19.53h8.61v54.1H558l-.76-3.55c-4.5,1.38-9,3-13.62,4-1.74.37-3.94-.51-5.7-1.32-7.8-3.55-11.9-15-9.17-25.18,2.5-9.3,8.6-14.44,17.12-13.35,3.69.47,7.15,2.75,11.22,4.41ZM557.1,54c0-9.09-6.14-14.55-13.33-11.87-4.28,1.6-6.81,6.61-6.51,12.87s3,10.23,7.72,11.45C551.8,68.23,557.11,62.77,557.1,54Z"/><path class="cls-1" d="M471,73.47c-.17-1.4-.35-2.85-.39-3.12-4.75,1.28-9.47,3.38-14.3,3.66a11,11,0,0,1-11.5-10.23c-.54-6.17,2.75-10.58,9.55-11.92,5.18-1,10.49-1.36,15.79-2,.67-3.64.2-7.16-3.48-7.86-3.09-.59-7.81-.55-9.54,1.32-3.15,3.41-6.23,3-10.32,2.69a23.92,23.92,0,0,1,.89-3.8c2.6-6.31,10.59-9.49,19.77-7.95,7.46,1.26,11.69,5.79,11.9,13.16.19,6.49.06,13,.06,19.49C479.39,74.81,479.38,74.81,471,73.47ZM469.9,56c-4.2.48-8.38.56-12.29,1.61-1.58.42-3.73,3.12-3.56,4.52a6.88,6.88,0,0,0,4,4.78C465.23,68.93,471.94,63.63,469.9,56Z"/><path class="cls-1" d="M287.88,56.15H261c-.6,4.77,1.13,8,4.75,10,4,2.2,8.53,2.25,11.6-1.05s6.19-3.12,9.82-2.62C287,70,279.25,74.91,268.62,74.29c-11.29-.65-18-9.93-16.83-23.23,1-11.39,9.88-18.37,21.57-17C283.54,35.34,289.83,44.62,287.88,56.15Zm-26.94-6.32h18.32c-.91-5.92-3.64-8.71-8.42-8.94C265.87,40.66,262.6,43.49,260.94,49.83Z"/><path class="cls-1" d="M413.59,49.67c-1.94-3.21-2.81-6.24-4.82-7.63-3.26-2.24-7.7-1.85-10,1.28-2.89,4-6.18,2.76-10.4,2.7a33.63,33.63,0,0,1,1.95-5.24c3.4-5.78,12.59-8.47,20.6-6.19,7.12,2,10.06,6,10.16,14,.08,6.15,0,12.31,0,18.47,0,7.71,0,7.73-8.09,6.45-.23-1.37-.46-2.8-.5-3.07-4.75,1.27-9.47,3.34-14.29,3.6a11.24,11.24,0,0,1-11.58-10.21c-.56-6,2.84-10.53,9.6-11.92C401.25,50.85,406.41,50.55,413.59,49.67ZM411.46,56c-4.07.5-8.1.6-11.86,1.67-1.6.45-3.79,3.06-3.63,4.46a7,7,0,0,0,4,4.78C405.47,68.83,414.17,65,411.46,56Z"/><path class="cls-1" d="M205.68,62.47c-1.51,8.65-10.25,13.33-20.91,11.67C174.5,72.53,168,61.93,170.05,50.07c1.95-11.35,10.52-17.55,22-15.92,9.87,1.4,15.78,10.39,14,22H179.2c-.53,4.73,1.13,7.94,4.73,9.95,4,2.22,8.57,2.3,11.6-1S201.7,62,205.68,62.47ZM179.34,49.74H197.6c-1.32-6.23-4.32-9-9.23-8.86S180.54,43.79,179.34,49.74Z"/><path class="cls-1" d="M295.14,34.53H303c.27,1.6.5,3,.6,3.56,4.31-1.35,8.58-3.55,13-3.88,7.17-.54,12.41,4,12.82,11.14.55,9.27.14,18.59.14,28.26h-8.81V56.46c0-2,0-4,0-6-.21-6.06-2.57-8.7-7.84-8.82-5.11-.12-8.86,3.16-9,8.59-.25,7.64-.07,15.28-.07,23.34h-8.61Z"/><path class="cls-1" d="M521.46,73.72h-8.3V56.82c0-2,.05-4,0-6-.27-6.37-2.73-9.12-8.12-9.19S496.17,45,496,50.85c-.24,6.15-.07,12.32-.12,18.49,0,1.3-.15,2.61-.26,4.27h-8.32v-39h8c.21,1.59.4,3,.45,3.45,4.6-1.34,9.19-3.47,13.92-3.85,6-.48,11.21,3.6,11.62,9.46C522,53.57,521.46,63.52,521.46,73.72Z"/><path class="cls-1" d="M247.24,60.62C246,70.18,239,75,228,74.28c-10.14-.7-17-9-16.88-20.43S218.22,34.5,228.58,34c10.6-.51,17.5,4.56,18.6,13.9-3.78.23-7.21,1.63-10-3.33-3.12-5.59-12.29-4.18-15.2,1.92a17.45,17.45,0,0,0,0,15.47c2.8,5.89,11,7.06,15.15,2.39C241.07,60,241.07,60,247.24,60.62Z"/><path class="cls-1" d="M339.94,41.74l-5-.82V34.79l4.72-.93c.21-2.52.42-5.09.66-8h8.32c.21,2.65.41,5.21.63,8.08l6.9.63V41l-6.94.72c0,7.27-.38,14.55.26,21.73.16,1.77,3.64,3.24,5.93,4.46,2,5.77,1.41,6.51-4.81,6.25-7.36-.3-10.48-3.4-10.6-10.87C339.85,56.27,339.94,49.31,339.94,41.74Z"/><path class="cls-1" d="M429.77,19.57h8.09V73.73h-8.09Z"/><path class="cls-1" d="M371.35,34.24l.47,3.74,12-5.15V41.6c-11,1.69-11.88,2.73-11.89,14,0,5.93,0,11.87,0,17.66-8.9,1.65-9,1.57-9-6.22V34.62Z"/><path class="cls-1" d="M65.58,85.65c-10.77,11.75-41.26,11.8-52.89,0Z"/><path class="cls-1" d="M25.69,29.33l-4.82,3.83L5.14,15.9C19.23-1.4,45.93-5,64.63,7.2c23,15,28.81,43.52,13.39,66.33-.82,1.2-2.41,2.54-3.71,2.63-4.81.31-9.65,0-14.48.15-3,.06-4.1-1.14-4-4.17.16-7.29.05-14.58.05-21.88l-1.22-.74c-2.23,2.67-5.07,5-6.58,8.07-4.24,8.46-11.28,9.9-19.53,8.57A4.32,4.32,0,0,1,25.81,63C25.61,52.1,25.69,41.15,25.69,29.33ZM55.26,42.5c7.26,0,12.33-5,12.3-12a12.26,12.26,0,0,0-12-12.15A11.89,11.89,0,0,0,43.39,30.16C43.31,37.57,48.05,42.51,55.26,42.5ZM25,11.13c-3.33.32-5.85,2.12-6.28,6a5.89,5.89,0,0,0,6,6.36c4,.09,6.22-2,6.67-5.79C31.8,14.34,28.83,11.27,25,11.13Z"/><path class="cls-1" d="M20.87,33.16,5.14,59.7s-11.56-23.11,0-43.8S20.87,33.16,20.87,33.16Z"/></g></g></svg>