<svg xmlns="http://www.w3.org/2000/svg" viewBox="0 0 462.12 137.07"><defs><style>.cls-1{fill:#2b2b2b;}</style></defs><g id="Layer_2" data-name="Layer 2"><g id="Layer_1-2" data-name="Layer 1"><path class="cls-1" d="M166.29,107.87c0-6.19.17-12-.09-17.69a8.92,8.92,0,0,0-2.13-5.28c-5.34-5.7-11-11.14-16.48-16.66-.45-.45-1-.81-2-1.64v41.24c-4.62,0-8.89.18-13.14-.07-2.53-.15-7.74-6.81-7.75-9.37q0-25,0-50c0-4.19,5.66-9.42,9.71-10,8-1.1,14,1.49,19.05,7.87,3.52,4.48,7.94,8.25,11.95,12.34l.81-.34V38.59c4.71,0,9-.16,13.25.06,2.37.12,7.64,6.66,7.64,9.06q0,25.5,0,51c0,2.83-5.58,9-8.34,9.14C174.82,108,170.86,107.87,166.29,107.87Z"/><path class="cls-1" d="M256.71,107.88V38.55H302c4.52,0,9.82,5.39,9.82,10,0,4.41-.15,8.84.06,13.25.15,3.14-.36,5.77-3.13,7.67-1.3.89-2.48,2-3.89,3.13a16.07,16.07,0,0,0,2.06,2.48c4.11,3,5.66,7,5,12.05a30.39,30.39,0,0,0,0,7.8c.58,4.47-.95,7.71-4.37,10.61a8.37,8.37,0,0,1-6,2.39c-13.82-.1-27.63,0-41.45,0Zm20.55-41.57c4.35,0,8.17.1,12-.09a2.78,2.78,0,0,0,1.88-2c.09-3.81-.12-7.62-.22-11.43l-11.34-.55c-.23,0-.54-.08-.66,0-.58.53-1.54,1.1-1.56,1.69C277.19,57.93,277.26,61.86,277.26,66.31Zm0,14c0,4.09-.06,8.12.08,12.15A2.31,2.31,0,0,0,278.9,94c4,.13,8,.07,12.1.07V80.26Z"/><path class="cls-1" d="M194.25,38.56c15.86,0,31.37,0,46.88,0,2.57,0,8.41,6.15,8.42,8.74q0,25.83,0,51.66c0,2.74-5.95,8.86-8.68,8.86-15.06.05-30.13,0-45.2,0a9.25,9.25,0,0,1-1.44-.27Zm20.93,13.9V93.82h13.29V52.46Z"/><path class="cls-1" d="M97,108V80.51H83.17v27.4c-4.61,0-9,.21-13.33-.07-2.56-.17-7.5-6.86-7.5-9.53q0-25,0-50c0-3.93,5.69-9.68,9.56-9.68q18.18,0,36.38,0c3.68,0,9.45,5.75,9.46,9.42q0,25.33,0,50.66c0,3.55-5.7,9.19-9.26,9.22S101.08,108,97,108ZM98.71,60,90.5,51.72l-8.67,8.35,8.46,8.48Z"/><path class="cls-1" d="M318.91,73.16V48.37c0-4.3,5.43-9.81,9.7-9.81q18,0,36,0c4,0,9.64,5.56,9.64,9.53q0,25.14,0,50.27c0,3.69-5.7,9.5-9.35,9.51q-18.34,0-36.68,0c-3.55,0-9.25-5.68-9.27-9.22,0-8.49,0-17,0-25.48Zm20.93-20.68V93.86h13.51V52.48Z"/><path class="cls-1" d="M55.31,59.12H34.9c-.14-2.17-.27-4.25-.43-6.81-4.15,0-8.19-.09-12.22.11-.57,0-1.45,1.52-1.51,2.38-.19,2.82,0,5.67-.12,8.5-.14,2.35.66,3.15,3.07,3.11,7.37-.13,14.74-.06,22.11,0,4,0,9.48,5.36,9.5,9.28q.06,11.56,0,23.13c0,3.3-5.76,9.07-9.07,9.08q-18.54,0-37.08,0c-3.32,0-9.07-5.74-9.12-9.05S0,92.24,0,89c0-.44.1-.89.19-1.62H20.46l.36,6.45H34.5V80.06c-7.28,0-14.45-.58-21.47.18C7.13,80.87,4,77.66.85,74A4.66,4.66,0,0,1,0,71.18Q0,59.45,0,47.71c0-3.57,5.72-9.15,9.32-9.15q18.2,0,36.4,0c4.06,0,9.52,5.55,9.54,9.64C55.32,51.7,55.31,55.2,55.31,59.12Z"/><path class="cls-1" d="M402.06,38.58c0,5.07.51,9.86-.13,14.5-.86,6.29,2.85,9.49,7,12.8,4.45-3.27,7.94-6.71,7.07-13-.62-4.54-.12-9.23-.12-14.26,4.58,0,8.85-.14,13.11.06,2.29.11,7.67,6.72,7.7,9,0,2.5-.06,5,0,7.48.22,6.84,1.12,13.9-7,17.36.59.94.74,1.43,1.06,1.65,5.38,3.66,6.83,8.82,6,15a22.73,22.73,0,0,0,0,6.11c.55,4.08-.86,7-3.95,9.76-2.17,1.9-4.16,3.13-7.14,2.9s-6.27-.05-9.77-.05c0-5.11-.51-9.9.12-14.55.85-6.26-2.76-9.52-7.1-12.87-4.11,3.42-7.94,6.64-7,13.07.67,4.52.13,9.23.13,14.32-4.53,0-8.8.17-13.05-.07-2.48-.14-7.75-6.85-7.76-9.36s.12-4.76,0-7.13c-.41-6.92-.74-13.76,7-17.53-.6-.89-.8-1.47-1.2-1.76-5.07-3.55-6.62-8.39-5.84-14.39.4-3.12-.14-6.36.14-9.5a11,11,0,0,1,1.8-4.43C387.75,36.12,395.11,39,402.06,38.58Z"/><path class="cls-1" d="M437.61,72.83l12.22-12.31,12.29,12.75-12.36,12Z"/><path class="cls-1" d="M76.77,124.42l12-12c4.22,4.3,8.42,8.6,12.52,12.79L89.4,137.07Z"/><path class="cls-1" d="M217.31,15.6c.12,2.17.22,4.17.34,6.36h4.86V15.89c4.29-1.06,5.31-.31,5.34,3.61,0,2.93,0,5.87,0,8.81,0,3.74-.78,4.33-5,3.83-.12-2.05-.24-4.14-.38-6.39h-4.78c-.13,2.14-.25,4.22-.38,6.27-4,.76-4.92.1-5-3.62,0-3,0-6.1,0-9.15C212.38,15.7,213.09,15.15,217.31,15.6Z"/><path class="cls-1" d="M235.94,22.2h6.74v3.29h-6.36c-.15,1.17-.27,2.11-.44,3.4l6.76.33c.1.41.25.66.18.84-.89,2.37-4.7,3.29-9.56,2.36-2.35-.46-2.54-2.15-2.51-4.09.05-3,0-6.1,0-9.14a4.21,4.21,0,0,1,.15-2c2.19-3.6,5.73-1.49,8.65-1.78,1.12-.11,2.4,1.25,3.61,1.94l-.47,1.21h-6.47C236.14,19.84,236.06,20.78,235.94,22.2Z"/><path class="cls-1" d="M208.79,18.58l-4.65.29c0,3.41,0,6.67,0,9.93,0,1.92-.54,3.79-2.6,3.43-1-.18-2.32-2.23-2.47-3.55A84.32,84.32,0,0,1,199,19l-4.75-.46-.59-.83c1-.8,2-2.17,3-2.27a54.7,54.7,0,0,1,9.83,0c1.1.1,2.08,1.39,3.12,2.14Z"/><path class="cls-1" d="M232.16,9.11V0h9.21V9.11Z"/></g></g></svg>