<svg xmlns="http://www.w3.org/2000/svg" viewBox="0 0 570 159.9"><defs><style>.cls-1{fill:#2b2b2b;}</style></defs><g id="Layer_2" data-name="Layer 2"><g id="Layer_1-2" data-name="Layer 1"><path class="cls-1" d="M107.52,49.49c-.84-.12-2.2,0-2.42-.42a8,8,0,0,1-.29-3.09c0-.76,0-1.53,0-2.21-.25-.13-.32-.2-.41-.21-2.5-.17-2.5-.17-2.5-2.77v-5.7c-.21-.14-.28-.23-.37-.24C99,34.62,99,34.62,99,32V26.39c-.18-.14-.24-.25-.32-.26-2.59-.29-2.58-.28-2.59-3,0-1.5-.08-3,0-4.5.07-1.24-.6-1.32-1.52-1.28s-1.78-.14-1.58,1.19-.4,1.94-1.77,1.73c-.9-.13-1.2.33-1.16,1.18,0,1,0,2,0,3.05s-.22,1.77-1.5,1.59a7.76,7.76,0,0,0-1.36.07c.24,2-.17,3.53-2.93,2.73.27,2.2-.17,3.7-3,2.9,0,1.5-.09,2.8,0,4.07.13,1.43-.28,2.13-1.81,1.87a4.51,4.51,0,0,0-1.06.09c.27,2-.22,3.48-2.71,2.78-.11.31-.24.49-.22.65.19,1.61-.17,2.61-2.13,2.32-1-.16-.86.75-.8,1.32.15,1.3-.37,1.68-1.64,1.64-2.85-.08-5.71-.07-8.57,0-1.1,0-1.26-.49-1.26-1.42s.16-1.52,1.27-1.37a13,13,0,0,0,1.54,0c.09-1-.13-2.07.32-2.56s1.6-.36,2.71-.54a35.91,35.91,0,0,0,0-3.73c-.15-1.53.37-2.16,1.91-1.91a4.22,4.22,0,0,0,.9-.07c.1-.91-.1-2,.37-2.52s1.6-.32,2.55-.45c.08-.81-.14-1.94.33-2.42s1.59-.35,2.7-.52c0-1.14,0-2.38,0-3.61,0-2.13-.21-2.06,1.89-2a7.08,7.08,0,0,0,.88-.07c.11-.92-.09-2.05.38-2.53s1.6-.31,2.54-.44c.08-.82-.13-1.95.34-2.43s1.6-.34,2.69-.51c0-1.2.08-2.49,0-3.77s.2-2.17,1.78-1.89a4,4,0,0,0,1-.07c.11-.92-.09-2.05.38-2.53s1.61-.31,2.54-.44c.09-.82-.12-1.95.34-2.43s1.6-.34,2.64-.49C92.73,3.64,93.48,2.4,96,3V0h5.82V5.73a1.15,1.15,0,0,0,.29.15c2.5.17,2.5.17,2.5,2.77,0,1.84,0,3.68,0,5.52a.89.89,0,0,0,.09.26c.07.06.15.15.23.16,2.55.24,2.55.24,2.55,2.87v5.73c2.91.49,2.9.49,2.91,3.38,0,1.69,0,3.38,0,5.07a1,1,0,0,0,.1.27c.08,0,.16.13.24.13,2.53.21,2.53.2,2.53,2.76v2.79c.18.15.25.25.33.26,2.57.27,2.57.27,2.57,3v2.79a7.56,7.56,0,0,0,1.43.08c1.28-.18,1.54.44,1.51,1.58s-.44,1.22-1.31,1.21c-2.71,0-5.42,0-8.13,0-2.08,0-2.08,0-2.14,2,0,.34-.06.67-.09,1Z"/><path class="cls-1" d="M0,119.23c3.34,0,6.68.07,10,0,1.22,0,1.61.37,1.56,1.57,0,.94-.31,1.26-1.26,1.26-3.44,0-6.87,0-10.31.07Z"/><path class="cls-1" d="M567.12,139.61l2.88,0v2.91l-.14-.05c-2.65-.25-2.65-.25-2.69-2.88Z"/><path class="cls-1" d="M369.26,58.28c.5-2.91.5-2.91,3.38-2.91,5.19,0,10.37,0,15.56,0,1.08,0,1.5.3,1.4,1.4a12.65,12.65,0,0,0,0,2.61c.15,1.3-.34,1.8-1.62,1.61a7.26,7.26,0,0,0-1.31.08c0,1.35-.08,2.66,0,3.94s-.28,2-1.73,1.8a4.35,4.35,0,0,0-1,0c-.09.14-.18.21-.18.29-.24,2.57-.24,2.57-2.87,2.57h-2.63c-.16.22-.26.29-.27.37-.32,2.54-.32,2.54-2.93,2.54h-2.62c-.17.23-.26.3-.27.38-.31,2.53-.31,2.53-2.93,2.53h-5.54c-.16.24-.25.31-.26.39-.29,2.52-.29,2.51-2.94,2.52-1.74,0-3.49,0-5.23,0a1.25,1.25,0,0,0-.39.11c-.07.1-.16.17-.16.26-.28,2.51-.28,2.51-2.81,2.51h-2.76c-.16.25-.24.32-.25.4-.27,2.5-.26,2.5-2.81,2.51-1.8,0-3.59,0-5.38,0a1.6,1.6,0,0,0-.39.11c-.06.11-.14.19-.15.27-.25,2.49-.25,2.49-2.82,2.49a8.51,8.51,0,0,1-1,0c-1.47-.22-2.36.16-2.07,1.88.14.87-.39,1-1.14,1-2.09,0-4.17,0-6.26,0-1,0-1.47.31-1.31,1.32.19,1.28-.31,1.68-1.61,1.64-2.8-.08-5.62,0-8.43,0-1,0-1.64-.19-1.48-1.35.19-1.35-.5-1.61-1.7-1.59-3.78,0-7.56,0-11.34,0-1,0-1.57-.25-1.43-1.38a11.84,11.84,0,0,0,0-1.46c0-2.69,0-2.69,2.91-3V80.66c0-2.12-.2-2.06,1.9-2a5.65,5.65,0,0,0,.58,0,3.57,3.57,0,0,0,.43-.2c0-1.4,0-2.89,0-4.38,0-.85.22-1.21,1.14-1.21q6,0,11.92-.08c.91,0,1.38.26,1.27,1.24a14.2,14.2,0,0,0,0,1.46c0,2.81,0,2.81-2.78,3.09v3h8.54c.13-.22.22-.29.23-.38.21-2.53.21-2.53,2.75-2.53h5.71c.14-.19.24-.26.25-.33.27-2.57.27-2.57,2.87-2.57h2.83c.49-2.91.49-2.91,3.38-2.91H349c.1-1-.1-2.12.37-2.61s1.59-.35,2.42-.48c.06-.09.14-.16.15-.25.29-2.68.29-2.68-2.33-2.68H337.63c-.16.21-.27.27-.28.35C337,69.7,337,69.7,334.3,69.7c-8.1,0-16.19,0-24.28.1-1.4,0-1.76-.47-1.67-1.76.06-.86.39-1.1,1.16-1.05.52,0,1.05,0,1.78,0,0-1.57.06-3,0-4.44-.07-1.09.32-1.41,1.4-1.4,5.67.05,11.34,0,17,0h1.64c.14-.18.24-.25.25-.33.28-2.57.28-2.57,2.87-2.57h34.82Z"/><path class="cls-1" d="M543.78,40.73c-.18,2.55-.18,2.55-2.86,2.92-.08.82.13,2-.33,2.44s-1.6.33-2.64.49c.36,2.08-.31,3.39-2.71,2.75a2.23,2.23,0,0,0-.2.4c-.17,2.47-.17,2.47-2.63,2.51a9,9,0,0,1-1.16,0c-1.46-.21-2.35.15-2.07,1.88.14.86-.37,1.06-1.13,1-1.16,0-2.33,0-3.49,0-.86,0-1.33.27-1.17,1.16.27,1.59-.51,1.92-1.89,1.78-.91-.09-1.84,0-2.76,0s-1.32.27-1.17,1.16c.28,1.59-.52,1.9-1.89,1.78a14.7,14.7,0,0,0-3,0c-.32,0-.88.57-.84.81.27,1.84-.65,2.27-2.23,2.07a1.59,1.59,0,0,0-.5.1c-.08.15-.16.23-.16.31-.23,2.47-.23,2.47-2.83,2.47a8.51,8.51,0,0,1-1,0c-1.47-.21-2.36.16-2.06,1.89.12.73-.25,1-1,1-1.16,0-2.33.05-3.49,0-1-.06-1.47.3-1.31,1.32.19,1.27-.31,1.76-1.6,1.62-1-.1-1.94,0-2.91,0s-1.46.31-1.31,1.32c.2,1.28-.31,1.76-1.6,1.62-1-.1-1.94,0-2.91,0s-1.46.31-1.3,1.32c.19,1.28-.33,1.81-1.61,1.6s-1.31.66-1.32,1.6.07,1.61,1.3,1.51c1-.09,1.94.08,2.9,0,1.27-.13,1.81.3,1.62,1.61a6.45,6.45,0,0,0,.07,1.2c.9.09,2-.11,2.51.35s.32,1.6.48,2.68c1.23,0,2.52.09,3.8,0s2.14.25,1.86,1.81a4.19,4.19,0,0,0,.05.91,1.77,1.77,0,0,0,.51.19c2.34.18,2.34.18,2.34,2.48V95.8c.23.13.3.22.38.22,2.53.21,2.53.21,2.53,2.76v3.12c1.4,0,2.69.09,4,0,1.42-.12,2.14.26,1.87,1.81a5.16,5.16,0,0,0,.05,1h5.88l0,0v2.94h5.85l-.06,0v2.9c.93.11,2.06-.09,2.54.38s.31,1.61.46,2.66c1.25,0,2.55.1,3.82,0,1.47-.15,2.1.32,1.84,1.82a7.41,7.41,0,0,0,.07,1.11H533c2.12,0,2-.2,2,1.9a9.72,9.72,0,0,0,.09,1c1.35,0,2.65.08,3.93,0s2,.28,1.8,1.73a5.23,5.23,0,0,0,.06,1.08c.89.09,2-.12,2.5.34s.34,1.6.51,2.69h3.62c2.11,0,2-.21,2,1.89a9.72,9.72,0,0,0,.09,1c1.35,0,2.65.09,3.93,0s2,.27,1.8,1.73a7.06,7.06,0,0,0,.07,1.2,38.88,38.88,0,0,0,3.9,0c1.46-.14,2.1.32,1.84,1.83a3.78,3.78,0,0,0,.05.83c.11.09.17.2.25.21,2.4.27,2.4.27,2.71,2.82l0,0c-1.36,0-2.72-.08-4.07,0s-1.91-.31-1.7-1.68a6.54,6.54,0,0,0-.1-1.25,38.56,38.56,0,0,0-3.88,0c-1.47.14-2.08-.35-1.84-1.84a5.36,5.36,0,0,0-.11-1.1c-1.25,0-2.5-.07-3.73,0-1.4.11-2.27-.18-2-1.84a4.54,4.54,0,0,0-.11-1.08c-1.26,0-2.5-.08-3.73,0-1.43.11-2.26-.21-2-1.85a5.25,5.25,0,0,0-.12-1.08c-1.31,0-2.61-.09-3.88,0s-2-.25-1.82-1.72a5.49,5.49,0,0,0-.11-1.21c-1.32,0-2.62-.09-3.9,0s-2-.27-1.81-1.72a5.44,5.44,0,0,0-.11-1.21c-1.38,0-2.72-.07-4,0s-1.85-.25-1.65-1.59a7.34,7.34,0,0,0-.11-1.34c-1.39,0-2.73-.07-4.07,0s-1.83-.28-1.64-1.6a5.2,5.2,0,0,0-.1-1.2,3.3,3.3,0,0,0-.88-.12c-1.49.22-2.17-.32-1.93-1.89.14-.86-.38-1.06-1.13-1-1.12,0-2.24,0-3.35,0s-1.47-.28-1.32-1.31c.2-1.27-.3-1.77-1.6-1.63-1,.1-1.94,0-2.9,0s-1.47-.3-1.31-1.32c.2-1.28-.33-1.75-1.61-1.62-1,.1-1.94,0-2.91,0s-1.45-.33-1.3-1.33c.2-1.3-.35-1.74-1.62-1.62-1,.1-1.94,0-2.9,0s-1.45-.35-1.29-1.34c.2-1.32-.38-1.77-1.63-1.59a9,9,0,0,1-1.16,0c-2.83,0-2.83,0-3.18-2.9-1.34,0-2.72,0-4.1,0-1,0-1.62,0-1.62-1.35s.6-1.48,1.68-1.47c3.78,0,7.56,0,11.34,0,1.12,0,1.54-.34,1.53-1.5s-.38-1.5-1.52-1.5c-7.51,0-15,0-22.53,0-2,0-2,0-2.09-2,0-.23-.07-.47-.12-.8h-2.69c-.08.1-.18.17-.19.26C465,90,465,90,462.52,90.06c-3.49.07-7,0-10.46.07-.86,0-1.25-.27-1.19-1.18a18.72,18.72,0,0,0,0-2.9c-.14-1.3.34-1.8,1.62-1.61a7.26,7.26,0,0,0,1.31-.08c0-1.36.08-2.66,0-3.94s.27-2,1.73-1.8a7.21,7.21,0,0,0,1.21-.07c0-1.47.06-2.91,0-4.34-.07-1.08.29-1.42,1.39-1.42,6.29,0,12.59,0,18.89,0h2.73a1.73,1.73,0,0,0,.23-.45c.22-2.45.21-2.45,2.67-2.45h3c.18-1,.05-2.4.54-2.69.77-.45,2-.19,3-.22.77,0,1.53,0,2.21,0,.14-.22.22-.29.23-.37.21-2.54.21-2.54,2.76-2.54h2.8c.14-.18.24-.25.25-.33.27-2.58.27-2.58,2.87-2.58H503c.5-2.9.5-2.9,3.39-2.9h2.35c.13-.24.21-.32.22-.4.18-2.51.18-2.51,2.77-2.51h2.79c.14-.2.23-.28.24-.36.24-2.55.24-2.55,2.89-2.55h2.72c.11-.21.22-.33.23-.46.22-2.45.22-2.45,2.67-2.45h2.85c.2-.2.25-.23.26-.27.36-2.64.36-2.64,3.11-2.64H532c.13-.21.22-.29.23-.37.21-2.53.21-2.53,2.75-2.53h2.8c.14-.19.24-.26.25-.34.27-2.57.27-2.57,2.87-2.58,1,0,1.94,0,2.9,0Z"/><path class="cls-1" d="M107.48,49.52c4.51,0,9,0,13.52,0,.87,0,1.06.39,1,1.16,0,1.49,0,3,0,4.48,1,.17,2.57.13,2.65.47a17.45,17.45,0,0,1,.25,4.16c0,2.2-1.85.6-2.8,1.59.12-.21,0-.09,0,0-.3,2.45-.3,2.45-2.85,2.45h-2.71c-.13.22-.25.34-.26.46-.3,2.44-.29,2.44-2.85,2.44h-2.71a2,2,0,0,0-.26.48c-.29,2.43-.28,2.43-2.71,2.43h-2.85a2.4,2.4,0,0,0-.26.48c-.28,2.43-.27,2.43-2.72,2.43H99.16c-.16.2-.27.27-.28.35-.36,2.56-.36,2.56-3,2.56H93.34c-.16.21-.26.27-.28.35-.34,2.56-.34,2.56-3,2.56H87.35a4.1,4.1,0,0,0-.18,1.07c.21,1.46-.32,2.09-1.82,1.85-1.1-.18-1.19.57-1.1,1.36.15,1.19-.3,1.65-1.53,1.56s-2.42,0-3.63,0a1.59,1.59,0,0,0-.39.1c-.08.09-.17.16-.18.24-.32,2.54-.32,2.54-2.93,2.54H73c-.17.23-.26.3-.27.38-.31,2.53-.31,2.53-2.93,2.53-13,0-26,0-38.95.1-1.42,0-1.75-.51-1.65-1.78.06-.72.26-1.08,1-1,.57,0,1.15,0,1.91,0V83.49c0-2.08-.17-2,2-1.95.23,0,.47-.05.81-.08.08-.86-.14-2,.32-2.48s1.6-.35,2.65-.52c-.32-2,.26-3.41,3-2.66,0-1.51.08-2.81,0-4.1s.23-2,1.71-1.8a6.2,6.2,0,0,0,1.09-.06c.09-.88-.13-2,.33-2.5s1.6-.34,2.55-.49c.11-.8-.06-1.94.43-2.49s1.6-.29,2.63-.42c0-1.29.08-2.59,0-3.88s.26-2,1.72-1.79a5.31,5.31,0,0,0,1.08-.07c.09-.88-.12-2,.34-2.5s1.6-.33,2.65-.5c-.36-2.07.3-3.39,2.7-2.75.12-.23.2-.31.2-.39.18-2.59.18-2.59,2.86-2.59,2.38,0,4.75,0,7.13,0,1.08,0,1.56.24,1.53,1.45s-.4,1.48-1.45,1.37a9,9,0,0,0-1.46.08c.39,2.21-.36,3.4-2.94,2.76,0,1.56-.08,2.9,0,4.23s-.25,1.85-1.59,1.65a5.87,5.87,0,0,0-1.2.1c-.11.89.08,2-.39,2.5s-1.61.32-2.52.45c-.1.85.08,2-.39,2.46s-1.61.32-2.66.47c0,1.34-.08,2.69,0,4s-.28,1.83-1.6,1.64a6,6,0,0,0-1.31.1c.46,2.27-.41,3.33-2.78,2.79a4.45,4.45,0,0,0-.13,1c.22,1.5-.34,2.17-1.89,1.92-.72-.11-1.06.24-1,1,0,1.16,0,2.33,0,3.49.06,1-.28,1.37-1.31,1.34A1.75,1.75,0,0,0,43.65,87a1.19,1.19,0,0,0,.87.34c1.59,0,3.18,0,4.77,0,.1-.18.21-.3.22-.43.22-2.45.22-2.45,2.67-2.45h2.93a2.15,2.15,0,0,0,.21-.41c.17-2.5.17-2.5,2.78-2.5h2.79c.14-.21.22-.29.23-.37.23-2.54.22-2.54,2.89-2.54h2.66c.15-.18.25-.24.26-.32.28-2.58.28-2.58,3-2.58h2.69c.52-2.91.52-2.91,3.52-2.91H78.5c.1-1-.1-2.11.37-2.59s1.6-.33,2.46-.45c0-.06.14-.13.14-.21C81.74,67,81.74,67,84.34,67h2.83c.5-2.91.5-2.91,3.52-2.91H92.9c.13-.23.21-.31.22-.39.19-2.52.18-2.52,2.76-2.52h2.8c.14-.19.24-.27.24-.35.25-2.55.25-2.55,2.88-2.55h3c-.38-2.24.28-3.56,2.75-2.9V49.49Z"/><path class="cls-1" d="M279.1,37.92c.52-2.91.52-2.91,3.52-2.91,2.33,0,4.66.05,7,0,1.11,0,1.11.58,1.12,1.38s-.06,1.46-1.14,1.35a12.13,12.13,0,0,0-1.5.06c-.11.2-.18.27-.19.36-.24,2.48-.24,2.48-2.82,2.48-1.55,0-3.11.05-4.65,0-1,0-1.49.29-1.32,1.31.24,1.46-.52,1.66-1.75,1.63-2.86-.07-5.72,0-8.58,0-1,0-1.46.32-1.31,1.33.2,1.28-.32,1.67-1.6,1.63-2.91-.1-5.82,0-8.73,0-.62,0-1.43-.1-1.28.88.31,1.88-.67,2.23-2.21,2a2.21,2.21,0,0,0-.5.08,1.52,1.52,0,0,0-.19.64c.19,1.58-.25,2.49-2.09,2.22-.23,0-.77.52-.8.84a17.11,17.11,0,0,0,0,3.2c.1,1.25-.21,2-1.64,1.73a6.21,6.21,0,0,0-1.2.08c.06,1.83,0,3.72-3,2.64.27,2.26-.15,3.79-2.9,3,.27,2.2-.17,3.7-3,2.9,0,1.5-.09,2.8,0,4.07.13,1.43-.28,2.13-1.81,1.86a4.17,4.17,0,0,0-.9.08c-.07.19-.2.38-.18.54.18,1.61-.17,2.64-2.13,2.34-.22,0-.8.68-.77,1,.14,1.44-.33,2.1-1.85,1.85-.65-.1-1.23.1-1.09.92.32,1.78-.57,2.21-2.11,2a4,4,0,0,0-.82.14c0,1.41-.06,2.84,0,4.27.06,1.08-.3,1.56-1.39,1.39s-1.72.32-1.53,1.53-.3,1.55-1.38,1.38-1.72.32-1.53,1.53-.31,1.42-1.39,1.4c-2.9,0-5.81,0-8.72.06-1.16,0-1.34-.47-1.35-1.48s.31-1.43,1.33-1.32a11.79,11.79,0,0,0,1.61-.06c0-1.37.08-2.67,0-4s.25-2,1.72-1.8a6,6,0,0,0,1.08-.06c.09-.89-.12-2,.34-2.5s1.6-.34,2.54-.49c.11-.81,0-2,.44-2.49s1.6-.28,2.43-.39c.06-.12.14-.2.14-.28.17-2.39.16-2.41,2.63-2.51,1.6-.06,3.2-.12,4.8-.07,1.23,0,1.26-.67,1.28-1.58s-.25-1.45-1.31-1.4-2.33,0-3.49,0-.91-.86-1-1.54,0-1.29,1-1.23c.57,0,1.15,0,1.84,0,.08-.94-.14-2.06.32-2.56s1.59-.35,2.65-.53c-.31-2,.24-3.42,2.83-2.69.11-1-.1-2.15.37-2.63s1.6-.32,2.62-.47c0-2.69,0-5.44,0-8.18,0-.2-.51-.52-.81-.56a13.45,13.45,0,0,0-1.89,0c-.15.24-.24.32-.25.4-.27,2.5-.27,2.5-2.81,2.5h-8.58c-.15.26-.24.33-.24.42-.26,2.49-.26,2.49-2.82,2.49s-5,0-7.56,0c-1.07,0-1.16-.52-1.14-1.35s0-1.49,1.11-1.38c.52,0,1.05,0,1.5,0,.13-.18.23-.25.24-.33.27-2.58.27-2.58,2.86-2.58h5.74c.51-2.91.51-2.91,3.53-2.91h8c.13-.23.21-.31.22-.39.19-2.52.19-2.52,2.76-2.52h8.79c.1-1-.11-2.08.35-2.56s1.6-.35,2.64-.51c-.35-2.06.3-3.4,2.82-2.72.12-1-.08-2.15.39-2.63s1.6-.31,2.54-.44c.09-.82-.12-2,.34-2.43s1.6-.34,2.64-.5c-.37-2.09.32-3.39,3-2.69,0-1.51.09-2.81,0-4.1s.29-2,1.73-1.78a6.08,6.08,0,0,0,1.08-.07c.09-.89-.12-2,.34-2.51s1.6-.33,2.64-.48c-.28-2,.15-3.57,2.74-2.68.54-3,.54-3,3.54-3,2.54,0,2.25-.28,2.26,2.24,0,1.55-.07,3.1,0,4.65.08,1.24-.26,1.84-1.59,1.65a5.5,5.5,0,0,0-1.31.11c.48,2.29-.44,3.31-2.75,2.79-.14,1,0,2.14-.44,2.62s-1.61.31-2.52.43a3,3,0,0,0-.1.86c.23,1.53-.38,2.14-1.91,1.91-.74-.11-1,.27-1,1q0,2,0,3.93c0,.71.23,1.07,1,1.05,1.59,0,3.18,0,4.71,0,.13-.15.23-.22.24-.3.29-2.58.29-2.58,3-2.58Z"/><path class="cls-1" d="M130.93,116.31c-.13,1,0,2-.44,2.57s-1.53.27-2.54.4c.19,1.89-.14,3.5-2.72,2.73-.12.34-.27.57-.24.78.19,1.59-.25,2.49-2.09,2.22-.23,0-.77.53-.8.84a15.56,15.56,0,0,0,0,3.2c.15,1.43-.41,1.93-1.78,1.74a6,6,0,0,0-1.08.08c.37,2.2-.43,3.41-2.86,2.78-.12,1,.08,2.15-.39,2.63s-1.61.31-2.45.42c-.05.08-.14.16-.14.24-.22,2.54-.22,2.54-2.9,2.54h-3c.42,2.29-.33,3.53-2.79,2.89-.12,1,.07,2.16-.4,2.63s-1.6.32-2.45.43c-.05.08-.13.16-.14.24-.21,2.53-.21,2.53-2.75,2.53H95.87c.43,2.31-.34,3.52-2.73,2.92-.51,2.9-.51,2.9-3.51,2.9H87.24a6.47,6.47,0,0,0-.09,1.39c.21,1.41-.52,1.62-1.69,1.54-.75,0-1.06-.29-1-1,0-.53,0-1.07,0-1.6,0-2.78,0-2.78,2.87-3.1-.41-2.17.36-3.39,2.81-2.77.12-1-.07-2.15.4-2.63s1.6-.31,2.53-.43c.09-.83-.12-2,.34-2.45s1.6-.32,2.57-.47c.07-.79-.15-1.91.31-2.4s1.59-.36,2.71-.54c0-1.16.1-2.46,0-3.73-.15-1.51.34-2.17,1.89-1.91a4.4,4.4,0,0,0,.92-.07c.09-.9-.11-2,.35-2.51s1.6-.33,2.57-.47c.07-.79-.15-1.92.31-2.41s1.59-.35,2.71-.53a35.91,35.91,0,0,0,0-3.73c-.15-1.52.35-2.17,1.9-1.92a3.71,3.71,0,0,0,.91-.06c.09-.91-.11-2,.36-2.52s1.6-.32,2.56-.46c.07-.8-.14-1.92.31-2.41s1.6-.35,2.71-.53a36.1,36.1,0,0,0,0-3.74c-.15-1.53.37-2.16,1.91-1.91a3.65,3.65,0,0,0,.9-.07c.1-.9-.1-2,.37-2.51s1.6-.32,2.55-.46c.08-.81-.14-1.93.32-2.42s1.6-.35,2.7-.52a36.21,36.21,0,0,0,0-3.75c-.16-1.53.38-2.15,1.91-1.9a3.34,3.34,0,0,0,.79-.06c.09-.16.17-.24.18-.32.18-2.4.17-2.47,2.62-2.51,4.5-.08,9,0,13.51-.11,1.18,0,1.17.65,1.18,1.49s-.13,1.49-1.17,1.31c-1.61-.29-1.93.55-1.76,1.89a3.88,3.88,0,0,1,0,.59c0,1,.29,2.15-.16,2.83s-1.66.53-2.71.81c.47,2.15-.5,3.12-2.81,2.62a4.35,4.35,0,0,0-.12,1c.24,1.53-.39,2.13-1.91,1.9-.75-.11-1,.27-1,1,0,1.06-.08,2.13,0,3.19.13,1.3-.36,1.79-1.63,1.61A6,6,0,0,0,130.93,116.31Z"/><path class="cls-1" d="M514.66,69.91c.52-2.91.52-2.9,3.53-2.91,1.64,0,3.29,0,4.94,0a.81.81,0,0,0,.26-.11c.05-.08.13-.15.13-.24.2-2.52.2-2.51,2.77-2.52,1.84,0,3.68,0,5.52,0a1,1,0,0,0,.27-.09c.06-.07.15-.15.16-.22.25-2.57.25-2.57,2.88-2.57h5.63a2,2,0,0,0,.24-.44c.22-2.46.22-2.46,2.66-2.46h5.84c.13-.25.21-.33.21-.41.18-2.5.18-2.5,2.78-2.5,2.43,0,4.85,0,7.27,0,1,0,1.58.24,1.42,1.37a8.66,8.66,0,0,0,0,1c0,1,.26,2.13-.18,2.83-.34.52-1.62.43-2.52.62,0,.05-.1.12-.11.21-.24,2.49-.24,2.49-2.82,2.49a6.8,6.8,0,0,1-1,0c-1.48-.21-2.35.17-2.07,1.89.14.87-.39,1.06-1.14,1-1.12,0-2.24,0-3.35,0s-1.47.3-1.31,1.32c.19,1.28-.31,1.76-1.61,1.62-1-.1-1.94,0-2.9,0s-1.46.32-1.31,1.33c.2,1.29-.34,1.69-1.61,1.62-1.94-.11-3.88,0-5.82,0-1,0-1.36.35-1.31,1.35.06,1.49,0,3,0,4.69,1.4,0,2.7.11,4,0,1.48-.16,2.08.35,1.83,1.84a5.24,5.24,0,0,0,.07,1.09c1.35,0,2.69.07,4,0s2,.22,1.73,1.65a6.1,6.1,0,0,0,.08,1.28c1.42,0,2.77.08,4.11,0s1.81.3,1.62,1.61a7.46,7.46,0,0,0,.08,1.32c2.41,0,4.77.06,7.13,0,1.24,0,1.63.39,1.52,1.57a24,24,0,0,0,0,3.06c0,.76-.29,1-1,1q-11.93,0-23.84.07c-.81,0-1.12-.32-1.09-1.13,0-1.49,0-3,0-4.71-2.16.29-3.61-.21-2.84-3-1.5,0-2.79-.09-4.07,0-1.45.14-2.1-.32-1.85-1.83a5.36,5.36,0,0,0-.11-1.1c-1.29,0-2.59-.1-3.87,0-1.47.15-2.08-.35-1.84-1.84a4.65,4.65,0,0,0-.11-1.09c-1.49,0-3-.06-4.45,0-1.12.06-1.26-.49-1.26-1.4s.15-1.47,1.26-1.43c1.5.07,3,0,4.5,0,5.83,0,5.83,0,5.82-1.52s0-1.44-5.89-1.44c-2.37,0-4.75-.05-7.12,0-1.17,0-1.47-.39-1.48-1.52s.57-1.32,1.52-1.28C511.91,70,513.3,69.91,514.66,69.91Z"/><path class="cls-1" d="M258.79,69.91c.36-2.78.36-2.78,2.83-3a1,1,0,0,0,.18-.36c.24-2.47.23-2.47,2.8-2.47,13,0,26,0,38.95,0,1.3,0,1.94.28,1.7,1.67a5.74,5.74,0,0,0,0,.72c0,1,.26,2.14-.18,2.83-.34.53-1.62.44-2.57.64-.1.79.08,1.91-.39,2.39s-1.61.32-2.42.43c-.07.12-.15.2-.16.29-.24,2.48-.23,2.48-2.82,2.48a6.8,6.8,0,0,1-1,0c-1.47-.21-2.35.17-2.07,1.89.12.72-.23,1.08-1,1-.57,0-1.14,0-1.92,0,.51,2.41-.41,3.44-2.92,2.87.52,2.46-.41,3.47-2.6,3-.13.24-.21.32-.21.4-.23,2.47-.23,2.47-2.83,2.47a11.22,11.22,0,0,1-1.16,0c-1.33-.16-2.2.13-1.91,1.75.16.87-.27,1.24-1.15,1.17a10.86,10.86,0,0,0-1.45.06c-.28,1-.24,2.29-.81,2.68s-1.87.2-2.83.21c-2.23,0-4.46,0-6.69,0-1.06,0-1.43-.3-1.43-1.4s.31-1.54,1.41-1.39a14.57,14.57,0,0,0,1.51,0c-.4-2.26.3-3.55,2.68-2.92.12-.24.2-.32.2-.4.17-2.5.17-2.5,2.78-2.5h3c.1-1-.11-2.1.35-2.58s1.6-.33,2.64-.49c-.39-2.11.34-3.38,2.82-2.73.11-1-.08-2.15.39-2.63s1.6-.31,2.61-.45c0-1.7,0-3.43,0-5.15,0-.25-.54-.67-.84-.68q-6.46-.06-12.93,0c-.3,0-.87.57-.84.8.27,1.84-.63,2.29-2.22,2.09a2.14,2.14,0,0,0-.62.12,3.33,3.33,0,0,0-.11.86c.23,1.5-.34,2.16-1.89,1.91-.73-.11-1.06.25-1,1,0,1.07-.08,2.14,0,3.2.12,1.28-.32,1.8-1.61,1.62a6.81,6.81,0,0,0-1.31.11c.49,2.31-.45,3.3-2.94,2.75.53,2.48-.43,3.46-2.72,3-.13,1,0,2.14-.44,2.62s-1.6.3-2.38.41c-.09.09-.14.13-.15.17C252.6,93,252.6,93,249.76,93c-2.33,0-4.66,0-7,0-1.2,0-1.29-.54-1.32-1.51s.38-1.38,1.36-1.29a10,10,0,0,0,1.58-.07c0-1.43.08-2.78,0-4.11s.28-1.83,1.6-1.63a6.6,6.6,0,0,0,1.21-.07c.09-.9-.12-2,.35-2.51s1.6-.32,2.57-.47c.07-.79-.15-1.91.3-2.4s1.59-.36,2.52-.51a.21.21,0,0,0,.11-.13c.33-2.5.32-2.52,2.83-2.64,1.49-.07,3-.11,4.5,0,1.09,0,1.41-.41,1.42-1.46s-.29-1.63-1.48-1.54-2.13,0-3.2,0S256,72.05,256,71.27s0-1.48,1.12-1.37C257.66,70,258.19,69.91,258.79,69.91Z"/><path class="cls-1" d="M354.68,95.89c.27,3,.27,3,3.39,3h18.32c1.59,0,2.16-.76,1.62-2.28a1.46,1.46,0,0,0-1.08-.64,29,29,0,0,0-3.49,0c-1.1,0-1.09-.62-1.09-1.41s0-1.44,1.11-1.38c1.49.07,3,0,4.59,0,.09-1-.13-2.08.33-2.57s1.6-.35,2.51-.49a1.09,1.09,0,0,0,.15-.29c.23-2.47.22-2.47,2.8-2.47h2.92c.11-1-.08-2.13.38-2.61s1.61-.31,2.67-.46a37.71,37.71,0,0,0,0-3.83c-.14-1.46.33-2.1,1.83-1.84a5.54,5.54,0,0,0,1.07-.06c-.39-2.18.31-3.47,2.69-2.85.12-.23.2-.31.2-.4.17-2.58.17-2.58,2.87-2.58,1.45,0,2.91,0,4.36,0,1,0,1.44.27,1.36,1.32a15,15,0,0,0,0,2.76c.13,1.25-.27,1.84-1.59,1.64a7.28,7.28,0,0,0-1.34.11c0,1.49-.05,2.93,0,4.37.05,1-.27,1.49-1.31,1.32-1.44-.24-1.73.5-1.63,1.74.08.92,0,1.85,0,2.76s-.29,1.44-1.32,1.33a11.16,11.16,0,0,0-1.48.08,4.28,4.28,0,0,0-.11.92c.24,1.53-.37,2.15-1.9,1.91-.74-.11-1,.27-1,1,0,1.16-.06,2.33,0,3.49s-.33,1.46-1.34,1.3c-1.29-.2-1.73.35-1.61,1.62.1,1,0,1.94,0,2.91s-.35,1.44-1.34,1.29c-1.32-.21-1.73.37-1.61,1.63.1,1,0,1.94,0,2.9s-.37,1.4-1.35,1.29a11.41,11.41,0,0,0-1.17,0c-2.86,0-2.86,0-3.31-2.91-1.2,0-2.44-.08-3.67,0-1.41.11-2.27-.19-2-1.85a3.62,3.62,0,0,0-.1-1h-2.7c-.07.08-.17.15-.18.23-.35,2.56-.35,2.56-3.06,2.56h-2.48c-.17.21-.27.28-.28.36-.34,2.55-.34,2.55-2.92,2.55h-2.66c-.81,1,.64,3.33-2,2.93-.68-.11-1.11-.21-1.06-1,0-.57,0-1.14,0-1.92-2.33.43-3.49-.35-2.86-2.92-2.39.45-3.53-.35-3-2.66-1.12-.61-3.31.61-2.89-2,.31-2,1.92-.35,2.92-1.56A29.11,29.11,0,0,0,352,98c-.15-1.53.37-2.16,1.91-1.91a2.53,2.53,0,0,0,.84-.15Z"/><path class="cls-1" d="M285.11,119.25c0-1.41.08-2.76,0-4.09s.27-1.84,1.6-1.64a7.57,7.57,0,0,0,1.33-.08,36.31,36.31,0,0,0,0-3.91c-.16-1.51.39-2.07,1.86-1.83a5.12,5.12,0,0,0,1.08-.07c0-1.31.09-2.6,0-3.88s.26-2.14,1.8-1.86a5.66,5.66,0,0,0,1.13-.07c0-1.47.05-2.95,0-4.43-.05-1,.3-1.33,1.32-1.33,4.8,0,9.6,0,14.39-.07,1,0,1.6.11,1.6,1.39s-.49,1.44-1.55,1.43c-1.39,0-3.21-.36-4,.37s-.33,2.54-.27,3.88-.32,1.71-1.55,1.55a9.85,9.85,0,0,0-1.38.09v3.75c0,2.07.16,2-2,2-.23,0-.47.06-.94.12,0,1.25-.08,2.5,0,3.73.11,1.42-.21,2.26-1.85,2a4.49,4.49,0,0,0-1.08.11c0,1.31-.09,2.61,0,3.89s-.24,2-1.71,1.81a6.45,6.45,0,0,0-1.22.12c0,1.32-.08,2.61,0,3.89s-.28,2-1.73,1.81a5.57,5.57,0,0,0-1.21.12c0,1.37-.07,2.71,0,4.05s-.26,1.84-1.59,1.65a5.82,5.82,0,0,0-1.34.11c0,1.38-.08,2.73,0,4.06s-.28,1.84-1.6,1.64a6.81,6.81,0,0,0-1.31.11c.45,2.26-.42,3.33-2.95,2.75.5,2.44-.39,3.48-2.91,2.91.51,2.45-.41,3.47-2.91,2.91.52,2.46-.42,3.46-2.91,2.91.53,2.48-.43,3.45-2.72,3-.13,1,0,2.14-.44,2.62s-1.61.3-2.52.42a4.79,4.79,0,0,0-.1,1.16c.25,1.49-.57,1.81-1.75,1.56a1.53,1.53,0,0,1-.92-.91,5.25,5.25,0,0,1,0-1.59c0-2.82,0-2.82,2.9-3.24a37.86,37.86,0,0,0,0-3.84c-.16-1.5.37-2.06,1.85-1.82a6.13,6.13,0,0,0,1.08-.08c0-1.3.09-2.6,0-3.87s.25-2.15,1.8-1.87a6.31,6.31,0,0,0,1.13-.06,38,38,0,0,0,0-3.85c-.15-1.53.38-2.16,1.92-1.91a4.65,4.65,0,0,0,1-.08c0-1.34.08-2.64,0-3.93s.25-2,1.72-1.8a6.44,6.44,0,0,0,1.21-.08,38.71,38.71,0,0,0,0-3.89c-.14-1.47.32-2.11,1.83-1.85a5.45,5.45,0,0,0,1.11-.07c0-1.29.08-2.58,0-3.86s.2-2.17,1.79-1.89A4.94,4.94,0,0,0,285.11,119.25Z"/><path class="cls-1" d="M419,87.25c-.12.15-.17.19-.18.23-.37,2.49-.37,2.51-2.89,2.6-1.54,0-3.1.08-4.65,0-1.13,0-1.23.6-1.23,1.47s.05,1.56,1.21,1.51,2.32,0,3.49,0,1.06.67,1.07,1.44,0,1.48-1.12,1.36c-.51,0-1,0-1.79,0,0,1.49-.1,2.84,0,4.16s-.43,1.73-1.73,1.68c-2.26-.09-4.53,0-6.69,0-.15.25-.24.33-.25.41-.26,2.5-.26,2.5-2.8,2.5-2.89,0-2.89,0-2.89-2.93,0-2.48,0-2.48,2.91-2.81,0-1.26.09-2.56,0-3.83-.13-1.42.25-2.14,1.8-1.87a5.48,5.48,0,0,0,1.13-.06,38,38,0,0,0,0-3.85c-.15-1.53.37-2.16,1.91-1.9a5.61,5.61,0,0,0,1-.09c0-1.34.08-2.64,0-3.93s.25-2,1.72-1.8a7.16,7.16,0,0,0,1.21-.07c0-1.32.1-2.62,0-3.9-.14-1.45.31-2.11,1.82-1.85a4.49,4.49,0,0,0,.94,0,4.94,4.94,0,0,0,.16-.82c.09-2.11.09-2.12,2.14-2.11,3.63,0,7.27.09,10.9.07,1,0,1.35.35,1.3,1.35-.06,1.43,0,2.88,0,4.28,1.05.18,2.4.06,2.69.55.45.77.19,2,.21,3,0,.77,0,1.53,0,2.4h3c.11-.9-.09-2,.38-2.51s1.6-.31,2.54-.44c.08-.82-.13-2,.34-2.44s1.6-.33,2.69-.5c0-1.35.05-2.78,0-4.21-.05-1,.19-1.48,1.35-1.46,2.9,0,5.81,0,8.71-.08,1.1,0,1.41.36,1.42,1.43s-.33,1.52-1.42,1.39a10,10,0,0,0-1.53.08c0,1.29-.07,2.54,0,3.77.12,1.41-.19,2.26-1.84,2a4.49,4.49,0,0,0-1.08.11c0,1.41-.05,2.8,0,4.18.05,1.06-.17,1.72-1.41,1.51s-1.7.37-1.51,1.55-.45,1.45-1.51,1.44c-5.72,0-11.44,0-17.15,0-.69,0-1.47.2-1.53-1-.11-2.07-.17-2.07-2.22-2C419.35,87.17,419.16,87.22,419,87.25Z"/><path class="cls-1" d="M177.51,87.34c-2.7-.43-2.7-.43-3.11-3.1-1.39,0-2.82-.06-4.25,0-1.09.07-1.55-.32-1.38-1.4s-.33-1.71-1.53-1.52-1.46-.34-1.38-1.41a23.87,23.87,0,0,0,0-3.05c-.05-.89.29-1.18,1.17-1.17,2.09,0,4.17-.09,6.25-.06,1.12,0,1.25-.58,1.24-1.47s0-1.62-1.19-1.49-1.71-.23-1.69-1.58.91-1.17,1.75-1.2l1.2-.09c0-1.32.1-2.62,0-3.9-.15-1.46.32-2.1,1.82-1.84a3.78,3.78,0,0,0,.88,0,1.27,1.27,0,0,0,.19-.39c.22-2.46.21-2.46,2.67-2.46H186c.13-.24.21-.32.21-.4.18-2.5.18-2.5,2.78-2.5h5.7c.14-.21.23-.28.24-.36.23-2.55.23-2.55,2.88-2.55,2.47,0,4.94,0,7.41,0,.87,0,1.26.26,1.19,1.17-.06.67,0,1.35,0,2,0,2.13,0,2.18-2.08,2.42-1,.12-.85.81-.79,1.38.12,1.19-.31,1.65-1.54,1.56s-2.69,0-3.93,0c-.17.21-.27.28-.28.36-.32,2.54-.32,2.54-2.92,2.54h-2.62c-.17.23-.26.3-.27.38-.32,2.53-.32,2.53-2.93,2.53h-2.62c-.17.23-.26.3-.27.38-.31,2.53-.31,2.53-2.93,2.53-1.6,0-3.2,0-4.79,0-.38,0-1,.49-1,.78-.1,1.67-.05,3.35-.05,5.2,1.48,0,2.83.09,4.17,0s1.82.29,1.62,1.61a7.46,7.46,0,0,0,.08,1.32,36.49,36.49,0,0,0,3.92,0c1.51-.16,2,.4,1.82,1.86a5.12,5.12,0,0,0,.07,1.08c1.31,0,2.6.09,3.88,0s2.14.25,1.86,1.8a6.55,6.55,0,0,0,.07,1.13h5.88c2.77,0,2.77,0,2.77,2.75s0,2.85-2.81,2.86c-7.17,0-14.34,0-21.5.09-1.23,0-1.78-.28-1.66-1.61S177.51,88.75,177.51,87.34Z"/><path class="cls-1" d="M17.42,104.66c.37-2.64.37-2.64,3-2.85-.31-2.07.22-3.51,2.68-2.82.13-.22.21-.3.22-.38C23.54,96,23.53,96,26.16,96c1.5,0,3,0,4.5,0,1,0,1.49-.33,1.35-1.34-.18-1.34.47-1.61,1.68-1.6,8.47,0,17,0,25.42,0,.94,0,1.91-.26,1.92,1.35s-.79,1.49-1.81,1.45a5.3,5.3,0,0,0-.88.07c-.07.13-.19.25-.2.38-.3,2.44-.29,2.44-2.85,2.44a9,9,0,0,1-1.16,0c-1.38-.18-2.16.2-1.88,1.77.15.91-.33,1.21-1.18,1.15s-1.55,0-2.33,0c-2,0-2,0-2.35,2.06a1.36,1.36,0,0,1-1,.81c-1.49.09-3,0-4.44,0-.13.23-.25.35-.26.47-.29,2.44-.29,2.44-2.86,2.44h-2.7c-.13.23-.25.35-.26.47-.29,2.44-.29,2.44-2.71,2.44H29.31a2.15,2.15,0,0,0-.26.47c-.28,2.44-.28,2.44-2.71,2.44H23.49a2,2,0,0,0-.26.48c-.28,2.42-.27,2.42-2.71,2.43-4.31,0-8.62,0-12.93.07-1,0-1.71,0-1.72-1.42s.77-1.41,1.74-1.36c.33,0,.67,0,1.11-.07.08-.87-.14-2,.32-2.49s1.59-.35,2.56-.51c.1-.78-.07-1.92.42-2.47s1.6-.29,2.52-.42c.08-.84-.12-2,.35-2.45S16.49,104.8,17.42,104.66Z"/><path class="cls-1" d="M136.7,87.25c-1.49,0-3-.11-4.49-.08-.93,0-1.39-.27-1.25-1.24.19-1.3-.3-1.9-1.66-1.69-.92.14-1.39-.25-1.25-1.21.19-1.31-.29-1.91-1.66-1.7-.94.15-1.23-.28-1.25-1.23-.08-4.46-.11-4.46,4.3-4.46,9.54,0,19.07,0,28.61,0,1.49,0,2,.43,1.82,1.88a8.18,8.18,0,0,0,0,1.31c0,2.21,0,2.26-2.12,2.53-1,.13-.83.83-.77,1.39.12,1.22-.35,1.67-1.55,1.54-.66-.07-1.53-.14-1.35.93.3,1.83-.64,2.17-2.14,2a3.74,3.74,0,0,0-.8.14c0,1.46,0,3,0,4.43,0,1-.32,1.25-1.26,1.24-4.89,0-9.78,0-14.67.07-1.14,0-1.37-.44-1.36-1.46s.23-1.39,1.29-1.37c1.82,0,1.85-.08,1.52-3a9.25,9.25,0,0,0,2.16.06,1.33,1.33,0,0,0,.8-1c0-.68-.16-1.77-.56-1.94-1.69-.7-2.5,0-2.47,1.75C136.6,86.49,136.67,86.87,136.7,87.25Z"/><path class="cls-1" d="M253.08,107.51c-.36,2.63-.36,2.63-2.85,3.07,0,.08-.13.16-.14.24-.27,2.51-.27,2.51-2.8,2.51a8.68,8.68,0,0,0-1,0c-1.35.18-2.19-.14-1.9-1.75.15-.88-.29-1.21-1.16-1.17-1.12,0-2.24,0-3.34,0s-1.46-.33-1.3-1.33c.2-1.3-.36-1.74-1.62-1.61-.92.1-1.85-.06-2.76,0-1.21.12-1.49-.4-1.44-1.51.07-1.84.09-3.68,0-5.52-.07-1.24.38-1.67,1.57-1.52a5.68,5.68,0,0,0,1.1,0c.09-.13.19-.2.2-.28.24-2.44.24-2.55,2.72-2.56,9.3-.07,18.61,0,27.91-.11,1.11,0,1.23.53,1.24,1.44s-.17,1.52-1.27,1.37-1.89.16-1.66,1.54c.18,1.1-.33,1.52-1.4,1.36s-1.69.36-1.51,1.55-.34,1.52-1.4,1.36c-1.23-.19-1.68.37-1.51,1.55s-.34,1.44-1.4,1.38C255.94,107.45,254.54,107.51,253.08,107.51Z"/><path class="cls-1" d="M157.11,110.42c-.39,2.91-.39,2.91-3.17,2.9-3.3,0-6.6,0-9.89,0-1,0-1.49-.16-1.48-1.33s.36-1.51,1.43-1.38a8.22,8.22,0,0,0,1.21,0c.14-.18.24-.25.24-.33.27-2.57.27-2.57,2.87-2.57h2.83c.49-2.91.49-2.91,3.52-2.91h2.21c.13-.24.21-.31.22-.4.18-2.51.18-2.51,2.77-2.51h2.79c.14-.2.24-.27.24-.35.25-2.56.25-2.56,2.89-2.56h2.72c.11-.21.22-.33.23-.45.22-2.46.22-2.45,2.67-2.46L190.17,96c1.69,0,1.78.15,1.69,1.83,0,.8-.41,1-1.09,1-1.5,0-3,0-4.38,0-.16.22-.26.29-.27.37-.32,2.54-.32,2.54-2.92,2.54h-2.63c-.16.23-.26.3-.27.38-.31,2.53-.31,2.53-2.93,2.53h-2.62c-.17.23-.26.31-.27.39-.29,2.52-.29,2.52-2.93,2.52-1.75,0-3.49,0-5.24,0a1.34,1.34,0,0,0-.39.11c-.06.1-.15.17-.16.25-.29,2.52-.29,2.52-2.95,2.52Z"/><path class="cls-1" d="M200.78,104.73c0-1.45.08-2.76,0-4s.29-1.92,1.68-1.7a5.18,5.18,0,0,0,1,0c.09-.11.2-.17.21-.25.3-2.48.29-2.53,2.83-2.62s4.94,0,7.41-.08c.91,0,1.36.26,1.27,1.24-.06.67,0,1.35,0,2,0,2.15,0,2.13-2.07,2.47-.3,0-.8.51-.78.73.17,1.64-.34,2.38-2.13,2.19-1.22-.13-.78,1-.81,1.59s-.27,1.45.86,1.45h10.66c.12-.17.22-.24.22-.31.27-2.57.27-2.57,2.87-2.57,1.55,0,3.1,0,4.65,0,1,0,1.09.5,1.06,1.28s.15,1.53-1,1.44c-.52,0-1.05,0-1.55,0-.12.22-.24.34-.25.46-.29,2.45-.29,2.45-2.85,2.45a9,9,0,0,1-1.16,0c-1.37-.18-2.15.2-1.88,1.78.15.89-.32,1.15-1.18,1.15q-10.31,0-20.62,0c-.92,0-1.3-.25-1.27-1.23.06-1.94.09-3.88,0-5.81-.06-1.26.42-1.65,1.58-1.5A10.48,10.48,0,0,0,200.78,104.73Z"/><path class="cls-1" d="M514.76,104.73a.74.74,0,0,0,0-.14c.21-2.54.21-2.54,2.75-2.78a1.19,1.19,0,0,0,.17-.36c.22-2.46.22-2.46,2.66-2.46.92,0,1.84,0,2.76,0,.09,0,.17-.07.26-.11s.12-.15.13-.24c.18-2.51.18-2.5,2.76-2.51L545,96c1.56,0,2.06.66,1.56,2.16-.1.3-.69.58-1.07.6-1.49.06-3,0-4.36,0-.15.26-.24.34-.25.42-.25,2.49-.25,2.49-2.8,2.49h-2.76c-.16.26-.24.33-.25.42-.26,2.49-.26,2.49-2.81,2.49h-2.76c-.16.25-.24.33-.25.41-.26,2.5-.26,2.49-2.8,2.5-2,0-4,0-6,.08l.06,0v-2.94h-5.85Z"/><path class="cls-1" d="M168.58,64c0,1.55-.06,3,0,4.34.06,1.08-.3,1.56-1.39,1.39s-1.72.31-1.54,1.52-.28,1.42-1.37,1.41c-5.71,0-11.43,0-17.14.06-1,0-1.68-.07-1.69-1.45s.82-1.35,1.76-1.34c1.3,0,2.6,0,4,0,.1-1-.11-2.09.35-2.58s1.59-.33,2.64-.49c-.38-2.09.32-3.39,2.7-2.76.12-.23.2-.31.2-.4.17-2.5.17-2.5,2.78-2.5,3.39,0,6.78,0,10.17,0,1,0,1.49.16,1.48,1.33s-.31,1.53-1.41,1.4A10,10,0,0,0,168.58,64Z"/><path class="cls-1" d="M462.51,67c0-1.54.09-2.89,0-4.23s.36-1.78,1.63-1.6a5.46,5.46,0,0,0,1.08-.06c.08-.16.16-.24.17-.33.17-2.5.17-2.5,2.76-2.5,3.44,0,6.87,0,10.31,0,1,0,1.44.28,1.32,1.31a11.43,11.43,0,0,0,0,1.31c0,2.78,0,2.78-2.9,3.16,0,1.43,0,2.91,0,4.39,0,.91-.22,1.29-1.21,1.29q-7.33,0-14.66.07c-1.07,0-1.42-.32-1.42-1.41s.31-1.53,1.41-1.39A12.48,12.48,0,0,0,462.51,67Z"/><path class="cls-1" d="M424.71,98.93c-2.91-.41-2.93-.41-2.91-3.24s-.48-2.59,2.65-2.6c4.31,0,8.62,0,12.93,0,1.36,0,1.85.43,1.67,1.74a11.68,11.68,0,0,0,0,1.45c0,2.21,0,2.16-2.11,2.6-.33.06-.77.78-.75,1.18.07,1.28-.3,1.93-1.69,1.74-1-.14-1.3.45-1.19,1.32.15,1.23-.4,1.59-1.58,1.53-1.88-.08-3.78-.08-5.66,0-1.12,0-1.43-.37-1.37-1.43C424.76,101.8,424.71,100.4,424.71,98.93Z"/><path class="cls-1" d="M404.21,61.12c.12-1-.06-2.1.42-2.57s1.6-.29,2.63-.42c0-1.3.08-2.6,0-3.89s.27-2,1.73-1.79a5.58,5.58,0,0,0,1.1-.07,5.84,5.84,0,0,0,.09-1.29c-.21-1.37.46-1.66,1.67-1.56.72.06,1,.25,1,1q0,6.18,0,12.36c0,.93-.52,1.06-1.21,1-1.31-.17-1.91.31-1.7,1.67.15.93-.25,1.38-1.21,1.24-1.32-.19-1.9.32-1.69,1.67.16,1-.35,1.35-1.33,1.32-2,0-4-.06-6,0-1.11,0-1.25-.51-1.25-1.42s.17-1.51,1.28-1.37a14.6,14.6,0,0,0,1.65,0c0-1.4.1-2.7,0-4-.13-1.45.3-2.12,1.82-1.86A4.33,4.33,0,0,0,404.21,61.12Z"/><path class="cls-1" d="M127.92,64c.14-1,0-2.12.45-2.59s1.6-.28,2.43-.37c.16-.93,0-2.28.52-2.57.77-.45,2-.22,3-.22,2.55,0,2.27-.29,2.28,2.21,0,3.58,0,7.16,0,10.74,0,1-.22,1.49-1.35,1.47-3-.07-5.9,0-8.85,0-1,0-1.27-.34-1.24-1.28,0-1.94.08-3.87,0-5.8-.06-1.23.36-1.68,1.56-1.53A7.49,7.49,0,0,0,127.92,64Z"/><path class="cls-1" d="M354.72,95.92c.06-2.16.15-4.32.18-6.49s-.18-2.09,2-2.08a6.41,6.41,0,0,0,.67-.06c.09-.13.18-.2.19-.28.25-2.56.25-2.56,2.87-2.56h2.92a6.35,6.35,0,0,0,.08-1.3c-.24-1.46.51-1.71,1.74-1.63.79,0,1,.37,1,1.07,0,4.07,0,8.13,0,12.2,0,.91-.38,1.17-1.21,1.16-3.49,0-7,0-10.46-.06Z"/><path class="cls-1" d="M447.74,96c.11-.14.15-.17.16-.21.31-2.69.31-2.69,3.07-2.69,3.34,0,6.68,0,10,0,1.17,0,1.34.49,1.34,1.49S462,96,461,95.89a10.75,10.75,0,0,0-1.61.08c.49,2.32-.43,3.35-2.63,2.85-.13.23-.2.31-.21.4-.22,2.38-.22,2.42-2.68,2.48s-4.94,0-7.41.07c-1,0-1.56-.26-1.42-1.38a11.84,11.84,0,0,0,0-1.46C445.06,96.25,445.06,96.25,447.74,96Z"/><path class="cls-1" d="M447.81,64c.42-2.85.42-2.85,3.24-2.85,1.4,0,2.81,0,4.21,0,1-.05,1.29.31,1.25,1.25s0,1.66-1.17,1.46c-1.6-.28-1.81.54-1.79,1.89.07,4,0,4-3.89,4h-.29c-4.34,0-4.29,0-4.34-4.15,0-1.21.34-1.7,1.56-1.54A6.51,6.51,0,0,0,447.81,64Z"/><path class="cls-1" d="M418.82,64a6.58,6.58,0,0,0,.06-1.22c-.21-1.35.43-1.65,1.65-1.57.85.05,1.07.37,1.05,1.15,0,1.49,0,3,0,4.55a5.18,5.18,0,0,0,1.22.13c1.46-.22,1.84.45,1.71,1.79-.07.79-.4,1-1.09,1-2.12,0-4.25,0-6.38,0-.83,0-1.12-.36-1.06-1.15,0-.48,0-1,0-1.45C416,64.32,416,64.32,418.82,64Z"/><path class="cls-1" d="M450.9,104.72a7,7,0,0,0,1,0c1.33-.18,1.8.37,1.69,1.7-.07.79-.28,1.15-1.1,1.11s-1.93,0-2.9,0-1.72,0-1.71-1.39.67-1.49,1.7-1.41C450,104.75,450.47,104.72,450.9,104.72Z"/><path class="cls-1" d="M500.16,113.31a7.36,7.36,0,0,0-1.15,0c-1.45.25-1.83-.5-1.57-1.71.09-.37.55-.9.87-.93,1.24-.11,2.5,0,3.75,0,1.09,0,.93.7.94,1.37s.1,1.41-1,1.34c-.62,0-1.25,0-1.87,0Z"/><path class="cls-1" d="M543.82,40.77c0-.43.11-.86.12-1.28,0-1.46.88-2.13,2.15-1.49.37.19.48,1.12.48,1.72,0,.29-.46.75-.8.84a10,10,0,0,1-2,.16Z"/><path class="cls-1" d="M567.17,139.57c-2.78-.21-2.78-.21-2.95-3l0,0c.87.11,2-.06,2.53.43s.3,1.67.41,2.54Z"/><path class="cls-1" d="M514.73,104.68h5.85v2.94h-5.85Z"/><path class="cls-1" d="M136.7,87.25c0-.38-.1-.76-.1-1.15,0-1.78.78-2.45,2.47-1.75.4.17.54,1.26.56,1.94a1.33,1.33,0,0,1-.8,1,9.25,9.25,0,0,1-2.16-.06Z"/></g></g></svg>