<svg xmlns="http://www.w3.org/2000/svg" viewBox="0 0 285.06 202.05"><defs><style>.cls-1{fill:#2b2b2b;}</style></defs><g id="Layer_2" data-name="Layer 2"><g id="Layer_1-2" data-name="Layer 1"><path class="cls-1" d="M65.54,164.46c-10.86,9-22.47,12.87-36.41,11.62a171.61,171.61,0,0,0,12-20.33c1.44-3,1.52-4-2.25-3.82a33.65,33.65,0,0,1-16.41-3.29c2.9-2.73,6.73-3.14,9.81-6.13l-13.53-.81C7.49,141,.88,134,.89,122.7.9,108.08-.37,93.47.11,78.83c.25-7.57,0-15.21.9-22.7,1.38-11.21,8.6-21.45,24.74-21.81,5.95-.14,11.91,0,18.29,0-2.91-4.51-6-8.59-7.58-13.88,4.48-.23,8.38,1.32,12.26,2.67a113.82,113.82,0,0,1,25.66,13c2,1.29,3.38,1.72,4.92-.36A8.42,8.42,0,0,1,81,34.09c2-1.46,5.16-2.56,5.63-4.38s-1.62-4.52-2.47-6.87A87,87,0,0,1,79.09,0a72.55,72.55,0,0,1,24.18,23.23c1.5,2.36,3.07,3.9,6,4.44A23.45,23.45,0,0,1,118.55,32c2.24,1.6,4.12,3.21,7.29,1.34,2.14-1.28,2.89,1,3.64,2.86.85,2.1-.44,5.24,1.89,6.26,1.9.84,4.45.23,6.71.23,13.43,0,26.87,0,40.3,0a9.08,9.08,0,0,0,6.22-1.91A23.18,23.18,0,0,1,197.82,36c2.35-.15,3.36.63,2.28,3-1.36,3-.43,3.88,2.74,3.69,5-.3,9.35-2.62,14.11-3.62,14.15-3,28.06-3.36,41.6,2.63a28.31,28.31,0,0,1,16.73,19.39c.46,1.73.91,2.18,2.65,2.49,3.94.7,6.19,2.7,6.54,7.38.48,6.38.55,12.74.56,19.12q.08,37.5,0,75a26.24,26.24,0,0,1-3.94,14.29c-1.87,3-3.75,5.82-7.84,6.56-2.48.45-4.06,3.24-7,3.68-9.8,1.49-19.62.36-29.43.67-5.34.17-5.34,0-5.24,5.32,0,2,0,4,0,6.43a64.39,64.39,0,0,1-15.36-9.13c-4.23-3.4-8.33-3.3-13.09-1-14.57,7-29.28,6.44-43.82-.16a14.06,14.06,0,0,0-6-1.43q-36.72,0-73.42,0c-9,0-14.38-5.42-14.39-14.54ZM110,68.85h22.15c7.31,0,7.31,0,6.33-7l-.42-5.34c.2-2.26-1.46-1.7-2.66-1.71-3.69,0-7.39,0-11.08,0-10.4-1.87-20.94-.52-31.4-1.49-12.78-1.19-12.82-.81-13,12.21a7.06,7.06,0,0,1,0,.8c-.6,3.66,1.21,4.36,4.53,4.49,2.24.08,4.48-2.22,6.68-.07,0,11,0,21.94.11,32.9,0,1.25-.56,2.65.53,3.77,4.82.32,9.64.82,14.47.29,1.46-3.84.22-7.86.75-11.76,1.19-7.81.7-15.69.9-23.55C108,70.77,107.69,69,110,68.85Zm6.69,10.8c.36,7.94-.49,15.91.54,23.84-.73,3.42.78,4.53,4.07,4.22a43.39,43.39,0,0,1,7.56-.1c2.88.23,3.93-.62,3.91-3.7,0-6,.28-6,6.37-6.12,1.06,0,2.13.07,3.18,0,1.83-.2,2.13.74,2.25,2.33.54,7.48.59,7.48,7.92,7.58,1.86,0,3.72-.09,5.58,0s2.56-.66,2.62-2.53c.44-14.85.9-29.7,1.47-44.54.09-2.43-.94-2.85-3-2.81a61.41,61.41,0,0,1-10.34-.33c-3.27-.49-4.46.08-4.3,3.68.32,7,0,14.09.24,21.13.07,2.54-.82,3.21-3.17,3.14-10.18-.29-8,1.27-8.24-8.09a5.34,5.34,0,0,1,0-1.2c.88-4.18-1-5.4-4.91-4.82a38.44,38.44,0,0,1-5.58.06C114.93,71.39,114.68,71.72,116.7,79.65Zm25.89,34.26c-4.5.24-9.05-.78-13.51.55l-10.77,26.1a26.33,26.33,0,0,1-1.61-2.83c-2.75-7.08-5.44-14.17-8.19-21.25-.55-1.43-.85-3-3.11-2.87-6.91.25-13.82,0-20.72.63-1.92.18-2.43.91-2.42,2.71q.09,27.22.06,54.45c0,2.86,1.29,4.37,4.27,4.49,4.51.17,9-.3,13.53.57,2.14.42,2.46-.8,2.3-2.56-.4-4.36-.16-8.75-.66-13.13-.42-3.66-.09-7.41-.09-12.2,2.58,5.34,5.16,9.46,6.6,14,2.13,6.62,6,9,12.85,8,2.35-.37,3.76-.75,4.78-3.07,2.65-6,5.61-11.94,8.44-17.89a9.33,9.33,0,0,1,.65,3.9c.29,6.78-.34,13.52-.79,20.27-.1,1.49-.17,3.14,2.16,2.75,4.49-.75,9-.42,13.53-.6,1.88-.07,2.87-.37,2.29-2.84a133.35,133.35,0,0,1-2.09-51.32C151.34,113.53,151.24,113.51,142.59,113.91ZM49.87,53.06c-8.11,0-16.23.2-24.33-.09-3.62-.12-4.65,1.26-4.64,4.55,0,6,0,12-.36,17.94-1,15.7,0,31.34,1.05,47,.13,2,.91,2.41,2.68,2.39,4.52-.07,9,0,13.57,0,13.15,0,26.27-.52,39.39-1.52,2.21-.17,2.71-.91,2.44-2.9a103.6,103.6,0,0,1-.51-16.33c.07-2.94-.53-4.27-3.91-4.06-9.54.61-19.11.87-28.66,1.29-1.17,0-2.42.58-2.55-1.4-.1-1.73.24-2.88,2.27-2.82,1.06,0,2.13-.06,3.19-.08,8.5-.16,17-.05,25.51-.62,2.54-.17,3.55-.82,3.28-3.46a102.75,102.75,0,0,1-.61-11.09c0-2.8-1.24-3.21-3.65-3.18-9.11.13-18.23,0-27.34.09-1.63,0-3.14-.24-3.2-2.08-.09-2.28,1.9-1.22,2.91-1.26q14.15-.52,28.28-.81c1.87,0,2.95-.26,2.88-2.56-.16-5.71-.15-11.43-.07-17.15,0-2.23-.89-2.61-2.91-2.42C66.36,53.23,58.11,53,49.87,53.06Zm198.59,91.7c-.82-1.47-1.73-2.88-2.43-4.4-3.78-8.16-7.48-16.37-12.28-24-.68-1.09-1.15-2-2.9-1.94-5.7.22-11.42.11-17.13.11-2.51,0-3,.79-2.34,3.42a114,114,0,0,1,3.3,18.52c.8,11.62,1,23.29-2,34.72-.23.87-.63,2.35.62,2.21,4.84-.59,9.24,2.37,14,1.63,1.65-.26,3.21-.62,3-3.76-.66-8.38-1.69-16.81-.81-25.88.63,1,1,1.49,1.29,2,4.34,7.71,8.72,15.4,13,23.16,1.2,2.17,2.57,3.24,5.25,3.09a109.39,109.39,0,0,1,13.55,0c2.8.19,3.6-.66,3.75-3.41.94-17.12-.18-34.28,1.23-51.38.2-2.42-.79-3.42-3.13-3.43-3.86,0-7.71,0-11.56-.2-2.3-.12-2.88.71-2.91,2.94C249.77,127,248.67,135.69,248.46,144.76ZM226,94l1-.21c3.44,5,6.84,9.92,10.34,14.82.73,1,1.21,2.74,3.32,1.52,3.37-2,6.94-3.59,10.38-5.44,2-1.09,3-2.27,1.07-4.63-2.39-2.92-4.26-6.27-6.4-9.4-.87-1.28-.68-2,.72-2.78a21.4,21.4,0,0,0,9.79-10.74c3-7.16,2.07-14.08-4.28-18.34a26,26,0,0,0-7.57-3.39c-11.38-3.19-22.61-.72-33.86,1-2.18.33-2.1,2-2.08,3.62.2,14.87,1.2,29.72.75,44.6-.07,2.36.9,3,3,2.91,3.58-.11,7.17-.18,10.75,0,2.57.12,3.15-1,3.05-3.3C225.86,100.81,226,97.41,226,94ZM181.7,75.44A4.43,4.43,0,0,1,186.23,73c2.39,0,4.79.08,7.18,0C208,72.46,204.92,75.85,205,59.8c0-2.06-.93-2.76-3-2.63-11.41.73-22.83.76-34.26.62-1.86,0-2.5.62-2.66,2.48a287.1,287.1,0,0,0-.28,39c.32,6.55.8,5.8,7.69,5.33,10.06-.68,20.31-2.13,30.2,1.65,2.68,1,4.08-.17,3.88-3a75.48,75.48,0,0,1-.52-8.74c.15-3-.61-4.31-3.9-4-5.42.47-10.87.69-16.31.77-1.48,0-4.21,1.21-4.33-1-.15-2.54,2.81-1.63,4.38-1.79,3.29-.33,6.63-.25,9.95-.26,9.59,0,9.47,0,9.41-9.6,0-2.8-1-3.23-3.48-3.18C195.33,75.54,188.83,75.44,181.7,75.44ZM169.94,172c11.41,9.71,23.79,6.8,31.37-1.14,13.67-14.31,11.93-40.72-3.67-53-6.7-5.28-14.33-6.72-22.39-3.73-7.15,2.65-13.54,10.9-14.31,17.7,10.38-10.46,22.78-6.35,29.19,4.32a28.61,28.61,0,0,1,4.12,20.17,19.52,19.52,0,0,1-13.53,15.79C177.19,173.12,173.91,171.89,169.94,172Zm9.68-18.37c4.18.06,7.16-2.71,7.19-6.68.05-5.76-3.39-10.63-7.63-10.8-3.6-.15-5.83,2.42-5.87,6.79C173.23,150.36,175.1,153.53,179.62,153.6Z"/><path class="cls-1" d="M229.66,70.84a13,13,0,0,1,6.65.6c3.59,1,4.22,3.72,1.37,6.12s-6.47,3.42-10.05,4c-2,.34-2.33-1.69-2.39-3.31-.07-2,.54-3.88.38-6C225.4,69.53,228.75,71.21,229.66,70.84Z"/></g></g></svg>