<svg xmlns="http://www.w3.org/2000/svg" viewBox="0 0 359.27 232.75"><defs><style>.cls-1{fill:#2b2b2b;}</style></defs><g id="Layer_2" data-name="Layer 2"><g id="Layer_1-2" data-name="Layer 1"><path class="cls-1" d="M0,38.22a3.83,3.83,0,0,1,4-1.93c2.05.14,4.1-.28,6.17-.26,1.52,0,1.94-.58,1.79-2.09-.08-.78.36-.82.88-.83,1,0,2,0,3,0,1.69-.06,1.89-.34,2-2a39.73,39.73,0,0,0-.75-10,11.65,11.65,0,0,1,0-3.49c.15-1.51,1.37-2.48,3.13-2.59a10,10,0,0,0,2.25-.47c-.82-.64-1.21-1.65-2.48-1.19-.57.2-1-.2-1.27-.75-.52-1.2-1-2.42-.23-3.72a1.08,1.08,0,0,0-.26-1.34,3.54,3.54,0,0,1,0-4.92A4.85,4.85,0,0,1,19.8,1.26,9.14,9.14,0,0,0,21.47,0c.64.35.14,1,.58,1.44C23,0,24.27.27,25.55.72a5.07,5.07,0,0,1,3.52,3.41A8.44,8.44,0,0,1,29,10a5.47,5.47,0,0,1-2.06,2.55c-.3.2-.82.47-.61.92s.73.24,1.1.19a5.29,5.29,0,0,0,1.25-.43,2.87,2.87,0,0,1,4,1.29c2.17,3.63,2.26,7.89,3.92,11.64.32.74.46,1.55.82,2.26,1.23,2.42,1.29,5.08,1.64,7.68.05.4,0,.81.11,1.2.51,2.27,1,2.56,3.26,2.07a3,3,0,0,1,3.5,1.8c.55,1.09.42,1.38-.83,1.33a3.89,3.89,0,0,0-3,1.08,1.2,1.2,0,0,0-.32.84c-.25,0-.38-.13-.49-.32a1.66,1.66,0,0,1-.14-.37c-.28-1.5-.92-2.56-2.72-2.24a1.07,1.07,0,0,1-.76-.21c-1.13-1.84-1.54-4-2.71-5.82-1.82-2.76-1.79-5.86-2-8.93,0-.38-.13-.79,0-1.06a70.88,70.88,0,0,1-1.34,9,23.77,23.77,0,0,1-1.54,5.29,3.69,3.69,0,0,1-1,1.58c-1.38.47-2.83,0-4.22.31-1.77.3-2.35,1.67-2.78,3.15a8.53,8.53,0,0,1-.95,2.37c-.07.11-.18.25-.15.36.39,1.66-.84,3-1,4.52-.05.65-.19,1.18-1.05.92a.93.93,0,0,0-.75.23,1.91,1.91,0,0,1-2.47-.29c-.69-.6-.26-1.32,0-2a1.54,1.54,0,0,0,.17-.51c0-.08-.09-.08-.2,0-.74.2-1.71.95-2.16.09-.35-.65.7-1.21,1.27-1.7a2,2,0,0,1,.55-.37c2.43-.86,2.52-3,2.81-5.06.11-.75-.33-.68-.82-.56a8,8,0,0,1-3.86.16,2.92,2.92,0,0,1-1.9-1.14c-1.77-.24-3.56-.82-5.17.47-1.95,0-2.22.25-1.79,2.14.74,3.28.38,6.59.46,9.89,0,.35.06.83-.43.84-.72,0-1.55.36-2.15-.34-.34-.4-.58-.89-.9-1.33-.19-.27-.34-.52-.18-.85.25-.51.63.08.93-.12C1.73,48.64.62,44.87.22,41c0-.12-.14-.22-.22-.32Z"/><path class="cls-1" d="M359.27,126.07l-19.1.06c-2.42,0-4.84-.06-7.26,0a1.42,1.42,0,0,1-1.7-1.24c-.27-1.16-1-2.19-1.06-3.43,1.11.27.84,1.4,1.31,2.07a6.05,6.05,0,0,0,.83,1.74,13.15,13.15,0,0,0,2.94.13c6.91-.09,13.82,0,20.73,0a4.68,4.68,0,0,0,2-.15c.17-.75-.34-1.32-.53-2s-.61-1.14-.47-1.83a.47.47,0,0,1,.26-.26q1,2.32,2.08,4.65Z"/><path class="cls-1" d="M328,51.14a18.74,18.74,0,0,1,2,4.82c.16.58-.32.78-.65,1-1.29,1-2.57,2.07-3.9,3.06A39.48,39.48,0,0,0,319.59,66a67.73,67.73,0,0,0-4.93,7c-.32.47-.63,1-1.34,1-.47-.18-.56-.65-.78-1a3.49,3.49,0,0,1-.15-.34,10.45,10.45,0,0,0-.68-1.84c0-.11-.1-.22-.14-.33a10.29,10.29,0,0,0-1-2.5c-.2-.24-.2-.24-.49.39a7.57,7.57,0,0,0-.71,1.81,2.52,2.52,0,0,1-.14.33,11.93,11.93,0,0,0-.68,1.84,1.62,1.62,0,0,1-.13.33,10.84,10.84,0,0,0-.67,1.83c0,.11-.09.22-.14.33a10.73,10.73,0,0,0-.67,1.82,1.64,1.64,0,0,1-.14.33,10.84,10.84,0,0,0-.67,1.83c0,.11-.08.22-.13.33a10.17,10.17,0,0,0-.68,1.84c0,.11-.09.23-.14.34-.35.6-.42,1.32-.8,1.91a.39.39,0,0,1-.37.13.8.8,0,0,1-.31-.27c-.53-.8-.21-1.76-.57-2.74A6.65,6.65,0,0,0,301.89,82a9.09,9.09,0,0,1-1.58,1.81c-1,.79-1.87.53-2.25-.69a5,5,0,0,1-.27-1.31c-.13-4.06-1.1-8-1.23-12.1a5.35,5.35,0,0,1,.4-2.87c.65-.1.66.46.63.78-.28,2.6,1,5,1,7.55a22.62,22.62,0,0,0,.58,5.61,25.49,25.49,0,0,0,.23-4c-.05-1.88.19-2.18,2-2.36.35,0,.81,0,.79-.51s-.43-.6-.89-.59c-2,.07-2.41-.36-2.11-2.4a8.81,8.81,0,0,0-.11-2.41,53.4,53.4,0,0,0-.84-6.66c-.12-.47-.11-1.15-.72-1.13s-.62.75-.67,1.27c-.1,1.14.48,2.19.42,3.32a3.14,3.14,0,0,1-.09,1.33,6.46,6.46,0,0,1-1.3.88,1.82,1.82,0,0,1-2.58-.32,2.94,2.94,0,0,1-.59-1.85,2.14,2.14,0,0,1,1.6-1.49,2,2,0,0,0,1.5-2.46c-.32-3-.37-6-1.5-8.84a2.87,2.87,0,0,1-.28-1.69c-.27-.39-.14-.63.28-.76,1.05.43,1.27,1.47,1.6,2.36.45,1.21.94,2.41,1.46,3.59.1.24.13.57.48.54a.54.54,0,0,0,.46-.44c.82-2.59,2.78-4.48,4.35-6.55a23.44,23.44,0,0,1,4.63-5c1.44-1,2.73-2.27,4.2-3.28.41,0,.84-.12,1.24.13,0,1.6-.41,3.18-.25,4.8a7.48,7.48,0,0,0,.12,1.33c.2.74.62,1.2,1.44,1.11,1.07-.12,2.16,0,3.22-.19,3.4-.57,6.57.38,9.72,1.44A1.51,1.51,0,0,1,328,51.14Z"/><path class="cls-1" d="M54,81.29l2.35,6.92c.21.58.36,1.18.6,1.75.11.26,0,.66.5.66s.33-.46.52-.67v0c.24-.83.53-1.64.76-2.47.47-1.13.76-2.33,1.2-3.47.11-.28.1-.63.49-.7a4.19,4.19,0,0,1,2.56,1c1,.78,1,.76,1.54-.45a2.93,2.93,0,0,1,1-1.41,1.09,1.09,0,0,1,1.81.54,3,3,0,0,1,.21,1.31c-.15,2.57.6,5,.81,7.55a100.31,100.31,0,0,1,1.24,10.2,30.89,30.89,0,0,0,1.2,6.4.78.78,0,0,1-.45,1A2.51,2.51,0,0,1,68.78,107a44.93,44.93,0,0,0-.76-6.11c-.25-1.19-.3-2.41-.48-3.6a112.1,112.1,0,0,1-1.19-11.72,13.09,13.09,0,0,0-1,6.27,1.25,1.25,0,0,0,.16.65c1.1,1.51,1,3.26.84,4.93-.23,2.11.83,3.92,1,5.92a5.45,5.45,0,0,1,.06,1.61,4,4,0,0,0,.86,3.61c1,1.26.8,3,1,4.53-1.18,4.12-2.69,8.13-4,12.21a.87.87,0,0,1-1,.67c-.93-.06-1.88,0-2.82-.06a16.14,16.14,0,0,0-8.7-2.49c-2,0-4-.4-6.07-.58-.53-.3-.53-.84-.6-1.35a2.12,2.12,0,0,1,1.53-.33,29.64,29.64,0,0,0,3.88-.17,3.71,3.71,0,0,1,2.74.9,2.73,2.73,0,0,0,2.4.5,2.68,2.68,0,0,0-3.42-1.86,20.87,20.87,0,0,1-7.31.07c-.22-.2-.44-.39-.38-.73.49-.75,1.25-.57,2-.56,1.39,0,2.78.2,3.86-1,.4-.46,1.1-.32,1.67-.41,1.59-.26,1.86-.77,1.07-2.12a6,6,0,0,1-.42-4.47,13.17,13.17,0,0,0-1-8.22A14.73,14.73,0,0,1,52,100.7,18.64,18.64,0,0,1,52,97.62c-.21-3.79-1.34-7.45-1.58-11.24a3.17,3.17,0,0,1,0-1.59,3.22,3.22,0,0,0,.11-2.6,1.29,1.29,0,0,1,.74-1.67,2.48,2.48,0,0,1,1.94-.25C53.85,80.38,53.6,81,54,81.29Z"/><path class="cls-1" d="M331.24,123.65c-.53-.64-.45-1.58-1.09-2.17v0c-.34-.7-.45-1.49-.82-2.17h0c-.43-1-.62-2-1.08-3v0a38.91,38.91,0,0,0-1.77-4.33,1.15,1.15,0,0,0-.33-1.1,5.22,5.22,0,0,0-2.89-.37c-6.19,0-12.39,0-18.58,0-3,0-6.06,0-9.09,0-.9-.57-.4-1.27-.07-1.84.45-.78,1-1.5,1.36-2.31a2.19,2.19,0,0,1,1.85-1.18c2.17-.24,4.32-.76,6.54-.46a1.86,1.86,0,0,0,2.09-2c0-2.51,0-5,0-7.54a2.76,2.76,0,0,1,.69-2.23.56.56,0,0,1,.43-.11.6.6,0,0,1,.25.58c-.7,1.65-.18,3.26.21,4.87a1.25,1.25,0,0,0,.93.87,1.05,1.05,0,0,1,.61,1.72,4.58,4.58,0,0,0-.4,3.39c.11.91.45,1.8.6,2.75a14.07,14.07,0,0,1,2.57-5.09,3.1,3.1,0,0,0,.43-1.4,2.49,2.49,0,0,1,3.45-1.93,2.23,2.23,0,0,0,1.17.26c1.74-.39,2.94.52,4,1.7a5.07,5.07,0,0,0,2.32,1.52,6.21,6.21,0,0,1,2.73,1.68,2.92,2.92,0,0,0,1.88,1,6.89,6.89,0,0,1,1.92.59,2.89,2.89,0,0,0,3.52-.79,5.54,5.54,0,0,0,1.52-3.38c.11-2.57,1.29-4.84,2-7.24a1.18,1.18,0,0,1,1.33-.88c1.58,0,3,.24,3.47,2.06a1.63,1.63,0,0,0,1.34,1,9.67,9.67,0,0,1,3,1.42,1.21,1.21,0,0,1,.05.18c0,.76.61,1.32.77,2,.06.29.29.55,0,.83a8.67,8.67,0,0,0-1.72.74,11.34,11.34,0,0,1-6.91,1.45,1.89,1.89,0,0,0-1.85,1.07,12.53,12.53,0,0,0-2.1,7.75,13.06,13.06,0,0,1-1.54,3.7,13.28,13.28,0,0,0-1.12,7.83C332.52,123.74,332,124.09,331.24,123.65Z"/><path class="cls-1" d="M82.18,74.73a12.45,12.45,0,0,1-1.35,3.37A.85.85,0,0,1,79.62,78c-1.33-1.22-3-1.9-4.4-3.08-1.15-1-2.77-1.38-4.15-2.11a10,10,0,0,1-2.94-2.52,3.6,3.6,0,0,1-.65-3.43,77.85,77.85,0,0,0,2.36-9.52c.15-1,.84-1.89.7-3,.07-.35.11-.73.55-.83.59.48.33,1.16.44,1.75,0,.26,0,.6.41.58s.34-.26.4-.49A11.67,11.67,0,0,1,72.6,54c.16-.42.3-.89.87-.87s.71.5.84.92a3.41,3.41,0,0,1,0,2.12c-.13.4-.22.87.26,1,1.94.74,3.67,2.1,5.94,1.92a2.06,2.06,0,0,0,1.82-1.09c1.55-2.65,1.3-4.53-1-6.59a3.72,3.72,0,0,0-4.32.24c-.31.33-.55.73-1,.89a1.14,1.14,0,0,1-1.61-.75,7.42,7.42,0,0,0-.8-2.12,8.58,8.58,0,0,1-1.27,2.77c-.34.36-.54,1-1.24.76a1,1,0,0,1,0-1c.88-1.48,1-3.26,1.87-4.73a3.51,3.51,0,0,0,.28-1.43c0-.46-.08-1,.59-1.2.53.51.36,1.17.38,1.78A2.06,2.06,0,0,0,77,48.49a3.28,3.28,0,0,1,2.82-.29,4,4,0,0,0,1.87,0,5.16,5.16,0,0,1,4.6,1.32,4.25,4.25,0,0,0,.53.42c2.46,1.71,3.09,3.55,2.24,6.53-.45,1.6-.88,3.2-1.29,4.94.26-.63.43-1.2,1.19-1,.41.53.22,1.08.07,1.64a9.13,9.13,0,0,0-.56,2.83,4.34,4.34,0,0,1-1.16,3.43,1.52,1.52,0,0,0-.43,1.09c0,1.78-1.1,2.94-2.13,4.16a1.72,1.72,0,0,1-1.68.58C82.42,73.75,82.33,74.29,82.18,74.73Z"/><path class="cls-1" d="M53.45,80.5a5.85,5.85,0,0,0-1.46.11c-.87.27-1.62.66-.93,1.81a1.75,1.75,0,0,1,0,2,2.37,2.37,0,0,0-.23,1.8,26.08,26.08,0,0,1,.64,5.82c-.08,1.1.94,1.65.9,2.73-.08,2,.15,4,0,6a3.62,3.62,0,0,1-3.27-.61,3.53,3.53,0,0,0-2.81-.59c-1.63.2-2.13-.11-2.74-1.65-.14-.38-.27-.76-.43-1.13s-.4-.76-.93-.24c-.75.75-1.37.34-1.87-.37a2.76,2.76,0,0,1-.38-1c-.44-1.69-1-2.08-2.78-1.87a22.76,22.76,0,0,1-1.63-4.54c-.06-.18-.1-.33-.28-.4l-.39-1.47C34.2,84.53,33.27,82.3,32.6,80v0c-.49-1.38-.8-2.81-1.34-4.17-.41-.46.05-1.45-.94-1.57-.34.54.05,1.21-.33,1.74a1,1,0,0,1-1.06.33c-.29-.64.08-1.34-.15-2a3.07,3.07,0,0,0,.5-1.87,4.14,4.14,0,0,1,.53-2.41c1.13.51,2.35.83,3.12,2a14.91,14.91,0,0,0,3,3.26,1.83,1.83,0,0,1,.68.81c.41,1.35,1.49,1.54,2.66,1.62.53,0,1.08,0,1.61,0A1.8,1.8,0,0,0,43,76.31c.75-2.21,2.38-2.82,4.89-2.09a12.36,12.36,0,0,0-.58,3c.06.88.39,1.09,1.13,1a9.31,9.31,0,0,0,4-.63.88.88,0,0,1,.34.19h0C52.93,78.74,53.6,79.53,53.45,80.5Z"/><path class="cls-1" d="M278.42,87.13c.06-.64.8-1,.67-1.74a.69.69,0,0,1,.34-.14c.68-.06,1.05.85,1.92.6-.43-1-1.49-.17-1.94-.8.84-2.27,1.89-4.44,2.78-6.68h0c.52-1.27,1.11-2.52,1.6-3.81.1-.27.19-.63.61-.62,1.31.49,2.05,1.7,3.12,2.49a.32.32,0,0,1,.14.22c-.14,2.11,1.71,1.94,2.88,2.35a7.15,7.15,0,0,1,3.61,2.17,3.63,3.63,0,0,0,1.32.89,3.84,3.84,0,0,1,2.23,4.17,12,12,0,0,0,.34,3.33,12.81,12.81,0,0,1,.11,3.21C298,94.9,297,95.8,295,96c-1.71.17-2.42,1-2.14,2.52.17.89.9,1.14,1.57,1.5,1.17.62,1.32,1.34.58,2.48a5.53,5.53,0,0,1-.91.24c-1.35.29-1.78-.17-1.45-1.69-1,0-1.81-.37-2-1.48a.47.47,0,0,0-.26-.29c-1.89-.83-2.17-2.58-2.24-4.28a7,7,0,0,0-3.16-5.61,9,9,0,0,1-1.22-1.25,1.72,1.72,0,0,0-2.77.15,1.41,1.41,0,0,0-.22.34,43.65,43.65,0,0,0-2.33,6.23,61.61,61.61,0,0,0-1.49,12.24,6.66,6.66,0,0,0,.09,1.48c.14.73.41,1.14,1.28.86a2.16,2.16,0,0,1,2.06.16,4.68,4.68,0,0,1-3.31,1.84c-.91.14-1.08-.85-1.32-1.58a12.65,12.65,0,0,1-.62-6,2.51,2.51,0,0,0-.18-1.52c-1,.59-1.87.62-2.44-.53,0-.91.74-1.52.86-2.38.42-1.11.95-2.19,1.29-3.33a11.8,11.8,0,0,0,1.52-3.69A35.18,35.18,0,0,0,278.42,87.13Z"/><path class="cls-1" d="M347.37,97.51c-1.85-.87-4.46-.54-5.15-3.28a1.1,1.1,0,0,0-1.14-.77,6,6,0,0,1-1.6-.1c-.7-.18-.81.14-1,.7a50.6,50.6,0,0,0-2.18,8.25,4.32,4.32,0,0,1-2.69,3.43,3.88,3.88,0,0,1-2.54,0c-2.29-.5-4-2-6-3a9.09,9.09,0,0,1-3.48-2.33,3.08,3.08,0,0,0-.5-.45c-1.6-1.42-3.69-.58-5.52-1.13-.75-.22-1.61,1-1.62,2.13a2.58,2.58,0,0,1-.71,1.59,8.32,8.32,0,0,0-2,4.45c0,.41,0,.92-.55.9s-.52-.52-.52-.92c0-1.52-.75-2.93-.61-4.5a2.47,2.47,0,0,1,.45-1.45c.73-1,.57-1.35-.58-1.51a.83.83,0,0,1-.56-.27c-.73-.9-1-4.76-.33-5.76a1.3,1.3,0,0,1,.37,1c0,.31,0,.72.28.88a6.34,6.34,0,0,1,2.55,2.82c.22.49.71.17,1-.11a11.14,11.14,0,0,0,2.57-2.92c.91-1.72,2.46-2.17,4.13-2.29,2.61-.17,5.11.07,6.9,2.42,1.43,1.86,3.62,1.69,5.66,1.86s2.82-.82,3.67-2.71c1.17-2.62,1-5.33,1.6-8a13.4,13.4,0,0,1,.6-2.74c.48-1.08,1.08-1.16,1.74-.18A3,3,0,0,0,341.93,85c.28.13.13.54.42.66A19.66,19.66,0,0,1,344,90a69.94,69.94,0,0,1,2.84,6.61Z"/><path class="cls-1" d="M37.15,93.27c.28-.64.72-.64,1.32-.41a2.3,2.3,0,0,1,1.67,1.72,4.32,4.32,0,0,0,.22,1.17c.54,1.1,1.12,1.2,1.77.19.52-.79.76-.57,1,.15.16.46.38.91.54,1.37.65,1.84.74,1.89,2.65,1.68a3.07,3.07,0,0,1,1.84.2,9.33,9.33,0,0,0,4.12,1.4c.73,2.2,1.58,4.37,2.14,6.61a6.35,6.35,0,0,1-.33,2.86,19.81,19.81,0,0,0-.18,4.28,2.26,2.26,0,0,0,.71,1.41c.71.89.51,1.64-.55,2.07a3.66,3.66,0,0,1-1.57.3c-.31,0-.79,0-.9.12-1.21,1.86-3,1.2-4.69,1.21a1.89,1.89,0,0,0-1.29.28c-.67-.57-.54-1.47-.9-2.17v0c-.8-2.54-1.53-5.11-2.57-7.56l-.07-.54a8,8,0,0,1,.06-3.16,1.81,1.81,0,0,0-.89-2.08,1.4,1.4,0,0,1-.67-1.83c.43-1.07-.09-1.48-1.05-1.62-.75-1-.8-2.32-1.35-3.42-.21-.86-.53-1.68-.76-2.53l-.28-.61A1.57,1.57,0,0,1,37.15,93.27Z"/><path class="cls-1" d="M294.85,102.36c.63-1.08.27-1.72-.85-2.15-1.46-.57-1.88-1.36-1.55-3,.25-1.23,1.32-1.5,2.35-1.6,2.17-.22,2.95-1,3-3.19a18.51,18.51,0,0,0-.44-4.51,5,5,0,0,1-.05-1.73,3.37,3.37,0,0,0-2-3.79A3.55,3.55,0,0,1,293.51,81a3.1,3.1,0,0,0-2.12-1.32c-1.25-.21-2.27-1-3.57-1-.61,0-.94-.35-.47-1s.14-1-.31-1.24c-1-.64-1.73-1.67-2.71-2.38a.21.21,0,0,1,.06-.31c.73-.07,1.15.43,1.6.86a32.31,32.31,0,0,0,4.1,3.27,1.86,1.86,0,0,0,.71.37c.67.09,1.54.29,1.78-.47s-.67-.89-1.2-1.18-1.75,0-1.55-1.29c.68-.25,1.32.08,2,.14,1.76.32,2,.08,1.43-1.52-.27-.75-.36-1.54.55-1.78s1.18.6,1.33,1.3a12.73,12.73,0,0,0,.51,2.48c.66-1,.47-2.13,1.13-3,.67.19.38.75.35,1.12-.3,3.44.54,6.73,1.2,10.07.46,2.3.43,4.71.66,7.07a2.24,2.24,0,0,0,.93,2c1,.66,1.1,1.37.43,2.37a7.59,7.59,0,0,1-1.23,1.24,2.78,2.78,0,0,0-.19,4.09,1.2,1.2,0,0,1,.05,1.69,4.76,4.76,0,0,1-2,1.51,29,29,0,0,1-5.49,1.77,24.19,24.19,0,0,0-4.79,1.72,8.77,8.77,0,0,1-3.13,1.16,1.5,1.5,0,0,0-1.09.71c-1.45,2-3.65,3-5.74,4.1-1.05.56-1.59.18-2.1-1.06a10.78,10.78,0,0,1,.15-2.41c0-.31,0-.68-.36-.81s-.57.17-.75.43a7.42,7.42,0,0,0-1.07,2.6,11.85,11.85,0,0,1-3.77,7.1,3.67,3.67,0,0,0-1.15,2.37,1.87,1.87,0,0,1-1.7,1.79,1.37,1.37,0,0,0-1.23,1.23c-.1.48-.19,1-.76,1.19-.55-.21-1.31.48-1.71-.4h0c.47-1.09.95-2.19,1.33-3.32l1.68-3.62c.36-1.13.85-2.22,1.31-3.31h0a27.15,27.15,0,0,1,1.47-3.25,100.89,100.89,0,0,1,4.43-10.25c.75.29,1.5,1.32,2.27-.07.19-.35.66-.14.71.35a6.12,6.12,0,0,1,0,1.21,16.52,16.52,0,0,0,.57,6.63c.4,1.39.79,1.59,2,.85.72-.43,1.5-.76,2.25-1.13.78-1.32,2.18-1.78,3.39-2.53a19.65,19.65,0,0,1,6.79-2.76C292.09,104.05,293.3,102.82,294.85,102.36Z"/><path class="cls-1" d="M330.47,57.34h.09a.43.43,0,0,1,.26.48,3,3,0,0,1-1.66,1.68,10.8,10.8,0,0,0-2.51,1.76A35.12,35.12,0,0,0,319,70a13.15,13.15,0,0,0-1.87,2.78,2.89,2.89,0,0,0,0,2.34,3.75,3.75,0,0,1,.24,1.85c0,.86.31,1.22,1.14.75s2-.65,3-1.21a2,2,0,0,1,2.51.26,4,4,0,0,0,3,1A2.51,2.51,0,0,1,329.48,79c.33.56.73.56,1.23.2a1.18,1.18,0,0,1,1.94.33c.38.65.65.4,1,0s.66-.83,1.09-.68c1.09.36,1-.39,1.17-1,.36-1.36.11-2.91,1.21-4.05.52-.13.39.42.62.59h0a7.93,7.93,0,0,1,.76,2.21c-1.25,2.87-.86,6-1.43,9-.39,2-.71,2.07-2.68,2.69-2.74.87-5.23-.18-7.81-.49a4.37,4.37,0,0,1-2.37-1.47A8.72,8.72,0,0,0,320,84.14a1.62,1.62,0,0,0-1.51.31,1.63,1.63,0,0,1-1.22.48c-1.12-.91-1.05-2.38-1.67-3.53a55.35,55.35,0,0,1-1.92-5.61,2.08,2.08,0,0,1,.32-1.28,51.86,51.86,0,0,1,7.46-10.33,40.33,40.33,0,0,1,7.9-6.65C329.72,57.33,330,57,330.47,57.34Z"/><path class="cls-1" d="M41.49,44.21l.26.22a57.56,57.56,0,0,0,1.85,5.71c.81,2.54,1.65,5.08,2.48,7.61a9.35,9.35,0,0,1,.57,2.07A2.32,2.32,0,0,1,44,59.1c-1.82-1.88-4.37-2.6-6.33-4.26-1.2-1-2.92-1.29-4.2-2.35A4.28,4.28,0,0,1,31.7,48.9c0-2.27.45-4.56-.07-6.83a.7.7,0,0,1,.33-.82,20.8,20.8,0,0,1,5.46,0c.31,0,.61.12.92.13,2.17.07,2.17.07,2.89,2.12A3.41,3.41,0,0,0,41.49,44.21Z"/><path class="cls-1" d="M76.67,90.77l-1.2,3.9A6.45,6.45,0,0,1,75,96a.58.58,0,0,1-.87-.37c-.37-1.52-1.58-2.7-1.73-4.38-.47.32-.55,1.13-1.3,1a1.84,1.84,0,0,1-.91-1.12,2.68,2.68,0,0,0-1.73-1.87,1.85,1.85,0,0,1-1-2c.26-2.94-1-5.72-.79-8.65A2.69,2.69,0,0,0,66,77a1.85,1.85,0,0,1,.15-2.37c.69-.69,1.47-.26,2.06.21a37.17,37.17,0,0,0,4.37,2.85c2.31,1.4,4.06,3.54,6.53,4.67a.82.82,0,0,1,.23.35c-.1.76-.48,1.43-.65,2.17C78,86.84,77.54,88.88,76.67,90.77Z"/><path class="cls-1" d="M311.29,41.5c-.7,1.51-2.33,2-3.43,3.08-.79.76-1.65,1.44-2.41,2.26A91.23,91.23,0,0,0,299.74,54a14.47,14.47,0,0,0-1.11,2.27c-.2.37-.26,1-.8,1s-.63-.64-.81-1.09c-.66-1.64-1.32-3.29-2-4.92a7.93,7.93,0,0,0-.7-1.14l.42-1.61a40.47,40.47,0,0,0,1.77-3.84l.29-.68c.3-.6.44-1.26.78-1.84.22-.39.39-.83,1-.79H310C310.43,41.33,310.9,41.17,311.29,41.5Z"/><path class="cls-1" d="M328,51.14c-.3-.25-.4-.68-.86-.8-2.63-.69-5.18-1.73-8-1.61-1.56.06-3.1.28-4.67.32s-2.27-.29-2.31-1.72c-.05-2-.29-3.95.51-5.84a3.46,3.46,0,0,1,1.83-.16c2.81,0,5.63,0,8.45,0,.47,0,1-.15,1.32.4v0c.45,1.13.95,2.24,1.34,3.39A31.34,31.34,0,0,1,328,51.14Z"/><path class="cls-1" d="M335.28,111.52a12.68,12.68,0,0,1,2.36-8.29,1.81,1.81,0,0,1,1.92-.86,11,11,0,0,0,7.21-1.67c.47-.29.9-.6,1.46-.23.76.47.72,1.35,1.07,2l1.33,2.94c.58,1.61,1.23,3.18,1.9,4.74v0c.17.74.88,1.33.62,2.19a6.5,6.5,0,0,1-7.79-2.87,7.13,7.13,0,0,0-5.07-4.33,1.71,1.71,0,0,0-2,.66,10,10,0,0,0-2.48,5.12C335.81,111.21,335.74,111.58,335.28,111.52Z"/><path class="cls-1" d="M287.32,66.1l1.47-3.62a15.45,15.45,0,0,0,1.49-3.38l1.47-3.63c.81-.88.76-2.21,1.6-3.08.94,0,1.1.7,1.21,1.33.38,2.17.65,4.35.86,6.53a2.48,2.48,0,0,1-.87,2.17,12,12,0,0,0-.89,1,3.17,3.17,0,0,0-.61,3.8,5.08,5.08,0,0,1-.19,3.81c-.5,1.57-2.05,1.85-3.3.72s-1.48-1.06-2.63,0a1.4,1.4,0,0,1-1.73.24c-.36-1,.61-1.68.77-2.56h0C286.44,68.37,286.92,67.26,287.32,66.1Z"/><path class="cls-1" d="M79.21,82.66a11,11,0,0,1-4.8-3.56,1,1,0,0,0-.93-.46,1,1,0,0,1-.86-.3c-1.24-1.55-3.25-2-4.7-3.28-.42-.36-1-.78-1.56-.2a1.37,1.37,0,0,0-.19,1.75c1.31,1.26.78,2.83.92,4.27a46.71,46.71,0,0,1,.63,6.79c0,.64.29,1.56,1.42,1.31.54-.11.63.41.81.75a12.15,12.15,0,0,0,1.2,2.39.49.49,0,0,1-.6.16,2.15,2.15,0,0,0-2.24-.13c-.13.07-.29-.16-.39-.3-.25-2.48-1-4.9-.82-7.42,0-.74.11-1.76-.73-1.93-1-.19-1.34.83-1.59,1.65-.54,1.75-.72,1.84-2,.54-.71-.74-1.68-.78-2.5-1.21-.18-1,.54-1.85.6-2.83l.4-1.46c.91-2,1.4-4.14,2.16-6.19a3.73,3.73,0,0,1,.5-1.2,1,1,0,0,1,1,.13,81,81,0,0,1,7.69,5.14c2,1.41,4.06,2.89,6,4.41C79.06,81.76,79.61,82,79.21,82.66Z"/><path class="cls-1" d="M222.63,126.08c-1.71,0-3.42,0-5.12.07-1.16.08-1.4-.35-1.4-1.44,0-10.14,0-20.28.06-30.43s0-20.47.07-30.7c0-1.13-.3-1.41-1.42-1.4-6.77.06-13.55,0-20.33.06-1,0-1.28-.26-1.27-1.27q.08-9.28,0-18.57c0-.92.2-1.24,1.18-1.24q34.55,0,69.08,0c1,0,1.2.28,1.19,1.21,0,6.23-.05,12.47,0,18.71,0,1.2-.6,1.14-1.4,1.14H241.76c-.23.06-.31,0-.26-.25a2.12,2.12,0,0,1,1.76-.46c4.08,0,8.15,0,12.23,0,2.24-.06,4.49,0,6.74,0,1.59,0,1.72-.12,1.73-1.66q0-8.15,0-16.3c0-1.53-.13-1.64-1.74-1.65-5.75,0-11.5,0-17.25,0-6.78.06-13.56.08-20.34,0a20.61,20.61,0,0,1-2.08,0c-3.57.06-7.13.06-10.7,0-5.33.08-10.66,0-16,0C194,41.9,194,42,194,43.74c0,3.72,0,7.44,0,11.15.06,1.66,0,3.32,0,5,0,1.49.13,1.62,1.61,1.63,4.8,0,9.6,0,14.4,0,1.59,0,3.18-.07,4.76,0a2.83,2.83,0,0,1,1.78.37,2.16,2.16,0,0,1,.3,1.42c0,8,.09,16.11,0,24.16,0,2.26,0,4.51,0,6.76,0,1.7,0,3.4,0,5.1a17.5,17.5,0,0,0,0,2.29c0,2.21,0,4.43,0,6.65,0,1.7.05,3.4,0,5.1.05,3.39,0,6.78,0,10.18,0,1.73.11,1.81,1.81,1.84a31.22,31.22,0,0,1,3.35.08,1.25,1.25,0,0,1,.45.18A.44.44,0,0,1,222.63,126.08Z"/><path class="cls-1" d="M125.34,104.78q0-22.69,0-45.38c0-5.66,0-11.32,0-17,0-.83.06-1.28,1.14-1.27q28.68,0,57.38,0c1.84,0,1.84,0,1.84,1.87,0,5.39-.05,10.78,0,16.16,0,1.16-.33,1.41-1.43,1.41-10.91,0-21.82,0-32.73-.06-1.22,0-1.49.32-1.46,1.5q.12,5.25,0,10.5c0,1,.29,1.26,1.27,1.26q15.09-.06,30.17,0c.68,0,1.42-.25,2,.24a1.07,1.07,0,0,1-.44.31,3.63,3.63,0,0,1-1.19.14c-6.12,0-12.25,0-18.37,0-3.75-.06-7.5.06-11.25,0-2.85,0-3-.2-2.9-3.07,0-2.7-.06-5.41,0-8.11.11-1.1-.44-2.33.66-3.23a2.73,2.73,0,0,1,1.06-.15c5.92,0,11.84-.12,17.76,0h14.76c1,0,1.31-.48,1.31-1.41,0-2.68-.05-5.37,0-8-.05-2.27,0-4.53,0-6.8,0-.56.12-1.17-.32-1.65-2.73-.27-5.46,0-8.19-.12-3,0-6.08.06-9.12,0-4.11,0-8.23.07-12.34,0-2.22,0-4.44.06-6.67,0-1,0-2,0-3,0l-.72,0c-.79,0-1.58,0-2.38,0-.48,0-1,0-1.45,0-1.24,0-2.48,0-3.72,0-3.18,0-6.36,0-9.54,0-1.44,0-1.54.12-1.58,1.51s-.09,3.05,0,4.57c.08,4.64-.08,9.29,0,13.93.11,2.88-.1,5.76,0,8.63.07,2.44,0,4.88,0,7.31.07,4.56.06,9.11,0,13.67,0,1.63,0,3.27,0,4.9.06,2.27,0,4.53,0,6.79a2.93,2.93,0,0,1-.24,1.43A.31.31,0,0,1,125.34,104.78Z"/><path class="cls-1" d="M183.25,74.07l.35,0a13.24,13.24,0,0,1,.15,3.61c0,4.57-.08,9.14-.06,13.71,0,1.09-.58,1.08-1.36,1.08-9.84,0-19.67,0-29.5,0-2.72,0-2.71,0-2.71,2.66,0,3.41,0,6.82,0,10.23,0,1,.23,1.36,1.32,1.35,11.54,0,23.08,0,34.62-.05,1.33,0,1.65.36,1.63,1.64-.08,5.52-.08,11,0,16.57,0,1.06-.24,1.36-1.32,1.35-13.56,0-27.12,0-40.69,0H126.51c-.72,0-1.28,0-1.27-1,.06-6.78.07-13.56.1-20.34h.2c.87,1.17.33,2.52.46,3.78,0,2.49,0,5,0,7.47,0,1.11,0,2.21,0,3.31.06,1.68,0,3.37,0,5,.11,1,.86,1,1.59,1,3.65,0,7.3,0,11,0a7.23,7.23,0,0,1,.93,0c.72,0,1.44,0,2.17,0,.32,0,.64,0,1,0a8.19,8.19,0,0,0,1,0c4.33,0,8.66,0,13,0s8.93,0,13.4,0c5.16,0,10.31,0,15.47,0,1,0,1.47-.43,1.42-1.45a10.8,10.8,0,0,1,0-1.61c0-2,0-3.93,0-5.89,0-1.34,0-2.67,0-4,0-1,0-1.94,0-2.91,0-.32,0-.63,0-1,0-.16,0-.32,0-.47-.34-.93-1.17-.72-1.84-.72-4.35,0-8.71,0-13.06,0a9.77,9.77,0,0,1-1.21,0q-9.08.06-18.13,0c-.45,0-.89,0-1.34,0-1.52-.08-1.92-.45-1.88-2,.07-2.42,0-4.83,0-7.25,0-1.13,0-2.27,0-3.4,0-3,.07-3.08,2.95-3.07,3.37,0,6.73-.06,10.1,0,6.09-.08,12.18,0,18.28,0,2.06,0,2.07,0,2.08-2.11,0-3.62-.05-7.25,0-10.88C183,77.15,182.47,75.56,183.25,74.07Z"/><path class="cls-1" d="M82.18,74.73c-.09-.62.08-1,.81-.93.8,1.24.32,2.62.41,3.94,0,.81,0,1.63,0,2.44,0,.41,0,.81,0,1.21,0,1,0,2.11,0,3.16,0,.49,0,1,0,1.49-.26,4.18-.23,8.37-.26,12.56.27,7.81-.27,15.61-.23,23.42,0,.63,0,1.26,0,1.88-.07,1.12.44,1.49,1.52,1.48,3.72,0,7.45-.07,11.18,0,1-.09,2,0,3.07,0,1.79,0,3.58,0,5.38,0,2.64,0,2.51.21,2.52-2.59,0-3.4,0-6.81,0-10.21-.08-4.48,0-8.95,0-13.43-.07-3.6,0-7.2,0-10.8,0-5.22,0-10.43,0-15.65,0-1.39,0-2.77,0-4.15a9.15,9.15,0,0,1,0-1.57c-.26-8.17.28-16.33.25-24.49a2.72,2.72,0,0,1,.12-.8,1.32,1.32,0,0,1,.3-.44c.54,1.1.23,2.27.23,3.4,0,9.73-.06,19.47-.09,29.2q-.06,25.46-.1,50.89c0,1.14-.32,1.41-1.41,1.41q-11.33-.08-22.64,0c-.93,0-1.09-.33-1.08-1.18q.16-12.24.28-24.5t.26-24.75c0-.32,0-.63,0-.95C82.62,73.6,82.35,75,82.18,74.73Z"/><path class="cls-1" d="M79.21,82.66a7,7,0,0,0-2.45-2.3c-1.55-1.1-3.08-2.21-4.63-3.3-1.78-1.25-3.56-2.5-5.38-3.7-.84-.57-1.77-1-2.65-1.51a5.1,5.1,0,0,1,.77-2.69,1,1,0,0,1,1.24.21c.94.84,2,1.45,3,2.26A46.84,46.84,0,0,0,74,74.7c2.19,1.37,4.41,2.7,6.63,4,.25,1.16-.6,2-.83,3-.32.22.2.91-.52.91Z"/><path class="cls-1" d="M80.6,78.71c-1.36-.11-2.36-1-3.46-1.68-1.88-1.11-3.64-2.45-5.58-3.44a45.44,45.44,0,0,1-5.72-4.06,3.45,3.45,0,0,0-.87-.31.47.47,0,0,1-.13-.49c.91-2.66,1.61-5.39,2.76-8a2.58,2.58,0,0,0,1.57-2.69,5.23,5.23,0,0,1,1.71-3.68c.19,1.66-.81,3-1,4.65a56,56,0,0,1-2.07,8A3.61,3.61,0,0,0,69,70.74c1.72,1.61,3.89,2.35,5.86,3.47a33.36,33.36,0,0,1,4.67,3.28c.39.32.71.69,1.28.61A.49.49,0,0,1,80.6,78.71Z"/><path class="cls-1" d="M285.2,71.9c.72,0,1.45.21,1.73-.92.19-.75,2.11-.62,2.66.19s1,1.24,1.84.92a2,2,0,0,0,1.29-1.85,6.3,6.3,0,0,0-.07-3.28,4.12,4.12,0,0,1,1.55-4.72,1.69,1.69,0,0,0,.87-1.66c-.23-2.38-.61-4.75-.95-7.12-.07-.45-.21-.89-.78-1-.21-.09-.24-.23-.1-.41l.79-1.25a18.72,18.72,0,0,1,1.84,6.89c.13,1.46.32,2.93.35,4.4a1.67,1.67,0,0,1-1.45,1.92A2.47,2.47,0,0,0,293,65.44a2.31,2.31,0,0,0,.63,2,1.21,1.21,0,0,1,.22.32,4.24,4.24,0,0,1-.74,4,1.58,1.58,0,0,0,0,2.14,1.11,1.11,0,0,1,.22,1.35,1,1,0,0,1-1.37.42c-.75.13-1.43-.26-2.16-.26a.42.42,0,0,1-.49-.21c-.12-.24-.23-.48,0-.72s.84-.15,1.37-.33a5.84,5.84,0,0,0-2.06-1.57c-.61-.2-1-.11-1.15.61-.83.36-1.1-.68-1.78-.7a1.17,1.17,0,0,1-.5-.27A.25.25,0,0,1,285.2,71.9Z"/><path class="cls-1" d="M46.55,122.59c3.16-.42,6.23.53,9.37.67a7.49,7.49,0,0,1,5.55,2.5.78.78,0,0,1-.62.17c-4.19,0-8.38,0-12.57,0-.66,0-1-.19-1.12-.83l-.53-1.33A1.83,1.83,0,0,1,46.55,122.59Z"/><path class="cls-1" d="M30.43,98.85c.11,8.8.2,17.59.32,26.38,0,.87-.43.91-1.08.91q-11.18,0-22.36,0c-.85,0-1.1-.3-1.06-1.09.11-2.64.06-5.29.13-7.93.12-5,0-10,0-15q0-8.89.07-17.78a.31.31,0,0,1,.42.15c.47,1.59.17,3.21.22,4.81.08,6.33.07,12.65,0,19,.07,5,0,10,0,15.06,0,2,0,2.07,2.12,2.07H28.12c1.83,0,1.91-.07,1.9-1.88a65.84,65.84,0,0,0-.22-8.19c-.1-4.77,0-9.54,0-14.3A4.17,4.17,0,0,1,30,99,.32.32,0,0,1,30.43,98.85Z"/><path class="cls-1" d="M222.63,126.08l0-.25.15-.17a1.4,1.4,0,0,1,.43-.16,7.45,7.45,0,0,1,.95-.08c4.85-.12,9.7,0,14.55,0,2.08,0,2.1,0,2.11-2.1,0-6.24,0-12.48,0-18.72-.06-2,0-4,0-6-.08-2.65,0-5.31,0-8,0-.42,0-.84,0-1.27,0-1.52,0-3,0-4.56,0-3.15,0-6.3,0-9.45-.12-2.67.41-5.33.17-8,.32-1.56,0-3.16.23-4.73a1,1,0,0,1,.26-.4h.3c0,10.46.05,20.91-.1,31.36s-.1,21-.12,31.46c0,.63,0,1.1-.89,1.09C234.64,126.09,228.63,126.09,222.63,126.08Z"/><path class="cls-1" d="M330.47,57.34c-2.61,1.25-4.62,3.28-6.76,5.14a41.11,41.11,0,0,0-7.3,8.81A14.77,14.77,0,0,0,314,75.67c-.91-.37-1-1.06-.74-1.87,1.2-.59,1.7-1.75,2.34-2.8a61.15,61.15,0,0,1,6.19-8c2.4-2.79,5.64-4.48,8.14-7.07A1.09,1.09,0,0,1,330.47,57.34Z"/><path class="cls-1" d="M70.88,54.39c-.51,1.48-1.53,2.74-1.44,4.48,0,.88-.24,2.17-1.77,2a.92.92,0,0,1,0-1c-.08-.55.41-.94.42-1.46A21.85,21.85,0,0,0,69,56h0c.74-2.59,1.79-5.07,2.43-7.69a19.72,19.72,0,0,1,1.67-4.71A8.29,8.29,0,0,1,73.54,42c.2-.58.56-.87,1.19-.54a7.64,7.64,0,0,1-.89,3.5s-.09.06-.09.1a23.83,23.83,0,0,1-2.54,7.73,1.52,1.52,0,0,0,0,.53.15.15,0,0,1,0,.18q0,.09-.06.09C70.84,53.78,70.9,54.1,70.88,54.39Z"/><path class="cls-1" d="M47.16,125.12a1.22,1.22,0,0,0,1.16.7c4.38,0,8.77,0,13.15-.06,3.42.12,3.43.13,4.47-3S68,116.37,69,113.19a7.12,7.12,0,0,1,1.29-3.83,1.11,1.11,0,0,0,.25-.81,2.28,2.28,0,0,1,.2-1.43c1-2.84,1.86-5.69,2.85-8.52.18-.54.27-1.16.9-1.42l.19.1c-1.41,4.29-2.8,8.59-4.22,12.88-1.65,5-3.34,9.92-4.95,14.9A1.32,1.32,0,0,1,64,126.15q-7.89,0-15.76,0C47.56,126.13,47,126.07,47.16,125.12Z"/><path class="cls-1" d="M6.71,84.29H6.49q0-16.45,0-32.9c0-3,0-6.09,0-9.13,0-.71.13-1.17,1-1.12,1.28.08,2.58,0,3.87,0,.24,0,.55-.08.62.31-1,.7-2.17.32-3.26.39C7.32,42,7.17,42,7.17,43.44c0,4.64-.12,9.29,0,13.93,0,3.46.06,6.92,0,10.37,0,.35,0,.7,0,1.05.08,4.49,0,9,0,13.47C7.17,83,7.3,83.72,6.71,84.29Z"/><path class="cls-1" d="M295.4,110.39q14.66,0,29.32.07c.49,0,1.22-.39,1.46.49-6-.34-12,0-17.93-.1q-6,0-12.06-.08a5,5,0,0,0-1.59.23.46.46,0,0,1-.11-.4C294.71,110.18,295,110.19,295.4,110.39Z"/><path class="cls-1" d="M74.64,41.5c-.6-.17-.85.17-1,.67s-.35,1-.53,1.44c.06-2.14.34-2.43,2.3-2.43h30.27c.53,0,1.07,0,1.61.06,0,.1,0,.2,0,.3a2.12,2.12,0,0,1-1.4.33c-2.31,0-4.63,0-6.94,0h-.74c-.56,0-1.13,0-1.7,0l-.75,0c-6.55.09-13.1,0-19.64,0A2.16,2.16,0,0,1,74.64,41.5Z"/><path class="cls-1" d="M262.25,125.53c.58.51,1.25.2,1.89.23,1-.63,2.13-.3,3.21-.35.84,0,1.68,0,2.53,0,5.39-.06,10.79-.07,16.18,0,2.31,0,2.29,0,3.11-2.14a7.74,7.74,0,0,1,1.34-2.86.29.29,0,0,1,.37.06c-.61,1.67-1.25,3.34-1.83,5-.3.87-1,.62-1.56.62H267.88c-1.7,0-3.4,0-5.1,0C262.53,126.1,261.65,126.41,262.25,125.53Z"/><path class="cls-1" d="M39.53,100.77c1.79,0,2,.13,1.4,1.79-.23.7-.26,1.17.5,1.53a1.85,1.85,0,0,1,1.12,2.21c-.29,1.1-.17,2.24-.45,3.33a1.16,1.16,0,0,1-.32-.93c-.57-2.35-1.51-4.57-2.17-6.88h0A1.49,1.49,0,0,1,39.53,100.77Z"/><path class="cls-1" d="M30.43,98.85h-.21c-.55-.53-.4-1.21-.42-1.86,0-.33,0-.67,0-1-.07-3.45,0-6.9,0-10.35.07-2.4,0-4.81,0-7.21,0-1.56.27-3.08.36-4.63,1.17.15.84,1.18,1.1,1.87H31.1l-.45-1.1h-.22Z"/><path class="cls-1" d="M324.24,41.73a1.85,1.85,0,0,0-1-.28l-10.59,0h-1.35l-13.19,0a.22.22,0,0,1-.35,0c.35-.42.83-.25,1.25-.25q12,0,24,0C323.44,41.2,324.14,40.83,324.24,41.73Z"/><path class="cls-1" d="M67.64,59.9l0,1A81.42,81.42,0,0,0,65,69.22a10,10,0,0,0-.87,2.63C63.4,73.9,62.71,76,62,78c-.15.42-.07,1-.68,1.19C63.36,72.74,65.34,66.27,67.64,59.9Z"/><path class="cls-1" d="M52.83,77.83h-.28a3.2,3.2,0,0,1-.87-1.64c-1-2.84-1.86-5.71-2.9-8.52-.47-1.86-1.18-3.63-1.75-5.46a3.21,3.21,0,0,1-.32-1.67.41.41,0,0,1,.27-.3C49.06,66.07,51.12,71.89,52.83,77.83Z"/><path class="cls-1" d="M71.42,48.32A34.05,34.05,0,0,1,69,56,44,44,0,0,1,71.42,48.32Z"/><path class="cls-1" d="M42.17,110.17c.08,0,.22,0,.24.07a46.73,46.73,0,0,1,2.33,7.49A59.55,59.55,0,0,1,42.17,110.17Z"/><path class="cls-1" d="M282.19,78.37a36.07,36.07,0,0,1-2.11,5.39l-.51,1.35c.06.12.05.21-.07.27h-.41A48.29,48.29,0,0,1,282.19,78.37Z"/><path class="cls-1" d="M346.87,96.56A52.83,52.83,0,0,1,344,90c.09,0,.23,0,.25,0A33,33,0,0,1,346.87,96.56Z"/><path class="cls-1" d="M39.61,101.82a27.55,27.55,0,0,1,2.17,6.88A37.13,37.13,0,0,1,39.61,101.82Z"/><path class="cls-1" d="M32.6,80a27.78,27.78,0,0,1,2.18,6.89A34.5,34.5,0,0,1,32.6,80Z"/><path class="cls-1" d="M60.91,80.65c.16,1-.53,1.86-.6,2.83-.51,1.37-1,2.75-1.52,4.12a.23.23,0,0,1,0-.38A49.05,49.05,0,0,1,60.91,80.65Z"/><path class="cls-1" d="M294.56,110.61c0,.13,0,.26,0,.39-.77,2-1.42,4-2.38,6l-.17-.12a1.24,1.24,0,0,1,0-1c.54-1.47,1.13-2.92,1.7-4.38C293.89,111,294.08,110.66,294.56,110.61Z"/><path class="cls-1" d="M46.55,122.59l.08,1.2a27.51,27.51,0,0,1-1.9-6.08c.56.62.56,1.47.9,2.17.08.17.16.35.23.53.27.31.55.62.31,1.08Z"/><path class="cls-1" d="M37.15,93.27c0,.37,0,.74,0,1.11a51.41,51.41,0,0,1-2-6c.87.84.85,2.06,1.28,3.09C36.7,92,36.92,92.66,37.15,93.27Z"/><path class="cls-1" d="M76.67,90.77a46.44,46.44,0,0,1,2-6,.28.28,0,0,1,0,.39C78.15,87.1,77.83,89.09,76.67,90.77Z"/><path class="cls-1" d="M284.39,73.8a.32.32,0,0,0-.06.23c-.93,1.35-1.12,3.06-2.15,4.35a22.57,22.57,0,0,1,2.11-5.17l.14.1A.42.42,0,0,1,284.39,73.8Z"/><path class="cls-1" d="M278.42,87.13a13.31,13.31,0,0,1-2.3,5.27A37.36,37.36,0,0,1,278.42,87.13Z"/><path class="cls-1" d="M349.3,102.5c-.36-.68-.71-1.36-1.07-2,0-1-1.13-1.68-.81-2.78A14.89,14.89,0,0,1,349.3,102.5Z"/><path class="cls-1" d="M330.64,57.91c0-.19-.05-.38-.08-.57,1.22,1.27,1.47,3,2.09,4.54l-.16.12c-.66-.22-.73-.86-1-1.37C331.24,59.72,330.59,58.92,330.64,57.91Z"/><path class="cls-1" d="M352.53,110.18a13.24,13.24,0,0,1-1.9-4.74A17.06,17.06,0,0,1,352.53,110.18Z"/><path class="cls-1" d="M338.28,76.42c0-.74-.69-1.32-.58-2.1a17.51,17.51,0,0,1,2,4.53l-.16.12C338.47,78.42,338.47,77.38,338.28,76.42Z"/><path class="cls-1" d="M334,65.13a21.78,21.78,0,0,1,1.89,4.58l-.17.1c-1.25-1.19-1.58-2.79-2-4.37A.61.61,0,0,1,334,65.13Z"/><path class="cls-1" d="M337.72,74.33c-.36,0-.27-.46-.54-.57-.9-.88-1-2.14-1.55-3.21a.77.77,0,0,1,.15-.77l.09-.07A18.46,18.46,0,0,1,337.72,74.33Z"/><path class="cls-1" d="M354,113.36a25.36,25.36,0,0,1,1.86,4.59l-.17.09a8.07,8.07,0,0,1-1.95-4.39A.47.47,0,0,1,354,113.36Z"/><path class="cls-1" d="M39.53,100.77l.08,1.06a25.64,25.64,0,0,1-1.54-4.33c.07-.12.14-.12.22,0Z"/><path class="cls-1" d="M31.1,75.67h.16A13.79,13.79,0,0,1,32.61,80,18.54,18.54,0,0,1,31.1,75.67Z"/><path class="cls-1" d="M326.51,112.05a9.93,9.93,0,0,1,1.77,4.33A19.42,19.42,0,0,1,326.51,112.05Z"/><path class="cls-1" d="M285.2,71.9l-.12.26a1,1,0,0,1-.66,1.15l-.13-.1A11.63,11.63,0,0,1,286,69.48C286,70.38,285.28,71,285.2,71.9Z"/><path class="cls-1" d="M296.5,44.63a8.41,8.41,0,0,1-1.77,3.84A13.4,13.4,0,0,1,296.5,44.63Z"/><path class="cls-1" d="M355.81,118a12.44,12.44,0,0,1,1.38,3.2.93.93,0,0,0-.14.14.49.49,0,0,1-.39-.08c-.59-1-1.27-1.92-1-3.17Z"/><path class="cls-1" d="M342.35,85.64c-.34,0-.33-.31-.41-.52a4,4,0,0,1-1.18-2.75.46.46,0,0,1,.25-.28A10.07,10.07,0,0,1,342.35,85.64Z"/><path class="cls-1" d="M292.22,117a14.37,14.37,0,0,1-1.34,3.51l-.14-.11a3.67,3.67,0,0,1,1.35-3.5Z"/><path class="cls-1" d="M353.15,112.3c-.08-.75-.71-1.34-.63-2.14a9.42,9.42,0,0,1,1.43,3.2.91.91,0,0,0-.16.11A1,1,0,0,1,353.15,112.3Z"/><path class="cls-1" d="M268,112.05a10.6,10.6,0,0,1-1.47,3.25A6.06,6.06,0,0,1,268,112.05Z"/><path class="cls-1" d="M287.32,66.1A7.31,7.31,0,0,1,286,69.49,9.1,9.1,0,0,1,287.32,66.1Z"/><path class="cls-1" d="M266.56,115.29a9.8,9.8,0,0,1-1.31,3.31A6.33,6.33,0,0,1,266.56,115.29Z"/><path class="cls-1" d="M332.65,61.88A12,12,0,0,1,334,65.13l-.08.06A3.08,3.08,0,0,1,332.53,62Z"/><path class="cls-1" d="M325.57,45.1a9.41,9.41,0,0,1-1.34-3.39A7.07,7.07,0,0,1,325.57,45.1Z"/><path class="cls-1" d="M57.94,90c.05.36.07.73-.41.82s-.63-.15-.73-.55a4.71,4.71,0,0,1-.48-2A3.29,3.29,0,0,1,57,89.89C57.33,90.88,57.63,90.18,57.94,90Z"/><path class="cls-1" d="M274.6,96.09a7.56,7.56,0,0,1-1.29,3.33A8.86,8.86,0,0,1,274.6,96.09Z"/><path class="cls-1" d="M263.57,122.22a6.81,6.81,0,0,1-1.33,3.32A9.13,9.13,0,0,1,263.57,122.22Z"/><path class="cls-1" d="M290.28,59.1a5.92,5.92,0,0,1-1.49,3.38A15,15,0,0,1,290.28,59.1Z"/><path class="cls-1" d="M293.24,52.09c0,.14.07.27.1.41-.62.94-.57,2.24-1.59,3A16.17,16.17,0,0,1,293.24,52.09Z"/><path class="cls-1" d="M53.45,80.5c-.1-.92-.74-1.71-.62-2.68A9.92,9.92,0,0,1,54,81.29C53.54,81.19,53.7,80.71,53.45,80.5Z"/><path class="cls-1" d="M339.66,78.85A12.77,12.77,0,0,1,341,82.09l-.13.1A3.21,3.21,0,0,1,339.53,79Z"/><path class="cls-1" d="M78.74,85.2l0-.39.56-2.15.52-.91A8.74,8.74,0,0,1,78.74,85.2Z"/><path class="cls-1" d="M328.27,116.36a6,6,0,0,1,1.08,3A5.74,5.74,0,0,1,328.27,116.36Z"/><path class="cls-1" d="M297.75,41.43l.35,0c-.56.76-.6,1.79-1.31,2.47A5.33,5.33,0,0,1,297.75,41.43Z"/><path class="cls-1" d="M58.74,87.22c0,.13,0,.25,0,.38A5.29,5.29,0,0,1,57.94,90,6.44,6.44,0,0,1,58.74,87.22Z"/><path class="cls-1" d="M69,56a3.66,3.66,0,0,1-.93,2.44A5.82,5.82,0,0,1,69,56Z"/><path class="cls-1" d="M46.54,59.78c-.12-.68-.56-1.29-.46-2a6.43,6.43,0,0,1,.9,2.5l-.13.1C46.5,60.3,46.43,60.09,46.54,59.78Z"/><path class="cls-1" d="M38.29,97.5h-.22A7.48,7.48,0,0,1,37.44,95,6.56,6.56,0,0,1,38.29,97.5Z"/><path class="cls-1" d="M74.87,95.9l.6-1.23a5.72,5.72,0,0,1-.76,2.61l-.14-.11A.87.87,0,0,1,74.87,95.9Z"/><path class="cls-1" d="M329.34,119.33a3.22,3.22,0,0,1,.82,2.17A3.2,3.2,0,0,1,329.34,119.33Z"/><path class="cls-1" d="M46.54,59.78c.1.19.2.38.31.57.61,1.9,1.23,3.8,1.82,5.71A3.43,3.43,0,0,1,49,67.6a4.54,4.54,0,0,0,.19,3.82A1.94,1.94,0,0,1,48,74.34h-1.6A2.91,2.91,0,0,0,43.16,77c-.13.88-.49,1.14-1.29,1.11s-1.89.07-2.81,0c-1.18-.11-2.48-.16-2.7-1.79,0-.34-.36-.47-.6-.67a18.92,18.92,0,0,1-2.43-2.47c-.71-.86-1.14-2.1-2.56-2.18-.53,0-.52-.67-.85-1-.86-.88-.52-2-.64-3-.07-.66-.08-1.44-1.05-.67-1.38.77-2.17.33-2.55-1.4.58-1.6.91-1.81,2.44-1.32.88.29,1.06-.2,1.11-.84a21.47,21.47,0,0,0,0-3.76c-.18-1.95.84-3.63,1-5.52.26-3.43.23-3.58-2.84-5.69a30.67,30.67,0,0,0-5.61-3.1c.38-1.49.85-2.91,2.65-3.25,2.09-.24,4.2.07,6.29-.3a1,1,0,0,1,1.08.39,15.57,15.57,0,0,1,.28,6.08c-.39,3.78.78,4.48,4.26,6.17a7.27,7.27,0,0,1,2.53,1.64,2.14,2.14,0,0,0,1.12.68,7,7,0,0,1,3.15,2A5.53,5.53,0,0,0,46.54,59.78Z"/><path class="cls-1" d="M21.79,44.67A6.49,6.49,0,0,1,25.24,46c1.22,1,2.62,1.68,3.91,2.54,1.87,1.26,1.72,2.9,1.47,4.62-.44,3.05-1.35,6.05-1,9.19a2.29,2.29,0,0,1-.3,1.55c-.26.39-.65.65-1,.3-1.29-1.28-1.9-.43-2.46.71-.43-1.18-.3-1.5.78-1.92a1.7,1.7,0,0,0,.65-2.68c-.41-.5-.69-.25-.89.18s-.21,1.14-.41,1.69c-.32.89-.83,1.48-1.89,1.33-1.47-.21-2.32.66-2.22,2.22,0,.5.45,1.22-.29,1.38s-.82-.64-1-1.18a9.85,9.85,0,0,1-.53-2.22,2.47,2.47,0,0,0-1.2-2c-1.05-.68-1.67-1.86-2.83-2.42a.94.94,0,0,1-.44-.81c0-1.16-.84-1.56-1.75-1.94-.58-.24-1-.26-1.4.29a1.36,1.36,0,0,1-1.49.67c-.7-.19-.76-.81-.85-1.39-.27-1.78-1.52-3-2.6-4.61a32,32,0,0,0-.18,4.36c0,.53.22,1.2-.56,1.46,0-5,0-9.94,0-14.92,0-.81.33-1,1-.95,1.39,0,2.78,0,4.17,0,.16.73.67,1,1.35,1.1A9.23,9.23,0,0,0,18.6,42a19.15,19.15,0,0,1-.7,4.91c-.16.67-1.09,1-1.75,1.39a8.14,8.14,0,0,0-2.72,2.23,4.21,4.21,0,0,0,3-1c.2.74-.23,1.19-.38,1.71s-.87,1.06-.09,1.52,1.52,1,2.29.07c.46-.53.87-1,1.21.24C20.34,50.12,20.55,47.25,21.79,44.67Z"/><path class="cls-1" d="M29.12,41.14l8.59,0c.18,0,.35,0,.53,0,2.73.1,2.85.21,3.25,3.05a3.49,3.49,0,0,1-.28-.43c-1-2.31-1-2.32-3.54-2.31-2,0-3.91,0-5.86,0l-7.37-.09C26,40.83,27.57,41.38,29.12,41.14Z"/><path class="cls-1" d="M358.4,125c.64,1.19-.41.77-.8.77-4.75,0-9.5,0-14.25,0l-8.34,0a2.79,2.79,0,0,1,2.39-2.45,34,34,0,0,1,7.48-1.4,22,22,0,0,1,7.18.7,5.14,5.14,0,0,0,1.85.31A4.81,4.81,0,0,1,358.4,125Z"/><path class="cls-1" d="M356.83,121.25l.22,0c.19.61.39,1.22.58,1.83-1.2.61-2.34-.05-3.47-.26-2.49-.48-4.91-1.35-7.51-1.28a32.42,32.42,0,0,0-7.65,1.24c-2,.56-4.07,1-5.76,2.42a1.4,1.4,0,0,1-1.37.31l-.63-1.9a3.11,3.11,0,0,0,1.61-.55,1.51,1.51,0,0,1,1.12-.37,3.89,3.89,0,0,0,2.13-1,10.72,10.72,0,0,1,6.37-2.52c2.07,0,4.09-.42,6.14-.61C351.8,118.32,354.34,119.6,356.83,121.25Z"/><path class="cls-1" d="M331.87,125.55a5.06,5.06,0,0,0,1-.45c3.23-2.39,7.08-2.9,10.86-3.63s7.52.14,11.16,1.29a7.61,7.61,0,0,0,2.77.36l.78,1.89c-.14,0-.34,0-.4-.05-1.86-2.51-4.87-1.42-7.27-2.23s-5.2-.44-7.85-.25c-1.72.13-3.22,1-5,1-1.33,0-2.2,1.17-2.92,2.26C334,125.73,332.89,126,331.87,125.55Z"/><path class="cls-1" d="M274.91,112.33c.18,1.24,1,1.37,1.83.8,1.95-1.28,4.31-2,5.58-4.22a1,1,0,0,1,.64-.45c2.23-.16,3.93-1.67,6-2.31,2.59-.82,5.29-1.27,7.79-2.39a5.5,5.5,0,0,0,1.59-1c.68-.65,1.32-1.28-.06-2-1-.53-.63-3.37.48-4.25a8.7,8.7,0,0,0,1.22-1c.85-1,.74-1.55-.42-2.11a1.59,1.59,0,0,1-.91-1.64c0-2.35-.45-4.67-.59-7a24.67,24.67,0,0,0-1.14-5.88c-.46-1.47-.1-2.81,0-4.21,0-.57.32-1.13-.14-1.64-.9-1.09-2-2.07-2.25-3.54a4.79,4.79,0,0,0-1-1.85h0a.36.36,0,0,1,0-.53,1.66,1.66,0,0,0,2.36.06c.29-.24.63-.67,1.14-.35l0,0A38.2,38.2,0,0,0,297.68,77c.29,1.93.09,3.91.65,5.8.15.5.26,1,.75,1.16s.8-.27,1.12-.55c1.3-1.12,1.95-2.74,3.08-4.08.71,1.27.25,2.68.74,3.9.2.82-.36,1.45-.55,2.17v0c-.5,1.43-1.14,2.82-1.52,4.29-.45.93-1.06,1.81-.73,2.93,1.8.22,3.63-.13,5.43.2a1.08,1.08,0,0,1,.3,1.11,41.21,41.21,0,0,0-.42,7.36c0,1.85-.23,2-2,2.32a56.86,56.86,0,0,1-6.52.78,5.47,5.47,0,0,0-1.53.49c-3.4,1.1-6.89,2-10.06,3.69a3.74,3.74,0,0,1-1.29.35,3.22,3.22,0,0,0-3,3.56c0,1.19-.29,1.51-1.5,1.53a10.73,10.73,0,0,0-5.21,1.54c-1.17.69-1.76,0-1.65-1C273.87,113.65,273.78,112.65,274.91,112.33Z"/><path class="cls-1" d="M310,49.42c-.16,1.33-.28,2.66-.5,4a2.92,2.92,0,0,0,.81,2.83,4,4,0,0,1,1.13,1.94,1.84,1.84,0,0,1-.57,2c-.52.39-1.26,0-1.84-.34s-.53-1-.28-1.63a1.63,1.63,0,0,0,.12-.52c0-.32.37-.72-.12-.95s-.56.18-.78.38-.56.58-.86.85-.43.59-.77.35-.16-.58-.11-.89c0-.13.09-.25.12-.38a9.28,9.28,0,0,1,.22-.91c.16-.42.2-.83-.27-1s-1.28.05-1.61-1c-.39-1.23-.9-.27-1.32.23a1.24,1.24,0,0,1-1.7.2c-.63-.4-.09-.93.15-1.27A12.28,12.28,0,0,0,304,49.54a1.52,1.52,0,0,1,.88-.78,3.33,3.33,0,0,0,2.14-2c.31-.8,1.09-1,1.88-.33A3.22,3.22,0,0,1,310,49.42Z"/><path class="cls-1" d="M297,66.77c-.17-1.7-.36-3.4-.52-5.1-.07-.78.08-1.55,1-1.58s1,.82,1.14,1.53c.6,2.56.46,5.21,1,7.78a5.74,5.74,0,0,1-.2,2c-.19,1.5.33,1.93,1.72,1.43a1,1,0,0,1,1.29.41c.22.31.56.65.31,1.08a1.19,1.19,0,0,1-1.27.56c-1.63-.16-1.89.18-1.79,1.77.08,1.41,0,2.84,0,4.26,0,.34-.11.82-.52.83-.57,0-.46-.52-.54-.9-.48-2.4-.1-4.91-.62-7.25s-.57-4.53-1-6.77Z"/><path class="cls-1" d="M315.69,81.58c-1-3-2.38-5.79-3.06-8.87.42.24.42.73.62,1.09a6,6,0,0,0,.74,1.87l1.9,5.64C316,81.56,315.9,81.6,315.69,81.58Z"/><path class="cls-1" d="M311.84,70.57a10.13,10.13,0,0,1-1.22-3C311.56,68.36,311.59,69.5,311.84,70.57Z"/><path class="cls-1" d="M293.5,67.06v.53a1.75,1.75,0,0,1-.54-2.15Z"/><path class="cls-1" d="M305.1,81.06a3.22,3.22,0,0,1-.82,2.17A3.68,3.68,0,0,1,305.1,81.06Z"/><path class="cls-1" d="M310,68a3.38,3.38,0,0,1-.82,2.31A4.28,4.28,0,0,1,310,68Z"/><path class="cls-1" d="M305.91,78.9a3.42,3.42,0,0,1-.82,2.18A3.56,3.56,0,0,1,305.91,78.9Z"/><path class="cls-1" d="M303.47,85.39c-.11-.8.52-1.41.55-2.17h.27A3.48,3.48,0,0,1,303.47,85.39Z"/><path class="cls-1" d="M306.72,76.75a3.45,3.45,0,0,1-.82,2.17A3.4,3.4,0,0,1,306.72,76.75Z"/><path class="cls-1" d="M307.53,74.59a3.57,3.57,0,0,1-.82,2.17A3.42,3.42,0,0,1,307.53,74.59Z"/><path class="cls-1" d="M308.34,72.44a3.66,3.66,0,0,1-.82,2.17A3.32,3.32,0,0,1,308.34,72.44Z"/><path class="cls-1" d="M312.64,72.72a3.21,3.21,0,0,1-.81-2.17A3.58,3.58,0,0,1,312.64,72.72Z"/><path class="cls-1" d="M309.14,70.28a3.56,3.56,0,0,1-.81,2.17A3.39,3.39,0,0,1,309.14,70.28Z"/><path class="cls-1" d="M74.87,95.9l-.3,1.27-3.69,10.65a6.66,6.66,0,0,1-.31.73c-.38-.22-.79-.39-.77-1,.09-2.26-.65-4.41-.83-6.65a64.59,64.59,0,0,0-1-9.08c1.14-.64,2.18-.15,3.23.27.47-.2.6-.64.77-1.05s.09-.72.51-.64.31.49.34.8A18.13,18.13,0,0,0,74.87,95.9Z"/><path class="cls-1" d="M70.32,109.36A21.3,21.3,0,0,1,69,113.19a30.69,30.69,0,0,1-.61-3.7,1.28,1.28,0,0,0-.65-1.12,1.93,1.93,0,0,1-.89-2.34,6.09,6.09,0,0,0-.12-4c-1.11-2.56-.54-5.16-.74-7.74a1,1,0,0,0-.13-.52c-2.07-3-.56-5.91.1-8.85.05-.26.24-.57.53-.53s.32.48.31.77c-.06,2.33.21,4.65.36,7,.14,2,.58,3.93.81,5.91.37,3.19,1.19,6.33,1.11,9.58C69.1,108.41,70,108.74,70.32,109.36Z"/><path class="cls-1" d="M46.17,121.49c-.1-.36-.21-.72-.31-1.08,2,.07,3.94-.12,5.91.1a2.27,2.27,0,0,0,.91-.18,3.69,3.69,0,0,1,4.7,1.81c.18.32.12.61-.18.61-1,0-2,.44-2.91-.37a3.75,3.75,0,0,0-3.43-1A23.61,23.61,0,0,1,46.17,121.49Z"/><path class="cls-1" d="M356.83,121.25a5.12,5.12,0,0,1-2.66-1,5.88,5.88,0,0,0-3.72-1.18c-3.11-.19-6.16.41-9.2.71A7.88,7.88,0,0,0,336,122.4c-.82,1-2.05.66-3.15.7-.77-.55-.57-1.36-.51-2.09a15.34,15.34,0,0,1,2.14-7.37,6.12,6.12,0,0,0,.8-2.12c.49-1.1.5-2.31,1-3.43a22,22,0,0,1,2.33-3.22c.58-.88,1.73-.06,2.55.21.57.19,1.12.51,1.72.67.43.11.88.22,1.07.72.47,1.26,1.51,2.17,2,3.44.8,2,2.74,2.11,4.49,2.39a16.11,16.11,0,0,0,2.69,0l.64,1.16a30.06,30.06,0,0,0,1.9,4.58Z"/><path class="cls-1" d="M339.53,79a12,12,0,0,0,1.35,3.24c.35,1,.71,2,1.06,2.93-1.21.48-1.81-.31-2.38-1.16-.21-.32-.26-.91-.72-.86s-.7.7-.77,1.13c-.35,2-.69,4-.88,6.08a6.68,6.68,0,0,1-1,3.64,11.35,11.35,0,0,0-1,2.74c-.23.62-.62.68-1.33.7a20.79,20.79,0,0,1-5.28-.36,2.72,2.72,0,0,1-1.81-1,7.1,7.1,0,0,0-7-2.93c-1.47.16-3.08.22-3.9,2-.63,1.38-1.94,2.33-3,3.43-.63.65-1.13.55-1.42-.21a3.45,3.45,0,0,0-2.17-2.46c-.91-.31-.56-1.58-.61-2.45,0-.19,0-.38,0-.57,0-.41.29-.38.54-.36,3.23.29,6.45,0,9.68,0,.9,0,1-.33.69-1-.67-1.8-1.38-3.59-2-5.41-.14-.42-.4-.81-.23-1.28.83-.22,1.19-1.45,2.1-1.25,1.55.34,3.34.58,4.37,1.83,1.82,2.22,4.44,2,6.76,2.69,1.74.54,3.25-.55,4.93-.39.74.08,1-.92,1.08-1.52a32,32,0,0,0,.59-5.15,10.1,10.1,0,0,1,1.15-4.63C338.7,77.26,339.11,78.11,339.53,79Z"/><path class="cls-1" d="M306.72,93c-2-.18-4,.2-5.92-.24,1.24-.45,2.53-.11,3.79-.18,1-.06,2,0,3.07,0,.27,0,.66-.12.68.39a4,4,0,0,0-.56,2.3c0,2.55,0,5.1,0,7.65a2.17,2.17,0,0,1-2.78,2.28c-1.67-.36-3.28.19-4.91.27-.44,0-.88.14-1.32.16s-1.07.13-1.2.48c-.55,1.54-2.08,2.58-2.18,4.33l-.84.22a37.78,37.78,0,0,0-2.47,6.25,15.18,15.18,0,0,0-1.35,3.5,28.93,28.93,0,0,0-1.47,3.69,2,2,0,0,1-2.78,1.72c-1.06-.89-.72-2-.26-2.93a9,9,0,0,0,.86-2.67c.31-2.46,1.3-4.74,1.78-7.17a12.23,12.23,0,0,1,2.81-5.08,11.28,11.28,0,0,1,5.08-3.24,6.27,6.27,0,0,1,2.21-.45c2.06,0,4.1-.43,6.17-.42.94,0,1.45-.53,1.46-1.55,0-2.37,0-4.75.07-7.13C306.69,94.41,307.38,93.68,306.72,93Z"/><path class="cls-1" d="M308.34,92.92c-2.51-.43-5-.13-7.54-.2a7,7,0,0,1,1-3.06c.1-.1.19-.09.28,0-.29.84-.58,1.68-.92,2.63h18.4c-1.29-3.61-2.57-7.17-3.84-10.73l.2-.27c.47,1.18.94,2.35,1.4,3.53.8,2.23,1.55,4.47,2.4,6.67.37,1,.19,1.2-.84,1.22a95.89,95.89,0,0,1-10,0c-.07,0-.15.09-.22.13h-.13Z"/><path class="cls-1" d="M74.64,41.5H96a2.15,2.15,0,0,1-.23,2,27.29,27.29,0,0,0-3.1,6.92c-.29,1.25-1.17,2.38-1.56,3.67a5.45,5.45,0,0,0-1.31,3.75,2.42,2.42,0,0,1-.1.36c-.39.59-.31,1.32-.57,1.95a1.59,1.59,0,0,1-.13.13c-1.12.4-.65,1.52-1.11,2.28a3.34,3.34,0,0,1-.1-2.54c.49-2.25,1.39-4.4,1.24-6.79a2.64,2.64,0,0,0-1.62-2.65,3,3,0,0,1-1.23-.79c-1.24-1.42-2.86-1.54-4.56-1.28a3,3,0,0,1-1.31.15c-1.21-.37-2.38-.79-3.38.47-.17.22-.6.12-.87-.08s-.36-.42-.52-.41c-2.63.18-1.37-1.8-1.63-2.93a3.54,3.54,0,0,1,0-.8C73.53,43.66,74.43,42.66,74.64,41.5Z"/><path class="cls-1" d="M71.15,53.58v-.27A5.16,5.16,0,0,0,73,49.74c0-.26,0-.58.31-.66s.56.26.66.53c.24.67.43,1.36.64,2,.3,1,1.15,1.25,1.6.38,1.06-2,2.83-1.4,4.39-1.36,1.12,0,1.42,1.27,2,2a3.55,3.55,0,0,1,.22,5c-.46.62-.44,1.74-1.39,1.84a7.08,7.08,0,0,1-4-.38,17.48,17.48,0,0,0-3.19-1.41c-.76-.2-.94-.63-.56-1.29a2.55,2.55,0,0,0,.24-2c-.09-.37,0-1-.65-1s-.45.61-.56,1a9.55,9.55,0,0,0-.1,1.2c-.08.54-.39,1-1,.92s-.62-.55-.62-1Z"/><path class="cls-1" d="M83.06,77.83c0-1.34,0-2.69-.07-4,1.47,0,3.51-2.24,3.5-3.91a2.73,2.73,0,0,1,.89-2.25,3.3,3.3,0,0,0,.76-2.75c.53,0,.5.42.62.75a1.54,1.54,0,0,0,.8,1.32,4.48,4.48,0,0,1,1.68,3c.23.93-.44,1.7-1.59,1.91-1,.17-1.51-.23-1.55-1.23a29.34,29.34,0,0,1-.52,8,4.85,4.85,0,0,0,0,1.74,1.7,1.7,0,0,1-.83,2,1.43,1.43,0,0,1-1.61-.24.25.25,0,0,1,0-.24c.38-.42,1.36-.31,1.16-1.23a2.9,2.9,0,0,0-1.68-2.13C84.13,78.26,83.49,78.29,83.06,77.83Z"/><path class="cls-1" d="M88.4,65.71c0-.3,0-.61-.26-.82-.15-1.59.9-3,.81-4.57h0c.28-.69.19-1.48.53-2.15h0a15.23,15.23,0,0,1,1.34-4c1.39-3.63,2.39-7.41,4.58-10.71a6.66,6.66,0,0,0,.55-1.9h.53a4,4,0,0,1-.55,2.66c-.28.61-.53,1.23-.84,1.83-2,4-3.21,8.32-4.61,12.56-.57,1.71-.71,3.51-1.25,5.23-.1.29-.18.71.19.8s.6-.33.67-.67c.17-.74.21-1.51.35-2.26.36-1.81,1.28-3.45,1.64-5.25.76-3.71,2.36-7.12,3.73-10.6a23.44,23.44,0,0,1,2.28-4.31h.56c.55.68.26,1.35,0,2-.72,1.63-1.84,3.06-2.44,4.77-.29.84-.61,1.68-.89,2.52-1.05,3.13-2.19,6.23-3.13,9.39a12.39,12.39,0,0,0-.69,3.4,3.5,3.5,0,0,1-.54,2C90.13,66.81,89.32,66.83,88.4,65.71Z"/><path class="cls-1" d="M30.13,85.63V96.16a.56.56,0,0,1-.73.12c-.9-.7-2.11-.8-3-1.42-1.73-1.23-3.75-1.55-5.67-2.18a1,1,0,0,1-.56-.34A.3.3,0,0,1,20.3,92c2.31-.76,4.11.68,6.07,1.41a9.44,9.44,0,0,0,1.32.64c.71.14,1.06-.11.79-.87a5.74,5.74,0,0,0-.59-1,1.47,1.47,0,0,1-.24-1.51,4.53,4.53,0,0,0,.05-4,17.68,17.68,0,0,1-.2-6c.17-1.51,0-2.82-1.4-3.71.52-.75,1.45-.53,2.13-.9a.8.8,0,0,1,.61.2l1-.27a14.34,14.34,0,0,1,.16,3.7C30.12,81.63,30,83.63,30.13,85.63Z"/><path class="cls-1" d="M48,74.34a2.44,2.44,0,0,0,.44-3.74c-.79-1.08,0-2.08.63-3,1.4,3.33,2.42,6.8,3.51,10.24-1.3,1.16-2.91.62-4.39.79-.95.11-1.48-.26-1.13-1.33.06-.21.18-.49.1-.64C46.52,75.54,47.28,75,48,74.34Z"/><path class="cls-1" d="M28,66c.19-.41.5-.66.95-.43a1.09,1.09,0,0,1,.65,1.06A12.59,12.59,0,0,0,29.92,70a15,15,0,0,0-.26,3.53c.09.68-.52.72-.82,1a.73.73,0,0,1-.54.23c-1.77-.21-1.77-.21-2.32,1.61a1.16,1.16,0,0,1-.76-2,2.75,2.75,0,0,1,2-1c.82-.1.76-.47.26-.93a7.75,7.75,0,0,1-1-.89c-.31-.41-.55-.84-.2-1.34a1,1,0,0,1,1.19-.36c1.21.24,1.32.16,1.15-1.08C28.46,67.89,29.1,66.77,28,66Z"/><path class="cls-1" d="M46.54,79.71c-1.74-.25-2.36-1.71-1.49-2.92a.65.65,0,0,1,.82-.23c.32.11.56.4.42.72A2.83,2.83,0,0,0,46.54,79.71Z"/><path class="cls-1" d="M30.13,85.63a6.53,6.53,0,0,1-.2-2.88c-.06-2.27,0-4.54-.05-6.81.17-.7-.23-1.48.28-2.15Z"/><path class="cls-1" d="M28.3,74.6h.54c1,.53.31,1.07,0,1.61H28.3A1.82,1.82,0,0,1,28.3,74.6Z"/><path class="cls-1" d="M294.85,102.36a10.3,10.3,0,0,1-4.42,2.37c-3.47.65-6.38,2.42-9.21,4.37-.29.2-.61.36-.92.54-.83.08-1.67-.18-2.47.35s-.91-.1-1.06-.71a15.55,15.55,0,0,1,0-5.85c.37-2.86.72-5.73,1.07-8.59,0-.23,0-.54.09-.65,1.73-1.52,1.4-3.88,2.38-5.7s2.64-2,3.89-.32a4,4,0,0,0,1,1,6.31,6.31,0,0,1,3.13,5.32,10.71,10.71,0,0,0,.65,3.13c.11.34.25.73.61.85.86.3,1.61.57,1.56,1.75,0,.53.57.37,1,.26a1,1,0,0,1,1.11.31c.35.49-.33.49-.49.76s-.29.36-.1.59a.8.8,0,0,0,.92.38C294,102.42,294.38,102.06,294.85,102.36Z"/><path class="cls-1" d="M279.5,85.38l.07-.27c.49.1.91-.4,1.41-.18.35.16.77.26.88.72s-.14.47-.38.61a.81.81,0,0,1-1.08-.11C280.11,85.88,279.8,85.64,279.5,85.38Z"/><path class="cls-1" d="M48,102.9c.48.78,1.54,1.39.75,2.53a1.78,1.78,0,0,1-2,.9A1.92,1.92,0,0,1,45.29,104C46,103,46.67,102.25,48,102.9Z"/><path class="cls-1" d="M48,102.9c-1.15-.29-1.93.38-2.68,1.08C46,102.41,46.76,102.1,48,102.9Z"/><path class="cls-1" d="M306.72,93c.32,0,.84-.14.65.48-.85,2.78-.23,5.61-.37,8.41-.1,2.06-.35,2.45-2.46,2.38a52.7,52.7,0,0,0-6.29.37,7.87,7.87,0,0,0-5,2.08c-2.15,2.39-4.33,4.87-4.45,8.53-.05,1.68-1.11,3.34-1.37,5.12a6.42,6.42,0,0,1-1,2.86,2.67,2.67,0,0,0,.06,2.58l-16.7,0c-.38-.77.15-1.38.42-2a35.86,35.86,0,0,0,2.31-6.85,1.11,1.11,0,0,0,0-.8c-1.82,3.24-3.89,6.22-5.13,9.66h-3.22c.22-1.38.39-2.74,2.35-2.73.74,0,.77-.93.84-1.51a3.52,3.52,0,0,1,1.31-2.52c2.19-1.76,3-4.21,3.58-6.83A8.32,8.32,0,0,1,273.6,109a.85.85,0,0,1,.9-.43c.4.07.39.44.51.71.46,1-.35,2-.1,3a2.71,2.71,0,0,0-.76,1.68c-.11.5-.29,1.2.17,1.52s.72-.52,1.15-.61c1.71-.39,3.24-1.48,5.09-1.29.9.1,1.49,0,1.19-1.22a3.43,3.43,0,0,1,3.07-3.85,9.45,9.45,0,0,0,4-1.51c1.46-.77,3.06-1,4.51-1.58,3.83-1.58,7.89-1.73,11.89-2.29.87-.12,1-.58,1-1.28a38.37,38.37,0,0,1,.25-6.69C306.58,94.46,306.63,93.71,306.72,93Z"/><path class="cls-1" d="M284.42,73.31l.66-1.15.61,0c1.12,1.15,2.7,1.74,3.76,3l.28.28c.35.64,1,.65,1.61.78a2.35,2.35,0,0,1,1.83,1.38c.16.4-.18.67-.53.81a2.56,2.56,0,0,1-2.64-.15,44.29,44.29,0,0,1-4.92-4,3.09,3.09,0,0,0-.69-.39Z"/><path class="cls-1" d="M293.51,67.6a2.52,2.52,0,0,1,1.38,2.23c0,.87,1.24,1.12,1.34,2.09a3.37,3.37,0,0,0,.51,1.07c.18,1.07-.53,2-.55,3,0,.29-.13.58-.42.62s-.52-.33-.57-.61c-.21-1.05-.35-2.11-.57-3.15-.07-.33-.29-.74-.75-.54s-.69.44-.5,1a3.22,3.22,0,0,0,.22.64c.36.54.73,1.09.11,1.67a1.33,1.33,0,0,1-1.82.1c1.45-.32,1.65-.72.72-1.81-.59-.69-.72-1.21-.08-2A4.4,4.4,0,0,0,293.51,67.6Z"/><path class="cls-1" d="M293,97.74a1.42,1.42,0,0,1,1.57-1.3,1.5,1.5,0,0,1,1.67,1.66,1.6,1.6,0,0,1-1.56,1.79C293.61,99.85,293,99.21,293,97.74Z"/><path class="cls-1" d="M335.84,70.51a14.65,14.65,0,0,1,1.34,3.25c-.89,1.82-.68,3.92-1.45,5.95-.91-1.11-1.51-.66-2,.21-.41.67-.79,1.27-1.2,0-.33-1-1.06-1.08-1.73-.34s-1.17.53-1.52-.3a1.78,1.78,0,0,0-1.93-1.13,4.22,4.22,0,0,1-3.68-1.2,1.44,1.44,0,0,0-1.75-.22c-1.16.53-2.35,1-3.51,1.52-1,.44-1.46.2-1.41-.9a8.29,8.29,0,0,0-.43-2.7c-.37-1.34.4-2.61,1.27-3.66a43.18,43.18,0,0,0,3.75-5.18c1.23-2.07,3.51-3,4.94-4.83,1.09-1.4,3-1.64,4.14-3a10.44,10.44,0,0,1,1.1,2.68c-.07.11-.16.28-.27.29-1.94.17-2.92,1.83-4.36,2.78a5.37,5.37,0,0,1-1.61.62A3.87,3.87,0,0,0,323,65.9c-.16.26-.37.57-.12.86s.51.1.75,0c1-.37,1.67,0,1.77,1.09.06.74.52,1,1.17,1A2.16,2.16,0,0,1,328.25,70c1.78,2.8,4.89,3.13,7.17.8A1.1,1.1,0,0,1,335.84,70.51Z"/><path class="cls-1" d="M44.94,55.15c.05.25,0,.43-.19.5a.45.45,0,0,1-.61-.35c-.24-.81-.45-1.63-.66-2.44a.36.36,0,0,1,.23-.43c.22-.09.35.08.4.24C44.41,53.51,44.68,54.36,44.94,55.15Z"/><path class="cls-1" d="M211.84,41.49h10.77c1.2,1.87,3.22,2.94,4.58,4.67.86,1.1,1.52,2.32,2.41,3.39a.62.62,0,0,1,0,.86.93.93,0,0,1-.78,0c-.91-.28-1.32.16-1.53,1-.46,1.78-.48,1.79-2.28,1.76a1.49,1.49,0,0,0-1.43.81,2.88,2.88,0,0,1-2.05,1.35,12.52,12.52,0,0,0-4,1.89,65.24,65.24,0,0,0-5.89,4,5.16,5.16,0,0,1-1.74.65c-5.16,0-10.32,0-15.48,0-.77,0-1-.21-1-1,.07-2,.05-4,.07-6.05A1.79,1.79,0,0,1,195,52.85a5.13,5.13,0,0,0,1.91-1.24,17.38,17.38,0,0,1,5.14-3.81.94.94,0,0,0,.42-.34c1.3-2.21,3.55-2.93,5.82-3.48A7.11,7.11,0,0,0,211.84,41.49Z"/><path class="cls-1" d="M241.46,62.21l-.16.24a3.87,3.87,0,0,1-4.84-1.08c-.31-2.82-2.2-4.93-3.32-7.39-.49-1-1.1-2-1.52-3.13a4.61,4.61,0,0,0-1.47-2c-1.22-1-1.81-2.52-2.91-3.65a19.52,19.52,0,0,0-2.34-2.56c-.34-.25-.73-.58-.4-1.12H245c1.56,1.66,2.12,3.92,3.4,5.73,1.64,2.31,2.64,5,4,7.39a4.31,4.31,0,0,1,.41,1,10.3,10.3,0,0,0,1.92,3.93,2.57,2.57,0,0,1,.7,2.34q-6.34,0-12.68,0C242.35,61.93,241.81,61.68,241.46,62.21Z"/><path class="cls-1" d="M255.48,61.88a8,8,0,0,0-1.87-3.33c-.54-.55-.51-1.32-.77-2a68.3,68.3,0,0,0-5.14-9.9c-1-1.65-1.81-3.45-2.7-5.18,6.14,0,12.28,0,18.41,0,.75,0,1,.22,1,1q0,9.29,0,18.55c0,.79-.27,1-1,.95C260.76,61.89,258.12,61.9,255.48,61.88Z"/><path class="cls-1" d="M216.55,87.59q0-9.84-.05-19.66c0-2,0-4,0-5.93.72.27.57.93.58,1.46,0,1.91.06,3.81,0,5.72,0,2.54,0,5.08,0,7.83a15.56,15.56,0,0,1,4.7-2.77,2.88,2.88,0,0,0,1.25-1,8.26,8.26,0,0,1,6.81-3.44,1.64,1.64,0,0,0,1.6-1c.78-1.56,2.27-2.68,2.74-4.43a1.21,1.21,0,0,1,.74-.76,11.72,11.72,0,0,1,6.17-.75c.14,0,.21.16.27.28,0,.93,0,1.85,0,2.77,0,.53-.15.85-.75.77-.86-.46-1.56-.44-1.89.66a1.12,1.12,0,0,0,0,.8c1.32,2.41,1,5.23,2,7.75.65,1.65.26,3.54.14,5.33a.41.41,0,0,1-.32.22c-.74-.25-.66-.85-.65-1.44a17.83,17.83,0,0,0-.79-4.86.41.41,0,0,0-.27-.29c-.43.08-.42.51-.59.8s-.51.55-.88.3c-.8-.54-1.3-.09-1.87.42a8.56,8.56,0,0,0-2.4,3,3.76,3.76,0,0,1-2.6,2,22.48,22.48,0,0,0-6.89,3.83,8.05,8.05,0,0,1-3.36,1.61,9.22,9.22,0,0,0-2.54,1.2C217.22,88.22,216.64,88.56,216.55,87.59Z"/><path class="cls-1" d="M216.55,87.59c.25.46.5.44.94.14a7.18,7.18,0,0,1,4.32-1.56.89.89,0,0,0,.6-.24c2.26-2.49,5.21-3.85,8.29-5a3.81,3.81,0,0,0,2.46-2.47c.5-1.57,2.06-2.16,3.13-3.19.5-.49,1,.2,1.38.6.14-.13.24-.17.26-.24.15-.6.18-1.43.92-1.46s.63.91.7,1.37c.24,1.59,1,3.11.62,4.79-.07.31.15.68.24,1a1.17,1.17,0,0,1,.3,1.12,4.16,4.16,0,0,0,.13,2.63,1,1,0,0,1-.63,1.3c-3.21,1.48-6.49,2.78-9.8,4-2.65,1-5.26,2-7.81,3.27a10.5,10.5,0,0,0-4.33,1.22c-.64.36-1.51.55-1.77-.6Z"/><path class="cls-1" d="M216.73,69.48c0-2.06,0-4.12,0-6.19,0-.43.14-.9-.17-1.29L210,61.89c3.28-2.06,6.31-4.51,9.82-6.2a5,5,0,0,1,1.61-.64,2.25,2.25,0,0,0,2.05-1.42,1.41,1.41,0,0,1,1.93-.71c.85.31,1.38.06,1.55-.87.44-2.34.45-2.34,2.71-1.7a3.34,3.34,0,0,1,1.72,1.59c1.45,2.08,2.85,4.2,4.18,6.36a13.33,13.33,0,0,1,.78,2.25c-.15.76.78,1.2.6,2-.89.26-1.07-.45-1.3-1a6.75,6.75,0,0,0-1.08-2.06c-.49.16-.47.52-.58.8a1.13,1.13,0,0,1-1.62.73,2.63,2.63,0,0,0-2.54.41,36.55,36.55,0,0,0-4.26,3.28c-2.38,1.89-5.25,2.92-7.69,4.68C217.52,69.58,217.14,69.81,216.73,69.48Z"/><path class="cls-1" d="M222.6,125.83l-.27-.07c-.49-.89.11-1.5.67-2,2-1.54,3.13-3.75,4.77-5.54a36.22,36.22,0,0,0,3.86-5.44c.8-1.31,1.37-2.78,2.07-4.17,1-1.77,1.44-3.87,2.89-5.42a1.13,1.13,0,0,0,.21-.77c0-.43.19-1-.27-1.22s-.79.31-1.05.65a3.14,3.14,0,0,1-2.93,1.22c-1.52-.1-2.89.81-4.39,1.07-3.22.55-6,2.17-8.92,3.58-.86.41-1.71,1-2.75.51v-6.74c0-1.09.83-1.37,1.6-1.74,2.43-1.16,5.08-1.75,7.52-2.89s4.81-1.87,7-3.31a22.52,22.52,0,0,1,4.16-1.8c.78-.3,1.32-.65,1.48-1.53.11-.62.39-1.36,1.18-1.19s.8,1,.64,1.65c-.21.89-.05,1.79-.19,2.68-.48,3.21-1.32,6.36-1.92,9.55a5.21,5.21,0,0,1-1.24,2.64c-1,1.11-1.16,2.68-1.91,4a77.3,77.3,0,0,1-8,11.89,38,38,0,0,1-4.22,4.29Z"/><path class="cls-1" d="M233.93,108.83a41.78,41.78,0,0,1-5,8.47c-1.34,1.7-2.95,3.21-3.93,5.18a3.72,3.72,0,0,1-1.39,1.21,2.55,2.55,0,0,0-1.29,2.07c-1.7,0-3.4,0-5.1.07-.67,0-.83-.27-.83-.87,0-3.86,0-7.71.07-11.56a19.65,19.65,0,0,1,5.17-1.78,19.58,19.58,0,0,0,4.82-1.68c1.29-.61,2.63-1.14,3.9-1.78A2.65,2.65,0,0,1,233.93,108.83Z"/><path class="cls-1" d="M211.84,41.49A3.73,3.73,0,0,1,209.15,44c-1,.24-1.85.66-2.8.9a5.12,5.12,0,0,0-3.26,2.37,1.89,1.89,0,0,1-.86.82c-3.25,1.06-4.84,4.53-8.13,5.52-.59.18-.1,1-.53,1.27,0-4.21,0-8.42,0-12.62,0-.65.22-.85.85-.84C200.2,41.48,206,41.48,211.84,41.49Z"/><path class="cls-1" d="M233.93,108.83c-1.44-1-2.88-.77-4.33,0-.35.18-.77.25-1.11.44a24.74,24.74,0,0,1-8.5,3c-1.25.19-2.15,1.38-3.52,1.1,0-1.71,0-3.41,0-5.12a19.36,19.36,0,0,0,6.32-2.74c1.71-1,3.66-1.14,5.47-1.77a17.15,17.15,0,0,0,3.32-1,1.2,1.2,0,0,1,.91-.09c1.4.55,2.18-.2,2.88-1.26.32-.5.79-1,1.41-.78s.34.85.38,1.32a2.6,2.6,0,0,1-.76,2.18,5.34,5.34,0,0,0-1.43,2.69A5,5,0,0,1,233.93,108.83Z"/><path class="cls-1" d="M239.6,93.46a11.74,11.74,0,0,1,.22-3.07c.13-.4.16-1-.42-1.11s-.75.45-.74.78c0,1.51-1.12,1.63-2.13,2.23-1.61.95-3.47,1.2-5,2.41a18.81,18.81,0,0,1-4.85,2.22c-2.7,1.06-5.44,2-8.14,3.07-.8.32-1.73.55-2.05,1.55,0-.71,0-1.41,0-2.12a18.57,18.57,0,0,0,7.84-3.74c.43-.36.94-.82.69-1.47s-.84-.36-1.3-.41-.81,0-1.11-.34a2,2,0,0,1,1.29-.89c3.89-1.42,7.64-3.21,11.6-4.44a6.43,6.43,0,0,0,2.57-1.35,2.33,2.33,0,0,1,1.72-.6c.51,0,1.06-.33.79-.78-.82-1.36-.07-2.71-.18-4.05l.24,0c.52.53.23,1.19.29,1.79s-.09,1.18.25,1.71l0,4.63a5.51,5.51,0,0,0-.77,2.47C240.39,92.53,240.47,93.28,239.6,93.46Z"/><path class="cls-1" d="M222.62,93.46c.58,0,1.16,0,1.75,0,1.21,0,1.58.71.86,1.73a8,8,0,0,1-3.47,2.65c-1.38.59-2.71,1.32-4.15,1.79-.48.15-.82.27-1.11-.22V94.29c.59.87,1.34.59,2,.15A6.15,6.15,0,0,1,222.62,93.46Z"/><path class="cls-1" d="M236.09,60.58c-1.45-3.85-4-7-6.46-10.23a21.79,21.79,0,0,0-5.47-6.64,3.2,3.2,0,0,1-1.55-2.21h1.89c.49,1.26,1.76,1.81,2.57,2.82,1.32,1.64,2.23,3.64,4.06,4.89.36.24.52.82.71,1.28a48.12,48.12,0,0,0,3.92,7.45,8.93,8.93,0,0,1,.88,3.19C236.11,61.3,236.34,60.7,236.09,60.58Z"/><path class="cls-1" d="M162.52,92.07c-3.68,0-7.37.11-11,0-1.37,0-1.9.33-1.68,1.69a4.82,4.82,0,0,1,0,1.07,4.24,4.24,0,0,0,0,.94,3.75,3.75,0,0,1-2.82,3.9,18.77,18.77,0,0,0-6.65,3.61c-1.45,1.36-3.45,2.06-5.14,3.14a1.34,1.34,0,0,1-.91.22c-2.26-.34-3.74.73-4.79,2.62-.12.23-.28.47-.62.38a1,1,0,0,1-.22-.36c.17-1.83-.64-3.53-.75-5.25-.15-2.24-.54-4.43-.72-6.64a11.32,11.32,0,0,1,2.49-2c1.68-1.33,3.21-2.85,5-4.07,2.54-1.74,5.09-3.48,7.76-5a2.14,2.14,0,0,1,.57-.35c2.73-.63,4.84-2.4,7.13-3.86a7.91,7.91,0,0,0,2.18-2,4.64,4.64,0,0,1,2.67-1.91,5,5,0,0,0,2.29-1.36c1.8-1.72,3.75-3,6.41-2.74l19.67-.05a29.06,29.06,0,0,1,0,4.57c-2,1-3.65,2.58-5.52,3.78-1.68,1.09-3.43,2.11-5.19,3.08s-3.27,1.84-4.85,2.87a4.11,4.11,0,0,1-.93.54A7,7,0,0,0,162.52,92.07Z"/><path class="cls-1" d="M163.58,74.12c-2.69,0-4.62,1.49-6.46,3.24a4.84,4.84,0,0,1-2.59,1.32,2.94,2.94,0,0,0-1.88,1.42,6.86,6.86,0,0,1-3,2.57,1.69,1.69,0,0,0-.6.3c-2.86,2.84-7.08,3.3-10.14,5.76-2.22,1.79-4.73,3.15-6.86,5.09a16.46,16.46,0,0,1-4.41,3.34,2.45,2.45,0,0,1-.39.08c-.75.14-1.15-.38-1.59-.82V91.58c.1-.2.15-.46.31-.59,2.06-1.67,2.65-4.08,3.32-6.46a1.2,1.2,0,0,1,.41-.33c2.35-.92,4-2.74,5.91-4.33a7.1,7.1,0,0,1,3.09-1.54,6.32,6.32,0,0,0,4-2.44,6.72,6.72,0,0,1,2.15-1.6,11.7,11.7,0,0,0,3.65-2.67.83.83,0,0,1,1.28-.25c.13,2.71.13,2.7,2.89,2.71Z"/><path class="cls-1" d="M150.16,60.24c-.65.95-.11,2-.35,3a11.31,11.31,0,0,0-2.7,2.56c-1,1.2-2.52,1.82-3.8,2.72-2.93,2-6,4-9.54,4.73a8.19,8.19,0,0,0-3.25,2.09c-1.17,1-1.82.92-2.84-.17,0-.13-.07-.31,0-.39,1.42-1.36,2-3.38,3.67-4.57A7.51,7.51,0,0,1,133.46,69a21,21,0,0,0,7.47-4.63,4.2,4.2,0,0,1,2-1,3.89,3.89,0,0,0,2.8-2.08,5.7,5.7,0,0,1,2.66-2.61,64.72,64.72,0,0,1,6-3,17.25,17.25,0,0,0,4.33-2.44,15.82,15.82,0,0,1,2.29-1.41,2.75,2.75,0,0,0,1.56-1.59,2.61,2.61,0,0,1,2.15-1.81,4.73,4.73,0,0,0,3.27-2.15,4.94,4.94,0,0,1,2.57-1.64c2.06-.9,3.86-2.28,5.9-3.21h8.63c.07.51-.31.72-.64.92a24.43,24.43,0,0,1-4.6,2.5,2.4,2.4,0,0,0-1.63,1.64,3,3,0,0,1-2.43,2.21,8.1,8.1,0,0,0-4.14,2.31c-1.73,1.77-4,2.79-6.27,3.85a5.63,5.63,0,0,0-2.3,1.8,2.77,2.77,0,0,1-1.35,1.06,14.94,14.94,0,0,0-4,2.12,2.35,2.35,0,0,1-1.42.27C154.28,60.21,152.22,60.1,150.16,60.24Z"/><path class="cls-1" d="M176.52,41.5a26,26,0,0,1-6.66,3.91,3.66,3.66,0,0,0-1.73,1.38,4,4,0,0,1-2.92,1.94c-1.1.22-2,.56-2.31,1.87A2.43,2.43,0,0,1,161.69,52,103.51,103.51,0,0,1,149,58.79a6.08,6.08,0,0,0-3,2.83,3.46,3.46,0,0,1-2.49,2,8.3,8.3,0,0,0-3.23,1.9,19.9,19.9,0,0,1-5.45,3.35,9,9,0,0,0-3.31,1.68,1.12,1.12,0,0,1-.56-.87,11.6,11.6,0,0,1,.17-4.73,4.8,4.8,0,0,0,1.59-1.55,4,4,0,0,1,2.56-1.36,13.15,13.15,0,0,0,5-2.82,49.37,49.37,0,0,1,5.6-3.71,44.57,44.57,0,0,1,6.55-3.38,6,6,0,0,0,2.51-2c1.13-1.5,2.9-1.74,4.58-2a2.56,2.56,0,0,0,2.3-1.71A5.65,5.65,0,0,1,165,43.2c.92-.36,1.53-1.24,2.4-1.7Z"/><path class="cls-1" d="M150.16,60.24a9.92,9.92,0,0,1,3.72-.16c1.88.08,3.63-.07,5.12-1.37a5.51,5.51,0,0,1,2.29-1.08,2.19,2.19,0,0,0,1.44-.93,5.78,5.78,0,0,1,2.92-2.26A17.76,17.76,0,0,0,171,51.17a10.71,10.71,0,0,1,5.79-3c.53-.11.71-.61.87-1.1a3.58,3.58,0,0,1,2.52-2.64,15.5,15.5,0,0,0,5-2.89c.39.09.27.41.26.65,0,2.74,0,5.47,0,8.21-1.23,1.75-3.14,2.59-4.91,3.62a7.67,7.67,0,0,0-2.35,1.72,3.75,3.75,0,0,1-1.45.94,25.76,25.76,0,0,0-5.84,3.22c-.55.45-1.21.23-1.8.38Z"/><path class="cls-1" d="M127.76,75.13c1,.93,1.84.75,2.77-.18a8.55,8.55,0,0,1,4.17-2.3c3.47-.8,6.28-2.91,9.16-4.86,1.58-1.08,3.24-2.05,4.31-3.74a1.82,1.82,0,0,1,1.64-.77c0,2.7,0,5.39,0,8.09a1,1,0,0,0-1,.35c-1,1.64-2.78,2.15-4.23,3.13a7.44,7.44,0,0,0-2.2,1.91C141.6,78,140.25,78.3,139,78.6a8.82,8.82,0,0,0-3.69,2c-1.82,1.51-3.43,3.39-5.9,4-1.49-.66-2.07-2.07-2.55-3.42a10.35,10.35,0,0,1-.73-4.58,2,2,0,0,1,.71-1.32C127.09,75.05,127.39,74.85,127.76,75.13Z"/><path class="cls-1" d="M167.36,41.5a3.38,3.38,0,0,1-2,1.85A6.06,6.06,0,0,0,161.89,47a2.24,2.24,0,0,1-2.13,1.47c-2,.24-3.88.63-5.2,2.55-.91,1.33-2.66,1.75-4.14,2.35-2.83,1.14-5.21,3-7.79,4.57a23.74,23.74,0,0,0-3.92,3c-1.28,1.17-3.18,1.07-4.67,1.91-.61.35-1.17.56-1.37,1.29a1,1,0,0,1-1.15.71c-.4-.58.06-1,.3-1.45a6.75,6.75,0,0,0,1-2.32A4,4,0,0,1,134.28,59a16.41,16.41,0,0,0,4.29-5.36,9.22,9.22,0,0,0,.45-1.81,1.85,1.85,0,0,1,2-1.74c.34.75-.21,1.37-.32,2.06s-.24,1.46.37,2,1.26.09,1.86-.18a37.47,37.47,0,0,1,3.49-1.7c.83-.27,1-1,1.21-1.8.45-1.9.66-2.06,2.65-2.08h1.07c.92,0,1.43-.49,1.39-1.43A7.84,7.84,0,0,1,155,41.5Z"/><path class="cls-1" d="M155,41.5c.1.56-.28.93-.56,1.32a6.09,6.09,0,0,0-1.32,4.25c.12,1.18-.52,1.61-1.57,1.66h-.41c-2.54,0-2.55,0-3.3,2.5-.2.65-.49,1.22-1.15,1.36-1.49.31-2.62,1.31-4,1.89-.63.27-1.23.65-1.85.1a2.12,2.12,0,0,1-.63-2.08c.18-.82.49-1.61.75-2.41,0-1.53,1.1-2.15,2.19-2.73.87-.47,1.74-.91,2.59-1.41a3.92,3.92,0,0,0,2.16-3.48,1.23,1.23,0,0,1,.35-1Z"/><path class="cls-1" d="M169,60.24c1.58-.07,2.42-1.49,3.76-2.08s2.66-1.23,3.94-1.92c1.51-.82,2.57-2.27,4.23-2.93s2.92-2,4.42-3c0,3,0,6,0,9,0,.63-.09,1-.86,1C179.38,60.26,174.2,60.25,169,60.24Z"/><path class="cls-1" d="M125.65,70.53V61.92c-.67-3.75,1.52-6.41,3.5-9.15a6.32,6.32,0,0,0,1.29-2.62,1.82,1.82,0,0,1,1.28-1.44,1.83,1.83,0,0,0,1.25-1.6A5.79,5.79,0,0,1,135.52,43c.57-.49.87-1.29,1.68-1.52h3.74c.17.93-.52,1.38-1.08,1.85-2.77,2.31-4.55,5.36-6.31,8.41-.48.82-1.11,1.5-1.62,2.29a53,53,0,0,0-4.5,9.84,14.75,14.75,0,0,0-1.24,5.57C126.19,69.87,126.31,70.42,125.65,70.53Z"/><path class="cls-1" d="M125.65,70.53a40.25,40.25,0,0,1,1-5.43,5.8,5.8,0,0,1,.54-1.79c1.54-3.05,2.4-6.42,4.35-9.28,2.3-3.36,4.17-7,7-10,.79-.83,1.95-1.31,2.38-2.49h1.34c.21.69-.25,1.13-.67,1.5a31.72,31.72,0,0,0-5.45,6.24,18.3,18.3,0,0,0-3.26,7.42,20.2,20.2,0,0,0-2.13,5.73c-1.71,2.7-1.66,5.88-2.42,8.84a11.33,11.33,0,0,1-1.4,4.16c-.15.38-.59.63-.54,1.11-.41.35,0,1.19-.76,1.32Z"/><path class="cls-1" d="M135.81,43.08a7,7,0,0,0-2.7,5c-.06.59-.62.73-1.08.87s-1.11.36-1.2.95c-.38,2.64-2.37,4.37-3.7,6.43a5.92,5.92,0,0,0-1.29,3.88,2.35,2.35,0,0,1-.19,1.7q0-7,0-14a13.49,13.49,0,0,0,0-2.54c0-.66.27-.87.89-.85a15.82,15.82,0,0,0,6.77-1.31A2.58,2.58,0,0,1,135.81,43.08Z"/><path class="cls-1" d="M130.45,62.21a18,18,0,0,1,2.16-5.66c.44-1.81,1.94-2.71,3.27-3.73a3.47,3.47,0,0,0,1.43-2.19,6.09,6.09,0,0,1,1.21-2.18,20.78,20.78,0,0,1,4.68-4.77c.71-.56.78-1.62,1.53-2.18h.53a4.29,4.29,0,0,1-2.13,3.91c-3,1.88-3.72,4.81-4.19,7.93a.9.9,0,0,1-.14.5,15.44,15.44,0,0,1-4.52,5.53,3,3,0,0,0-1.14,1.75C132.32,61.67,131.58,62.43,130.45,62.21Z"/><path class="cls-1" d="M144.73,41.5a6.45,6.45,0,0,1-3.07,3.9,9.36,9.36,0,0,0-2.15,2.33A10.27,10.27,0,0,0,137.22,52c-.12.65-1,1-1.56,1.41a9.86,9.86,0,0,0-3,3.18,19.42,19.42,0,0,1,1.8-5,35.54,35.54,0,0,1,7.13-9,6,6,0,0,0,.74-1.1Z"/><path class="cls-1" d="M125.65,77.82c.35-.38.24-1,.76-1.32a11.06,11.06,0,0,0,3,8.08,9,9,0,0,1-3.72,7Q125.64,84.71,125.65,77.82Z"/><path class="cls-1" d="M138.8,53.85a13.77,13.77,0,0,1,1.45-6.16,3.76,3.76,0,0,1,1.4-1.57,7.77,7.77,0,0,0,3.61-4.61l3,0c.44,3.44-1.93,4.81-4.48,5.94A5.1,5.1,0,0,0,141,50.09a2.6,2.6,0,0,0-1.74,2.54A1.44,1.44,0,0,1,138.8,53.85Z"/><path class="cls-1" d="M135.81,43.08c-2.39.22-4.5,1.58-6.91,1.72a7.39,7.39,0,0,0-1.05.16c-.64.14-1.49-.44-1.85.08s-.12,1.29-.14,2a1.25,1.25,0,0,1-.19.9c0-1.87,0-3.75-.07-5.61,0-.68.32-.83.9-.82l10.7,0C136.68,42,136.44,42.7,135.81,43.08Z"/><path class="cls-1" d="M125.64,96.42a4.31,4.31,0,0,1,1.59.82,14.81,14.81,0,0,1,.79,5.87,5,5,0,0,0,.62,2.57,8.75,8.75,0,0,1,.18,3.67c-.6.2-1-.39-1.48-.47-.53-.28-1.14-.15-1.69-.34,0-1.26-.07-2.51-.11-3.76C125.57,102,125.61,99.21,125.64,96.42Z"/><path class="cls-1" d="M128.86,109.63c.45-1.7,1.84-2.49,3.2-3.31a.89.89,0,0,1,.62-.17c2.26.82,3.61-1.06,5.31-1.83a20.63,20.63,0,0,0,3.55-2.56,16.35,16.35,0,0,1,4.65-2.22A15.89,15.89,0,0,0,148.78,98c1.35-.7.57-1.8.81-2.68,0-.17.12-.33.17-.5v3.25c-.1,1.74-.06,3.49,0,5.23a2.24,2.24,0,0,1-.95,2.05c-.91.7-1.72,1.5-1.45,2.93.15.77.43.93,1.11,1a49.85,49.85,0,0,0,6.69-.4,43.79,43.79,0,0,0,5.57-.84,2.81,2.81,0,0,1,2.68.33c-.1.44-.47.5-.81.59-2,.53-4.13.78-6.18,1.18-3.5.7-7.11.17-10.59,1.14-1.57.44-3.3-.12-4.92.31-3.32.14-6.63.17-9.94.36a2.19,2.19,0,0,1-2.11-.94A1,1,0,0,1,128.86,109.63Z"/><path class="cls-1" d="M162.52,92.07a3.58,3.58,0,0,1,2.84-2.95c1.68-.47,2.93-1.65,4.42-2.43,2-1,3.76-2.35,5.73-3.36A36.24,36.24,0,0,0,181,79.55a3.77,3.77,0,0,1,2.32-.91c0,4.22,0,8.44,0,12.65,0,.66-.25.84-.87.83C175.8,92.09,169.16,92.09,162.52,92.07Z"/><path class="cls-1" d="M187.26,108.56l0,.8a2.38,2.38,0,0,1-1.19.58c-5.82,1.43-11.55,3.26-17.49,4.17-1.48.22-2.52.79-2.81,2.38a2,2,0,0,0,.09,1.28c.67,1.38.34,2.15-1.21,2.55a33.11,33.11,0,0,1-4.06.92,37.32,37.32,0,0,1-5.05.66,5.26,5.26,0,0,0-2.32.66,8.78,8.78,0,0,1-4.42.91,8.47,8.47,0,0,0-3.31.4,3.21,3.21,0,0,1-1.2.12c-1.91,0-1.91,0-1.74,1.78h-.78c-1.38-.43-1.43-1.86-2.12-2.81,0-1.06-.92-1.37-1.5-2a.88.88,0,0,1-.11-.39c.3-1.06,1-.72,1.57-.36A13.5,13.5,0,0,1,142,122c.75-1.7,2.39-1.87,3.84-2.36a8.59,8.59,0,0,0,2.36-1c.49-.35.93-.67.57-1.41s.24-1,.75-1.17a17.84,17.84,0,0,1,7.16-1.42c1.76,0,3.48-.24,5.23-.33a15.89,15.89,0,0,0,2.67-.84c3.71-.85,7.54-1.1,11.2-2.13,3.36-1,6.8-1.57,10.09-2.74C186.31,108.49,186.77,108.2,187.26,108.56Z"/><path class="cls-1" d="M141,111.24c.28-.33.66-.27,1-.25,4.18.29,8.24-.86,12.4-1a28.29,28.29,0,0,0,9-1.72,31.16,31.16,0,0,1,6-1.07,6.41,6.41,0,0,0,1.57-.23c5.2,0,10.39,0,15.59,0,1.18,0,.85.7.81,1.34a46.62,46.62,0,0,1-8.15,2.08c-1.59.33-3.08,1.13-4.72,1.43-3.37.64-6.86.79-10.14,1.77-3.71,1.11-7.5,1.06-11.25,1.52a25.24,25.24,0,0,0-4.64.69,1.9,1.9,0,0,1-1.69-.11c-.23-.59.29-.66.61-.82a5.68,5.68,0,0,1,2.48-.47c2,0,4-.59,6-.7a1.52,1.52,0,0,0,.94-.41,1.49,1.49,0,0,0-1.15.09,3.9,3.9,0,0,1-1.73.08c-.49-.1-1.05-.23-1.06-.84s.54-.63,1-.78,1.25,0,1.81-.91a18.81,18.81,0,0,0-5.05.08,31.1,31.1,0,0,1-7.87.65C142,111.6,141.42,111.72,141,111.24Z"/><path class="cls-1" d="M187.27,116.37v5.93c-2,1.15-4.4.94-6.58,1.49-3.5.89-7.1,1.16-10.61,2h-13.5a5.12,5.12,0,0,1,2.79-2.51,7.48,7.48,0,0,1,3.52-.79,6.35,6.35,0,0,0,2.76-.49c3.65-1.57,7.6-2.07,11.37-3.23.47-.15.94-.29,1.4-.45,2.38-.46,4.65-1.33,7-1.8A3.13,3.13,0,0,1,187.27,116.37Z"/><path class="cls-1" d="M142.57,125.77c-.13-.72-1.27-1.16-.74-2s1.48-.23,2.23-.13c1.33.16,2.48-.67,3.82-.58a10.09,10.09,0,0,0,5.45-1c2.1-1.06,4.56-.6,6.81-1.16,1.64-.42,3.32-.67,4.92-1.19,1.19-.38,1.27-1,.44-1.87-.42-.47-.64-.84-.13-1.36a.68.68,0,0,0,.24-.47c0-2,1.55-2.11,2.85-2.33a100.7,100.7,0,0,0,11.45-2.53,75.63,75.63,0,0,1,7.37-1.85v3c-2.56,1.17-5,2.79-7.86,3s-4.91,1.52-7.36,2.26-4.33,2.7-6.71,3.63c-1.68.45-3.42.63-5.13,1-5,.93-10.13,1.57-15.18,2.47a1.89,1.89,0,0,0-1.67,1.14Z"/><path class="cls-1" d="M146.62,115.56c1.87-.06,3.68-.59,5.57-.63,2.26,0,4.5-.57,6.77-.67a35.58,35.58,0,0,0,5.18-1.11c3.36-.64,6.76-1,10.13-1.64,1.58-.28,3-1.09,4.54-1.5a53.26,53.26,0,0,1,5.25-.9c1.1-.18,2-1,3.2-.83v.28c-2.7,1-5.57,1.36-8.23,2.29-3.12,1.09-6.35,1.44-9.51,2.14a40.33,40.33,0,0,0-5.21,1c-3.77,1.37-7.68.71-11.47,1.33a34.1,34.1,0,0,0-3.6,1.24c-.64.19-.38.61,0,.84.68.37.34.64,0,1-1.16,1.1-2.73,1.25-4.1,1.86-.94.42-2.74,0-2.51,2.07,0,.32-.83.4-1.06-.06-.48-1-1.55-1.12-2.23-1.81-.43-.45-1.11-.57-1.1.47a1,1,0,0,1-1.11-.54c-.76-1.39-2.1-2.09-3.32-3-.67-.48-1.08-1.12-.21-1.83.86-.3,1.68.11,2.53.14,3,.09,5.88-.4,8.82-.51C145.55,115.22,146.14,115.1,146.62,115.56Z"/><path class="cls-1" d="M165.48,121c1.35-.94,2.59-2.21,4.08-2.73,2.52-.87,4.77-2.74,7.37-2.89,3.42-.2,6.29-1.65,9.3-2.85a4.51,4.51,0,0,1,1.05-.16c0,1.35,0,2.7,0,4.05a87.3,87.3,0,0,1-8.86,2.16c-3.87.94-7.67,2.2-11.66,2.6C166.32,121.17,165.86,121.31,165.48,121Z"/><path class="cls-1" d="M165.48,121a78.47,78.47,0,0,0,11.87-2.29,9.58,9.58,0,0,1,1.06-.13,29.49,29.49,0,0,1-6.23,1.83c-.78.18-1.55.4-2.33.59-2.79.7-5.38,2.11-8.4,2.07-2,0-3.46,1.46-4.88,2.75l-13.2,0c-.41-.8-.23-1.15.72-1.37,3.39-.77,6.89-.84,10.26-1.61s6.93-1,10.33-1.81A4.3,4.3,0,0,1,165.48,121Z"/><path class="cls-1" d="M170.86,107c-1.35.78-2.93.56-4.36,1a9.69,9.69,0,0,1-3.18.29c-2.75-.21-5.35.8-8.07,1a71.56,71.56,0,0,1-7.75.37c-.48,0-1-.1-.52-.79.09-.14.18-.38.12-.49-1-1.91.69-2.62,1.67-3.44a1.78,1.78,0,0,0,.82-1.48,30.62,30.62,0,0,1,.17-5.33c0,2.5.07,5,0,7.52,0,1,.24,1.36,1.32,1.36C157.68,106.93,164.27,107,170.86,107Z"/><path class="cls-1" d="M125.62,124.44v-5.11a2.19,2.19,0,0,1,2.18-.26c2.06.79,4.24.6,6.35.93a5.27,5.27,0,0,1,2,.68c.78.49,1.56,1,1.49,2s-1.07,1.19-1.84,1.49a16.21,16.21,0,0,1-4.76.34A29,29,0,0,1,125.62,124.44Z"/><path class="cls-1" d="M125.65,108.54c.63-.47,1.23-.1,1.84,0a2.44,2.44,0,0,1,.47,1.23c.09,1.53.89,2.51,2.43,2.33,2.25-.25,3.84.83,5.45,2,.4.29.87.59.64,1.18s-.81.48-1.28.44a5,5,0,0,0-1.59-.08c-.49.11-1.16.23-.75,1,.12.36.65.67.13,1.09a.7.7,0,0,1-.53,0c-1.79-1-3.81-.82-5.74-1.13-.45-.07-.89-.14-1.09-.63C125.64,113.58,125.64,111.06,125.65,108.54Z"/><path class="cls-1" d="M170.07,125.78a2,2,0,0,1,1.61-.8c2.35-.41,4.79-.34,7.07-1.27a6.85,6.85,0,0,1,2.62-.44c2,0,3.9-.86,5.89-1,.21,3.52.21,3.52-3.2,3.52Z"/><path class="cls-1" d="M125.63,116.1a4.48,4.48,0,0,0,2.58.4,13.86,13.86,0,0,1,4.93,1.22c.92-.59,1.46.21,1.94.67a15.51,15.51,0,0,1,3.94,4.77c-.56,1.26-1.59,1.5-3.18.75.52-.44,1.72-.26,1.54-1.33a2.66,2.66,0,0,0-2.53-2.07c-3.11-.17-6.12-1.05-9.23-1.18C125.62,118.25,125.63,117.17,125.63,116.1Z"/><path class="cls-1" d="M135.84,123.91c.61,0,1.23,0,1.84,0,.77,0,1.17-.28,1.12-1.08,1.22.47,1.48,1.42.83,2.94-4.35,0-8.7,0-13,0-1.2,0-1-.66-1-1.39a3.2,3.2,0,0,1,1.7-.26A67.32,67.32,0,0,0,135.84,123.91Z"/><path class="cls-1" d="M139.63,125.78c-.13-1,.33-2.21-.83-2.94-1.62-1.42-2.61-3.45-4.47-4.64-.39-.25-.71-.54-1.19-.48l-.54-.81c-.28-.79.08-1.08.82-1.06-.18.87.39,1.2,1,1.61,1,.66,2.21,1.09,2.69,2.41.15.43.74.72,1.13,1.07v0a3.44,3.44,0,0,1,1.6,1.86c.81.87,1,2.17,1.92,2.94Z"/><path class="cls-1" d="M91.1,63.55a7.62,7.62,0,0,1,.61-3.12,40.46,40.46,0,0,0,1.58-5.49c.34-1.31,1.35-2.34,1.58-3.77.45-2.85,2.06-5.25,3.39-7.74a4.09,4.09,0,0,0,.39-1.92c2.86,0,5.71-.14,8.57,0q-.09,12.09-.17,24.17c0,.45,0,.9,0,1.34-1.86.12-1.92.21-2.35,2.16s-.09,3.74-.51,5.58c-.14.61-.15,1.26-.82,1.58-1.28,0-1.26-1-1.18-1.81.12-1.12.15-2.24.22-3.35.07-.9-.24-1.37-1.18-1.37a6.67,6.67,0,0,1-2.62-.53,1.61,1.61,0,0,0-2.11.6,7.12,7.12,0,0,1-1.06,1.2c-.45.34-.93.61-1.48.27A1.21,1.21,0,0,1,93.29,70a25.5,25.5,0,0,1,.81-4.07A1.65,1.65,0,0,0,94,64.17a2.78,2.78,0,0,1,0-3.28c.32-.53.74-1,.62-1.69a.21.21,0,0,0-.35,0c-.69,1.63-1.92,3.12-.89,5.12a2.67,2.67,0,0,1-1.17,3.5,1.33,1.33,0,0,1-1.52.12c-.52-.35-.27-.89-.17-1.35C90.71,65.59,91.63,64.72,91.1,63.55Z"/><path class="cls-1" d="M107,112.6c0,4.11,0,8.23,0,12.34,0,.74-.29.89-.95.88-2.46,0-4.92,0-7.38,0-1.23-.53-1.44-1.73-1.82-2.81a7.41,7.41,0,0,1-.43-1.55,4.4,4.4,0,0,0-.52-1.92,6.59,6.59,0,0,1-.89-3.33,1.72,1.72,0,0,0-.36-1.13c-1.34-1.74-1.71-3.91-2.56-5.86a20.21,20.21,0,0,1-1.3-6.12c-.11-1.11-.6-2.17-.4-3.3a4.45,4.45,0,0,0,.55-4c-.4-1.78-.17-3.22,1.49-4.33a10.87,10.87,0,0,0,2.24-2.3c.29-.34.61-.71,1.14-.49a1.3,1.3,0,0,1,.72,1.06,2.11,2.11,0,0,1-1.62,2.75c-1.62.37-2,1.23-1.18,2.91.63-.25.49-.89.68-1.34.45-1,.9-1.21,1.93-.64a1.51,1.51,0,0,1,.22.9c-.11,1.32.08,2.5,1.39,3.19,0,0,0,.07.09.1.48.47.5,1.66,1.07,1.56a9.23,9.23,0,0,0,3.08-.65c1-.57,1.6-.2,1.62,1a6.1,6.1,0,0,1-.17,1.19c-.08.42-.07.86.44,1,1.12.24.9,1,.79,1.78s-.66,1.78-.32,2.75a7.19,7.19,0,0,1,.17,3,1.92,1.92,0,0,0,.77,1.89A7.4,7.4,0,0,1,107,112.6Z"/><path class="cls-1" d="M95.67,125.77c-4.07,0-8.15,0-12.23.06-.8,0-1-.29-1-1q.18-13.11.32-26.22a2.48,2.48,0,0,0,1.43-1.66c.14-.49.32-1.19,1-1.1s.77.83.8,1.39c.1,1.74.14,3.48.3,5.23a40,40,0,0,0,.88,4.62,1.24,1.24,0,0,0,.43.81c1.14.77,1.22,1.91,1.15,3.1-.13,2,1,3.47,1.8,5.12a2.27,2.27,0,0,0-.18-1.27,36.9,36.9,0,0,1-2.65-11.43,3.79,3.79,0,0,0-.44-1.26,1.09,1.09,0,0,1,.2-1.46.87.87,0,0,1,.42-.1c.77.23.84.88.83,1.52-.06,3.52,1.48,6.71,2.16,10.07.56,2.78,2,5.27,2.77,8,.4,1.36,1.6,2.38,1.88,3.83C95.68,124.57,96.08,125.14,95.67,125.77Z"/><path class="cls-1" d="M104.3,106.13c-.66-.9.16-1.7.18-2.54,0-.65.84-1.74-.82-1.61a.61.61,0,0,1-.52-.8,11.71,11.71,0,0,0,.28-1.17c.09-.52.28-1.13-.23-1.5s-.73.32-1.11.49c-1,.45-2.19,0-3.1.81-.19.16-.43-.28-.5-.52A3.1,3.1,0,0,0,96.75,97a1.12,1.12,0,0,1-.54-1.15c0-.81,0-1.62,0-2.42,1.15,0,1.22.9,1.48,1.7.16-.5,0-1.06.38-1.47.73.07.57.67.63,1.1a9.31,9.31,0,0,0,.17,1.58,1.5,1.5,0,0,0,1.25,1.22c.68.1,1.05-.35,1.26-.94a1.79,1.79,0,0,0-.47-2.31A4.31,4.31,0,0,1,99.59,91c.06-3.53-.16-7.06-.25-10.6a3.36,3.36,0,0,1,.38-2.08c0-.07.13-.18.19-.16,1.68.36,2.59-.59,3.31-1.9.85-1.1.71-2.43.78-3.67a19.11,19.11,0,0,1,.5-4.33c.49-1.72.91-2,2.5-1.17V68.4a8,8,0,0,0-1,6.3,14.61,14.61,0,0,1,.12,7.43,5.45,5.45,0,0,0,.22,2.65c.25,1.18.38,2.37.61,3.55v10.8a59.36,59.36,0,0,1-1.88,5.65C104.9,105.27,104.81,105.83,104.3,106.13Z"/><path class="cls-1" d="M95.67,125.77a13.18,13.18,0,0,0-2-4.74c-.78-1-.84-2.49-1.38-3.73a22.33,22.33,0,0,1-1.46-4.24c-.83-3.77-2.5-7.36-2.4-11.33a1,1,0,0,0-.53-1c-.65-.74-.17-1.7-.49-2.51,0-.14-.07-.28-.1-.43.22-2.93-.6-5.78-.68-8.69,0-1.54-.35-3.22-2.47-3.45-.6-.07-.85-.61-1.12-1.08l0-3.24a1.07,1.07,0,0,1,1,.32,15.51,15.51,0,0,0,3.41,1.87,2.22,2.22,0,0,1,1.32,1.08A2.2,2.2,0,0,0,90,85.7a3,3,0,0,1,1.75,1.75,1.26,1.26,0,0,1-.31,1.48,1.24,1.24,0,0,1-1.38.13c-1.29-.52-1.46-.45-1.3.93a88.86,88.86,0,0,0,1.65,11.11c.47,1.94.71,3.94,1.15,5.91a20.26,20.26,0,0,0,1.15,3.82,3.79,3.79,0,0,1,.37.86c.57,3.5,2.42,6.53,3.64,9.78a10.37,10.37,0,0,0,1.91,4.3Z"/><path class="cls-1" d="M87.59,100.74c-.08.25-.3.59-.21.75,1.34,2.23.54,4.92,1.55,7.2.56,1.25.46,2.62.82,3.9s1.32,2.2,1.41,3.55c0,.35.28.74-.2.9s-.47-.32-.62-.56c-1.22-2-2.21-4-1.94-6.37.08-.75,0-1.43-.87-1.74a1.26,1.26,0,0,1-.73-1.06,37.81,37.81,0,0,1-1.09-9.54,2.74,2.74,0,0,0-.54-1.83,3.74,3.74,0,0,0-.86,1.93c-.27.79-.72,1.07-1.51.72-.09-4.23,0-8.46.21-12.69a3.21,3.21,0,0,1,1.71-.06,1.7,1.7,0,0,1,1.55,1.4c.57,1.86.17,3.83.77,5.67.55,1.67.09,3.45.56,5.13h0C87.59,98.94,87.6,99.84,87.59,100.74Z"/><path class="cls-1" d="M96.75,121.47a8.23,8.23,0,0,1-1.93-4c0-.26-.08-.62-.26-.74-1.82-1.26-1-3.45-1.85-5.06a25,25,0,0,1-1.57-5.38,120.74,120.74,0,0,1-2.41-12.8,33.79,33.79,0,0,1-.3-4.27c0-1.09.38-1.28,1.29-.76.55.32,1.13,1,1.71.17s0-1.36-.52-1.88a4,4,0,0,0-1-.68c-.23-.13-.63-.13-.72-.31-1.13-2.19-3.71-2.27-5.35-3.71L83,81.33c0-.36,0-.72,0-1.09,1.21-.1,1.71.72,2.14,1.64.48.48,1.07.18,1.61.25.94-.23,1.45.31,1.82,1a4.89,4.89,0,0,0,2.18,2.29,4.06,4.06,0,0,1,1.75,2.15,1.77,1.77,0,0,1-.36,2.11,1.62,1.62,0,0,1-2,.29c-.28-.13-.58-.44-.86-.22s0,.65,0,1c.61,2.94.66,5.95,1.18,8.9.69,3.17.65,6.52,1.93,9.52.8,1.89,1,4.08,2.54,5.66a.54.54,0,0,1,.18.35C95,117.47,96.66,119.28,96.75,121.47Z"/><path class="cls-1" d="M104.3,106.13c.74-2.25,1.47-4.49,2.23-6.73,0-.12.28-.18.42-.27V112.6c-2.2-1.12-2.64-2-2.44-4.37A10.76,10.76,0,0,0,104.3,106.13Z"/><path class="cls-1" d="M107,88.33c-.88-2.6-1.69-5.15-.88-8,.59-2.09-.28-4.22-.56-6.32s-.39-4.11,1.49-5.61Q107,78.38,107,88.33Z"/><path class="cls-1" d="M85.18,81.88c-.78-.46-1.2-1.39-2.14-1.64,0-.8,0-1.6,0-2.41a3.42,3.42,0,0,1,3.41,2C87.15,81.37,86.87,81.83,85.18,81.88Z"/><path class="cls-1" d="M87.6,98a5.08,5.08,0,0,1-.52-2.43c-.09-2.64-1-5.16-1-7.79,0-1.28-.65-1.78-1.88-1.64A1.74,1.74,0,0,1,83,85.9V84.57a5,5,0,0,0,1.88.9c1.78.35,2.06,2.06,2.08,3.37C87,91.92,88,94.94,87.6,98Z"/><path class="cls-1" d="M287.31,73.24c-.49-1.12-.14-1.3,1-1.1,1.4.25,1.9,1.52,3.15,2.18a5.45,5.45,0,0,1-2.27.29A3.29,3.29,0,0,1,287.31,73.24Z"/><path class="cls-1" d="M287.31,73.24l1.88,1.37c.09.18.18.35.26.53a10.54,10.54,0,0,1-3.76-3C286.46,72.18,286.68,73,287.31,73.24Z"/><path class="cls-1" d="M30.14,97c0,.63.05,1.25.08,1.87q0,8.23,0,16.46c-.76.32-.93-.32-1.13-.77a4.24,4.24,0,0,0-2.87-2.43,9.68,9.68,0,0,1-3.29-1.79c-1.23-1-2.83-.68-4.24-1.06a10.31,10.31,0,0,1-3.3-1c-.52-.35-.92-.07-1.37.14a9.15,9.15,0,0,1-6.31.45,1.85,1.85,0,0,1-.92-.52l0-19.13c.71-.28.8.32,1,.72.3.55.23,1.21.5,1.88a2.3,2.3,0,0,0,.56-1.48,4.86,4.86,0,0,1,1.2-2.52c.29-.3.55-.79,1.11-.42A1.78,1.78,0,0,1,11.05,89c-.59,1.39-.24,2,1.29,2.17a22.35,22.35,0,0,0,2.95,0c1.62,0,3,.76,4.56,1.08,1.16.24,2.25.77,3.41,1.08,1,.25,2,.36,2.67,1.34a1.5,1.5,0,0,0,1.08.49A5.1,5.1,0,0,1,30.14,97Z"/><path class="cls-1" d="M6.77,108.29c2.09.32,4.22,1.09,6.27,0a3.3,3.3,0,0,1,3.64.16,9.28,9.28,0,0,0,3.88.81c2.94.25,4.79,2.71,7.51,3.34.66.15,1,1.07,1.31,1.78.16.42.25.88.82.93.39,3.17.12,6.36.23,9.53,0,.79-.29,1-1,1q-10.85,0-21.67,0c-.73,0-1-.18-1-1C6.75,119.32,6.75,113.8,6.77,108.29Z"/><path class="cls-1" d="M11.05,87.27a4.67,4.67,0,0,0-1.86,3.08,6.91,6.91,0,0,1-.15.91c-.17.48-.22,1.26-.85,1.18s-.27-.83-.39-1.28c-.19-.73-.08-1.63-1-2,0-1.62,0-3.24-.08-4.87l.09-15.6a.88.88,0,0,1,.9.45,19.55,19.55,0,0,1,4,10.24c.1,2,0,4,0,6A2.22,2.22,0,0,1,11.05,87.27Z"/><path class="cls-1" d="M241.2,104.5c0,6.77,0,13.53,0,20.29,0,.71-.15,1-1,1-5.51,0-11,0-16.52-.07-.14-.42.13-.69.38-.94a85,85,0,0,0,5.73-6.55,10.92,10.92,0,0,0,1.64-2.59c.68-1.66,2-3,2.84-4.52a15.74,15.74,0,0,0,1.76-3.59c.37-1.32,1.45-2.12,2.27-3.11A3,3,0,0,1,241.2,104.5Z"/><path class="cls-1" d="M239.6,93.46a3,3,0,0,0,.55-1.87c.07-.84.15-1.71,1.08-2.13,0,.36,0,.71,0,1.07a27.83,27.83,0,0,0-.72,3.92c-.3,2.12-1.55,4-1.31,6.25a19.32,19.32,0,0,1-1,3.91,15.51,15.51,0,0,0-2.63,4.43,22.8,22.8,0,0,1-3.45,5.55,1.49,1.49,0,0,0-.3.44c-1,2.75-3.12,4.75-4.94,6.94a14.18,14.18,0,0,1-3.93,3.79l-.31,0c.06-.6.57-.89.94-1.26a53,53,0,0,0,7.84-9.92c1.68-2.73,3-5.62,4.6-8.36s2-5.56,2.64-8.49C238.92,96.31,239.23,94.87,239.6,93.46Z"/><path class="cls-1" d="M236.09,60.58l.55.54a3.28,3.28,0,0,0,3.21,1.34c.49,0,1,0,1.45,0a18,18,0,0,1-.05,4.92,2.69,2.69,0,0,1-1.14.37c-.43.1-.62.41-.42.8.94,1.94.68,4.13,1.3,6.13a.82.82,0,0,0,.26.46l-.06,9.7c-.86-.51-.43-1.35-.51-2a14.17,14.17,0,0,1,0-1.46c.39-2.94-.37-5.73-1.13-8.53-.41-1.52-.33-3.17-1.25-4.57a.82.82,0,0,1,.26-1.18c.45-.66,1-1.14,1.87-.81.69.51.82.07.82-.5,0-.91,0-1.83-.06-2.75a20,20,0,0,0-3.46-.11c-.34,0-.76.16-.81-.4C236.55,61.87,236,61.36,236.09,60.58Z"/><path class="cls-1" d="M238,104.76c.28-1.35.56-2.69.85-4a5.45,5.45,0,0,0,1.06-1.33c.3-.46.6-1,1.33-.81v5.91c-1,.11-2-.23-2.95.29A.17.17,0,0,1,238,104.76Z"/><path class="cls-1" d="M241.2,98.59a2.16,2.16,0,0,0-1.3,1.42.92.92,0,0,1-1.09.72,9,9,0,0,1,.59-3.5,40.24,40.24,0,0,0,1.25-5.58c.09-.44,0-.9.54-1.12C241.19,93.21,241.2,95.9,241.2,98.59Z"/><path class="cls-1" d="M238,104.76l.29,0c-2,2.75-3.17,6-5,8.89a70,70,0,0,1-9.54,12.07h-.81a33.52,33.52,0,0,0,5-5.38,46.5,46.5,0,0,0,3.72-5.36c.72-1.3,1.63-2.54,2.44-3.82a16.69,16.69,0,0,0,2.09-4.31A4.69,4.69,0,0,1,238,104.76Z"/><path class="cls-1" d="M241.25,75.13a3.81,3.81,0,0,1-1.1-2.88,7.81,7.81,0,0,0-.88-3.59c-.47-.74-.18-1.3.77-1.34.4,0,.8,0,1.21,0C241.68,70,241.09,72.54,241.25,75.13Z"/><path class="cls-1" d="M28,66c.45,0,.89.11.92.57a22.58,22.58,0,0,1,0,3.49c-.09.73-.61.91-1.26.36-.33-.27-.77-.53-1.17,0s0,.92.33,1.25.84.65,1.24,1c.22.19.53.41.38.78s-.45.38-.78.39a3,3,0,0,0-1.44.23c-1.27.66-1.37,1.3-.34,2.46.24,0,.33,0,.27.27A2.68,2.68,0,0,1,28,80,23.41,23.41,0,0,0,28,86.72c-1.22-.69-2.39-1.48-3.55-2.27s-.84-2.26.42-3.17a5.51,5.51,0,0,0,1.48-1.15,1,1,0,0,0,.22-1,.68.68,0,0,0-.92-.33c-1.62.53-2.42-.91-3.54-1.51-.51-.27-.14-.89.06-1.35s.36-.69,0-1-.7-.11-1,.11c-.77.62-1.36.34-2-.25a13.62,13.62,0,0,1-2.92-3.32,3,3,0,0,0-.8-.9c-.47-.37-.91-.38-.88.33.16,3.37-.61,6.71-.18,10.08.16,1.22.39,2.51-1.14,3.23-.56.27-.38.94,0,1.25.79.57,1,1.48,1.46,2.23.21.34.48.7.12,1.1a1.18,1.18,0,0,1-1.25.27,3,3,0,0,1-.7-.39c-.27-.16-.53-.17-.65.18a.41.41,0,0,0,.36.59c1.74.29,3.3,1.29,5.2,1,1.25-.23,1.94.46,2.29,1.68v0a1.46,1.46,0,0,1-1.42,0,13.35,13.35,0,0,0-5.62-.94c-2-.06-2.53-.8-2-2.7a21.78,21.78,0,0,0,.53-5.33A23.08,23.08,0,0,0,10,72.76,27.47,27.47,0,0,0,6.8,67.85c0-3.5,0-7,0-10.52.47-1.71.08-3.46.23-5.18,0-.36-.29-.91.26-1,.39-.09.76.29,1,.65.82,1.6,2.41,2.84,2.31,4.88a.6.6,0,0,0,.56.65,1.14,1.14,0,0,0,1-.52c.32-.43.5-1.39,1.18-.9.88.64,2.53.44,2.56,2,0,.87.56,1.13,1.07,1.65,1.44,1.45,3.81,2.25,3.61,5-.05.65.54,1.3.55,2a.38.38,0,0,0,.47.36.33.33,0,0,0,.16-.54c-.85-1.17.23-2,.51-3,.15-.55.65-.75,1.31-.5,1.45.55,2,.21,2.29-1.31a.59.59,0,0,0,0-.13,2.12,2.12,0,0,1,.93-2.09c.29-.18.5.07.64.3A4,4,0,0,1,28,62.74a.72.72,0,0,1-.84.53c-1.29-.12-1.36.69-1.28,1.63C26.58,66.55,27,66.79,28,66Z"/><path class="cls-1" d="M6.8,67.85c1.13.44,1.44,1.53,2.09,2.41a17.05,17.05,0,0,1,2,3.6c.68,1.64.61,3.41,1,5.1.57,2.48.07,5,0,7.47a9.65,9.65,0,0,1-.62,2.6,1.16,1.16,0,0,0,1,1.66,29.94,29.94,0,0,1,8,1.43c.88.28,1.76.56,2.64.82a27.81,27.81,0,0,1,6.65,3.11,1.88,1.88,0,0,0,.65.11c0,.27,0,.54,0,.81-.21-.07-.51-.08-.62-.22-.73-1.07-1.91-1.13-3-1.41-.09,0-.2,0-.25-.08-1.19-1.42-2.87-1.71-4.53-2.15-2.64-.69-5.17-1.83-8-1.55a6,6,0,0,1-1.34,0c-2.18-.24-2.55-.88-1.57-2.86a3.25,3.25,0,0,0,.22-1.43c.4-4,.72-8-.54-11.91a17.81,17.81,0,0,0-3.72-6.67C6.8,68.41,6.8,68.13,6.8,67.85Z"/><path class="cls-1" d="M98.09,41.5c-.59,2.57-2.28,4.67-3.1,7.12a78.69,78.69,0,0,0-2.81,8.74C91.83,59,91,60.45,90.7,62.08a12,12,0,0,1-.27,2.25c-.22.52-.55,1.07-1.16.9s-.75-.9-.52-1.47c.84-2.07.89-4.35,1.74-6.43.57-1.38.87-2.88,1.39-4.29,1-2.78,1.82-5.67,3.32-8.24.62-1.07.69-2.26,1.28-3.29Z"/><path class="cls-1" d="M267.36,125.76c-.06-2.27,1.57-3.83,2.41-5.71.58-1.3,1.66-2.33,2.08-3.73.13-.41.42-1,.87-.86s.3.84.22,1.28c-.6,3.16-2,6-3.15,9Z"/><path class="cls-1" d="M335.84,70.51a3.31,3.31,0,0,1-4.25,2.11c-1.62-.45-3.16-1-3.83-2.75-.24-.62-.9-.69-1.5-.66-.84.06-1.3-.26-1.22-1.15.11-1.25-.51-1.34-1.47-.94-.37.16-.77.6-1.19.08s0-.86.12-1.24c.62-1.4,1.95-1.74,3.24-2.12A5.75,5.75,0,0,0,329,61.45a1,1,0,0,1,1-.59,4.94,4.94,0,0,0,1.71-.27l.79,1.38a9.67,9.67,0,0,0,1.37,3.22,17,17,0,0,0,1.88,4.59Z"/><path class="cls-1" d="M47,70.82c1.21,0,1.53.64,1.49,1.6S48,74.08,47.1,74a1.65,1.65,0,0,1-1.52-1.75A1.42,1.42,0,0,1,47,70.82Z"/><path class="cls-1" d="M302.05,89.68l-.28,0a19.41,19.41,0,0,1,1.71-4.29C303.32,86.91,302.51,88.24,302.05,89.68Z"/><path class="cls-1" d="M90.82,54.12a10.72,10.72,0,0,1-1.34,4A4.34,4.34,0,0,1,90.82,54.12Z"/><path class="cls-1" d="M89.48,58.17A3.11,3.11,0,0,1,89,60.32C89,59.56,88.77,58.75,89.48,58.17Z"/><path class="cls-1" d="M79.32,56.84c-.91.16-1.08-.83-1.44-1.54A1.81,1.81,0,0,1,78.11,53c.5-.47.9-1.42,1.84-.77s2,.75,1.53,2.35C81.17,55.73,81,56.72,79.32,56.84Z"/><path class="cls-1" d="M90.56,99.66c-.86-1.66-.87-3.52-1-5.31-.14-1.37,0-2.76-.74-4a.87.87,0,0,1,.15-1.11c.45-.39.71,0,1,.25.65.48,1.3.77,2,0a1.51,1.51,0,0,0,.12-2.08,3.89,3.89,0,0,0-2.2-2c-.79-.21-1-1-1.32-1.59a2.64,2.64,0,0,0-1.79-1.65,1.86,1.86,0,0,0,.38-2A2.09,2.09,0,0,1,87.11,79a24.58,24.58,0,0,0,.54-8.88c0-.28,0-.61.29-.65s.49.35.44.65c-.11.61-.18,1.22.51,1.48s1.27-.28,1.85-.58a.59.59,0,0,0,.27-.81c-.51-1-.53-2.37-1.8-3a1.38,1.38,0,0,1-.81-1.44c.51.34,1.08.86,1.66.41a2.71,2.71,0,0,0,1-2.57c.69,1.09-.08,2-.22,3.07,0,.37-.59.88,0,1.18s.92,0,1.33-.39A2.36,2.36,0,0,0,92.82,64a2,2,0,0,1,0-2.37c.63-.9.32-2.25,1.37-3,.16-.12.22-.43.5-.35a.58.58,0,0,1,.41.62,3.12,3.12,0,0,1-.67,2,2.19,2.19,0,0,0,.09,3.31,1,1,0,0,1,.18,1.22c-.94,1.37-.49,3.07-1.12,4.51a1,1,0,0,0,.48,1.26c.49.27.89-.08,1.18-.39.6-.6,1.12-1.27,1.68-1.9.27-.3.52-.55,1-.26a7,7,0,0,0,3.6.85c.88,0,1.39.25,1.19,1.39-.23,1.3-.05,2.66-.32,4a1,1,0,0,0,.78,1.35c.25,1.37-1,1.68-1.72,2.28-.52.42-1.1.1-1.51-.4-.64-.78-.34-1.71-.38-2.58A5.77,5.77,0,0,0,99,72.44c-.76,2.57-.3,5.24-.78,7.82s.12,5.25,0,7.88c-.11,1.87.12,3.74-.12,5.6,0,.48,0,1,0,1.46,0,.33.13.82-.36.86s-.46-.46-.43-.78a1.81,1.81,0,0,0-1.09-1.81c-1.15-.65-1.42.18-1.6,1-.13.65-.1,1.58-.91,1.51s-.74-1-.81-1.67a1.78,1.78,0,0,1,1.87-2.19c.67,0,1.15-.22,1.31-.87A2.58,2.58,0,0,0,96,89.07c-.34-.53-.67-.26-.94.1a14.55,14.55,0,0,1-3.39,3.39,1.29,1.29,0,0,0-.53,1.29c.12,1.1.28,2.2.36,3.31C91.53,98.11,91.67,99.12,90.56,99.66Z"/><path class="cls-1" d="M20.21,92.1a2.68,2.68,0,0,0-2.92-1.37c-1.21.16-2.54.3-3.51-.83-.21-.25-.49-.09-.75,0a.9.9,0,0,1-1.23-.5c-.16-.5.23-1,.53-1.31s.66-.14.84.21a1,1,0,0,0,1.24.57c.4-.06.79-.31.34-.69-.82-.66-.51-2.1-1.88-2.45-.44-.12-.22-1.07-.16-1.63s.38-.41.79-.27.42-.29.52-.58a7.32,7.32,0,0,0,.05-2.76c0-3.35.13-6.71.22-10.06,0-.75.53-.83,1-.5a3.79,3.79,0,0,1,1.31,1.33c.71,1.52,2.06,2.43,3.16,3.59.36.38.63.53,1.09.09S22,74,22.64,74.57s.14,1.17-.21,1.68-.46,1,.4,1.08c.43,0,.68.42,1,.71.55.6,1.18.88,1.89.36.53-.39.8-.09,1.14.23a.88.88,0,0,1,.22,1.2,3.18,3.18,0,0,1-1.62,1.53,1.91,1.91,0,0,0-1.31,1.85,1.68,1.68,0,0,0,1.45,1.56,4.86,4.86,0,0,1,2.48,2,3.53,3.53,0,0,1,0,3.8c-.53.78.1,1.25.41,1.79s1.14,1.28.4,2-1.43.06-2.09-.29C24.69,92.91,22.63,91.91,20.21,92.1Z"/><path class="cls-1" d="M26.15,76.75l-.27-.27c0-2.27.37-2.58,2.42-1.88.44.54.09,1.08,0,1.61A2.51,2.51,0,0,1,26.15,76.75Z"/><path class="cls-1" d="M236.89,62.48c.82.52,1.74.13,2.61.26.55.09,1.17-.23,1.66.25a15.76,15.76,0,0,0-5.38.63c-.59.15-1.28.29-1.43,1-.43,2.12-2.32,3.33-3.19,5.19-.51,1.07-1.64.22-2.47.37a8.08,8.08,0,0,0-5.05,2.89,5.06,5.06,0,0,1-2.43,1.78,7.85,7.85,0,0,0-3.74,2.47c-.14.18-.27.41-.51.34s-.26-.43-.26-.69c0-2.51,0-5,0-7.52a1.24,1.24,0,0,0,.39-.09c3.85-2.39,8-4.33,11.34-7.49a7.29,7.29,0,0,1,2.41-1.41,1.18,1.18,0,0,1,1.15,0c1,.7,1.54.45,1.73-.76.05-.3.05-.82.48-.87s.76.37.88.71a9.24,9.24,0,0,1,.75,1.7C236,61.82,236.14,62.41,236.89,62.48Z"/><path class="cls-1" d="M240.4,66.24c-.77-.07-1.29.45-1.87.81C238.81,66,239.43,65.7,240.4,66.24Z"/><path class="cls-1" d="M133.42,115.85a1.21,1.21,0,0,0-.82,1.06c-1-1-.12-1.21.57-1.32a17.6,17.6,0,0,1,2.41,0c.26,0,.57,0,.7-.26s-.13-.48-.35-.63c-1.67-1.08-3.11-2.54-5.48-2.13-1.74.3-2.77-1-2.79-2.9a6.38,6.38,0,0,0-.17-1l1.33.77c0,.1,0,.19,0,.28.06,1.4.5,1.93,1.82,1.87,3.42-.16,6.85-.3,10.28-.26,2.2,0,4.47.35,6.57-.11a31.44,31.44,0,0,1,7.15-.67c.5,0,1.37-.38,1.41.49s-.74,1-1.45,1.09a3.66,3.66,0,0,0-1.75.49c.74.91,1.67.62,2.54.48a6.4,6.4,0,0,0,.87-.36c.47-.13,1,0,1.18.39.23.6-.44.75-.81.81a51.67,51.67,0,0,1-7,.89,5.88,5.88,0,0,0-3,.82c-2.57.48-5.21,0-7.8.68-1.22.31-2.63-.13-3.95-.24Z"/><path class="cls-1" d="M130.45,62.21c.92-.31,1.68-1,2.69-1.08,0,1.48-1.33,2.4-1.62,3.77a12.58,12.58,0,0,0,0,5.66c-1.65,1.2-2.19,3.31-3.77,4.57l-.81.26C128.45,71.08,128.17,66.31,130.45,62.21Z"/><path class="cls-1" d="M139.87,122.82l-1.6-1.86C139.18,121.26,140,121.61,139.87,122.82Z"/><path class="cls-1" d="M87.59,100.74a3.13,3.13,0,0,1,0-2.69c.52.85.15,1.79.27,2.68Z"/><path class="cls-1" d="M97.84,88.08c-.09-1.76-.29-3.53-.24-5.28s.37-3.63.49-5.45c.08-1.29,0-2.59,0-3.89a2.4,2.4,0,0,1,.35-1.41.79.79,0,0,1,.8-.38c.42,0,.41.37.48.69A30.63,30.63,0,0,1,100,78.1a17.63,17.63,0,0,0-.14,5.18c.14,2.61.15,5.23.12,7.85a3.59,3.59,0,0,0,1.34,3,1.78,1.78,0,0,1,.3,2.8,1.46,1.46,0,0,1-1.85.64c-.85-.38-1-1.15-1.14-2A45.71,45.71,0,0,1,97.84,88.08Z"/><path class="cls-1" d="M97.84,88.08c.56,1.22.17,2.52.25,3.78,0,.67,0,1.34.61,1.8s.24,1,.19,1.47C98.68,97,100,98.22,101.61,97a1.21,1.21,0,0,1-1.47,1,1.84,1.84,0,0,1-1.52-1.16c-.5-1,.11-2.15-.51-3.1C97.52,91.87,98,90,97.84,88.08Z"/><path class="cls-1" d="M26.41,107.06c.09-.5-.23-1.46.68-1.37s1.27,1.08,1.4,1.88-.5,1-1.16,1C26.32,108.54,26.42,107.79,26.41,107.06Z"/><path class="cls-1" d="M24.08,75.5c.59.42,1.1.77,1.05,1.48,0,.24-.31.29-.54.2C23.79,76.87,24,76.25,24.08,75.5Z"/><path class="cls-1" d="M81.12,54.13c-.13,1-.27,2-1.44,2.06s-1.48-.81-1.52-1.81.18-1.57,1.18-1.59A1.63,1.63,0,0,1,81.12,54.13Z"/><path class="cls-1" d="M96.5,76.23a7.18,7.18,0,0,0-.23-4.2,1,1,0,0,1,.32-1.34.8.8,0,0,1,.78,0c.57.26.55.83.44,1.29a30.9,30.9,0,0,0-.26,5.35c0,.34.24.94-.38.92-.42,0-.65-.45-.67-.89S96.5,76.59,96.5,76.23Z"/><path class="cls-1" d="M101.07,71.46c0,.41,0,.89-.58.86s-.53-.44-.47-.81.15-.88.64-.87S101,71.14,101.07,71.46Z"/><path class="cls-1" d="M261.92,141.33a34.92,34.92,0,0,0-6.3-.09,6.13,6.13,0,0,0-3.85,1.31c-1.81,1.6-2.18,3.64-2.18,5.82,0,15.8,0,31.61,0,47.41,0,.58.31,1.41-.53,1.61s-1-.56-1.38-1.06c-.71-1-1.45-1.93-2.13-2.93-3.11-4.54-6.38-9-9.52-13.47q-7.29-10.53-14.72-21c-3.48-4.93-6.89-9.91-10.43-14.8a6.91,6.91,0,0,0-4.6-2.76,44.31,44.31,0,0,0-8.46-.18,5.93,5.93,0,0,0-4.44,1.53,7.68,7.68,0,0,0-2,5.67q0,37.11,0,74.22a17.22,17.22,0,0,0,.61,4.1,4.62,4.62,0,0,0,4,3.65,32.85,32.85,0,0,0,8.17.13,4.86,4.86,0,0,0,4.08-2.93,8.1,8.1,0,0,0,.7-3.65V176.52a4.22,4.22,0,0,1,.15-1.73c.16-.36.14-.84.63-.95s.8.29,1.06.66c3,4.28,6,8.55,9,12.86,2.8,4.1,5.65,8.16,8.51,12.22,6.36,9,12.59,18.15,18.91,27.21,1.48,2.14,3.42,3.73,6.16,3.82s5.48.1,8.21,0a5.16,5.16,0,0,0,4.85-3,8.51,8.51,0,0,0,.74-3.64V172.6c0-8.31,0-16.61,0-24.92C267.07,144.55,265.74,141.75,261.92,141.33Z"/><path class="cls-1" d="M86.14,213.92h-33a6.63,6.63,0,0,1-1.34,0c-1.31-.27-1.54-1-.75-2.07q4.14-5.79,8.23-11.59c2.6-3.69,5.15-7.42,7.76-11.1,4.41-6.2,8.85-12.36,13.27-18.54q3.81-5.35,7.59-10.73c1.6-2.3,3.55-4.43,3.89-7.39a27.09,27.09,0,0,0,0-6.3,5.43,5.43,0,0,0-1.26-3.05,6.33,6.33,0,0,0-5.11-1.92c-8.75,0-17.51,0-26.27,0H32.33c-3.95,0-6.18,2.25-6.19,6.15v4.45c0,3.75,2.37,6.11,6.15,6.11H64.36c.88,0,1.83,0,2.27.82s-.32,1.32-.72,1.89q-5.59,7.88-11.18,15.74c-1.86,2.62-3.67,5.28-5.54,7.9q-6.81,9.56-13.64,19.09c-2.13,3-4,6.13-6.38,9a16.3,16.3,0,0,0-3.66,13,5.94,5.94,0,0,0,6.12,5.42c9.11-.11,18.23,0,27.35,0H86.73a5.35,5.35,0,0,0,5.49-4.5,29.11,29.11,0,0,0,.21-5.9C92.46,216.12,90.24,213.92,86.14,213.92Z"/><path class="cls-1" d="M339.69,217.44c-.84-2.49-3.18-3.73-6.27-3.62-6.15.22-12.3.05-18.45.09-4.89,0-9.79,0-14.68,0-2.43,0-3-.61-3-3V195.66c0-2.35.4-2.73,2.7-2.76,10.23-.15,20.46.31,30.69-.25a5.17,5.17,0,0,0,5.16-4.23,23.25,23.25,0,0,0,.12-7.76,5.12,5.12,0,0,0-4.51-4.68,27.79,27.79,0,0,0-4.27-.31c-9.17,0-18.33,0-27.49,0-1.88,0-2.4-.51-2.4-2.38V161c0-2.57.57-3.14,3.17-3.14h29.77c1,0,2,0,2.94,0,2.53-.15,5-1.42,5.44-4.56a46.26,46.26,0,0,0,.16-6.44,5.47,5.47,0,0,0-5.67-5.69q-23.85,0-47.7,0a5.59,5.59,0,0,0-5.66,4.87,13.3,13.3,0,0,0-.24,2.66v37.19q0,18.93,0,37.85c0,2.58.63,4.91,3.1,6.26,1.51.83,3.19.65,4.84.64q20.9,0,41.77,0c1.57,0,3.14,0,4.71.09,2.72.09,5-1.19,5.79-3.67A15.22,15.22,0,0,0,339.69,217.44Z"/><path class="cls-1" d="M183.13,174.44a45.14,45.14,0,0,0-7.2-16.2,44.63,44.63,0,0,0-8.87-9.43,46.14,46.14,0,0,0-13.53-7.32,49.59,49.59,0,0,0-19.42-2.28,47.09,47.09,0,0,0-17.49,4.6,42.9,42.9,0,0,0-13.87,10.58A46.26,46.26,0,0,0,96,164.65a45.67,45.67,0,0,0-4.6,20.58,49.63,49.63,0,0,0,1.37,12.91,45.29,45.29,0,0,0,9.21,18.32,45.79,45.79,0,0,0,15.31,11.79,47.31,47.31,0,0,0,19.31,4.49,48.56,48.56,0,0,0,13.38-1.49A47,47,0,0,0,162.63,226a45,45,0,0,0,11.11-9.63,43.53,43.53,0,0,0,7.19-12,48.79,48.79,0,0,0,3.22-13.89A51.2,51.2,0,0,0,183.13,174.44Zm-21.46,28.83A25.6,25.6,0,0,1,145,215a31.64,31.64,0,0,1-16.14-.64,24,24,0,0,1-8.07-4.45,27.84,27.84,0,0,1-10.06-17,33.47,33.47,0,0,1,2.69-22.09,25.83,25.83,0,0,1,19.61-14.55c7.79-1.3,15.26,0,21.82,4.77a27.44,27.44,0,0,1,9.93,14.16A31.67,31.67,0,0,1,166.42,186,30.49,30.49,0,0,1,161.67,203.27Z"/></g></g></svg>