<svg xmlns="http://www.w3.org/2000/svg" viewBox="0 0 584.86 104.91"><defs><style>.cls-1{fill:#2b2b2b;}</style></defs><g id="Layer_2" data-name="Layer 2"><g id="Layer_1-2" data-name="Layer 1"><path class="cls-1" d="M184.23,39.75c5.28-5.56,9.09-5.55,14,.13,1.72-2,3.63-3.73,6.4-4.15,4.46-.69,7.88,1.38,8.1,5.87.4,8.28.21,16.59.33,24.89,0,1.74-.7,2.27-2.36,2.27-1.83,0-2.72-.53-2.7-2.55.08-6.64.09-13.28,0-19.92,0-2.37.55-5.5-3-5.85s-5.09,2.55-5.6,5.3c-1.23,6.55-.27,13.23-.55,19.85-.05,1.31.7,3.1-1.85,3.18-2.15.07-3.34-.21-3.26-2.86.18-6.14.15-12.29,0-18.43-.06-2.82.66-6.79-3.53-7s-5.5,3.55-5.72,6.92c-.36,5.62,0,11.28-.16,16.93,0,1.69,1.17,4.3-2.29,4.38-3.88.1-2.48-2.81-2.51-4.6q-.2-11.7,0-23.4c0-1.42-1.15-3.55,1.22-4.23C183.49,35.71,183,38.75,184.23,39.75Z"/><path class="cls-1" d="M257.23,41.25c2.57-2.61,4.85-4.37,7.9-5.12,8.66-2.11,14.34,1.27,15.23,10,.66,6.59.24,13.28.39,19.92,0,1.88-.55,2.63-2.53,2.71-2.42.11-2.68-1.1-2.65-3,.07-5,.15-10-.05-15-.31-7.44-2.78-10.46-8-10.29-5.47.18-9.72,5-9.76,11.06,0,4.82-.1,9.65,0,14.46.06,2.22-.78,2.86-2.89,2.87-2.33,0-2.21-1.41-2.22-3,0-6.64.06-13.29-.16-19.93-.08-2.35.75-5.75-3.67-5.49-1.15.07-1.05-1.05-1.05-1.85s-.17-1.62.75-2.15C251.61,34.71,256.53,37.08,257.23,41.25Z"/><path class="cls-1" d="M305.23,69.56c-8.13-.07-12.57-4.13-13-11.84-.26-4.3-.19-8.64,0-13,.09-2.57-.34-4.08-3.43-3.8-1.74.15-4.24,1-4.16-2.49s2.59-2,4-1.94c2.91.19,3.92-.86,3.46-3.64s1.26-3.58,3.5-3.62c3.08-.05,1.7,2.45,1.62,3.65-.17,2.93,1,3.75,3.73,3.56a68.31,68.31,0,0,1,9.49,0c1.61.11,4.46-1.43,4.3,2.2-.16,3.48-2.93,1.9-4.56,2a92.27,92.27,0,0,1-10,.05c-2.17-.08-3,.76-2.9,2.91.11,4-.1,8,.07,12,.36,8.47,6.3,11.91,14.13,8.48,1.31-.57,2.93-3.88,4.59-.18,1.43,3.19-1.6,3.14-3,3.92A14.84,14.84,0,0,1,305.23,69.56Z"/><path class="cls-1" d="M402.78,42.79c0,5,0,10,0,14.94.09,6.85,3.41,9.06,9.59,6.26,1.72-.79,3.05-2,4.23.57s-1.15,2.79-2.36,3.44c-9.2,4.91-16.38.7-16.49-9.66-.1-8.8-.07-17.6,0-26.4,0-2.34.14-4.4-3.21-3.92-1.82.27-2.7-.47-2.67-2.5.05-2.51,1.78-1.9,3.15-2,7.76-.42,7.76-.41,7.76,7.29Z"/><path class="cls-1" d="M232.83,68.74c-3.66,0-7.32,0-11,0-1.42,0-3.06.44-3.11-2-.05-2.23,1.2-2.2,2.84-2.3,8.38-.52,8.37-.55,8.37-9.1v-5c0-8.82,0-8.88-8.57-9.5-1.83-.14-2.7-.47-2.65-2.51s1.31-1.93,2.66-1.91h1c12.69-.29,12.69-.29,12.69,12.32v6.48c0,8.36,0,8.39,8.45,9.12,1.42.12,2.54.05,2.58,2,0,2.16-1.06,2.41-2.79,2.38C239.82,68.69,236.33,68.74,232.83,68.74Z"/><path class="cls-1" d="M466.83,69.48c-3.21-.06-4.51-1.77-4.46-4.46s1.48-4,4.11-4,4.44,1.2,4.42,4.15S469.34,69.4,466.83,69.48Z"/><path class="cls-1" d="M232.69,31.39c-2.58-.15-4.3-1.43-4.41-3.86a3.87,3.87,0,0,1,4.19-4.39c2.71,0,4.34,1.58,4.32,4.29S234.86,31,232.69,31.39Z"/><path class="cls-1" d="M518.36,80.09c1.43-1.82,3.3-.83,5-.79C522.27,83.19,520.4,82.15,518.36,80.09Z"/><path class="cls-1" d="M555,79.3h5.19c.21,2-.92,2.34-2.6,2.31S554.76,81.31,555,79.3Z"/><path class="cls-1" d="M560.07,40.15a6.86,6.86,0,0,0-8.51-3.71,1.58,1.58,0,0,0-1.16,1.82c0,1-.18,2.31,1.22,2.24,4.15-.21,3.31,2.88,3.34,5.09.13,9.61.08,19.21.1,28.82h5.07c.85-3.22,2.73-4.11,6.17-3.92,9.88.54,15.54-3.41,18.45-12.13v-12C579.82,34.37,570.76,32.08,560.07,40.15Zm6.17,25c-4.21-.35-7-1.76-6.12-6.71a20.07,20.07,0,0,0,0-3.47c0-1.15,0-2.31,0-3.47.08-6.36,3.89-10.7,9.63-11s9.09,3.13,9.65,10.11C580.17,59.93,574.76,65.84,566.24,65.13Z"/><path class="cls-1" d="M32.6,67.41c0,11.92-.13,22.35.07,32.78.06,3.22-.76,4.27-4.11,4.16-8.32-.25-16.65-.2-25,0C.7,104.4,0,103.5,0,100.7Q.15,52.33,0,4C0,1,.94.32,3.69.43c6.48.25,13.76-1.57,19.25.82,5.29,2.31,7.6,9.65,11.2,14.8,8.09,11.57,16.07,23.21,24.12,34.84,1.87-.82,2.48-2.64,3.48-4.07,10-14.3,20-28.59,29.78-43C93.21,1.33,94.94.26,98,.41c5.15.25,10.32.15,15.48,0,2.32,0,3.52.19,3.5,3.12q-.23,29.93,0,59.85c0,2.75-.94,3.26-3.42,3.22-8.16-.14-16.32,0-24.48-.11a5.73,5.73,0,0,0-5.37,2.71C79.55,75.06,75.1,80.67,71,86.51c-1.51,2.14-3.26,2.54-5.73,2.95-11.67,2-20.09-1.82-25.51-12.5C38.22,73.92,35.65,71.41,32.6,67.41Z"/><path class="cls-1" d="M116.51,90.42c0,4.44,2.25,10.18-.42,13s-8.5.86-12.92.83c-4.59,0-10.5,2.06-13.4-.9-2.65-2.71-.75-8.53-.74-13s-1.9-10.14.8-13,8.5-.91,12.92-.88c4.58,0,10.71-2.12,13.31.94C118.26,80,116.51,86,116.51,90.42Z"/><path class="cls-1" d="M387.17,47.13c-1.44-8-6.55-12-14.31-11.51-3.42.2-6.38,1.58-9.88,4.28,0-5-.1-9.14,0-13.25.09-2.3-.52-3.42-3-3.14a41.5,41.5,0,0,1-5,0c-1.22,0-2.36,0-2.34,1.72,0,1.36-.12,3,1.86,2.72,3.72-.51,3.44,1.8,3.43,4.24q-.07,15.47,0,30.92c0,1.73-.57,3.7,2,4.48,7.6,2.33,15.24,3.18,21.95-1.89C388,61.07,388.45,54.15,387.17,47.13Zm-19,17.67c-4.17-.57-5.91-2.21-5.17-6.37a17.42,17.42,0,0,0,0-3c0-2-.14-4,0-6,.49-5.51,4.49-9.24,9.73-9.25s8.5,3.18,9.2,9C383.3,60.5,378.09,66.18,368.13,64.8Z"/><path class="cls-1" d="M545.32,40.78c-1.27-2.43-3.68-3.68-6.35-4.46-6.08-1.75-11.34-.24-16,4-1.1-3.23-6.25-5.42-8.63-3.81-1.51,1-1.11,3.67-.23,3.71,6,.3,3.08,5,4.16,7.72,0,7.29.26,14.59,0,21.88-.14,4,1,5.64,5.06,4.54-.74-4.45.18-6.2,5.48-5.22,6.8,1.25,13.12-1,16.6-7.42C549.14,54.92,548.93,47.69,545.32,40.78ZM529.61,65.15c-4.22-.29-7.12-1.6-6.25-6.63a20.31,20.31,0,0,0,0-3.49h.07a60.87,60.87,0,0,1,0-6.48c.47-4.28,4.77-7.84,9.44-8,4.87-.21,7.78,2,9,6.8C544.64,57.84,539.11,65.79,529.61,65.15Z"/><path class="cls-1" d="M430.19,53.56c3,.22,6,0,9,0,3.16,0,6.33-.18,9.48.06,2.77.21,3.26-.9,3.21-3.4-.14-6.76-3.05-11.84-8.16-13.57-6.53-2.22-14.91-.19-18.82,4.57-5,6-4.58,18.66.75,24.08s18,5.63,24.16.77c1.33-1.06,1.46-1.94.74-3.31-1-1.95-2.14-.7-3.16-.11a20.56,20.56,0,0,1-7.53,2.47c-6.19.84-11.32-2.5-12.71-7.89C426.4,54.42,427.14,53.33,430.19,53.56Zm-2-8.77c2.22-4,6.07-4.72,10.21-4.63a8,8,0,0,1,7.73,5.12c1.18,2.69.84,4-2.46,3.77-2.31-.17-4.63,0-6.95,0a53.65,53.65,0,0,0-5.95,0C426.64,49.5,426.65,47.56,428.17,44.79Z"/><path class="cls-1" d="M510.94,64.54c-3.94.3-3.12-2.46-3.15-4.62-.05-5,.19-10-.05-14.92-.22-4.62-2.6-7.89-7.4-8.65a27,27,0,0,0-13.26,1.23c-1.21.43-3.15.54-2.36,2.9s2.16,1.76,3.88,1.14a19.59,19.59,0,0,1,9.8-1.16c4.48.71,4.66,4.11,4.46,7.58-.25,4.29-3.24,1.45-4.82,1.54-3.66.21-7.32.18-10.72,1.74-4.14,1.9-5.79,5.31-5.43,9.7s3,6.91,7.11,7.89c5.29,1.27,9.81-.28,14.15-4.91-.32,7,4.31,4.25,7.31,4.69a1.57,1.57,0,0,0,2-1.61C512.47,65.92,512.58,64.41,510.94,64.54ZM493.77,65c-3.55,0-6.2-1.35-6.2-5.44,0-3.81,3.13-5.61,9.84-5.57,1.42,1.22,5.43-1.91,5.41,3C502.8,61.17,498.64,65,493.77,65Z"/><path class="cls-1" d="M351.69,64.76c-5.52-.14-3.56-4.07-3.78-6.74s.1-5.31.13-8c.15-11.89-3.1-14.9-14.94-13.72a26.37,26.37,0,0,0-5.82,1.24c-1.19.4-3.24.46-2.41,2.83.76,2.16,2,2,3.86,1.28a19.31,19.31,0,0,1,9.79-1.24c4.55.63,4.75,4,4.58,7.49-.2,4.15-3.18,1.62-4.83,1.67-3.67.11-7.32.18-10.73,1.72-4.16,1.89-5.78,5.36-5.41,9.71s3,6.91,7.14,7.88c5.29,1.23,9.81-.31,14-4.67.89,3.86,6.53,6.14,8.75,4.11C353.13,67.29,353.17,64.8,351.69,64.76ZM333.5,65c-3.35-.12-5.81-1.47-5.91-5.27s3-5.75,9.68-5.75c1.59,1.11,5.83-1.92,5.58,3.3C342.66,61.46,338.28,65.19,333.5,65Z"/><rect class="cls-1" x="175.86" y="74.46" width="409" height="4" rx="2"/></g></g></svg>