<svg xmlns="http://www.w3.org/2000/svg" viewBox="0 0 739.22 85.26"><defs><style>.cls-1{fill:#2b2b2b;}</style></defs><g id="Layer_2" data-name="Layer 2"><g id="Layer_1-2" data-name="Layer 1"><path class="cls-1" d="M130.63.08c24.13-1,43.52,22,42.59,43.16-1,23.86-18.82,42.13-43,42-24.41-.11-42.11-18.6-42.76-43.1C86.87,21,107.94-1.56,130.63.08Zm-.56,61.2c10.75.11,18.7-7.43,18.91-18,.22-10.75-7.87-19.35-18.33-19.5a18.59,18.59,0,0,0-18.92,18.22C111.53,53.11,119.2,61.16,130.07,61.28Z"/><path class="cls-1" d="M42.58,42.25C38,54.33,33.65,64.48,30.24,74.93c-2.15,6.6-5.17,10-12.66,9-5.39-.74-11-.14-17.58-.14L15.77,47.73C21.54,34.54,27.44,21.4,33,8.13c1.77-4.2,4-6.32,8.92-6,4.49.33,8.14-.09,10.5,5.46,10.21,24.06,21,47.85,31.62,71.76a30.22,30.22,0,0,1,1.13,4.39c-8,0-15.5.33-23-.23-1.82-.13-4.16-2.85-5-4.9-4.05-9.83-7.65-19.85-11.46-29.77C45.16,47.24,44.27,45.72,42.58,42.25Z"/><path class="cls-1" d="M553.43,10.68c-12.34,0-24.51.23-36.66-.1-5.44-.15-7.36,1.48-7.25,7.11q.48,25.62,0,51.23c-.11,5.47,1.77,6.77,6.87,6.65,13.52-.29,27.07-.38,40.59,0,6,.18,8-1.34,7.92-7.67-.42-19.29,0-38.6-.25-57.9-.06-5.16,1.47-7.22,6.81-6.78,5.07.43,10.2.08,15.3.08,15.5,0,26.75,7.16,29.29,18.65,3.11,14.08-2.28,23.74-18.32,31.59L617,82.82c-6.08,2-9.87.55-13-4.68-6.05-10-12.7-19.63-19.15-29.48,4.75-1.38,9.08-2.12,13-3.87,7.75-3.48,11.57-11.18,10.42-19.69-1-7.36-7-13-15.42-14.34-18.37-3-19.85-1.74-19.85,16.54v56c-2.56.12-4.67.3-6.78.31-19.08,0-38.17-.17-57.24.13-5.63.09-7.89-1.28-7.8-7.36.32-22,.27-43.93,0-65.89-.06-5.4,1.44-7.44,7.11-7.28,13.3.36,26.62.27,39.93,0C553.11,3.16,555.45,4.44,553.43,10.68Z"/><path class="cls-1" d="M326.86,83.61c-17.19,0-33.35,0-49.52,0-4.55,0-4.06-3.1-4.06-6q0-25.62,0-51.24V19.53l-1.74-.43L241.8,58.87,213.08,20.35l-1.65.51V83.23h-8.12V4.08c5.85-2.1,9.28.16,12.48,4.79,8.16,11.82,16.78,23.32,25.94,35.94,4.22-5.21,8-9.64,11.55-14.31,5.46-7.25,10.68-14.69,16-22,4.07-5.56,4.21-5.58,12.56-4.5V75.24h44.59C326.61,78.06,326.71,80.33,326.86,83.61Z"/><path class="cls-1" d="M626.09,61.26l6-.28c6,14.11,10.34,17.07,22.46,15.58A13.41,13.41,0,0,0,666.22,67c1.75-5.47,1.52-11.48-3.94-15-5-3.19-10.64-5.23-15.94-7.92-4.31-2.18-8.77-4.2-12.71-7-7.55-5.29-7.58-13.36-5.74-21A17,17,0,0,1,641.72,3.19c10.16-1.88,20.74-2.9,28.1,6.57,2.66,3.43,3.54,8.25,5.53,13.18-2.87.41-3.7.62-4.54.63-1.09,0-2.18-.11-3.17-.16-4-11.54-9.65-15.54-20-14.08-6.29.89-10.8,4-11.93,10.65s1.58,11.35,8.12,14.3c7.26,3.27,15.09,5.57,21.75,9.76,13.72,8.63,13.74,26.76.67,36.25C658.16,86.15,640.66,85.44,633,79,627.71,74.55,624.68,69.22,626.09,61.26Z"/><path class="cls-1" d="M739,83.62c-16.55,0-32.52.11-48.47-.18-1.51,0-4.26-2.6-4.28-4-.26-25-.19-50-.19-75.59h53.12v6.71h-44V75.15H739Z"/><path class="cls-1" d="M401.59,16.71q-9.07,23.84-18.15,47.67c-1.74,4.55-3.86,9-5.16,13.66-1.43,5.1-4.38,6.12-9.77,4.51a59.93,59.93,0,0,1,1.79-7.39c8.28-21.95,16.67-43.86,25-65.8,1.29-3.4,2.38-6.22,7.2-6.22s5.7,2.88,7,6.32C418.2,32.64,427.05,55.78,435.82,79a31.76,31.76,0,0,1,.92,3.84c-5,1.88-7.92.84-9.83-4.34-6.79-18.49-14-36.84-21-55.24-.86-2.23-1.8-4.43-2.7-6.64Z"/><path class="cls-1" d="M426.15,4.25c4.78-2,7.58-1,9.36,4,6.78,19,13.85,37.82,20.83,56.7.44,1.2,1.1,2.32,2.56,5.37,3.64-9.89,6.71-18.18,9.73-26.5,4.24-11.65,8.62-23.25,12.56-35,1.71-5.1,4.55-6.61,10.45-4.59-3.33,9.44-6.58,18.93-10,28.34-5.55,15.18-11.08,30.38-17,45.42a11.12,11.12,0,0,1-6,5.47c-3.93,1.48-5.14-2-6.24-5Q439.3,42.63,426.17,6.77A9.53,9.53,0,0,1,426.15,4.25Z"/><path class="cls-1" d="M293.06,10.68c-.85-4.32-1.42-7.37,3.57-7.36q40.2.14,80.38.19c.4,0,.79.33,1.69.72.09,1.63.19,3.49.29,5.31-1,.46-1.53,1-2.11,1-6.87.1-13.75.45-20.59.07-5.63-.32-7.24,1.88-7.17,7.27.22,20.15.09,40.31.07,60.46,0,1.31-.23,2.61-.39,4.43h-7.09V60.24c0-14-.31-27.92.13-41.85.21-6.34-2.11-8-8-7.82C320.34,10.92,306.87,10.68,293.06,10.68Z"/><path class="cls-1" d="M730.73,39.44c2,6.43-.27,8.23-5.61,7.91s-10.67.19-16-.3c-1.44-.13-2.66-2.54-4-3.91,1.42-1.23,2.78-3.46,4.26-3.54C716.47,39.23,723.55,39.44,730.73,39.44Z"/><path class="cls-1" d="M520.57,46.36V39.84h25c.12,1.92.24,3.95.39,6.52Z"/><path class="cls-1" d="M317.54,39.4c1.82,5.48.5,7.77-4.8,7.53s-10.56.18-15.8-.23c-1.56-.13-3-2.07-4.46-3.18,1.45-1.37,2.69-3.34,4.42-4,2-.69,4.33-.17,6.53-.17Z"/></g></g></svg>