<svg width="20" height="14" viewBox="0 0 20 14" fill="none" xmlns="http://www.w3.org/2000/svg">
<path d="M7.11314 0.258118H7.14321C7.19943 0.335674 7.25067 0.4158 7.29669 0.498137C7.42504 0.711275 7.54801 0.926716 7.65572 1.14869C7.67143 1.18133 7.69072 1.19784 7.73336 1.18709C7.74546 1.18484 7.75778 1.18356 7.77016 1.18325C7.93217 1.16405 8.09373 1.14293 8.25574 1.1268C8.54387 1.09799 8.83288 1.07802 9.1219 1.06343C9.34629 1.05229 9.56799 1.04807 9.79104 1.04538C10.0343 1.04269 10.2771 1.04769 10.5203 1.05613C10.7636 1.06458 11.0104 1.07802 11.2545 1.09454C11.5555 1.11604 11.8556 1.14587 12.1548 1.18402C12.2302 1.194 12.2297 1.19323 12.2594 1.13486C12.3832 0.891769 12.512 0.650598 12.6574 0.415955C12.6933 0.365636 12.7243 0.31284 12.7499 0.258118L12.7948 0.258118C12.8085 0.262825 12.8226 0.266675 12.8369 0.269639C13.1717 0.319563 13.5034 0.380624 13.8337 0.449365C14.3901 0.565309 14.939 0.706317 15.4781 0.8718C15.9235 1.00928 16.3614 1.1629 16.7916 1.33264C16.8414 1.35139 16.8834 1.38241 16.9124 1.42173C17.0834 1.64793 17.2525 1.87527 17.4141 2.10646C17.7361 2.56714 18.0309 3.04138 18.2973 3.52738C18.528 3.94827 18.735 4.37737 18.9184 4.81465C19.1817 5.44128 19.3935 6.0829 19.5521 6.7348C19.6262 7.03973 19.6895 7.34618 19.7397 7.65456C19.772 7.85157 19.8016 8.04896 19.8214 8.2475C19.8313 8.34658 19.8411 8.44566 19.8524 8.54436C19.8703 8.70028 19.8802 8.85696 19.8887 9.01326C19.8972 9.16956 19.8945 9.33162 19.8959 9.49061C19.8955 9.5114 19.8994 9.53209 19.9076 9.55167V9.9215C19.8878 9.93916 19.8968 9.9599 19.8968 9.98141C19.8968 10.0636 19.8968 10.1454 19.8968 10.2276C19.8856 10.3397 19.8905 10.4518 19.8829 10.5644C19.869 10.7717 19.8492 10.9784 19.8335 11.1853C19.8334 11.2072 19.827 11.2288 19.8149 11.2481C19.8027 11.2674 19.7852 11.2838 19.764 11.2959C19.2435 11.626 18.7023 11.9315 18.1429 12.2111C17.6626 12.4502 17.1683 12.6681 16.6619 12.8639C16.223 13.0333 15.7756 13.1842 15.3214 13.3206C15.1576 13.3697 14.9911 13.4123 14.8278 13.4603C14.795 13.4699 14.7766 13.4653 14.7609 13.4411C14.7539 13.4324 14.7464 13.4239 14.7385 13.4158C14.5939 13.2403 14.4535 13.0629 14.3197 12.8812C14.1066 12.5921 13.9131 12.2933 13.7305 11.9891C13.7067 11.9507 13.7076 11.9484 13.7583 11.9307C13.7695 11.9265 13.7812 11.9231 13.7929 11.9192C14.2941 11.7507 14.78 11.5504 15.2465 11.3201C15.2972 11.2952 15.3466 11.2679 15.3955 11.2433C15.3914 11.2345 15.391 11.2295 15.3878 11.2272C15.264 11.1423 15.1392 11.0582 15.0162 10.9726C15.0081 10.9663 14.9977 10.9627 14.9867 10.9622C14.9758 10.9617 14.965 10.9644 14.9561 10.9699C14.8909 10.9955 14.8257 11.0211 14.7604 11.0467C14.2831 11.2307 13.7923 11.388 13.2911 11.5175C12.8755 11.6258 12.4531 11.7143 12.026 11.7825C11.6602 11.8405 11.2922 11.882 10.9215 11.9089C10.7344 11.9223 10.5463 11.9327 10.3579 11.9361C9.95395 11.9434 9.55004 11.943 9.14614 11.9158C8.86968 11.8973 8.59413 11.8717 8.31947 11.839C7.86286 11.7829 7.41069 11.703 6.96549 11.5997C6.28006 11.4418 5.61211 11.2329 4.96929 10.9753C4.95502 10.9682 4.93836 10.9655 4.92205 10.9676C4.90574 10.9697 4.89075 10.9765 4.87953 10.9868C4.77811 11.0613 4.67309 11.1331 4.56538 11.2011C4.54833 11.2118 4.52679 11.2211 4.5205 11.2414C4.5327 11.2552 4.54918 11.2659 4.56807 11.2721C4.76434 11.372 4.9642 11.4663 5.16765 11.5552C5.48138 11.6923 5.80314 11.8156 6.13164 11.9246C6.2021 11.948 6.20165 11.948 6.1671 12.0087C6.08587 12.152 5.99701 12.2917 5.9059 12.4311C5.67824 12.7772 5.42833 13.1122 5.15733 13.4346C5.154 13.4411 5.14918 13.4469 5.14316 13.4517C5.13714 13.4566 5.13004 13.4603 5.12229 13.4628C5.11455 13.4652 5.1063 13.4663 5.09806 13.4659C5.08981 13.4656 5.08173 13.4638 5.0743 13.4607C4.54653 13.3179 4.02923 13.1541 3.5224 12.9696C2.96807 12.7666 2.42762 12.537 1.90363 12.2818C1.40985 12.0413 0.930542 11.7797 0.46752 11.4979C0.354426 11.4292 0.243127 11.3585 0.130482 11.2883C0.1163 11.2819 0.10415 11.2726 0.0950794 11.2613C0.0860093 11.25 0.0802925 11.237 0.0784228 11.2234C0.065408 11.0586 0.0452127 10.8942 0.0357882 10.7295C0.0272613 10.579 0.011105 10.4288 0.0142465 10.2783C0.0142465 10.2621 0.0209783 10.2437 0.00123172 10.231C0.00841228 9.8854 -0.0122319 9.53977 0.0129001 9.19414C0.0218759 9.06511 0.0254661 8.93569 0.0335443 8.80665C0.0470078 8.59544 0.0681008 8.38422 0.0941303 8.17377C0.12734 7.89957 0.170274 7.62653 0.222932 7.35463C0.28636 7.01976 0.363701 6.68693 0.454954 6.35615C0.599121 5.84088 0.776361 5.33281 0.985867 4.83423C1.21552 4.28747 1.48056 3.75207 1.77977 3.23052C1.89286 3.03198 2.01403 2.83727 2.1388 2.64334C2.40807 2.22167 2.69634 1.81037 3.00361 1.40944C3.02555 1.3795 3.05743 1.35584 3.09516 1.34147C3.22979 1.29116 3.36443 1.23893 3.49637 1.18786C4.53945 0.801616 5.6276 0.511447 6.74244 0.322251L7.11314 0.258118ZM15.049 7.50786C15.0561 7.20056 14.9723 6.89673 14.8053 6.62459C14.6029 6.29432 14.3117 6.0424 13.9104 5.88994C13.6046 5.77253 13.263 5.74159 12.9352 5.80161C12.5769 5.86439 12.253 6.02714 12.0143 6.26437C11.649 6.61499 11.483 7.03243 11.4699 7.49941C11.4683 7.60112 11.477 7.70276 11.496 7.80318C11.5727 8.23291 11.7832 8.60389 12.1665 8.89536C12.503 9.15151 12.8944 9.2817 13.3504 9.26135C13.564 9.25232 13.7732 9.20606 13.9652 9.1254C14.331 8.9706 14.6266 8.71645 14.8058 8.40265C14.9716 8.12605 15.0552 7.8187 15.049 7.50786ZM4.85799 7.51631C4.85534 7.67567 4.87737 7.83464 4.92351 7.98905C5.04064 8.38115 5.27042 8.71372 5.6474 8.96449C6.00015 9.19875 6.40002 9.30282 6.84521 9.2552C7.29041 9.20758 7.6445 9.02478 7.93082 8.73791C8.26203 8.40457 8.41372 8.01209 8.43705 7.58044C8.44742 7.40641 8.42806 7.23202 8.37961 7.06277C8.22971 6.54356 7.90031 6.14109 7.32631 5.90261C7.05631 5.7908 6.75389 5.74928 6.45656 5.78318C6.01496 5.82888 5.65458 6.00937 5.36871 6.29701C5.01955 6.64878 4.86382 7.06046 4.85799 7.51631Z" fill="white" fill-opacity="0.8"/>
</svg>
