<svg width="20" height="14" viewBox="0 0 20 14" fill="none" xmlns="http://www.w3.org/2000/svg">
<path d="M7.11314 0H7.1432C7.19943 0.0775561 7.25067 0.157682 7.29669 0.24002C7.42504 0.453157 7.54801 0.668598 7.65572 0.890569C7.67143 0.923211 7.69072 0.939725 7.73336 0.928972C7.74546 0.926724 7.75778 0.925439 7.77016 0.925131C7.93217 0.90593 8.09373 0.884808 8.25574 0.868679C8.54386 0.839876 8.83288 0.819907 9.1219 0.805314C9.34629 0.794177 9.56799 0.789952 9.79104 0.787264C10.0343 0.784576 10.2771 0.789568 10.5203 0.798017C10.7636 0.806466 11.0104 0.819907 11.2545 0.83642C11.5555 0.857926 11.8556 0.887752 12.1548 0.925899C12.2302 0.935884 12.2297 0.935116 12.2594 0.876743C12.3832 0.633652 12.512 0.39248 12.6574 0.157837C12.6933 0.107518 12.7243 0.0547223 12.7499 0L12.7948 0C12.8085 0.00470688 12.8226 0.00855727 12.8369 0.0115209C13.1717 0.061445 13.5034 0.122506 13.8337 0.191248C14.3901 0.307191 14.939 0.448199 15.478 0.613682C15.9235 0.751165 16.3614 0.904778 16.7916 1.07452C16.8414 1.09327 16.8834 1.12429 16.9124 1.16361C17.0834 1.38981 17.2525 1.61716 17.4141 1.84834C17.7361 2.30903 18.0309 2.78326 18.2973 3.26926C18.528 3.69016 18.735 4.11925 18.9184 4.55653C19.1817 5.18316 19.3935 5.82478 19.5521 6.47669C19.6262 6.78161 19.6895 7.08807 19.7397 7.39644C19.772 7.59345 19.8016 7.79084 19.8214 7.98939C19.8313 8.08847 19.8411 8.18755 19.8524 8.28624C19.8703 8.44216 19.8802 8.59884 19.8887 8.75514C19.8972 8.91145 19.8945 9.07351 19.8959 9.2325C19.8955 9.25328 19.8994 9.27397 19.9076 9.29356V9.66338C19.8878 9.68104 19.8968 9.70178 19.8968 9.72329C19.8968 9.80547 19.8968 9.88727 19.8968 9.96945C19.8856 10.0816 19.8905 10.1937 19.8829 10.3062C19.869 10.5136 19.8492 10.7202 19.8335 10.9272C19.8334 10.9491 19.827 10.9707 19.8149 10.99C19.8027 11.0092 19.7852 11.0257 19.764 11.0378C19.2435 11.3679 18.7023 11.6734 18.1429 11.953C17.6626 12.1921 17.1683 12.41 16.6619 12.6058C16.223 12.7752 15.7756 12.9261 15.3214 13.0624C15.1576 13.1116 14.9911 13.1542 14.8278 13.2022C14.795 13.2118 14.7766 13.2072 14.7609 13.183C14.7539 13.1743 14.7464 13.1658 14.7385 13.1577C14.5939 12.9822 14.4535 12.8048 14.3197 12.6231C14.1066 12.3339 13.9131 12.0352 13.7305 11.731C13.7067 11.6926 13.7076 11.6903 13.7583 11.6726C13.7695 11.6684 13.7812 11.6649 13.7929 11.6611C14.2941 11.4926 14.78 11.2923 15.2465 11.062C15.2972 11.0371 15.3466 11.0098 15.3955 10.9852C15.3914 10.9764 15.391 10.9714 15.3878 10.9691C15.264 10.8842 15.1392 10.8001 15.0162 10.7145C15.0081 10.7082 14.9977 10.7045 14.9867 10.7041C14.9758 10.7036 14.965 10.7063 14.9561 10.7118C14.8909 10.7374 14.8257 10.763 14.7604 10.7886C14.2831 10.9726 13.7923 11.1299 13.2911 11.2594C12.8755 11.3677 12.4531 11.4561 12.026 11.5244C11.6602 11.5824 11.2922 11.6239 10.9215 11.6507C10.7344 11.6642 10.5463 11.6746 10.3579 11.678C9.95395 11.6853 9.55004 11.6849 9.14614 11.6577C8.86968 11.6392 8.59413 11.6136 8.31947 11.5808C7.86286 11.5248 7.41069 11.4449 6.96549 11.3416C6.28006 11.1837 5.61211 10.9748 4.96929 10.7172C4.95502 10.7101 4.93836 10.7074 4.92205 10.7095C4.90574 10.7116 4.89075 10.7183 4.87953 10.7287C4.77811 10.8032 4.67309 10.875 4.56538 10.943C4.54833 10.9537 4.52679 10.9629 4.5205 10.9833C4.5327 10.9971 4.54918 11.0078 4.56807 11.014C4.76434 11.1139 4.9642 11.2082 5.16765 11.297C5.48138 11.4342 5.80314 11.5575 6.13164 11.6665C6.2021 11.6899 6.20165 11.6899 6.1671 11.7506C6.08587 11.8938 5.99701 12.0336 5.9059 12.173C5.67824 12.5191 5.42833 12.8541 5.15733 13.1765C5.154 13.183 5.14918 13.1888 5.14316 13.1936C5.13714 13.1984 5.13004 13.2022 5.12229 13.2046C5.11455 13.2071 5.1063 13.2081 5.09806 13.2078C5.08981 13.2075 5.08173 13.2057 5.0743 13.2026C4.54653 13.0598 4.02923 12.896 3.5224 12.7114C2.96807 12.5085 2.42762 12.2789 1.90363 12.0236C1.40985 11.7832 0.930542 11.5216 0.46752 11.2398C0.354426 11.1711 0.243127 11.1004 0.130482 11.0301C0.1163 11.0238 0.10415 11.0145 0.0950794 11.0032C0.0860093 10.9919 0.0802925 10.9789 0.0784228 10.9652C0.065408 10.8005 0.0452127 10.6361 0.0357882 10.4714C0.0272613 10.3208 0.011105 10.1707 0.0142465 10.0201C0.0142465 10.004 0.0209783 9.98558 0.00123172 9.97291C0.00841229 9.62728 -0.0122318 9.28165 0.0129001 8.93602C0.0218759 8.80699 0.0254661 8.67757 0.0335443 8.54854C0.0470078 8.33732 0.0681008 8.1261 0.0941303 7.91565C0.12734 7.64145 0.170274 7.36841 0.222932 7.09651C0.28636 6.76164 0.363701 6.42881 0.454954 6.09803C0.599121 5.58277 0.776361 5.07469 0.985867 4.57612C1.21552 4.02935 1.48056 3.49395 1.77977 2.9724C1.89286 2.77386 2.01403 2.57915 2.1388 2.38522C2.40807 1.96355 2.69634 1.55225 3.00361 1.15133C3.02555 1.12139 3.05743 1.09772 3.09516 1.08335C3.22979 1.03304 3.36443 0.980816 3.49637 0.92974C4.53945 0.543498 5.6276 0.253329 6.74244 0.0641332L7.11314 0ZM15.049 7.24974C15.0561 6.94245 14.9723 6.63861 14.8053 6.36647C14.6029 6.0362 14.3117 5.78428 13.9104 5.63182C13.6046 5.51441 13.263 5.48347 12.9352 5.54349C12.5769 5.60627 12.253 5.76903 12.0143 6.00625C11.649 6.35687 11.483 6.77431 11.4699 7.24129C11.4683 7.343 11.477 7.44465 11.496 7.54506C11.5727 7.97479 11.7832 8.34577 12.1665 8.63725C12.5031 8.8934 12.8944 9.02358 13.3504 9.00323C13.564 8.99421 13.7732 8.94795 13.9652 8.86728C14.331 8.71249 14.6266 8.45833 14.8058 8.14454C14.9716 7.86793 15.0552 7.56059 15.049 7.24974V7.24974ZM4.85799 7.25819C4.85534 7.41756 4.87737 7.57652 4.92351 7.73093C5.04064 8.12303 5.27042 8.4556 5.6474 8.70637C6.00015 8.94063 6.40002 9.0447 6.84521 8.99708C7.29041 8.94946 7.6445 8.76667 7.93082 8.47979C8.26203 8.14646 8.41372 7.75398 8.43705 7.32232C8.44742 7.14829 8.42806 6.9739 8.37961 6.80465C8.22971 6.28544 7.90031 5.88297 7.32631 5.64449C7.05631 5.53269 6.75389 5.49116 6.45656 5.52506C6.01496 5.57076 5.65458 5.75125 5.36871 6.03889C5.01955 6.39066 4.86382 6.80235 4.85799 7.25819Z" fill="black" fill-opacity="0.8"/>
</svg>
