<svg width="20" height="15" viewBox="0 0 20 15" fill="none" xmlns="http://www.w3.org/2000/svg">
<path d="M6.35589 1.09855C7.00786 1.2451 7.63598 1.38487 8.26364 1.52743C8.76044 1.64004 8.75951 1.64123 8.76278 1.21156C8.75676 1.03722 8.76175 0.862722 8.77773 0.688839C8.83288 0.285519 9.20676 0 9.65963 0C10.1027 0 10.4831 0.295901 10.5476 0.692832C10.5518 0.717591 10.5509 0.742748 10.5523 0.767506C10.5766 1.20118 10.3569 1.73468 10.6331 2.04136C10.9135 2.35443 11.4169 2.57766 11.7945 2.86757C12.7998 3.63947 13.6878 4.48963 14.265 5.55144C14.765 6.4699 14.701 7.358 14.1023 8.22693C13.5798 8.98566 12.9124 9.63856 12.1665 10.2407C11.8721 10.4783 11.5295 10.3705 11.208 10.3793C10.5537 10.3973 10.5448 10.3849 10.5565 10.9272C10.563 11.2355 10.3995 11.6324 10.6238 11.8281C10.8481 12.0237 11.3192 11.856 11.6781 11.8936C12.604 11.9902 13.3391 11.7043 13.9154 11.0989C14.2603 10.7363 14.7019 10.5466 15.2305 10.4276C16.5274 10.1357 17.8145 9.81186 19.0984 9.48042C19.4218 9.39696 19.4975 9.48442 19.4788 9.7292C19.4771 9.74168 19.4771 9.75427 19.4788 9.76674C19.5723 10.2599 19.4199 10.5914 18.802 10.7874C17.9094 11.0685 17.3855 11.7119 16.9181 12.3875C16.5256 12.9546 16.1148 13.5136 15.6095 14.0144C14.9959 14.6206 14.2472 14.9564 13.2774 14.9508C10.6299 14.9348 7.98229 14.9532 5.33472 14.9432C2.46703 14.932 0.175113 13.0808 0.00359353 10.6788C-0.022111 10.3214 0.0839788 10.2056 0.520489 10.2136C1.80712 10.2379 3.09515 10.2288 4.38225 10.218C4.70566 10.2152 4.8669 10.2415 4.87952 10.5898C4.90616 11.3157 5.59924 11.8628 6.4531 11.8856C7.12516 11.9031 7.79909 11.8816 8.47161 11.8936C8.71043 11.8975 8.77399 11.8165 8.76605 11.6308C8.74876 11.2315 8.91513 10.7287 8.68893 10.4672C8.46834 10.2124 7.84162 10.4085 7.39436 10.3849C7.19059 10.3745 6.98496 10.3849 6.78025 10.3821C6.65267 10.3801 6.49984 10.4188 6.41618 10.3058C6.32645 10.1824 6.46946 10.099 6.53676 10.0147C6.94897 9.49999 7.30369 8.9573 7.65187 8.41062C8.42721 7.19308 8.37768 5.92721 7.97622 4.63898C7.63411 3.54163 7.12984 2.49819 6.51106 1.49388C6.44469 1.38646 6.35589 1.28543 6.35589 1.09855Z" fill="black" fill-opacity="0.8"/>
<path d="M3.3683 8.71411C2.73971 8.71411 2.11065 8.71091 1.48159 8.71411C1.17406 8.7161 1.06751 8.64982 1.26193 8.39185C2.59296 6.62391 3.91963 4.85357 5.24193 3.08083C5.40784 2.85841 5.53263 2.86759 5.65134 3.10918C6.1257 4.07515 6.53931 5.05349 6.64026 6.11091C6.73373 7.07128 6.17665 7.8336 5.65274 8.60988C5.56441 8.74046 5.39756 8.71091 5.25502 8.71171C4.62642 8.7153 3.99736 8.71411 3.3683 8.71411Z" fill="black" fill-opacity="0.8"/>
</svg>
