<svg width="20" height="16" viewBox="0 0 20 16" fill="none" xmlns="http://www.w3.org/2000/svg">
<path d="M6.35589 1.15144C7.00786 1.29894 7.63598 1.43961 8.26364 1.5831C8.76044 1.69644 8.75951 1.69764 8.76278 1.26518C8.75676 1.08971 8.76175 0.914088 8.77773 0.739078C8.83288 0.333145 9.20677 0.0457764 9.65963 0.0457764C10.1027 0.0457764 10.4831 0.343595 10.5476 0.743097C10.5518 0.768016 10.5509 0.793336 10.5523 0.818255C10.5766 1.25473 10.3569 1.79169 10.6331 2.10036C10.9135 2.41546 11.4169 2.64013 11.7945 2.93192C12.7998 3.70882 13.6878 4.5645 14.265 5.63318C14.765 6.55759 14.701 7.45144 14.1023 8.32601C13.5798 9.08965 12.9124 9.74678 12.1665 10.3529C11.8721 10.592 11.5295 10.4835 11.208 10.4923C10.5537 10.5104 10.5448 10.498 10.5565 11.0438C10.563 11.354 10.3995 11.7535 10.6238 11.9505C10.8481 12.1474 11.3192 11.9786 11.6781 12.0164C12.604 12.1136 13.3391 11.8259 13.9154 11.2166C14.2603 10.8516 14.7019 10.6607 15.2305 10.541C16.5274 10.2472 17.8145 9.92121 19.0984 9.58762C19.4218 9.50362 19.4975 9.59164 19.4788 9.83801C19.4771 9.85056 19.4771 9.86324 19.4788 9.87579C19.5723 10.3722 19.4199 10.7057 18.802 10.9031C17.9094 11.186 17.3855 11.8335 16.9181 12.5136C16.5256 13.0843 16.1148 13.6469 15.6095 14.1509C14.9959 14.7611 14.2472 15.0991 13.2774 15.0934C10.6299 15.0774 7.98229 15.0958 5.33472 15.0858C2.46703 15.0745 0.175113 13.2113 0.00359353 10.7938C-0.022111 10.434 0.0839788 10.3175 0.520489 10.3255C1.80712 10.35 3.09515 10.3408 4.38225 10.33C4.70566 10.3271 4.8669 10.3537 4.87952 10.7041C4.90616 11.4348 5.59925 11.9854 6.4531 12.0083C7.12516 12.026 7.79909 12.0043 8.47161 12.0164C8.71043 12.0204 8.77399 11.9388 8.76605 11.7519C8.74876 11.35 8.91513 10.844 8.68893 10.5807C8.46834 10.3243 7.84162 10.5217 7.39436 10.498C7.19059 10.4875 6.98496 10.498 6.78025 10.4951C6.65267 10.4931 6.49984 10.5321 6.41618 10.4184C6.32645 10.2942 6.46946 10.2102 6.53676 10.1254C6.94897 9.60731 7.30369 9.06111 7.65187 8.51089C8.42721 7.28545 8.37768 6.01139 7.97622 4.71481C7.63411 3.61035 7.12984 2.56015 6.51106 1.54934C6.44469 1.44122 6.35589 1.33954 6.35589 1.15144Z" fill="white" fill-opacity="0.8"/>
<path d="M3.3683 8.81634C2.73971 8.81634 2.11065 8.81312 1.48159 8.81634C1.17406 8.81835 1.06751 8.75163 1.26193 8.49199C2.59296 6.71259 3.91963 4.93079 5.24193 3.14656C5.40784 2.9227 5.53263 2.93194 5.65134 3.1751C6.1257 4.14732 6.53931 5.13201 6.64026 6.19627C6.73373 7.16287 6.17665 7.93012 5.65274 8.71144C5.56441 8.84286 5.39756 8.81312 5.25502 8.81392C4.62643 8.81754 3.99736 8.81634 3.3683 8.81634Z" fill="white" fill-opacity="0.8"/>
</svg>
