<svg width="18" height="15" viewBox="0 0 18 15" fill="none" xmlns="http://www.w3.org/2000/svg">
<path d="M16.1467 3.6318C16.1579 3.79018 16.1579 3.95135 16.1579 4.10974C16.1579 8.96417 12.4457 14.5577 5.6632 14.5577C3.57265 14.5577 1.63281 13.9548 0 12.91C0.29586 12.9433 0.583346 12.9544 0.89037 12.9544C2.61529 12.9544 4.20344 12.3737 5.47062 11.3844C3.84897 11.3511 2.48969 10.2924 2.02078 8.83635C2.24965 8.86969 2.47852 8.89192 2.71856 8.89192C3.05071 8.89192 3.38006 8.84746 3.68987 8.76688C1.99845 8.4251 0.731276 6.94682 0.731276 5.16287V5.11841C1.22252 5.39073 1.7947 5.56301 2.39758 5.58524C1.40394 4.92668 0.753605 3.8013 0.753605 2.52586C0.753605 1.84507 0.935029 1.21708 1.25601 0.672452C3.07303 2.90099 5.79997 4.35704 8.86184 4.51543C8.80602 4.24311 8.76973 3.95969 8.76973 3.67348C8.76973 1.65056 10.4137 0 12.4596 0C13.523 0 14.4804 0.444596 15.1558 1.15873C15.9904 1.00034 16.7886 0.691903 17.4976 0.272315C17.2241 1.12538 16.6407 1.8423 15.876 2.29523C16.6184 2.21464 17.3385 2.0118 18 1.72559C17.4948 2.46195 16.8668 3.10939 16.1467 3.6318Z" fill="white" fill-opacity="0.8"/>
</svg>
